<svg xmlns="http://www.w3.org/2000/svg" xmlns:xlink="http://www.w3.org/1999/xlink" width="634.877" height="322.854" viewBox="0 0 634.877 322.854">
  <defs>
    <linearGradient id="a" x1="327.223" y1="249.705" x2="329.867" y2="46.149" gradientUnits="userSpaceOnUse">
      <stop offset="0" stop-color="#e8d197"/>
      <stop offset="1" stop-color="#fef5da"/>
    </linearGradient>
    <linearGradient id="b" x1="343.983" y1="63.387" x2="344.644" y2="86.518" gradientUnits="userSpaceOnUse">
      <stop offset="0" stop-color="#fff"/>
      <stop offset="1" stop-color="#fff" stop-opacity="0"/>
    </linearGradient>
    <linearGradient id="c" x1="129.784" y1="25.359" x2="131.767" y2="76.248" xlink:href="#b"/>
    <linearGradient id="d" x1="455.435" y1="228.449" x2="433.625" y2="40.589" xlink:href="#a"/>
    <linearGradient id="e" x1="59.759" y1="429.708" x2="23.002" y2="113.102" xlink:href="#a"/>
    <linearGradient id="f" x1="280.75" y1="72.635" x2="291.986" y2="108.323" gradientUnits="userSpaceOnUse">
      <stop offset="0" stop-color="#2f1829"/>
      <stop offset="1" stop-color="#3b223c"/>
    </linearGradient>
  </defs>
  <g style="isolation: isolate">
    <g>
      <g>
        <path d="M100.96,254.385s9.825,17.418,80.541,25.348,106.405,34.367,151.346,42.3,100.456-44.28,148.7-36.349,106.4-22.28,111.03-31.3Z" fill="#99764d"/>
        <path d="M611.579,250.927H601.126l-460.625.084s-4.654-3.676-11.914-9.985c-3.115-2.707-6.707-5.9-10.619-9.5q-2.128-1.954-4.376-4.07c-13.721-12.9-30.316-29.959-43.8-48.116-14.2-19.122-24.957-39.471-25.259-57.5-.009-.4-.014-.806-.009-1.2.158-17.448,3.593-36.258,12.085-53.715a105.112,105.112,0,0,1,20.41-28.666C99.871,15.492,136.843-.449,194.226.01c66.912.537,136.315,25.485,198.981,60h0c13.109,7.218,25.921,14.857,38.358,22.779q13.8,8.789,26.942,17.986a786.7,786.7,0,0,1,66.69,52.158C570.3,192.353,601.965,229.641,611.579,250.927Z" fill="url(#a)"/>
        <path d="M611.579,250.927H601.126l-460.625.084s-4.654-3.676-11.914-9.985c-3.115-2.707-6.707-5.9-10.619-9.5q-2.128-1.954-4.376-4.07c-13.721-12.9-30.316-29.959-43.8-48.116-14.2-19.122-24.957-39.471-25.259-57.5,5.725-3.036,19.131-9.117,30.228-6.341,14.542,3.634,17.647,20.911,17.647,20.911s10.416-8.4,21.333-4.413,12.571,15.552,12.571,15.552,12.863-6.634,24.443-3.811,20.873,14.046,8.46,21.324c-12.266,7.184-26.149,1.64-26.478,1.511.167.218,5.043,6.754-3.792,14.805-8.988,8.187,25.472,15.279,25.472,15.279s1.3-22.445,24.438-19.914,41.789,15.023,41.789,15.023,1.168-34.3,19.673-40.578,28.021,13.874,28.021,13.874,40.982-26.543,54.921-1.8,14.49,29.426,14.49,29.426,11.862-64.966,49.081-61.99,44.125,28.781,43.48,31.41,10.69-16.679,21.875-6.2,17.68,25.111,17.68,25.111l58.893-6.949s-6-11.616-3.56-21.142C570.3,192.353,601.965,229.641,611.579,250.927Z" fill="#66b345"/>
        <path d="M431.57,82.785H257.5c21.81,0,26.107-7.931,38.994-12.224.621-.2,1.233-.384,1.84-.533,12.057-3.054,22.009,3.82,29.718,3.5,8.093-.329,17.017-8.924,26.269-11.9,3.143-1.01,6.4-.686,9.735.1,6.5,1.539,13.317,4.844,20.243,3.532,6.026-1.14,6.475-3.578,8.9-5.266h0C406.321,67.224,419.133,74.863,431.57,82.785Z" fill="url(#b)" style="mix-blend-mode: hard-light"/>
        <path d="M206.194,66.923H56.613a105.032,105.032,0,0,1,20-28.258l.408-.408a71.188,71.188,0,0,1,11.361-1.405c23.724-.992,28.745,16.855,28.745,16.855s6.211-8.261,17.447-4.3,7.274,8.923,16.192,11.565a9.766,9.766,0,0,0,3.653.315c8.506-.732,19.246-10.045,28.73-6.591C194.059,58.662,186.939,66.923,206.194,66.923Z" fill="url(#c)" style="mix-blend-mode: hard-light"/>
        <path d="M631.5,257.759H75.166a3.375,3.375,0,0,1-3.374-3.374h0a3.374,3.374,0,0,1,3.374-3.374H631.5a3.374,3.374,0,0,1,3.374,3.374h0A3.375,3.375,0,0,1,631.5,257.759Z" fill="#898a29"/>
        <path d="M364.06,61.74c-9.92,2.54-21.1,13.309-28.351,14.88-9.141,1.979-19.715-2.647-29.959-5.224a50.569,50.569,0,0,0-7.412-1.368c12.057-3.054,22.009,3.82,29.718,3.5,8.093-.329,17.017-8.924,26.269-11.9C357.468,60.628,360.722,60.952,364.06,61.74Z" fill="#fff" opacity="0.25" style="mix-blend-mode: overlay"/>
        <path d="M154.421,61.29c-8.923,4.664-13.058-5.947-20.837-9.423-8.918-3.987-15.2,8.45-17.841,6.3s-3.8-11.4-13.879-16.191c-5.72-2.717-16.766-3.31-25.249-3.31l.408-.408a71.188,71.188,0,0,1,11.361-1.405c23.724-.992,28.745,16.855,28.745,16.855s6.211-8.261,17.447-4.3,7.274,8.923,16.192,11.565A9.766,9.766,0,0,0,154.421,61.29Z" fill="#fff" opacity="0.25" style="mix-blend-mode: overlay"/>
        <path d="M394.616,39.58s62.455,55.763,87.239,48.163S350.915,6.418,394.616,39.58Z" fill="url(#d)"/>
        <path d="M34.724,96.259s-21.285,37.379,15.861,76.8c8.592,9.118,9.583,26.067-7.6,27.01S-.965,159.044.027,125.339,40.433,76.376,34.724,96.259Z" fill="url(#e)"/>
        <path d="M460.675,294.934s-35.964,7.931-45.216,20.157c-4.529,5.984,13.443,5.085,28.735-1.487C460.147,306.749,473.3,294.09,460.675,294.934Z" fill="#2f1829"/>
        <path d="M199.841,292.621s14-.331,26.331,4.461,14.975,19.5,2.749,21.314-40.071-14.477-38.5-21.149C191.58,292.342,199.841,292.621,199.841,292.621Z" fill="#2f1829"/>
      </g>
      <path d="M135.978,212.9l-7.908,27.428c-3.115-2.707-6.707-5.9-10.62-9.5l-1.715-3.2s3.009-35.17-6.93-49.257c9.517,6.647,14.064,33.255,14.064,33.255L121.39,213.6h1.479a37.053,37.053,0,0,1,3.273,11.143c6.091-31.646.171-46.938,0-47.356a47.918,47.918,0,0,1,7.811,15.668c2.911,9.777,1.822,15.932,1.822,15.932l-2.364,3.908Z" fill="#66b345"/>
      <g>
        <g>
          <path d="M375.781,239.879a40.993,40.993,0,0,0,4.491-4.784c.337-.438.651-.882.928-1.319l1.17,1.429-.4-2.248s8.059-2.824,10.965-10.587c-1.77,8.55-5.18,14.878-9.194,17.829a8.511,8.511,0,0,1-5.528,1.833C371.973,241.7,375.781,239.879,375.781,239.879Z" fill="#f3475c"/>
          <g opacity="0.25" style="mix-blend-mode: overlay">
            <path d="M392.935,222.369a50.072,50.072,0,0,1-2.491,6.479A39.014,39.014,0,0,1,387,234.886a20.2,20.2,0,0,1-4.838,5,10.581,10.581,0,0,1-6.648,2.012.231.231,0,0,1-.219-.243.233.233,0,0,1,.244-.22h.006a10.184,10.184,0,0,0,6.422-1.837,19.934,19.934,0,0,0,4.845-4.851,38.824,38.824,0,0,0,3.526-5.952A50.106,50.106,0,0,0,392.935,222.369Z" fill="#fff"/>
          </g>
          <path d="M375.781,239.879a40.993,40.993,0,0,0,4.491-4.784,12.97,12.97,0,0,0,3.47,5.1,8.511,8.511,0,0,1-5.528,1.833C371.973,241.7,375.781,239.879,375.781,239.879Z" opacity="0.25" style="mix-blend-mode: overlay"/>
        </g>
        <path d="M313.158,224.426s-18.627-17.455-15.612-40.808c1.914,10.814,9.786,23.722,9.786,23.722l-.977,2.915,3.5-.679s4.409-26.65-5.51-39.476c13.383,13.783,13.225,34.3,13.225,34.3l-2.519,3.778,2.519,1.105s-2.933,9.96,5.776,6.133,14.22-36.9,6.348-45.321c9.447,8.116,7.872,36,7.872,36.935s-4.093,4.672-4.093,4.672l3.149,2.254S334.635,232.841,313.158,224.426Z" style="mix-blend-mode: overlay"/>
        <path d="M398.474,249.266S392,243.2,393.05,235.088a29.4,29.4,0,0,0,3.4,8.242l-.339,1.013,1.214-.236s1.532-9.26-1.914-13.716c4.65,4.789,4.595,11.919,4.595,11.919l-.875,1.312.875.384s-1.019,3.461,2.007,2.131,4.94-12.822,2.205-15.746c3.282,2.819,2.735,12.506,2.735,12.832s-1.422,1.624-1.422,1.624l1.094.783S405.936,252.19,398.474,249.266Z" style="mix-blend-mode: overlay"/>
        <g>
          <path d="M373.732,240.361l-5.26.366c3.794-3.405,3.23-6.671,2.657-8.167a4.538,4.538,0,0,0-.409-.853l2.478-.4-1.387-1.893s4.5-5.2,6.189-19.048a23.564,23.564,0,0,1,.441,23.236A28.457,28.457,0,0,1,373.732,240.361Z" fill="#ffca51"/>
          <g opacity="0.25" style="mix-blend-mode: overlay">
            <path d="M378,210.368a48.088,48.088,0,0,1,1.019,7.805,45.593,45.593,0,0,1-.258,7.878A33.261,33.261,0,0,1,376.8,233.7a23.752,23.752,0,0,1-4.258,6.668.232.232,0,1,1-.344-.31v0l.01-.011a23.335,23.335,0,0,0,4.27-6.479,32.982,32.982,0,0,0,2.053-7.543,45.461,45.461,0,0,0,.372-7.842A48.044,48.044,0,0,0,378,210.368Z" fill="#fff"/>
          </g>
          <path d="M373.732,240.361l-5.26.366c3.794-3.405,3.23-6.671,2.657-8.167a9.484,9.484,0,0,0,7.312,1.042A28.457,28.457,0,0,1,373.732,240.361Z" opacity="0.25" style="mix-blend-mode: overlay"/>
        </g>
        <path d="M408,250.311H322.746l13.66-11.088s18.194-9.359,25.783-7.408,6.378,8.335,6.378,8.335a10.718,10.718,0,0,1,1.233-1.108c1.687-1.312,4.886-3.1,8.131-1.163,4.621,2.753,3.893,6.387,3.861,6.563.148-.148,2.925-2.836,5.173-1.979a6.18,6.18,0,0,1,3.213,3.416s2.952-4.144,5.488-2.623a11.9,11.9,0,0,1,3.963,4.607S403.708,243.84,408,250.311Z" fill="#66b345"/>
        <path d="M391.55,250.311h-68.8l13.66-11.088s18.194-9.359,25.783-7.408,6.378,8.335,6.378,8.335a10.718,10.718,0,0,1,1.233-1.108,16.653,16.653,0,0,1-.018,4.214s3.852-1.451,6.387.639,1.762,3.968,1.762,3.968a7.977,7.977,0,0,1,7.268,0A55.459,55.459,0,0,0,391.55,250.311Z" fill="#70871c"/>
      </g>
      <g>
        <path d="M237.027,190.3V96.733h-35.55v.32L158.7,165.871l-18.718,30.117,2.109,21.731h59.385v32.592h35.55V217.719h15.607V190.3Zm-35.55,0H173.845l25.416-43.671,2.216-3.583Z" fill="#4e5129"/>
        <path d="M360.854,109.5Q346.829,92.512,321.3,92.515t-39.5,16.878q-13.976,16.875-13.975,47.991v28.058q0,30.907,14.026,47.889t39.661,16.98q25.422,0,39.4-16.878t13.976-47.991V157.49Q374.885,126.479,360.854,109.5Zm-57.378,41.028q.312-15.4,4.482-22.992t13.341-7.6q9.387,0,13.717,8.177t4.32,24.734v37.969q-.105,16.563-4.427,24.313t-13.4,7.756q-9.386,0-13.711-7.964-4.082-7.509-4.311-23.233c-.009-.631-.014-1.275-.014-1.924Z" fill="#4e5129"/>
        <path d="M487.216,190.3V96.733H451.672v.32l-61.494,98.935,2.109,21.731h59.385v32.592h35.544V217.719h15.613V190.3Zm-35.544,0H424.035l25.421-43.671,2.216-3.583Z" fill="#4e5129"/>
        <path d="M230.412,96.733c-4.756,6.082-21.068,3.908-24.735,4.3-4.167.44-33.065,51.333-37.028,57.79-2.573,4.19-7.092,6.174-9.948,7.05l42.776-68.818v-.32Z" fill="#fff" opacity="0.25" style="mix-blend-mode: overlay"/>
        <path d="M487.216,96.733v70.844c-9.1-7.556-4.088-63.376-5.525-65.225-1.539-1.98-20.489-.659-24.012-1.762a12.039,12.039,0,0,1-5.224-3.857Z" fill="#fff" opacity="0.25" style="mix-blend-mode: overlay"/>
        <path d="M328.8,231.672c-28.638,1.321-25.328-39.963-25.328-39.963l.014-.018q.229,15.721,4.311,23.233,4.325,7.96,13.711,7.964,9.068,0,13.4-7.756t4.427-24.313V152.85q0-16.561-4.32-24.734T321.3,119.939s17.726-2.165,24.953,24.053S357.442,230.351,328.8,231.672Z" fill="#4e5129"/>
        <path d="M291.133,109.38s-11.9-8.592-13.218-22.03c8.592,2.423,13.218,12.852,13.218,12.852s-2.2-9.577,0-16.115C297.522,93.3,295.76,100.788,291.133,109.38Z" fill="url(#f)"/>
      </g>
      <path d="M592.062,252.267c-.661-.5-21.479-56.672,2.478-88.725a189.044,189.044,0,0,0-1.487,41.142l-3.139,3.138,3.47.991s2.337,31.419,3.469,35.05c-2.551-23.478,3.756-37.2,3.756-37.2s-1.112,16.665,1.036,22.789l-1.657,2.214,1.657-.337s-1.157,10.085,0,13.114c0,0,13.383-40,7.105-57.563,8.261,12.842,5.948,34.271,5.948,34.271L612.55,222l1.322.964s-3.47,22.856-11.4,29.3" fill="#66b345"/>
      <g>
        <path d="M451.791,245.649s-18.551-1.681-26.01,3.526c3.531-5,17.584-7.333,17.584-7.333l1.039.785,0-.779a19.575,19.575,0,0,1,5.89-1.7c-16.918-3.347-24.994-.125-24.994-.125a25.252,25.252,0,0,1,8.293-4.085,20.064,20.064,0,0,1,8.413-.917l2.055,1.258.007-1.353,17.98,5.281" style="mix-blend-mode: overlay"/>
        <path d="M523.218,246.65s-1.981-12.557,8.262-21.259C531.37,235.525,528.533,244.226,523.218,246.65Z" fill="none" stroke="#1f3247" stroke-miterlimit="10" stroke-width="0.927"/>
        <g>
          <path d="M454.184,238.384l-2.016,4.872c-1.359-4.914-4.534-5.864-6.128-6.017a4.6,4.6,0,0,0-.946-.014l.746-2.4-2.313.4s-2.647-6.346-14.3-14.027a23.563,23.563,0,0,1,21,9.957A28.466,28.466,0,0,1,454.184,238.384Z" fill="#ffca51"/>
          <g opacity="0.25" style="mix-blend-mode: overlay">
            <path d="M429.233,221.2a47.978,47.978,0,0,1,7.443,2.565,45.664,45.664,0,0,1,6.938,3.741,33.26,33.26,0,0,1,5.971,5.163,23.724,23.724,0,0,1,4.072,6.783.231.231,0,1,1-.431.169v0l0-.013a23.3,23.3,0,0,0-3.9-6.71,32.984,32.984,0,0,0-5.838-5.2,45.441,45.441,0,0,0-6.854-3.826A47.987,47.987,0,0,0,429.233,221.2Z" fill="#fff"/>
          </g>
          <path d="M454.184,238.384l-2.016,4.872c-1.359-4.914-4.534-5.864-6.128-6.017a9.481,9.481,0,0,0,4.19-6.082A28.466,28.466,0,0,1,454.184,238.384Z" opacity="0.25" style="mix-blend-mode: overlay"/>
        </g>
        <g>
          <path d="M531.48,215.035c-19.167,15.751-24.123,23.576-24.123,23.576l-3.416-1.488s.005.107.009.292c.023.853.084,3.333-.009,4.158-.074.714-6.907,4.39-10.8,6.429-1.557.816-2.642,1.373-2.642,1.373l-3.2-3.2.325-.625,1.664-3.236a79.36,79.36,0,0,1,11.853-12.854C508.59,222.925,519.118,216.134,531.48,215.035Z" fill="#ffadae"/>
          <g opacity="0.25" style="mix-blend-mode: overlay">
            <path d="M489.24,248.176a113.408,113.408,0,0,1,8.5-10.8,103.848,103.848,0,0,1,9.74-9.681,67.841,67.841,0,0,1,11.167-7.967,39.551,39.551,0,0,1,12.833-4.69,39.49,39.49,0,0,0-12.776,4.791,67.617,67.617,0,0,0-11.071,8.041A103.527,103.527,0,0,0,498,237.605a112.837,112.837,0,0,0-8.374,10.826l0,.006a.232.232,0,1,1-.385-.259Z" fill="#fff"/>
          </g>
          <path d="M503.941,241.573c-.074.714-6.907,4.39-10.8,6.429a52.63,52.63,0,0,1-5.516-2.456l1.664-3.236a79.36,79.36,0,0,1,11.853-12.854,24.641,24.641,0,0,0,2.8,7.959C503.973,238.268,504.034,240.748,503.941,241.573Z" opacity="0.25" style="mix-blend-mode: overlay"/>
        </g>
        <g>
          <path d="M519.419,204.684c-13.716,11.408-19.993,20.952-22.58,25.824a25.355,25.355,0,0,0-1.6,3.477l-2.976-1.1,1.215,2.748-4.358,8.812v0l-1.9,3.857V232.946c.584-1.131,1.386-2.614,2.415-4.31a70.6,70.6,0,0,1,8.061-10.917,52.314,52.314,0,0,1,5.137-4.965A34.648,34.648,0,0,1,519.419,204.684Z" fill="#f3475c"/>
          <g opacity="0.25" style="mix-blend-mode: overlay">
            <path d="M487,239.057a64.223,64.223,0,0,1,5.387-10.909,66.187,66.187,0,0,1,7.272-9.729,52.438,52.438,0,0,1,9.067-8.054l2.517-1.7L513.9,207.2c.445-.24.883-.495,1.333-.723l1.4-.6,2.79-1.195-2.778,1.221-1.388.61c-.449.233-.884.492-1.326.737l-2.643,1.486-2.5,1.722a52.225,52.225,0,0,0-8.961,8.114,65.88,65.88,0,0,0-7.148,9.754,63.992,63.992,0,0,0-5.244,10.876l0,.012a.232.232,0,0,1-.436-.157Z" fill="#fff"/>
          </g>
          <path d="M495.24,233.985l-2.976-1.1,1.215,2.748-4.358,8.812v0l-1.9.274V232.946c.584-1.131,1.386-2.614,2.415-4.31a8.932,8.932,0,0,0,7.208,1.872A25.355,25.355,0,0,0,495.24,233.985Z" opacity="0.25" style="mix-blend-mode: overlay"/>
        </g>
        <path d="M536.876,250.311h-49.66v-6.967a6.128,6.128,0,0,1,2.735-2.7,6.863,6.863,0,0,1,2.234-.681,4.556,4.556,0,0,1,4.956,2.559s.908-2.652,4.626-2.981c3.606-.315,5.808,5.312,5.943,5.651-.028-.288-.278-3.417,2.484-3.616,2.893-.209,2.893,3.634,2.893,3.634s2.313-2.512,5.284-2.355a4.04,4.04,0,0,1,3.634,3.06,4.879,4.879,0,0,1,5.289-1.613C530.929,245.161,531.341,250.311,536.876,250.311Z" fill="#982245"/>
        <path d="M521.366,250.311h-34.15v-6.967a6.128,6.128,0,0,1,2.735-2.7c1.488.112,4.112.594,5.206,2.615a14.3,14.3,0,0,1,1.682,5.623s3.333-4.78,5.99-3.959,4.06,3.959,4.06,3.959,2.8-2.972,5.159-1.98C513.235,247.4,517.458,248.92,521.366,250.311Z" fill="#66b345"/>
        <path d="M423.346,252.267c-.185-.139-6.039-15.935.7-24.948a53.149,53.149,0,0,0-.418,11.568l-.883.883.976.278s.657,8.835.976,9.856c-.718-6.6,1.056-10.459,1.056-10.459s-.313,4.686.291,6.408l-.466.623.466-.095a13.589,13.589,0,0,0,0,3.687s3.763-11.248,2-16.186c2.323,3.611,1.672,9.637,1.672,9.637l-.6.239.372.271s-.976,6.426-3.206,8.238" fill="#2f1829"/>
      </g>
      <g>
        <path d="M196.644,247.135s-29.263-19.74-46.4-17.911c10.434-5.082,35.892,3.893,35.892,3.893l1.007,2.251.718-1.29a37.087,37.087,0,0,1,11.329,2.563c-25.028-21.015-41.379-23.045-41.379-23.045a47.826,47.826,0,0,1,17.5.8c9.958,2.216,14.8,6.164,14.8,6.164l2.262,3.965,1.248-2.24,25.024,25.2" style="mix-blend-mode: overlay"/>
        <path d="M173.843,249.458s-12.356-2.643-20.121-11.9C166.94,238.884,172.651,243.675,173.843,249.458Z" fill="none" stroke="#1f3247" stroke-miterlimit="10" stroke-width="0.927"/>
        <g>
          <path d="M215.18,193.8c-1.057,24.787,1.465,33.7,1.465,33.7l-3.387,1.552s.082.067.223.188c.651.552,2.538,2.161,3.091,2.781.482.531-1.338,8.073-2.414,12.331-.432,1.705-.741,2.884-.741,2.884l-4.52.245-.25-.659-1.3-3.4a79.327,79.327,0,0,1-1.666-17.4C205.784,216.112,207.75,203.74,215.18,193.8Z" fill="#ffadae"/>
          <g opacity="0.25" style="mix-blend-mode: overlay">
            <path d="M211.682,247.374a113.242,113.242,0,0,1-2.374-13.538,103.9,103.9,0,0,1-.712-13.715,67.827,67.827,0,0,1,1.516-13.633,39.568,39.568,0,0,1,5.069-12.688,39.513,39.513,0,0,0-4.956,12.713,67.637,67.637,0,0,0-1.4,13.611,103.449,103.449,0,0,0,.825,13.671,112.958,112.958,0,0,0,2.477,13.461l0,.007a.232.232,0,0,1-.45.113Z" fill="#fff"/>
          </g>
          <path d="M216.572,232.018c.482.531-1.338,8.073-2.414,12.331a52.616,52.616,0,0,1-5.511,2.47l-1.3-3.4a79.327,79.327,0,0,1-1.666-17.4,24.631,24.631,0,0,0,7.8,3.222C214.132,229.789,216.019,231.4,216.572,232.018Z" opacity="0.25" style="mix-blend-mode: overlay"/>
        </g>
        <g>
          <path d="M232.664,210.871c-6.123,10.685-7.882,18.372-8.381,22.146a17.425,17.425,0,0,0-.2,2.635l-2.191,0,1.448,1.486-.695,6.75v0l-.3,2.954-3.7-9.934c.105-.872.266-2.025.523-3.37a48.746,48.746,0,0,1,2.583-9.005,36.056,36.056,0,0,1,2.126-4.449A23.912,23.912,0,0,1,232.664,210.871Z" fill="#f3475c"/>
          <g opacity="0.25" style="mix-blend-mode: overlay">
            <path d="M219.905,240.922a44.308,44.308,0,0,1,.874-8.367,45.688,45.688,0,0,1,2.378-8.049,36.2,36.2,0,0,1,3.942-7.392l1.222-1.705,1.373-1.586c.23-.263.452-.533.69-.789l.76-.721,1.52-1.442-1.5,1.462-.749.731c-.233.259-.452.532-.678.8l-1.347,1.6-1.195,1.717a36.017,36.017,0,0,0-3.822,7.412,45.4,45.4,0,0,0-2.253,8.029,44.109,44.109,0,0,0-.752,8.286v.014a.232.232,0,1,1-.463.005Z" fill="#fff"/>
          </g>
          <path d="M224.087,235.652l-2.191,0,1.448,1.486-.695,6.75v0l-1.166.636-2.838-7.616c.105-.872.266-2.025.523-3.37a6.161,6.161,0,0,0,5.114-.527A17.425,17.425,0,0,0,224.087,235.652Z" opacity="0.25" style="mix-blend-mode: overlay"/>
        </g>
        <path d="M253.682,250.227l-12.423.014-53.98.051-16.044.019s1.322-4.325,7.6-6.3,8.093,2.123,8.093,2.123-.338-8.214,7.106-11.037,10.741,6.6,10.741,6.6,1.483-4.645,9.414-5.043,7.106,5.794,7.106,5.794a14.511,14.511,0,0,1,12.558-3.871c8.093,1.141,8.923,7.561,8.923,7.561S249.881,244.058,253.682,250.227Z" fill="#66b345"/>
        <path d="M241.259,250.241l-53.98.051c2.8-2.484,7.352-5.711,12.21-5.762,7.931-.083,9.21,2.786,9.21,2.786s4.891-5.182,8.743-4.3,4.023,5.015,4.023,5.015S233.786,245.175,241.259,250.241Z" opacity="0.25" style="mix-blend-mode: overlay"/>
        <path d="M262.605,253.685s-8.977-15.883-6.279-31.315a53.137,53.137,0,0,0,9.087,20.069l-2.643,2.091h2.643l5.618,10.711-7.605-1.556v.73Z" fill="#2f1829"/>
      </g>
    </g>
  </g>
</svg>
