<?xml version="1.0" encoding="UTF-8"?>
<svg width="43px" height="72px" viewBox="0 0 43 72" version="1.1" xmlns="http://www.w3.org/2000/svg" xmlns:xlink="http://www.w3.org/1999/xlink">
    <title></title>
    <g id="Homepage" stroke="none" stroke-width="1" fill="none" fill-rule="evenodd">
        <g id="CI---Homepage-v7-palette-1" transform="translate(-190.000000, -591.000000)" fill="#FFFFFF" fill-rule="nonzero">
            <g id="Group" transform="translate(0.000000, 56.000000)">
                <path d="M227.541451,592.852332 C228.135579,592.852332 228.581174,592.7038 228.878238,592.406736 L228.878238,592.406736 L246.702073,572.800518 C246.999136,572.503454 247.147668,572.057858 247.147668,571.463731 C247.147668,570.869603 246.999136,570.424007 246.702073,570.126943 C246.553541,569.978411 240.612263,563.443005 228.878238,550.520725 C227.987047,549.629534 227.095855,549.629534 226.204663,550.520725 C225.313472,551.411917 225.313472,552.303109 226.204663,553.194301 L226.204663,553.194301 L241.132124,569.681347 L177.634715,569.681347 C176.446459,569.681347 175.852332,570.275475 175.852332,571.463731 C175.852332,572.651986 176.446459,573.246114 177.634715,573.246114 L177.634715,573.246114 L241.132124,573.246114 L226.204663,589.733161 C225.313472,590.624352 225.313472,591.515544 226.204663,592.406736 C226.501727,592.7038 226.947323,592.852332 227.541451,592.852332 Z" id="" transform="translate(211.500000, 571.352332) rotate(-270.000000) translate(-211.500000, -571.352332) "></path>
            </g>
        </g>
    </g>
</svg>