<svg xmlns="http://www.w3.org/2000/svg" width="335.5" height="470.225" viewBox="0 0 335.5 470.225">
  <g>
    <path d="M71.98,371.99H311.4c13.286,0,24.1-11.041,24.1-24.611V24.611C335.5,11.041,324.691,0,311.4,0H66.849C29.988,0,0,30.714,0,68.466V396.5c0,40.654,32.29,73.729,71.98,73.729H311.4c13.286,0,24.1-11.041,24.1-24.612S324.691,421,311.4,421H71.98c-13.118,0-23.791-10.993-23.791-24.5S58.862,371.99,71.98,371.99ZM81.567,53.468v266.8a4.146,4.146,0,0,1-3.277,4.024c-6.856,1.461-16.822,4.069-24.8,6.491a4.107,4.107,0,0,1-5.3-3.932V68.466c0-15.794,11.191-19.021,29.248-19.109h.021a4.109,4.109,0,0,1,4.109,4.111Zm48.189,265.189V53.333a4.114,4.114,0,0,1,4.11-4.11H283.2a4.115,4.115,0,0,1,4.111,4.11V318.657a4.115,4.115,0,0,1-4.111,4.111H133.866A4.115,4.115,0,0,1,129.756,318.657Z" fill="#fff"/>
    <path d="M312.955,381.5H78.277c-10.86,0-19.7,7-19.7,15.609s8.836,15.609,19.7,15.609H312.955c10.86,0,19.7-7,19.7-15.609S323.815,381.5,312.955,381.5Z" fill="#fff"/>
  </g>
</svg>
