<svg xmlns="http://www.w3.org/2000/svg" width="380.559" height="524.274" viewBox="0 0 380.559 524.274">
  <g>
    <path d="M380.559,31.284A31.32,31.32,0,0,0,349.274,0H73.353A73.436,73.436,0,0,0,0,73.353V445.627H0a78.734,78.734,0,0,0,78.646,78.646H358.059a22.5,22.5,0,1,0,0-45H78.646a33.647,33.647,0,0,1,0-67.294H348.98A31.614,31.614,0,0,0,380.559,380.4ZM45,380.309V83.035A38.035,38.035,0,0,1,83.035,45H93.321V366.98H78.646C66.614,366.98,53.464,371.061,45,380.309ZM335.559,366.98H138.321V45H335.559Z" fill="#fff"/>
    <path d="M354.756,424.448H83.271a22.5,22.5,0,1,0,0,45H354.756a22.5,22.5,0,0,0,0-45Z" fill="#fff"/>
  </g>
</svg>
