<svg xmlns="http://www.w3.org/2000/svg" width="16" height="13.104" viewBox="0 0 16 13.104">
  <path d="M8.5,1.791a3.705,3.705,0,0,1,3.112-.752A12.539,12.539,0,0,1,15,1.932v9.923a13.3,13.3,0,0,0-3.287-.81,5.469,5.469,0,0,0-3.213.492ZM8,.887A4.916,4.916,0,0,0,4.287.044,13.621,13.621,0,0,0,.293,1.149.5.5,0,0,0,0,1.6v11a.5.5,0,0,0,.5.5.491.491,0,0,0,.207-.045,12.659,12.659,0,0,1,3.68-1.02c1.409-.142,2.59.087,3.223.877a.5.5,0,0,0,.7.077.51.51,0,0,0,.077-.077c.633-.79,1.814-1.019,3.222-.877a12.648,12.648,0,0,1,3.681,1.02.5.5,0,0,0,.662-.248A.5.5,0,0,0,16,12.6V1.6a.5.5,0,0,0-.293-.455,13.621,13.621,0,0,0-3.994-1.1A4.912,4.912,0,0,0,8,.887Z" fill="#fff"/>
</svg>
