<?xml version="1.0" encoding="UTF-8"?>
<svg width="26px" height="25px" viewBox="0 0 26 25" version="1.1" xmlns="http://www.w3.org/2000/svg" xmlns:xlink="http://www.w3.org/1999/xlink">
    <title>Group 21</title>
    <defs>
        <polygon id="path-1" points="0.0280438356 2.3483366e-05 14.37182 2.3483366e-05 14.37182 11.4375499 0.0280438356 11.4375499"></polygon>
    </defs>
    <g id="Homepage" stroke="none" stroke-width="1" fill="none" fill-rule="evenodd">
        <g id="CI---Homepage-v7-palette-1" transform="translate(-218.000000, -2769.000000)">
            <g id="knowledge-feature" transform="translate(-0.500000, 1697.000000)">
                <g id="Group-29" transform="translate(185.877766, 1040.000000)">
                    <g id="Group-21" transform="translate(33.306180, 32.250000)">
                        <path d="M11.9342325,13.5183546 C11.6467961,13.5608125 11.3788039,13.6042098 11.1097315,13.6394818 C9.63131272,13.8335483 8.15002896,13.8434583 6.66888611,13.6831609 C5.37575108,13.5432 4.11032642,13.2755836 2.91253386,12.7531726 C2.48029902,12.5646951 2.06821292,12.3300493 1.62696047,12.1062998 C1.62696047,12.1896658 1.6264908,12.265517 1.62700744,12.3414153 C1.63151624,13.0288673 1.63517965,13.7163194 1.64189589,14.4037245 C1.64278826,14.4966716 1.65128924,14.5911217 1.6697002,14.6821432 C1.78462779,15.2496892 2.16848689,15.6060258 2.64120705,15.8800767 C3.34025988,16.2853526 4.08637339,16.5820415 4.86926184,16.7794427 C6.98121487,17.3119045 9.11524227,17.3647421 11.2617628,17.0411413 C11.7572618,16.9664172 12.2458568,16.8455249 12.7566669,16.7420102 C12.3045182,15.6840376 12.0651288,14.6230121 11.9342325,13.5183546 M1.64161409,6.98861683 C1.64161409,7.79127828 1.64945753,8.54786536 1.63813855,9.30412368 C1.63278434,9.66360705 1.74996634,9.9704407 1.99597808,10.214198 C2.21615812,10.4323585 2.45667476,10.6379789 2.71536751,10.8078106 C3.34725793,11.2226677 4.05401331,11.4744094 4.77922661,11.6691335 C6.60322661,12.1589025 8.46019726,12.2374779 10.3316337,12.0758184 C10.8404712,12.0318575 11.3451757,11.9398497 11.8627022,11.8683663 C11.8093479,11.212382 12.1321033,10.889063 12.7035006,10.7552078 C12.8459507,10.7218614 12.9820133,10.6545112 13.1157746,10.5917166 C13.7350309,10.3010865 14.1212384,9.85865988 14.135892,9.13076947 C14.1461307,8.62413933 14.4939194,8.32021761 15.0032266,8.30974403 C15.2515397,8.30462466 15.5000877,8.30885166 15.7604712,8.30885166 L15.7604712,7.0149182 C15.6967374,7.04812368 15.6576141,7.07057378 15.616847,7.08950137 C14.9818568,7.38379491 14.3639155,7.72585362 13.7078372,7.96157965 C12.338663,8.4535092 10.9058489,8.63395538 9.45720705,8.69233503 C7.69125793,8.76348963 5.94902701,8.60826458 4.24089393,8.13502779 C3.33495264,7.88408454 2.47377065,7.52976751 1.64161409,6.98861683 M15.4831327,20.3565229 C15.4494575,20.3208282 15.4309996,20.2962646 15.407892,20.2774779 C14.7184673,19.7166481 14.1183264,19.0732509 13.6288391,18.3309886 C13.5394145,18.1953018 13.4494732,18.2363507 13.3312579,18.2597401 C12.4142325,18.4410317 11.5020446,18.6673174 10.5762364,18.7793331 C9.01144579,18.968656 7.44224031,18.9112626 5.88350841,18.6612587 C4.41659648,18.4259084 3.00416595,18.0316227 1.73634599,17.2215405 C1.71356712,17.2069339 1.68252211,17.20529 1.64058082,17.1934074 C1.64058082,17.9674661 1.65143014,18.7248986 1.63607202,19.4818614 C1.62827554,19.8689143 1.75729315,20.191153 2.02246732,20.4520063 C2.2269135,20.6531178 2.44244384,20.865971 2.69404462,20.991607 C3.28451037,21.2864642 3.8798137,21.5980415 4.5081816,21.7858145 C6.75380196,22.4569221 9.04455734,22.5037479 11.3488861,22.1458145 C12.4257393,21.9785659 13.4688705,21.6900963 14.4355397,21.1711139 C14.8268196,20.9610317 15.1925495,20.7129065 15.4831327,20.3565229 M13.4909448,12.5447342 C13.5455202,13.0251569 13.5752031,13.5101354 13.661481,13.9847812 C13.750436,14.4743155 13.8637198,14.9639906 14.0196963,15.4360063 C14.648299,17.3384877 15.8126982,18.8065738 17.5914223,19.7673252 C17.8001425,19.8799984 17.9620838,19.8857284 18.1710857,19.7553487 C19.0273362,19.2210552 19.781575,18.574746 20.41262,17.7871609 C21.66898,16.2189417 22.2410818,14.4033957 22.352346,12.4198967 C22.3604712,12.2748164 22.2910074,12.2362568 22.1819037,12.1897597 C21.2268352,11.782699 20.5546004,11.1063311 20.233254,10.1073487 C20.1913127,9.97692211 20.1251366,9.9464407 19.9984204,9.94681644 C18.6163303,9.95080861 17.2342403,9.95137221 15.8521503,9.94606157 C15.7168861,9.9455953 15.6635789,9.9937362 15.6239389,10.1163194 C15.311892,11.079654 14.6699507,11.7486012 13.753254,12.1533605 C13.5616767,12.2379476 13.445575,12.3212665 13.4909448,12.5447342 M8.707618,7.07212368 C9.87361409,7.06155616 11.0306865,6.9648047 12.1694888,6.70174403 C13.0396415,6.50072642 13.8915241,6.23705519 14.6467491,5.75015108 C14.975845,5.53795538 15.2840877,5.26860117 15.5378959,4.97073816 C15.8703734,4.58058552 15.8573636,4.15713346 15.5494027,3.74532916 C15.3970896,3.54182231 15.2179115,3.33573229 15.0054341,3.20455421 C14.5497159,2.92336438 14.0824908,2.64555616 13.5879311,2.44580665 C12.3311014,1.93809628 11.0049957,1.74304344 9.65723836,1.67010411 C7.96920705,1.57880078 6.3026865,1.70204149 4.67007593,2.15902779 C3.79334795,2.40442896 2.95132838,2.73277339 2.24424423,3.33019022 C1.45196243,3.99956008 1.44548102,4.66742701 2.21798982,5.35351703 C2.32854951,5.45177143 2.4410818,5.55462857 2.56934795,5.62493777 C2.95827945,5.83802583 3.34195068,6.06966575 3.75164149,6.23423718 C5.34043209,6.8724681 7.01150841,7.05174012 8.707618,7.07212368 M23.9999859,11.4375405 L23.9999859,12.5625346 C23.9862247,12.6376814 23.9719468,12.7126873 23.95889,12.787928 C23.8313284,13.5247421 23.7636493,14.2779945 23.5658254,14.9954114 C22.825254,17.6813918 21.3086982,19.8033957 18.8834301,21.234472 C18.5599703,21.4253448 18.2127922,21.5561941 17.8379507,21.5117636 C17.5111562,21.47311 17.1915476,21.374292 16.8441816,21.2965151 C16.0250818,22.3310513 14.8580524,22.8893448 13.603665,23.2981902 C12.3417628,23.709384 11.0393284,23.901337 9.71683914,23.9698614 C7.70464344,24.0740806 5.72222466,23.9060806 3.79433425,23.2908164 C2.73758278,22.9536423 1.74216986,22.492429 0.939085714,21.6970474 C0.362944814,21.1264016 0.000502544032,20.4540258 0.000361643836,19.6220102 C-0.000342857142,14.5366873 -7.89243851e-05,9.45131742 -7.89243851e-05,4.36594755 C-7.89243851e-05,3.91126262 0.115289237,3.48560313 0.335938943,3.08981448 C0.70805636,2.42222935 1.2656454,1.94011585 1.91035773,1.55329785 C3.29606419,0.721892759 4.82825988,0.349775342 6.41000548,0.142980822 C6.86548885,0.0834270059 7.32402505,0.0470277886 7.78119922,1.40900197e-05 L9.65620509,1.40900197e-05 C9.71646341,0.0125542074 9.77625205,0.029274364 9.83712094,0.036976908 C10.6107569,0.134902544 11.3911092,0.196147162 12.1569487,0.336389824 C13.4470309,0.572726419 14.6804243,0.982605088 15.7786943,1.72914129 C16.873207,2.47309432 17.5017159,3.44577534 17.4312658,4.83213933 C17.3774419,5.89189667 17.4205573,6.95658552 17.4205573,8.01906693 L17.4205573,8.30861683 L17.7331209,8.30861683 C18.7643225,8.3086638 19.795571,8.30631546 20.8268196,8.30974403 C21.3572618,8.3114818 21.6688861,8.59713346 21.731117,9.12461683 C21.7383969,9.18665988 21.7421542,9.2491726 21.7502325,9.31107476 C21.8478763,10.0615092 22.3838607,10.6580337 23.124573,10.7759671 C23.552299,10.8440689 23.8442912,11.0366325 23.9999859,11.4375405" id="Fill-1" fill="#FFFFFF"></path>
                        <g id="Group-5" transform="translate(9.628180, 0.000000)">
                            <mask id="mask-2" fill="white">
                                <use xlink:href="#path-1"></use>
                            </mask>
                            <g id="Clip-4"></g>
                        </g>
                        <path d="M19.6703014,12.2202317 C20.0429824,12.629218 20.4041566,13.0257581 20.8226301,13.4851397 C20.6643523,13.6212493 20.4437965,13.7857738 20.2527828,13.9795585 C19.4254168,14.8190419 18.6074912,15.6678247 17.7844462,16.511535 C17.3211663,16.9863217 16.8326654,16.9745331 16.3995382,16.4732102 C15.9411898,15.942627 15.4899335,15.4058442 15.0194677,14.852764 C15.4332916,14.4991984 15.8343405,14.1564822 16.2644618,13.7889675 C16.556407,14.1295233 16.8428571,14.4636916 17.1442427,14.8153315 C17.9825988,13.9541025 18.8141448,13.0998247 19.6703014,12.2202317" id="Fill-19" fill="#FFFFFF"></path>
                    </g>
                </g>
            </g>
        </g>
    </g>
</svg>