<?xml version="1.0" encoding="UTF-8"?>
<svg width="25px" height="25px" viewBox="0 0 25 25" version="1.1" xmlns="http://www.w3.org/2000/svg" xmlns:xlink="http://www.w3.org/1999/xlink">
    <title>global</title>
    <g id="Homepage" stroke="none" stroke-width="1" fill="none" fill-rule="evenodd">
        <g id="CI---Homepage-v7-palette-1" transform="translate(-602.000000, -2766.000000)" fill="#FFFFFF" fill-rule="nonzero">
            <g id="knowledge-feature" transform="translate(-0.500000, 1697.000000)">
                <g id="Group-8" transform="translate(573.544433, 1041.000000)">
                    <g id="global" transform="translate(41.455567, 40.500000) scale(1, -1) translate(-41.455567, -40.500000) translate(28.955567, 28.000000)">
                        <path d="M23.3907064,6.45675658 L23.2714335,6.25 C21.10672,2.5177002 17.069753,0 12.4532064,0 C7.83640547,0 3.79943848,2.5177002 1.63497923,6.25 L1.51570638,6.45675658 C0.680796289,7.96203613 0.149536133,9.65677897 0,11.4583333 L0,13.5416667 C0.149536133,15.343221 0.680796289,17.0379639 1.51570638,18.5427348 L1.63497923,18.75 C3.79943848,22.4822998 7.83640547,25 12.4532064,25 C17.069753,25 21.10672,22.4822998 23.2714335,18.75 L23.3907064,18.5427348 C24.2256165,17.0374552 24.7568766,15.343221 24.9061585,13.5416667 L24.9061585,11.4583333 C24.7568766,9.65677897 24.2256165,7.96203613 23.3907064,6.45675658 Z M18.6818441,11.4583333 C18.6406453,10.3640238 18.5353597,9.31777956 18.3718363,8.33333333 L21.9937643,8.33333333 C22.420756,9.30735273 22.7068583,10.3566488 22.8167216,11.4583333 L18.6818441,11.4583333 Z M12.4532064,22.9166667 C11.2754822,22.9166667 10.0176493,21.3119507 9.19520059,18.75 L15.7114665,18.75 C14.8885091,21.3119507 13.6306763,22.9166667 12.4532064,22.9166667 Z M8.66622923,16.6666667 C8.48286947,15.7015482 8.35876465,14.6525065 8.31044518,13.5416667 L16.5957133,13.5416667 C16.5473938,14.6525065 16.4235433,15.7015482 16.2401835,16.6666667 L8.66622923,16.6666667 Z M8.31044518,11.4583333 C8.35876465,10.3474935 8.48286947,9.29845176 8.66622923,8.33333333 L16.2401835,8.33333333 C16.4235433,9.29845176 16.5473938,10.3474935 16.5957133,11.4583333 L8.31044518,11.4583333 Z M12.4532064,2.08333333 C13.6306763,2.08333333 14.8885091,3.68855794 15.7109578,6.25 L9.19520059,6.25 C10.0176493,3.68855794 11.2754822,2.08333333 12.4532064,2.08333333 Z M20.7667033,6.25 L17.9171244,6.25 C17.5656637,4.9791972 17.1068827,3.85945638 16.561381,2.93070475 C18.2380676,3.65371706 19.6807861,4.80931602 20.7667033,6.25 L20.7667033,6.25 Z M8.34528607,2.93070475 C7.79953001,3.85945638 7.34074909,4.9791972 6.98903398,6.25 L4.13970951,6.25 C5.22562663,4.80931602 6.66834512,3.65371706 8.34528607,2.93070475 Z M2.91239421,8.33333333 L6.53432214,8.33333333 C6.37130736,9.31777956 6.26551309,10.3640238 6.22456868,11.4583333 L2.08918255,11.4583333 C2.19904583,10.3566488 2.48489382,9.30735273 2.91239421,8.33333333 Z M6.22456868,13.5416667 C6.26551309,14.6359762 6.37079876,15.6822204 6.53432214,16.6666667 L2.91239421,16.6666667 C2.48540241,15.6926473 2.19955443,14.6433512 2.08969115,13.5416667 L6.22456868,13.5416667 Z M4.13970951,18.75 L6.98903398,18.75 C7.34074909,20.0208028 7.79953001,21.1405436 8.34477741,22.0692952 C6.66834512,21.3462829 5.22562663,20.190684 4.13970951,18.75 Z M16.5608724,22.0692952 C17.1068827,21.1405436 17.5656637,20.0208028 17.9166158,18.75 L20.7661947,18.75 C19.6807861,20.190684 18.2380676,21.3462829 16.5608724,22.0692952 Z M21.9942729,16.6666667 L18.372345,16.6666667 C18.5353597,15.6822204 18.641154,14.6359762 18.6823527,13.5416667 L22.8177389,13.5416667 C22.7073669,14.6433512 22.4212646,15.6926473 21.9942729,16.6666667 Z" id="Shape"></path>
                    </g>
                </g>
            </g>
        </g>
    </g>
</svg>