<?xml version="1.0" encoding="UTF-8"?>
<svg width="22px" height="25px" viewBox="0 0 22 25" version="1.1" xmlns="http://www.w3.org/2000/svg" xmlns:xlink="http://www.w3.org/1999/xlink">
    <title>Group 10</title>
    <g id="Homepage" stroke="none" stroke-width="1" fill="none" fill-rule="evenodd">
        <g id="CI---Homepage-v7-palette-1" transform="translate(-605.000000, -2479.000000)" fill="#FFFFFF">
            <g id="knowledge-feature" transform="translate(-0.500000, 1697.000000)">
                <g id="Group-8" transform="translate(575.000000, 750.000000)">
                    <g id="Group-10" transform="translate(31.000000, 32.000000)">
                        <path d="M11.153061,20.2512802 L11.153061,22.52691 C11.9836133,22.52691 12.7990599,22.5270668 13.6145588,22.5268054 C13.8841094,22.5267531 14.1536599,22.5241397 14.4231582,22.5253942 C15.0883318,22.5283735 15.5903743,23.0039679 15.5944513,23.6332328 C15.5985282,24.2542393 15.0918338,24.7554454 14.4355459,24.7610905 C13.5225656,24.7689831 12.6094807,24.7654811 11.6964481,24.7653765 C9.67918341,24.7650629 7.66181416,24.7651674 5.64444491,24.7621881 C5.05506115,24.7612473 4.61772753,24.4320579 4.48674174,23.903672 C4.31232053,23.2001852 4.82141931,22.5336526 5.54832246,22.5292098 C6.59176588,22.5229375 7.63520931,22.5275894 8.678705,22.5269622 C8.73907554,22.5269622 8.79944609,22.5219967 8.88103779,22.5184424 L8.88103779,20.2942975 C8.17849193,20.1147017 7.463297,19.994431 6.79331464,19.750074 C3.25533947,18.4597647 1.06307858,15.9625673 0.207698545,12.291986 C-0.045910005,11.203905 0.00834508054,10.0981048 0.00217735405,8.99538845 C0.000504750254,8.69102683 -0.00148146675,8.38656067 0.00165466536,8.08219904 C0.00860642488,7.42366357 0.497529422,6.92475722 1.12862374,6.92824091 C1.73400178,6.93165671 2.22877889,7.43840339 2.23620107,8.08136274 C2.24550492,8.88139005 2.20802815,9.68329903 2.24905921,10.4813924 C2.41804446,13.767902 4.00576361,16.1531396 7.013837,17.4448079 C11.4049969,19.3304073 16.3330627,16.8450749 17.5588722,12.2261272 C17.7472492,11.5161069 17.8141533,10.7922353 17.8036995,10.0581714 C17.7941866,9.38865941 17.7943434,8.71872933 17.8052153,8.04921739 C17.8139965,7.50698015 18.1672295,7.08668617 18.6880888,6.96510879 C19.1642059,6.85398517 19.6722593,7.07597106 19.9003084,7.51450686 C19.9703487,7.64936054 20.0301443,7.80961689 20.0296216,7.95800821 C20.0261718,9.04441665 20.0595194,10.1347975 19.9798093,11.2163972 C19.8278637,13.2781427 19.0300317,15.0964721 17.7152083,16.6851321 C16.3997055,18.2746807 14.3424028,19.8099742 11.153061,20.2512802" id="Fill-4"></path>
                        <path d="M6.67988597,8.04009124 C6.67988597,8.76176751 6.67481589,9.48349605 6.68281303,10.2050678 C6.6853742,10.4385528 6.70277973,10.6754353 6.74658105,10.904373 C7.06981173,12.593546 8.58534757,13.7298189 10.3339503,13.6028579 C11.9666207,13.4843121 13.3238341,12.0500543 13.3529479,10.3603586 C13.3795005,8.82182444 13.3810163,7.28208811 13.3528956,5.7436585 C13.3190254,3.89182476 11.747196,2.42401039 9.9143881,2.48783068 C8.12036372,2.55029198 6.69488714,4.01821088 6.68103589,5.82295038 C6.67539085,6.56192764 6.68014731,7.30100944 6.67988597,8.04009124 M15.5551399,8.05012687 C15.5551399,8.98009458 15.6124265,9.9142438 15.5437975,10.8390892 C15.3737146,13.1307654 13.6357747,15.1253455 11.3949561,15.6829497 C8.17744132,16.4836043 4.94968188,14.3373923 4.51548439,11.060866 C4.40085876,10.1959207 4.45370259,9.30776811 4.44424192,8.43012154 C4.4348858,7.56047211 4.43927638,6.69056133 4.44575772,5.82080735 C4.46645619,3.03592204 6.46856293,0.725742582 9.21910761,0.307800709 C12.1595451,-0.138941311 15.0459888,1.92688118 15.484786,4.84980858 C15.6128447,5.70288879 15.5657504,6.58241704 15.595805,7.44992345 C15.6027568,7.64974733 15.5968504,7.84998937 15.5968504,8.05002233 C15.5829469,8.0500746 15.5689911,8.05012687 15.5551399,8.05012687" id="Fill-6"></path>
                    </g>
                </g>
            </g>
        </g>
    </g>
</svg>