<svg id="Layer_1" data-name="Layer 1" xmlns="http://www.w3.org/2000/svg" viewBox="0 0 102.83 74.24"><defs><style>.cls-1{fill:#fff;}</style></defs><g id="Layer_2" data-name="Layer 2"><g id="Слой_1" data-name="Слой 1"><path class="cls-1" d="M94.3,45.65H8.53a8.53,8.53,0,0,1,0-17.06H94.3a8.53,8.53,0,1,1,0,17.06Z"/><path class="cls-1" d="M65.71,74.24a8.53,8.53,0,0,1-6-14.56L82.24,37.12,59.68,14.56A8.53,8.53,0,0,1,71.46,2.22a3.7,3.7,0,0,1,.28.28l28.59,28.59a8.53,8.53,0,0,1,0,12.06L71.74,71.74A8.53,8.53,0,0,1,65.71,74.24Z"/></g></g></svg>