<?xml version="1.0" encoding="UTF-8"?>
<svg width="17px" height="17px" viewBox="0 0 17 17" version="1.1" xmlns="http://www.w3.org/2000/svg" xmlns:xlink="http://www.w3.org/1999/xlink">
    <title></title>
    <g id="Homepage" stroke="none" stroke-width="1" fill="none" fill-rule="evenodd">
        <g id="CI---Homepage-v7-palette-1" transform="translate(-1377.000000, -35.000000)" fill="#252122" fill-rule="nonzero">
            <g id="Group-27" transform="translate(861.000000, 31.000000)">
                <path d="M531.039062,20.75 L532.5,19.2890625 L527.859375,14.6054688 L528.03125,14.3046875 C528.71875,13.2161458 529.0625,12.0416667 529.0625,10.78125 C529.0625,8.9765625 528.42513,7.43684896 527.150391,6.16210938 C525.875651,4.88736979 524.335938,4.25 522.53125,4.25 C520.726562,4.25 519.186849,4.88736979 517.912109,6.16210938 C516.63737,7.43684896 516,8.9765625 516,10.78125 C516,12.5859375 516.63737,14.1328125 517.912109,15.421875 C519.186849,16.7109375 520.726562,17.3554688 522.53125,17.3554688 C523.763021,17.3554688 524.951823,16.9973958 526.097656,16.28125 L526.097656,16.28125 L526.398438,16.0664062 L531.039062,20.75 Z M522.53125,15.9375 C521.098958,15.9375 519.88151,15.4361979 518.878906,14.4335938 C517.876302,13.4309896 517.375,12.2135417 517.375,10.78125 C517.375,9.34895833 517.876302,8.13151042 518.878906,7.12890625 C519.88151,6.12630208 521.098958,5.625 522.53125,5.625 C523.963542,5.625 525.18099,6.12630208 526.183594,7.12890625 C527.214844,8.16015625 527.730469,9.37760417 527.730469,10.78125 C527.730469,12.1848958 527.214844,13.4023438 526.183594,14.4335938 C525.18099,15.4361979 523.963542,15.9375 522.53125,15.9375 Z" id=""></path>
            </g>
        </g>
    </g>
</svg>