<?xml version="1.0" encoding="UTF-8"?>
<svg width="30px" height="21px" viewBox="0 0 30 21" version="1.1" xmlns="http://www.w3.org/2000/svg" xmlns:xlink="http://www.w3.org/1999/xlink">
    <title>Group 12</title>
    <g id="Homepage" stroke="none" stroke-width="1" fill="none" fill-rule="evenodd">
        <g id="CI---Homepage-v7-palette-1" transform="translate(-217.000000, -3059.000000)" fill="#FFFFFF">
            <g id="knowledge-feature" transform="translate(-0.500000, 1697.000000)">
                <g id="Group-8" transform="translate(185.877766, 1334.000000)">
                    <g id="Group-12" transform="translate(31.706134, 28.000000)">
                        <path d="M25.8596353,14.7004869 L25.8596353,6.23895023 C25.8068476,6.25288231 25.7686077,6.25633556 25.7367807,6.27247058 C24.1459049,7.07904284 22.554376,7.88436479 20.9689632,8.70159451 C20.8942053,8.74017566 20.8359547,8.88545035 20.8348859,8.98172461 C20.8243165,9.96149527 20.8320357,10.9415041 20.8221957,11.9213343 C20.8204569,12.1038803 20.8743728,12.1989042 21.0408708,12.2826158 C22.5727241,13.0525122 24.0992332,13.8330064 25.6279394,14.6092139 C25.694503,14.6429724 25.767242,14.6645255 25.8596353,14.7004869 L25.8596353,14.7004869 Z M3.13443386,18.0554393 L18.2630731,18.0554393 L18.2630731,2.86673154 L3.13443386,2.86673154 L3.13443386,18.0554393 Z M20.8264541,5.91160585 C21.9929499,5.31669405 23.1075486,4.74857472 24.2218504,4.17980047 C24.9599284,3.80315795 25.6958687,3.4224668 26.4356687,3.04933707 C27.454727,2.53527898 28.4127439,3.12507044 28.4132189,4.26803698 C28.4148221,8.39943504 28.4027089,12.5308926 28.4212531,16.6621716 C28.4262229,17.7767382 27.3988516,18.4057657 26.4122735,17.8818242 C24.6786512,16.9609969 22.9187241,16.0902418 21.169604,15.1988863 C21.0740636,15.1502431 20.9769199,15.1049936 20.8497306,15.0432518 C20.8416551,15.1472661 20.8298981,15.2294297 20.8297793,15.3115932 C20.8278198,16.5995368 20.8279386,17.8874208 20.8262166,19.1754239 C20.825029,20.1122075 20.3136592,20.6231696 19.3752372,20.6232887 C13.5863426,20.623609 7.79738849,20.623609 2.00837505,20.6231696 C1.09602041,20.6230505 0.569033914,20.0980968 0.569033914,19.1889987 C0.569033914,13.3733073 0.570280868,7.55767534 0.571765337,1.74204341 C0.572002852,0.824252646 1.08812303,0.309837324 2.00487171,0.309658707 C7.76413639,0.30852747 13.5234604,0.307455771 19.2827845,0.306622179 C20.3366387,0.306622179 20.8262166,0.795316784 20.8263948,1.84689126 C20.8266323,3.18389478 20.8264541,4.52083877 20.8264541,5.91160585 L20.8264541,5.91160585 Z" id="Fill-4"></path>
                        <path d="M8.21857985,7.9219576 C7.76468861,7.9219576 7.3101442,7.93803308 6.85720302,7.91808758 C6.24791757,7.89123557 5.76825595,7.43385843 5.67526881,6.82543133 C5.58827892,6.25647845 5.94205758,5.66359098 6.50247431,5.4684823 C6.64765538,5.41787431 6.8105907,5.40090575 6.96562864,5.39947681 C7.80435362,5.39161769 8.64313799,5.39090323 9.48192235,5.39280847 C10.260081,5.39447555 10.8190726,5.93324225 10.815468,6.67068996 C10.8119472,7.39230034 10.2557463,7.92213621 9.49154171,7.9277924 C9.06728047,7.93088842 8.64290047,7.92832825 8.21863923,7.92832825 C8.21863923,7.92618485 8.21857985,7.924101 8.21857985,7.9219576" id="Fill-10"></path>
                    </g>
                </g>
            </g>
        </g>
    </g>
</svg>