<svg xmlns="http://www.w3.org/2000/svg" width="16" height="16" viewBox="0 0 16 16">
  <path d="M8,0C5.829,0,5.556.01,4.7.048A5.9,5.9,0,0,0,2.76.42a3.917,3.917,0,0,0-1.417.923A3.925,3.925,0,0,0,.42,2.76,5.86,5.86,0,0,0,.048,4.7C.01,5.555,0,5.827,0,8s.01,2.444.048,3.3A5.894,5.894,0,0,0,.42,13.24a4.1,4.1,0,0,0,2.339,2.34,5.873,5.873,0,0,0,1.942.372C5.555,15.99,5.827,16,8,16s2.444-.01,3.3-.048a5.906,5.906,0,0,0,1.943-.372,4.1,4.1,0,0,0,2.339-2.34,5.92,5.92,0,0,0,.372-1.942C15.99,10.445,16,10.173,16,8s-.01-2.445-.048-3.3A5.913,5.913,0,0,0,15.58,2.76a3.925,3.925,0,0,0-.923-1.417A3.917,3.917,0,0,0,13.24.42,5.885,5.885,0,0,0,11.3.048C10.443.01,10.172,0,8,0H8ZM7.283,1.442H8c2.136,0,2.389.007,3.232.046a4.433,4.433,0,0,1,1.486.275,2.482,2.482,0,0,1,.92.6,2.472,2.472,0,0,1,.6.92,4.394,4.394,0,0,1,.275,1.485c.039.843.047,1.1.047,3.231s-.008,2.389-.047,3.232a4.426,4.426,0,0,1-.275,1.485,2.652,2.652,0,0,1-1.519,1.517,4.4,4.4,0,0,1-1.485.276c-.843.038-1.1.047-3.232.047s-2.39-.009-3.233-.047a4.419,4.419,0,0,1-1.485-.276,2.467,2.467,0,0,1-.92-.6,2.484,2.484,0,0,1-.6-.92,4.42,4.42,0,0,1-.275-1.485c-.038-.843-.046-1.1-.046-3.233s.008-2.388.046-3.231a4.426,4.426,0,0,1,.276-1.486,2.482,2.482,0,0,1,.6-.92,2.472,2.472,0,0,1,.92-.6,4.419,4.419,0,0,1,1.485-.276c.738-.034,1.024-.044,2.515-.045ZM12.271,2.77a.96.96,0,0,0,0,1.92h0a.96.96,0,0,0,0-1.92ZM8,3.892a4.109,4.109,0,1,0-.128,8.217H8A4.109,4.109,0,0,0,8,3.892ZM8,5.333a2.667,2.667,0,0,1,0,5.334H8A2.667,2.667,0,0,1,8,5.333Z" fill="#fff"/>
</svg>
