<svg xmlns="http://www.w3.org/2000/svg" width="511.998" height="415.837" viewBox="0 0 511.998 415.837">
  <path d="M459.37,103.634c.325,4.548.325,9.1.325,13.645,0,138.72-105.583,298.558-298.558,298.558A296.533,296.533,0,0,1,0,368.731a217.08,217.08,0,0,0,25.34,1.3A210.151,210.151,0,0,0,155.614,325.2,105.119,105.119,0,0,1,57.5,252.426,132.331,132.331,0,0,0,77.32,254.05a110.982,110.982,0,0,0,27.614-3.573A104.948,104.948,0,0,1,20.791,147.492v-1.3a105.679,105.679,0,0,0,47.431,13.319A105.09,105.09,0,0,1,35.735,19.167,298.271,298.271,0,0,0,252.1,128.974a118.457,118.457,0,0,1-2.6-24.04,105.034,105.034,0,0,1,181.6-71.8A206.6,206.6,0,0,0,497.7,7.8a104.651,104.651,0,0,1-46.132,57.827A210.362,210.362,0,0,0,512,49.381a225.566,225.566,0,0,1-52.628,54.253Z" fill="#fff"/>
</svg>
