<?xml version="1.0" encoding="UTF-8" standalone="no"?><!DOCTYPE svg PUBLIC "-//W3C//DTD SVG 1.1//EN" "http://www.w3.org/Graphics/SVG/1.1/DTD/svg11.dtd"><svg width="100%" height="100%" viewBox="0 0 828 290" version="1.1" xmlns="http://www.w3.org/2000/svg" xmlns:xlink="http://www.w3.org/1999/xlink" xml:space="preserve" xmlns:serif="http://www.serif.com/" style="fill-rule:evenodd;clip-rule:evenodd;"><g><path d="M108.404,119.177c0,0.022 -0.022,0.048 -0.022,0.048c-13.413,-5.463 -15.767,-4.404 -14.087,-24.78c15.847,9.707 14.744,13.274 14.109,24.732m4.044,-19.9c-2.609,-3.362 -8.861,-8.861 -12.133,-12.133c-5.036,-5.034 -6.344,-6.527 -6.344,-15.12l0,-36.583c0,-5.226 -8.025,-4.475 -8.025,0.189c0,0 -0.568,63.647 0,69.064c0.555,5.407 -2.123,9.63 6.534,15.12c9.573,6.071 23.329,10.077 23.329,10.077c0,0 0.185,-13.999 0.374,-19.227c0.189,-5.221 -1.125,-8.024 -3.735,-11.387" style="fill:#0c8241;fill-rule:nonzero;"/><path d="M146.037,94.441c1.676,20.384 -0.672,19.321 -14.092,24.786c0,0 -0.021,-0.028 -0.021,-0.054c-0.63,-11.454 -1.745,-15.025 14.113,-24.732m-21.886,16.223c0.189,5.232 0.368,19.225 0.368,19.225c0,0 13.76,-4.01 23.329,-10.075c8.657,-5.484 5.979,-9.707 6.534,-15.115c0.563,-5.422 0,-69.076 0,-69.076c0,-4.657 -8.025,-5.408 -8.025,-0.176l0,36.581c0,8.588 -1.304,10.081 -6.344,15.116c-3.268,3.272 -9.524,8.773 -12.134,12.133c-2.616,3.358 -3.928,6.159 -3.728,11.387" style="fill:#0c8241;fill-rule:nonzero;"/><path d="M120.39,85.605c-15.453,-8.272 -4.402,-19.481 0,-26.901l0.389,0.613c11.359,17.009 8.276,19.565 -0.389,26.288m10.384,-23.534c-4.685,-8.358 0,0 -6.46,-10.888l0,-40.376c0,-6.319 -7.969,-5.82 -7.969,0l0.095,40.322c0,0 -6.807,11.445 -8.702,16.004c-1.898,4.559 -4.449,10.025 1.994,17.37c0.488,0.562 1.304,2.106 10.716,10.94c0.004,0 0.2,-0.209 0.2,-0.209c0,0 -0.058,-0.054 8.229,-8.231c10.253,-10.122 6.576,-16.589 1.897,-24.932" style="fill:#0c8241;fill-rule:nonzero;"/><path d="M108.635,152.468c-12.007,-4.601 -20.012,-5.793 -41.624,-10.143c-21.623,-4.344 -34.544,-8.319 -46.226,-20.621c18.762,7.207 48.835,9.819 65.233,13.289c16.404,3.483 20.872,7.732 22.628,17.463l-0.011,0.012Zm6.944,-3.844c-0.389,-7.928 -3.194,-14.935 -19.413,-21.01c-13.625,-5.101 -32.901,-6.209 -46.904,-8.45c-14.001,-2.249 -37.248,-6.084 -48.876,-17.177c8.717,28.968 30.551,41.095 52.712,45.843c25.095,5.368 47.601,7.631 61.283,17.14l1.386,0.959c-0.771,-6.692 0.21,-9.384 -0.188,-17.305" style="fill:#0c8241;fill-rule:nonzero;"/><path d="M131.488,152.456c1.753,-9.731 6.224,-13.975 22.628,-17.463c16.397,-3.47 46.466,-6.088 65.233,-13.288c-11.682,12.301 -24.607,16.272 -46.222,20.624c-21.623,4.344 -29.628,5.538 -41.628,10.14l-0.011,-0.013Zm-7.128,13.467l1.388,-0.955c13.687,-9.511 36.192,-11.77 61.287,-17.142c22.161,-4.744 44,-16.866 52.713,-45.839c-11.624,11.093 -34.88,14.922 -48.877,17.175c-14.009,2.237 -33.275,3.347 -46.899,8.452c-16.219,6.071 -19.024,13.083 -19.418,21.004c-0.394,7.925 0.589,10.619 -0.194,17.305" style="fill:#0c8241;fill-rule:nonzero;"/><path d="M107.175,203.437l-10.63,0c0,0 0.241,-4.398 -0.379,-11.966c-0.83,-9.989 -12.469,-10.866 -31.629,-16.193c-13.142,-3.649 -30.306,-8.375 -37.975,-21.52c4.664,2.055 14.009,6 29.26,9.135c14.518,2.984 22.807,4.674 36.162,7.454c12.706,2.648 15.191,10.443 15.191,19.014l0,14.076Zm7.579,-17.983c0.179,-15.587 -8.75,-19.96 -22.064,-23.465c-13.3,-3.498 -31.851,-6.123 -47.614,-10.677c-15.756,-4.554 -24.512,-7.528 -35.189,-19.089c2.274,22.591 18.03,38.524 37.463,45.353c19.436,6.826 18.383,5.423 28.889,8.054c10.505,2.62 12.426,6.476 12.426,12.953l0,13.304l26.089,0c0.531,-30.11 -0.174,-10.858 0,-26.433" style="fill:#0c8241;fill-rule:nonzero;"/><path d="M132.48,189.403c0,-8.571 2.479,-16.372 15.191,-19.014c13.356,-2.779 21.645,-4.47 36.155,-7.454c15.254,-3.135 24.614,-7.085 29.261,-9.139c-7.663,13.151 -24.827,17.875 -37.98,21.524c-19.149,5.327 -30.794,6.205 -31.618,16.189c-0.62,7.566 -0.372,11.97 -0.372,11.97l-10.637,0l0,-14.076Zm-7.583,22.526l26.087,0l0,-13.31c0,-6.478 1.928,-10.326 12.433,-12.951c10.505,-2.627 9.453,-1.231 28.888,-8.057c19.427,-6.822 35.189,-22.755 37.459,-45.339c-10.679,11.555 -19.433,14.528 -35.192,19.082c-15.75,4.554 -34.307,7.179 -47.611,10.677c-13.315,3.505 -22.238,7.878 -22.064,23.469c0.178,15.572 -0.527,-3.681 0,26.429" style="fill:#0c8241;fill-rule:nonzero;"/><path d="M62.063,284.826c-3.345,0.786 -6.953,1.444 -10.436,1.444c-14.823,0 -25.128,-7.409 -25.128,-22.901c0,-15.679 9.58,-24.469 25.128,-24.469c3.025,0 7.028,0.589 10.373,1.906l-0.656,7.738c-3.478,-1.96 -6.63,-2.429 -9.907,-2.429c-9.453,0 -15.358,7.218 -15.358,16.604c0,9.318 5.778,16.329 15.548,16.329c3.614,0 7.878,-0.783 10.042,-1.895l0.394,7.673Z" style="fill:#0c8241;fill-rule:nonzero;"/><path d="M104.58,248.548c-3.541,-1.644 -8.136,-2.433 -11.817,-2.433c-10.688,0 -16.598,7.22 -16.598,16.597c0,9.32 5.779,16.342 15.557,16.342c2.491,0 4.459,-0.263 6.036,-0.656l0,-11.94l-9.713,0l0,-7.22l18.499,0l0,24.669c-4.853,1.313 -9.904,2.363 -14.822,2.363c-14.832,0 -25.132,-7.416 -25.132,-22.893c0,-15.685 9.575,-24.471 25.132,-24.471c5.316,0 9.506,0.718 13.446,1.893l-0.588,7.749Z" style="fill:#0c8241;fill-rule:nonzero;"/><rect x="115.399" y="239.686" width="9.186" height="45.791" style="fill:#0c8241;"/><path d="M129.707,285.482l9.507,0l4.008,-10.501l18.566,0l3.939,10.501l10.17,0l-17.986,-45.796l-10.356,0l-17.848,45.796Zm29.519,-17.71l-13.379,0l6.624,-18.906l0.131,0l6.624,18.906Z" style="fill:#0c8241;fill-rule:nonzero;"/><path d="M181.012,285.482l9.186,0l0,-19.031l2.952,0c3.87,0 5.057,1.321 6.361,4.724l5.514,14.307l10.232,0l-7.349,-17.91c-0.919,-2.033 -2.358,-4.529 -4.852,-4.722l0,-0.138c5.835,-0.781 9.449,-5.245 9.449,-10.623c0,-12.725 -11.744,-12.403 -21.589,-12.403l-9.904,0l0,45.796Zm9.186,-38.578l3.014,0c4.597,0 9.713,0.463 9.713,5.968c0,5.714 -5.18,6.37 -9.713,6.37l-3.014,0l0,-12.338Z" style="fill:#0c8241;fill-rule:nonzero;"/><path d="M324.068,47.866l1.843,0c2.261,0 5.123,-0.076 5.123,-3.051c0,-2.448 -2.449,-2.9 -5.123,-2.9l-1.843,0l0,5.951Zm-7.003,-10.918l12.499,0c4.669,0 8.472,2.106 8.472,6.626c0,3.502 -1.656,5.836 -5.045,6.626l0,0.075c2.259,0.603 2.41,2.597 3.726,5.798l2.561,7.155l-7.304,0l-1.506,-4.743c-1.431,-4.52 -2.334,-5.648 -4.933,-5.648l-1.467,0l0,10.391l-7.003,0l0,-26.28Z" style="fill:#0c8241;fill-rule:nonzero;"/><path d="M344.623,36.947l18.525,0l0,4.97l-11.522,0l0,5.421l10.881,0l0,4.972l-10.881,0l0,5.946l11.935,0l0,4.972l-18.938,0l0,-26.281Z" style="fill:#0c8241;fill-rule:nonzero;"/><path d="M370.298,56.751c1.808,0.978 4.331,1.734 7.229,1.734c2.222,0 4.331,-0.452 4.331,-2.563c0,-4.894 -12.427,-1.807 -12.427,-11.37c0,-6.325 6.177,-8.059 11.448,-8.059c2.521,0 5.008,0.379 6.776,0.979l-0.451,5.424c-1.807,-0.828 -3.84,-1.205 -5.835,-1.205c-1.77,0 -4.707,0.149 -4.707,2.448c0,4.254 12.424,1.392 12.424,10.88c0,6.815 -5.722,8.661 -11.559,8.661c-2.446,0 -5.497,-0.376 -7.831,-1.132l0.602,-5.797Z" style="fill:#0c8241;fill-rule:nonzero;"/><path d="M395.485,36.947l18.525,0l0,4.97l-11.522,0l0,5.421l10.881,0l0,4.972l-10.881,0l0,5.946l11.936,0l0,4.972l-18.939,0l0,-26.281Z" style="fill:#0c8241;fill-rule:nonzero;"/><path d="M433.248,42.368l-0.075,0l-3.388,10.279l6.589,0l-3.126,-10.279Zm-4.294,-5.422l8.586,0l10.129,26.281l-7.681,0l-1.957,-5.608l-9.866,0l-2.072,5.608l-7.115,0l9.976,-26.281Z" style="fill:#0c8241;fill-rule:nonzero;"/><path d="M459.677,47.866l1.843,0c2.259,0 5.121,-0.076 5.121,-3.051c0,-2.448 -2.446,-2.9 -5.121,-2.9l-1.843,0l0,5.951Zm-7.005,-10.918l12.501,0c4.669,0 8.47,2.106 8.47,6.626c0,3.502 -1.654,5.836 -5.045,6.626l0,0.075c2.259,0.603 2.412,2.597 3.729,5.798l2.56,7.155l-7.304,0l-1.506,-4.743c-1.431,-4.52 -2.334,-5.648 -4.933,-5.648l-1.467,0l0,10.391l-7.005,0l0,-26.28Z" style="fill:#0c8241;fill-rule:nonzero;"/><path d="M502.334,62.625c-1.997,0.49 -4.219,1.054 -7.794,1.054c-7.005,0 -15.101,-3.539 -15.101,-13.478c0,-9.15 6.403,-13.706 15.062,-13.706c2.674,0 5.273,0.602 7.794,1.355l-0.566,5.686c-2.256,-1.244 -4.442,-1.844 -6.852,-1.844c-4.969,0 -8.207,3.612 -8.207,8.509c0,5.157 3.651,8.282 8.773,8.282c2.296,0 4.63,-0.602 6.551,-1.355l0.34,5.497Z" style="fill:#0c8241;fill-rule:nonzero;"/><path d="M507.939,36.947l7.005,0l0,10.053l8.28,0l0,-10.053l7.005,0l0,26.281l-7.005,0l0,-11.26l-8.28,0l0,11.26l-7.005,0l0,-26.281Z" style="fill:#0c8241;fill-rule:nonzero;"/><path d="M323.878,94.248l1.808,0c2.409,0 4.33,-0.865 4.33,-3.614c0,-2.675 -1.921,-3.539 -4.33,-3.539l-1.808,0l0,7.153Zm-7.002,-12.123l8.358,0c8.02,0 11.785,2.711 11.785,8.623c0,5.309 -3.877,8.472 -10.43,8.472l-2.711,0l0,9.186l-7.002,0l0,-26.281Z" style="fill:#0c8241;fill-rule:nonzero;"/><path d="M349.518,93.044l1.844,0c2.261,0 5.122,-0.075 5.122,-3.051c0,-2.448 -2.448,-2.9 -5.122,-2.9l-1.844,0l0,5.951Zm-7.002,-10.918l12.499,0c4.668,0 8.472,2.106 8.472,6.626c0,3.502 -1.657,5.837 -5.045,6.626l0,0.075c2.259,0.603 2.409,2.597 3.726,5.798l2.56,7.156l-7.304,0l-1.506,-4.744c-1.43,-4.52 -2.334,-5.647 -4.933,-5.647l-1.467,0l0,10.391l-7.002,0l0,-26.281Z" style="fill:#0c8241;fill-rule:nonzero;"/><path d="M382.422,103.662c4.255,0 5.95,-4.068 5.95,-8.397c0,-4.556 -1.695,-8.396 -5.95,-8.396c-4.256,0 -5.949,3.84 -5.949,8.396c0,4.329 1.693,8.397 5.949,8.397m0,-21.991c8.659,0 13.179,5.161 13.179,13.594c0,8.358 -4.593,13.593 -13.179,13.593c-8.584,0 -13.177,-5.235 -13.177,-13.593c0,-8.433 4.517,-13.594 13.177,-13.594" style="fill:#0c8241;fill-rule:nonzero;"/><path d="M426.246,107.654c-4.443,1.127 -7.756,1.204 -10.167,1.204c-7.003,0 -15.099,-3.541 -15.099,-13.48c0,-9.903 6.966,-13.706 16.607,-13.706c1.731,0 5.384,0.189 7.942,1.168l-0.563,5.723c-2.184,-1.28 -4.744,-1.693 -6.401,-1.693c-5.686,0 -10.354,2.37 -10.354,8.508c0,5.157 3.651,8.285 8.771,8.285c0.942,0 1.846,-0.153 2.487,-0.452l0,-5.195l-4.105,0l0,-4.972l10.882,0l0,14.61Z" style="fill:#0c8241;fill-rule:nonzero;"/><path d="M440.514,93.044l1.844,0c2.259,0 5.12,-0.075 5.12,-3.051c0,-2.448 -2.444,-2.9 -5.12,-2.9l-1.844,0l0,5.951Zm-7.002,-10.918l12.501,0c4.669,0 8.47,2.106 8.47,6.626c0,3.502 -1.657,5.837 -5.047,6.626l0,0.075c2.261,0.603 2.414,2.597 3.728,5.798l2.56,7.156l-7.303,0l-1.504,-4.744c-1.433,-4.52 -2.337,-5.647 -4.933,-5.647l-1.47,0l0,10.391l-7.002,0l0,-26.281Z" style="fill:#0c8241;fill-rule:nonzero;"/><path d="M473.381,87.546l-0.075,0l-3.389,10.279l6.588,0l-3.124,-10.279Zm-4.292,-5.421l8.584,0l10.128,26.28l-7.68,0l-1.958,-5.608l-9.863,0l-2.072,5.608l-7.119,0l9.98,-26.28Z" style="fill:#0c8241;fill-rule:nonzero;"/><path d="M492.806,82.125l11.032,0l5.572,17.469l0.076,0l5.836,-17.469l10.617,0l0,26.281l-6.852,0l0.114,-20.182l-0.077,0l-6.702,20.182l-6.437,0l-6.404,-20.182l-0.073,0l0.15,20.182l-6.852,0l0,-26.281Z" style="fill:#0c8241;fill-rule:nonzero;"/><path d="M559.223,103.662c4.253,0 5.946,-4.068 5.946,-8.397c0,-4.556 -1.693,-8.396 -5.946,-8.396c-4.258,0 -5.951,3.84 -5.951,8.396c0,4.329 1.693,8.397 5.951,8.397m0,-21.991c8.659,0 13.177,5.161 13.177,13.594c0,8.358 -4.594,13.593 -13.177,13.593c-8.589,0 -13.182,-5.235 -13.182,-13.593c0,-8.433 4.522,-13.594 13.182,-13.594" style="fill:#0c8241;fill-rule:nonzero;"/><path d="M578.87,82.125l8.924,0l8.887,17.848l0.076,0l-0.112,-17.848l6.398,0l0,26.281l-8.698,0l-9.184,-17.961l-0.075,0l0.221,17.961l-6.437,0l0,-26.281Z" style="fill:#0c8241;fill-rule:nonzero;"/><path d="M314.769,135.081l23.884,0l0,5.665l-17.447,0l0,13.132l16.673,0l0,5.664l-16.673,0l0,20.472l-6.437,0l0,-44.933Z" style="fill:#0c8241;fill-rule:nonzero;"/><path d="M360.726,175.894c7.083,0 10.237,-6.437 10.237,-12.295c0,-6.245 -3.8,-12.297 -10.237,-12.297c-6.501,0 -10.3,6.052 -10.3,12.297c0,5.858 3.156,12.295 10.3,12.295m0,-29.482c9.978,0 16.673,7.207 16.673,17.187c0,9.397 -6.824,17.187 -16.673,17.187c-9.913,0 -16.737,-7.79 -16.737,-17.187c0,-9.98 6.695,-17.187 16.737,-17.187" style="fill:#0c8241;fill-rule:nonzero;"/><path d="M384.86,147.183l5.664,0l0,5.085l0.129,0c1.61,-3.412 5.086,-5.856 8.561,-5.856c1.802,0 2.704,0.192 3.992,0.45l0,5.406c-1.095,-0.451 -2.317,-0.578 -3.347,-0.578c-5.409,0 -8.948,5.148 -8.948,13.388l0,14.936l-6.051,0l0,-32.831Z" style="fill:#0c8241;fill-rule:nonzero;"/><path d="M430.559,160.444c0,-5.022 -2.96,-9.142 -8.175,-9.142c-5.923,0 -8.369,4.893 -8.818,9.142l16.993,0Zm3.926,18.219c-2.317,0.835 -4.956,2.124 -10.363,2.124c-11.651,0 -16.995,-7.083 -16.995,-17.768c0,-9.72 6.116,-16.607 15.386,-16.607c10.944,0 14.483,7.98 14.483,18.539l-23.43,0c0,6.501 5.083,10.943 10.812,10.943c3.993,0 8.627,-2.061 10.107,-3.285l0,6.054Z" style="fill:#0c8241;fill-rule:nonzero;"/><path d="M442.012,173.576c2.382,1.545 5.794,2.317 7.532,2.317c2.767,0 6.179,-1.159 6.179,-4.698c0,-5.987 -14.225,-5.471 -14.225,-14.679c0,-6.824 5.086,-10.105 11.585,-10.105c2.833,0 5.152,0.579 7.532,1.287l-0.514,5.279c-1.354,-0.837 -4.957,-1.676 -6.375,-1.676c-3.087,0 -5.791,1.289 -5.791,3.993c0,6.695 14.224,4.763 14.224,15.258c0,7.015 -5.6,10.236 -11.458,10.236c-3.087,0 -6.243,-0.325 -9.012,-1.803l0.323,-5.409Z" style="fill:#0c8241;fill-rule:nonzero;"/><path d="M486.361,152.076l-8.692,0l0,17.961c0,3.795 2.319,5.856 5.086,5.856c1.867,0 3.218,-0.579 4.12,-1.159l0,5.152c-1.353,0.385 -3.219,0.901 -5.151,0.901c-6.245,0 -10.107,-2.962 -10.107,-9.528l0,-19.183l-7.402,0l0,-4.892l7.402,0l0,-7.597l6.052,-1.932l0,9.529l8.692,0l0,4.892Z" style="fill:#0c8241;fill-rule:nonzero;"/><path d="M490.926,173.576c2.381,1.545 5.793,2.317 7.534,2.317c2.767,0 6.179,-1.159 6.179,-4.698c0,-5.987 -14.225,-5.471 -14.225,-14.679c0,-6.824 5.083,-10.105 11.583,-10.105c2.835,0 5.152,0.579 7.534,1.287l-0.517,5.279c-1.351,-0.837 -4.956,-1.676 -6.372,-1.676c-3.089,0 -5.791,1.289 -5.791,3.993c0,6.695 14.222,4.763 14.222,15.258c0,7.015 -5.598,10.236 -11.456,10.236c-3.089,0 -6.245,-0.325 -9.012,-1.803l0.321,-5.409Z" style="fill:#0c8241;fill-rule:nonzero;"/><path d="M518.024,172.803l7.211,0l-5.475,15.772l-5.792,0l4.056,-15.772Z" style="fill:#0c8241;fill-rule:nonzero;"/><path d="M561.983,140.745l-13.966,0l0,-5.664l34.374,0l0,5.664l-13.971,0l0,39.269l-6.437,0l0,-39.269Z" style="fill:#0c8241;fill-rule:nonzero;"/><path d="M587.598,147.183l5.668,0l0,5.085l0.125,0c1.609,-3.412 5.09,-5.856 8.565,-5.856c1.802,0 2.702,0.192 3.99,0.45l0,5.406c-1.095,-0.451 -2.319,-0.578 -3.347,-0.578c-5.409,0 -8.95,5.148 -8.95,13.388l0,14.936l-6.051,0l0,-32.831Z" style="fill:#0c8241;fill-rule:nonzero;"/><path d="M633.301,160.444c0,-5.022 -2.962,-9.142 -8.177,-9.142c-5.925,0 -8.369,4.893 -8.819,9.142l16.996,0Zm3.924,18.219c-2.315,0.835 -4.957,2.124 -10.361,2.124c-11.651,0 -16.997,-7.083 -16.997,-17.768c0,-9.72 6.114,-16.607 15.388,-16.607c10.942,0 14.483,7.98 14.483,18.539l-23.433,0c0,6.501 5.084,10.943 10.815,10.943c3.991,0 8.627,-2.061 10.105,-3.285l0,6.054Z" style="fill:#0c8241;fill-rule:nonzero;"/><path d="M668.504,160.444c0,-5.022 -2.962,-9.142 -8.177,-9.142c-5.921,0 -8.365,4.893 -8.814,9.142l16.991,0Zm3.928,18.219c-2.319,0.835 -4.959,2.124 -10.365,2.124c-11.652,0 -16.998,-7.083 -16.998,-17.768c0,-9.72 6.119,-16.607 15.389,-16.607c10.942,0 14.483,7.98 14.483,18.539l-23.428,0c0,6.501 5.083,10.943 10.81,10.943c3.991,0 8.627,-2.061 10.109,-3.285l0,6.054Z" style="fill:#0c8241;fill-rule:nonzero;"/><path d="M679.958,173.576c2.382,1.545 5.794,2.317 7.53,2.317c2.769,0 6.181,-1.159 6.181,-4.698c0,-5.987 -14.227,-5.471 -14.227,-14.679c0,-6.824 5.084,-10.105 11.587,-10.105c2.833,0 5.148,0.579 7.53,1.287l-0.512,5.279c-1.353,-0.837 -4.957,-1.676 -6.375,-1.676c-3.087,0 -5.793,1.289 -5.793,3.993c0,6.695 14.227,4.763 14.227,15.258c0,7.015 -5.6,10.236 -11.458,10.236c-3.088,0 -6.244,-0.325 -9.012,-1.803l0.322,-5.409Z" style="fill:#0c8241;fill-rule:nonzero;"/><path d="M743.679,164.37c-1.286,0 -2.571,-0.129 -3.862,-0.129c-3.28,0 -11.391,0.516 -11.391,6.31c0,3.474 3.345,5.342 6.114,5.342c5.987,0 9.139,-3.733 9.139,-8.625l0,-2.898Zm-17.959,-14.87c3.027,-1.803 6.63,-3.089 10.817,-3.089c9.399,0 13.196,4.636 13.196,13.583l0,13.582c0,3.734 0.127,5.471 0.258,6.437l-5.664,0l0,-4.247l-0.132,0c-1.415,1.996 -4.634,5.021 -10.171,5.021c-7.08,0 -12.039,-3.091 -12.039,-10.236c0,-8.24 9.012,-10.815 15.257,-10.815c2.382,0 4.06,0 6.437,0.127c0,-5.664 -2.059,-8.56 -8.11,-8.56c-3.41,0 -7.08,1.286 -9.524,3.347l-0.325,-5.15Z" style="fill:#0c8241;fill-rule:nonzero;"/><path d="M759.381,147.183l5.858,0l0,5.214l0.13,0c1.802,-3.734 6.176,-5.985 10.748,-5.985c8.497,0 12.295,5.278 12.295,14.096l0,19.506l-6.05,0l0,-16.995c0,-7.659 -1.674,-11.396 -6.951,-11.717c-6.891,0 -9.978,5.536 -9.978,13.519l0,15.193l-6.052,0l0,-32.831Z" style="fill:#0c8241;fill-rule:nonzero;"/><path d="M811.451,175.894c6.824,0 9.655,-6.76 9.655,-12.233c0,-6.114 -3.152,-12.359 -9.718,-12.359c-6.568,0 -9.143,6.181 -9.014,12.168c-0.129,5.15 2.577,12.424 9.077,12.424m9.915,-0.514l-0.129,0c-1.609,2.444 -5.346,5.406 -11.202,5.406c-9.913,0 -14.098,-8.818 -14.098,-17.766c0,-8.82 4.634,-16.608 14.16,-16.608c5.732,0 9.014,2.252 10.884,5.277l0.125,0l0,-19.954l6.051,0l0,48.279l-5.791,0l0,-4.634Z" style="fill:#0c8241;fill-rule:nonzero;"/><path d="M332.536,209.5l-8.947,22.275l17.895,0l-8.948,-22.275Zm-3.154,-6.052l6.76,0l18.99,44.933l-7.018,0l-4.569,-11.329l-22.017,0l-4.57,11.329l-6.759,0l19.183,-44.933Z" style="fill:#0c8241;fill-rule:nonzero;"/><path d="M383.447,232.352c0,-6.822 -3.154,-12.682 -9.591,-12.682c-6.116,0 -9.143,6.63 -9.143,12.232c0,6.181 3.477,11.587 9.143,11.587c5.665,0 9.591,-5.021 9.591,-11.137m6.052,14.614c0,9.978 -5.151,15.707 -16.931,15.707c-3.477,0 -6.502,-0.45 -11.781,-2.253l0.645,-5.602c4.634,2.126 7.403,2.963 11.843,2.963c6.373,0 10.172,-4.314 10.172,-11.267l0,-3.218l-0.129,0c-2.575,3.412 -6.822,5.085 -11.009,5.085c-9.397,0 -14.033,-7.658 -14.033,-16.158c0,-8.431 4.765,-17.443 14.679,-17.443c5.791,0 9.012,2.123 10.813,5.664l0.129,0l0,-4.894l5.602,0l0,31.416Z" style="fill:#0c8241;fill-rule:nonzero;"/><path d="M399.211,215.551l5.665,0l0,5.086l0.129,0c1.609,-3.412 5.085,-5.856 8.56,-5.856c1.803,0 2.704,0.191 3.993,0.449l0,5.407c-1.095,-0.452 -2.317,-0.579 -3.348,-0.579c-5.408,0 -8.947,5.148 -8.947,13.388l0,14.936l-6.052,0l0,-32.831Z" style="fill:#0c8241;fill-rule:nonzero;"/><path d="M438.217,244.262c7.082,0 10.236,-6.437 10.236,-12.295c0,-6.245 -3.797,-12.297 -10.236,-12.297c-6.501,0 -10.301,6.052 -10.301,12.297c0,5.858 3.156,12.295 10.301,12.295m0,-29.482c9.978,0 16.673,7.207 16.673,17.187c0,9.397 -6.822,17.187 -16.673,17.187c-9.913,0 -16.738,-7.79 -16.738,-17.187c0,-9.98 6.695,-17.187 16.738,-17.187" style="fill:#0c8241;fill-rule:nonzero;"/><path d="M466.341,220.444l-7.726,0l0,-4.892l7.726,0l0,-3.027c0,-7.982 2.059,-13.194 11.008,-13.194c1.543,0 2.834,0.191 4.055,0.385l-0.258,4.892c-0.707,-0.256 -1.867,-0.385 -2.898,-0.385c-5.214,0 -5.855,3.347 -5.855,7.788l0,3.541l8.689,0l0,4.892l-8.689,0l0,27.937l-6.052,0l0,-27.937Z" style="fill:#0c8241;fill-rule:nonzero;"/><path d="M501.42,244.262c7.082,0 10.234,-6.437 10.234,-12.295c0,-6.245 -3.797,-12.297 -10.234,-12.297c-6.501,0 -10.301,6.052 -10.301,12.297c0,5.858 3.156,12.295 10.301,12.295m0,-29.482c9.978,0 16.671,7.207 16.671,17.187c0,9.397 -6.82,17.187 -16.671,17.187c-9.913,0 -16.738,-7.79 -16.738,-17.187c0,-9.98 6.695,-17.187 16.738,-17.187" style="fill:#0c8241;fill-rule:nonzero;"/><path d="M525.553,215.551l5.665,0l0,5.086l0.129,0c1.609,-3.412 5.086,-5.856 8.56,-5.856c1.803,0 2.706,0.191 3.991,0.449l0,5.407c-1.091,-0.452 -2.315,-0.579 -3.343,-0.579c-5.409,0 -8.95,5.148 -8.95,13.388l0,14.936l-6.052,0l0,-32.831Z" style="fill:#0c8241;fill-rule:nonzero;"/><path d="M571.253,228.812c0,-5.022 -2.963,-9.141 -8.178,-9.141c-5.92,0 -8.364,4.892 -8.814,9.141l16.992,0Zm3.928,18.219c-2.319,0.835 -4.959,2.124 -10.365,2.124c-11.652,0 -16.998,-7.082 -16.998,-17.768c0,-9.72 6.118,-16.606 15.388,-16.606c10.942,0 14.483,7.979 14.483,18.538l-23.428,0c0,6.501 5.084,10.944 10.811,10.944c3.99,0 8.627,-2.061 10.109,-3.285l0,6.053Z" style="fill:#0c8241;fill-rule:nonzero;"/><path d="M582.707,241.945c2.381,1.544 5.793,2.317 7.529,2.317c2.769,0 6.181,-1.16 6.181,-4.699c0,-5.987 -14.227,-5.471 -14.227,-14.679c0,-6.824 5.084,-10.104 11.587,-10.104c2.834,0 5.149,0.578 7.53,1.286l-0.512,5.279c-1.353,-0.836 -4.957,-1.675 -6.374,-1.675c-3.087,0 -5.794,1.288 -5.794,3.992c0,6.695 14.227,4.764 14.227,15.258c0,7.015 -5.6,10.236 -11.458,10.236c-3.087,0 -6.243,-0.325 -9.012,-1.803l0.323,-5.408Z" style="fill:#0c8241;fill-rule:nonzero;"/><path d="M627.053,220.444l-8.689,0l0,17.961c0,3.795 2.315,5.856 5.083,5.856c1.87,0 3.219,-0.578 4.122,-1.159l0,5.152c-1.353,0.385 -3.218,0.902 -5.15,0.902c-6.245,0 -10.107,-2.963 -10.107,-9.529l0,-19.183l-7.403,0l0,-4.892l7.403,0l0,-7.597l6.052,-1.932l0,9.529l8.689,0l0,4.892Z" style="fill:#0c8241;fill-rule:nonzero;"/><path d="M634.066,215.551l5.668,0l0,5.086l0.125,0c1.609,-3.412 5.09,-5.856 8.565,-5.856c1.803,0 2.702,0.191 3.99,0.449l0,5.407c-1.095,-0.452 -2.319,-0.579 -3.347,-0.579c-5.408,0 -8.95,5.148 -8.95,13.388l0,14.936l-6.051,0l0,-32.831Z" style="fill:#0c8241;fill-rule:nonzero;"/><path d="M656.079,257.264c0.772,0.259 1.803,0.517 2.831,0.517c5.409,0 7.212,-7.468 7.212,-8.111c0,-0.708 -0.773,-2.383 -1.16,-3.476l-11.14,-30.644l6.631,0l8.82,27.167l0.129,0l9.014,-27.167l6.115,0l-12.102,33.539c-2.252,6.31 -4.636,13.584 -12.619,13.584c-1.928,0 -3.025,-0.256 -4.118,-0.45l0.387,-4.959Z" style="fill:#0c8241;fill-rule:nonzero;"/><path d="M279.482,5.314l0,279.831" style="fill:none;fill-rule:nonzero;stroke:#0c8241;stroke-width:2.15px;"/></g></svg>