<?xml version="1.0" encoding="UTF-8" standalone="no"?><!DOCTYPE svg PUBLIC "-//W3C//DTD SVG 1.1//EN" "http://www.w3.org/Graphics/SVG/1.1/DTD/svg11.dtd"><svg width="100%" height="100%" viewBox="0 0 866 364" version="1.1" xmlns="http://www.w3.org/2000/svg" xmlns:xlink="http://www.w3.org/1999/xlink" xml:space="preserve" xmlns:serif="http://www.serif.com/" style="fill-rule:evenodd;clip-rule:evenodd;stroke-linejoin:round;stroke-miterlimit:2;"><g><g><g><path d="M349.769,208.842l-0.952,0.955l-2.227,-0l-1.915,0.636l-3.499,1.274l-4.135,1.271l-3.181,1.592l-2.865,0l-2.864,0.32l-2.865,1.273l-1.695,0.954l-1.806,0.636l-1.907,0.954l0.318,-0.636l0.316,-0.318l1.273,-0.954l1.908,-0.318l0.32,-0.318l0.955,-1.273l2.867,0l2.226,-0.638l0.636,-0.636l0.634,-0.638l2.549,-0l2.227,-0.953l2.863,-0.318l0.954,-0.956l0.728,-0.182l0.651,-0.241l3.392,-0.531l1.915,-0.955l2.227,-0.636l0.634,-0.638l1.272,-0l0.959,0.638l-1.913,0.636Zm-7.002,24.822l-3.181,-0l-1.272,0.954l-1.273,0.636l0,-0.636l0.32,-0.954l1.589,-0.637l0.636,0l1.274,-0.954l1.907,0l0.958,-0.32l0.95,0l0.959,1.274l-2.867,0.637Zm-17.501,-7.957l-2.227,0l0.634,-0.634l0.32,-0.638l0.955,-0l-0,0.954l0.318,0.318Zm-3.341,0.478l-0.799,0.797l0,-1.275l1.593,0l-0.794,0.478Zm-4.934,-19.569l0.636,-1.909l1.273,0l2.226,-0.636l0.639,0l1.699,-0.32l1.484,-0l0.636,-0.636l1.908,-0.957l3.185,0l0,0.957l-2.546,0.636l-2.229,-0l-1.909,0.636l-0.32,0.32l-1.908,0l-1.273,0.316l-0.634,0.318l-0.638,0.957l-2.229,0.318Zm-3.181,-18.776l-1.59,0.634l-0.638,0l-2.229,0.318l-2.543,0.321l-0.636,0.318l-0.318,0.636l-0.32,0.954l-1.27,0l-0.323,-0.318l1.593,-1.911l2.227,-0.318l1.91,-0.634l1.27,-0.318l1.277,-0.636l2.545,-0.954l4.455,-0.32l2.545,-1.591l1.274,-0.954l0.634,-0l1.275,-0.318l0.954,-0l-0,0.318l-0.954,1.272l-1.115,0.478l-0.794,0.795l-1.114,0.158l-2.067,0.162l-2.867,0.318l-3.181,1.59Zm-2.228,-7.954l0.48,-0.638l0.792,-0.318l2.551,-1.909l-0.64,1.909l-2.654,1.272l-2.758,0l2.229,-0.316Zm-13.048,51.867l-3.183,0.32l-0.634,0.636l-0.636,0.318l-1.907,0l-0.958,0.637l-1.586,0.954l-1.281,-0l-1.589,0.636l-1.908,0.318l-2.229,0.957l-0.636,0.318l-0.954,-0l-1.911,1.59l-2.545,0.638l-3.18,0l-0.637,1.271l-0.956,0.32l-1.27,0.318l-0.638,-0.638l0.638,-0.637l1.27,-0.634l1.272,0l1.591,-0.956l0.642,-0.318l0.637,-0.954l5.883,-0.637l1.112,-0.956l1.593,-0.636l2.226,-0.638l2.549,-0.316l1.907,-0.637l1.588,-0.954l1.277,0l0.956,-0.32l0.634,-0.634l0.322,-0.636l2.541,-0l0.32,0.636l-0.32,0.634Zm-25.774,1.593l0.953,-0.319l2.864,-1.274l1.275,-1.27l1.27,-0l2.786,-0.461l0.715,0.141l0,0.32l-0.636,0.318l-0.954,0.318l-1.593,0.634l-0.634,0.32l-1.592,0l-0.637,0.954l-3.18,0.637l-0.637,0.954l-1.91,0.318l-0.316,-0.318l2.226,-1.272Zm6.362,-47.734l1.277,-0l0.952,-0.318l0.636,-0.637l1.272,-0.954l1.275,-0.636l0.318,-0l-0.318,0.316l-0.954,2.229l-1.593,0.32l-2.865,-0l0,-0.32Zm-47.095,15.274l-1.275,0.956l-1.272,0.316l-2.703,0.637l-1.432,-0l-1.593,0.956l-4.773,1.59l-4.456,1.275l-7,2.545l-2.867,0.954l-3.178,1.91l-3.501,0.637l-2.547,1.272l-2.545,0.318l-0.318,0l0,-0.318l3.187,-1.909l3.177,-1.592l3.181,-0.636l3.185,-1.273l6.043,-2.226l9.229,-3.183l6.364,-1.591l3.819,-1.274l0.638,-1.275l0.637,-0.318l0.638,-0.316l0.316,1.273l-0.954,1.272Zm-122.834,46.144l-5.726,2.228l-5.732,3.181l-2.386,0.794l-1.433,0.474l-1.59,0.961l-1.904,0.636l-5.096,1.272l-2.547,0.955l-2.227,1.272l0,-0.638l3.181,-1.907l3.501,-0.954l2.869,-1.597l2.223,-0.632l2.386,-0.636l6.524,-3.501l6.364,-2.545l1.593,0.319l-0,0.318Zm250.123,-31.506l0.32,-0.634l2.226,-0.638l0.637,-0.318l0.318,-0.956l1.59,-0.635l0.954,-0.318l0.639,-1.592l-1.593,-1.272l-1.59,-1.593l-1.275,-0.636l-1.906,-0.316l1.59,-0.318l0.636,-0.957l0.955,-0.634l0.636,-0.956l0.636,-0.636l0,-0.636l0.638,-0.321l0.634,0l0,-1.59l-3.18,-0l-0.639,-0.318l0.957,-1.909l0.318,-0.636l-1.275,0l0,0.318l-3.499,0l-1.588,0.318l-0.638,0.634l-0.312,1.275l-1.915,-2.227l2.543,-0.954l2.546,-2.229l4.138,-0.638l-7,0.32l-0.634,0.636l-0.957,0.319l-1.913,1.272l-0.631,0.32l-2.549,0.636l-3.183,0.636l-0.952,0.316l-0.637,0.639l-1.594,0.954l-1.591,0.318l-4.135,-0l0,-1.911l0.32,-0.316l3.815,0l6.364,-0.636l1.277,-0.956l-0,-1.909l0.634,-0.318l2.969,-0.425l3.397,-1.167l5.725,-1.273l-0.316,-2.544l-1.91,-0.639l-4.449,0l-0.963,0.318l-0.314,0.321l-1.277,-0.955l-0.315,-0.318l-0.955,-0.318l-0.32,0.952l-0.318,0.639l-0,1.59l-0.954,0.318l-1.273,-1.272l-1.274,-0.318l-1.27,0.318l-0.959,1.272l-3.499,0.957l-0.636,-0.321l0,-0.636l0.427,-2.44l0.15,-0.854l0.7,0.113l2.858,0l5.094,-1.908l2.333,-0.53l1.168,-0.745l2.235,0.637l2.538,-0.637l0.636,-1.59l-2.862,-0l0.952,-0.318l1.91,-0l2.863,-0.636l0,-0.321l-5.725,-1.59l-0,-1.272l-0.634,-0.32l-2.763,-0.105l-2.333,1.061l-3.183,0.636l-1.27,-0.316l-0.32,-0.638l0.32,-0.954l1.27,-0.957l1.913,-1.272l-0,-1.272l0.634,-1.591l1.272,-0.318l0.32,-0.956l-0.32,0.318l-1.906,0.638l-0,-0.638l0.952,-1.909l0.318,-1.272l-0,-0.318l-0.636,0.636l-2.861,0.954l-3.503,0.318l-1.911,1.273l-1.272,0.636l-2.863,0.638l-1.272,0.318l-0.957,0.318l-0.318,-0.636l-0.956,-0.638l-0.632,-0.636l0.316,-0.955l1.272,-0.318l6.366,-1.272l6.68,-2.545l3.183,-0.638l0.32,-1.909l0,-0.636l-1.274,0l-7.632,0.636l-0.961,0.316l-6.682,1.593l-3.183,0.32l-2.224,0.634l-5.414,2.229l-1.908,0.634l-8.273,1.593l-1.276,0.318l-2.863,0.636l-3.817,0.638l-7.002,2.863l-6.36,2.229l-4.137,1.272l-3.503,2.226l-2.547,0.957l-3.499,0.954l-5.728,1.909l-4.455,0.32l-4.455,0.954l-8.277,2.227l-2.544,1.59l-2.547,0.636l-4.769,0.957l-1.913,0.318l-1.591,0.954l-1.908,0.634l-1.911,0.638l-5.091,1.591l-4.771,1.592l-1.595,0.952l-0.954,0.321l-2.541,1.272l-5.732,1.59l-0.956,0.637l-1.909,0.638l-1.908,0.318l2.863,-3.183l-0.955,-0l-1.908,1.59l-1.272,0.637l-0.321,0.638l-0.316,0.318l-0.32,-0l-4.135,1.59l-4.773,2.227l-4.453,1.913l-3.504,0.952l-2.226,0.954l-2.227,1.591l-3.183,0.956l-2.542,0.636l-0,-0.636l1.268,-0.956l10.501,-4.772l-1.909,0l-8.91,3.819l-3.183,0.953l-1.593,0.32l-0.952,0.636l-2.227,0.636l-2.864,0.32l-0,1.273l1.59,-0.639l1.274,-0.634l1.909,1.273l-4.137,1.59l-2.545,0.636l-2.865,0.318l-5.409,1.593l-4.138,1.59l-2.222,0.955l-2.233,1.59l-4.139,2.547l-3.179,0.954l-3.815,0.954l-0.638,0.636l-0.957,0.319l-1.91,0.318l-2.863,0.32l-2.547,-0l-0.636,0.636l-1.274,0.634l-1.273,0.32l-3.183,0.954l-3.181,1.591l-5.091,3.819l-3.497,0.954l-4.459,1.593l-3.181,-0l-2.229,0.952l-2.227,0.638l0.955,0l2.226,-0.318l0.957,-0.32l0.318,-0.316l0.318,0.316l-0,0.32l-1.593,0.954l-2.226,1.275l-3.501,1.59l-3.499,1.273l-4.031,1.91l-2.653,0.955l-3.183,1.908l-3.817,1.586l-4.456,1.597l-6.366,2.54l-7.32,3.188l-1.906,0.636l-2.547,0.314l-2.545,1.596l-2.228,0.953l-3.501,2.546l-3.497,1.273l-2.549,0.636l-2.547,1.27l-2.227,0.641l-3.498,2.226l-3.502,1.268l4.136,0l-0,0.323l-1.591,1.274l-2.224,1.272l-5.732,2.863l-2.545,1.275l-3.497,1.59l-2.869,1.909l-1.59,0.956l-1.591,0.636l-0.956,0.636l-2.227,0.639l-4.769,2.864l-5.096,3.181l-0.636,1.268l-1.272,0.323l-0.638,0.318l-0.634,0.956l-0.321,0.634l-0.954,0.636l-0.636,0.321l-0.318,0.636l1.908,0.311l0.637,-0.311l0.638,0.311l-0,0.321l-1.275,0.322l-0.318,1.272l-0.318,0.632l0,0.641l0.957,0.32l0.634,1.908l0.638,0l-0.956,0.318l-0.316,0l-0,1.909l0.316,0.636l0.956,0.636l1.272,0.318l0,0.321l0.318,3.183l-0.318,2.226l0.318,0.318l1.909,2.547l0.956,0.952l0.636,1.909l0.637,2.865l0.64,2.228l0.954,1.909l0,1.592l0.632,1.273l0.957,0.636l1.59,1.911l-0.636,1.908l-0,1.272l0.954,1.275l0.954,4.133l1.911,1.592l0.952,1.595l0.957,1.909l1.59,1.908l-0,3.499l0.636,3.815l1.915,1.597l0.954,1.592l0.318,2.545l2.223,2.226l0.638,-0.318l0.954,0l1.591,-0.318l0.636,-1.274l2.229,-0.316l5.409,-3.501l2.545,-0.957l2.547,-1.276l0.318,-0.632l0.636,-1.59l2.229,-0.319l1.908,-0.318l4.137,-2.226l1.909,-0.957l2.228,-0.318l2.865,-1.912l3.185,-0.95l2.541,-1.593l1.272,-0.316l1.593,-1.274l1.908,-0.953l1.911,-0.96l2.229,-0.952l-0,-0.952l1.272,-0.321l4.773,-2.862l5.092,-2.865l3.817,-0.957l4.667,-1.908l4.564,-2.545l3.817,-0.956l4.775,-2.863l5.09,-2.547l6.045,-2.229l6.046,-2.226l0.956,-0.636l0.637,-0.318l0.634,-0l0.64,-0.639l1.27,-0.952l2.235,-0.32l2.221,-0.954l2.226,-1.591l2.549,-0.636l1.909,-0.316l1.908,-0.638l2.233,-0.954l3.179,-0.639l2.544,-1.272l2.227,-1.593l-2.227,0.639l-2.544,1.908l-0,-2.547l3.815,-1.588l2.546,-0.954l2.872,-0.32l0.954,-0l0,0.32l1.904,-0l0.318,-0.32l2.863,-0.952l2.865,-1.593l-0.638,-0.643l1.274,-1.588l1.593,-0.95l3.181,-0.318l-3.181,2.545l1.59,-0l0.643,-1.277l1.266,-0.95l1.59,-0.956l0.954,-0.954l3.504,-1.591l3.498,-0.956l7.321,-2.227l3.499,-0.954l3.501,-1.591l7.002,-3.183l3.819,-0.956l3.821,-0.638l3.179,-1.588l3.181,-0.957l7.642,-2.545l3.495,-1.272l31.507,-11.775l10.183,-4.138l10.499,-3.817l2.865,-0.636l7.004,-2.233l10.179,-3.178l4.139,-1.909l3.501,-1.59l5.09,-0.637l1.91,-0.638l1.595,-0.636l2.543,-1.59l2.867,-0.637l0.95,0l1.908,-0.318l3.819,-0.954l3.819,-1.274l3.501,-1.271l6.364,-1.912l1.911,-0.634l3.503,0.318l4.133,-0.318l1.59,-0.895l0.639,-0.38l2.231,0l0.634,-1.908l1.272,-0.955l1.59,-0.638l0,-1.27l-1.59,-0.32l-0.956,-0.953l-0.316,-1.592l0.952,-0l1.274,-0.636l-0.634,-0.957l0.316,-1.272l1.591,-2.545l2.865,-0.956l3.18,-1.272l0.639,-0.955l-0.639,-0.318l-0.318,-0.954l-2.226,0l-0.636,0.954l-2.865,0.318l-0.637,-0.318l0.957,-0.954l-0,-0.954l-0.638,0.318l-0.319,-0.318l0,-0.636l0.637,-0.639Z" style="fill:#65b345;fill-rule:nonzero;"/><path d="M352.314,175.747l-1.272,0.318l-1.593,-0l0,-0.634l1.275,-1.275l1.59,-0.636l0.321,-0.318l0.634,-0.318l1.915,0.318l-1.915,2.229l-0.955,0.316Z" style="fill:#65b345;"/><path d="M352.314,236.847l-1.272,0.316l-1.593,1.274l-0.315,0.318l0.315,0.318l0.321,0.319l0.634,-0.319l1.276,-0.636l0.634,-0.318l1.277,-1.272l-0,-0.318l-0.638,-0l-0.639,0.318Z" style="fill:#65b345;"/><path d="M331.225,241.955l-3.093,0.619l-0,0.954l0.956,0.956l1.268,-0.32l0.641,-0.636l0.473,-0.636l2.389,-0.634l0.634,-0.639l0,-0.636l-0.318,0l-0.636,0.636l-2.314,0.336Z" style="fill:#65b345;"/><path d="M226.933,197.385l4.457,-1.271l3.819,-1.912l-4.773,1.592l-3.503,1.591Z" style="fill:#65b345;"/><path d="M226.933,197.385l-1.589,0.32l-5.411,0.318l-0.955,2.226l3.506,-1.59l4.449,-1.274Z" style="fill:#65b345;"/><path d="M323.993,224.435l-0.318,0.638l-0.634,0.636l2.226,0l-0.32,-0.32l0,-0.954l-0.954,-0Z" style="fill:#65b345;fill-rule:nonzero;"/><path d="M331.312,212.979l2.547,-0l2.227,-0.953l2.863,-0.32l0.954,-0.954l0.728,-0.184l0.653,-0.239l3.392,-0.531l1.913,-0.954l2.227,-0.639l0.634,-0.636l1.274,0l0.957,0.636l-1.911,0.639l-0.954,0.954l-2.227,-0l-1.913,0.636l-3.501,1.272l-4.133,1.273l-3.183,1.592l-2.862,0l-2.865,0.318l-2.865,1.273l-1.697,0.954l-1.806,0.636l-1.905,0.956l0.316,-0.638l0.318,-0.318l1.271,-0.952l1.91,-0.32l0.318,-0.318l0.957,-1.273l2.865,0l2.226,-0.638l0.636,-0.634l0.636,-0.638Z" style="fill:#65b345;fill-rule:nonzero;"/><path d="M321.126,204.07l0.639,0l1.699,-0.32l1.484,0l0.636,-0.634l1.908,-0.958l3.185,-0l0,0.958l-2.546,0.634l-2.229,0l-1.909,0.636l-0.32,0.32l-1.908,0l-1.273,0.319l-0.634,0.316l-0.638,0.956l-2.229,0.318l0.636,-1.909l1.273,0l2.226,-0.636Z" style="fill:#65b345;fill-rule:nonzero;"/><path d="M281.987,184.657l1.272,-0.954l1.275,-0.636l0.318,-0l-0.318,0.316l-0.954,2.228l-1.593,0.321" style="fill:#65b345;fill-rule:nonzero;"/><path d="M281.351,185.294l-0.952,0.316l-1.276,-0l-0,0.32l2.864,0l0,-1.272l-0.636,0.636Z" style="fill:#65b345;fill-rule:nonzero;"/><path d="M95.349,253.234l-1.432,0.474l-1.591,0.959l-1.906,0.636l-5.094,1.274l-2.547,0.954l-2.226,1.271l-0,-0.636l3.181,-1.907l3.501,-0.956l2.867,-1.595l2.224,-0.632l2.387,-0.638l6.524,-3.499l6.364,-2.545l1.59,0.316l0,0.32l-5.723,2.229l-5.732,3.179l-2.387,0.796l-0.478,0.16" style="fill:#65b345;fill-rule:nonzero;"/><path d="M119.698,102.664l-1.586,2.538l-11.105,-0l-5.077,1.904l-2.22,1.268l-1.586,2.22l-0.318,1.905l-0,0.316l0.634,1.27l1.27,1.27l2.22,1.268l0,1.268l-1.268,0.952l-0.952,0.318l-1.904,-0.318l-1.27,-0.316l-3.171,-1.27l-2.852,-0.634l-1.268,0.318l-1.274,0.95l-1.27,0l0.318,-2.536l0.952,-2.222l1.59,-1.586l1.584,-1.271l1.586,-0.316l1.902,-0.318l2.221,-1.586l0.952,-0.634l0.318,-0.316l0.316,-1.27l0.318,-1.909l4.763,-5.388l2.534,-1.904l2.538,-1.268l1.588,1.586l1.586,1.268l1.584,1.27l2.543,1.902l3.804,0.637l0.316,-0l-0.316,0.634Zm-21.892,40.924l-1.902,2.858l-7.615,10.471l-2.856,4.441l-2.221,2.856l-1.27,1.268l-1.586,-0.316l-0.318,-1.27l1.27,-6.345l0.95,-1.904l0.954,-0.95l0.318,-0.318l3.171,-3.49l1.588,-2.855l2.224,-2.54l4.12,-4.44l1.271,1.586l1.268,-0.952l0.634,-0l0.952,-0.634l-0.952,2.534Zm-18.086,3.172l-0,-0.314l1.272,-0.952l0.316,-1.586l0.634,-2.854l1.27,-0.318l2.855,-0.953l1.586,-1.272l0.636,-1.588l-0.636,-1.586l-1.268,-1.264l-1.905,-2.227l0.316,-6.022l5.083,0l2.216,0.952l0.952,0.952l0.634,1.268l0,0.952l-0.316,0.314l-0.634,0.32l-0.318,0.953l-0.952,0.311l-0.636,0.641l-0.312,2.538l0.312,3.174l0.636,0.95l1.27,0.634l-4.76,4.443l-4.759,4.758l-0.318,0l-0.952,0.634l-0.316,0.318l-0.318,-0.634l-0.952,-0.634l-0.318,-0.634l-0.318,-1.274Zm-0.632,-27.599l-0.318,-1.27l-0.634,-0.95l-0.948,-0.636l-0.318,-0.316l-0,-0.952l0.318,-0l1.264,-0.318l0.318,-0.957l0.634,-0.629l0.316,-0l1.588,-1.586l0.634,0.318l0.316,0.311l0.636,0.639l0,0.947l-0.636,1.275l0,2.538l-0.316,0l0.316,2.22l-0.316,0.63l-0.634,0.322l-1.588,0l-0.632,-1.586Zm-1.588,9.835l-0.312,0.634l-0.318,0.318l-0.316,0l-3.177,-0.634l-2.222,-0.952l-1.268,-1.274l-0,-2.534l-1.27,-1.584l-1.584,-0.959l-1.907,0l-0.634,-0.311l-3.49,0.311l-1.586,0l-2.22,-0.629l0.634,-1.269l0.952,-0.952l11.105,0l1.902,-0.634l2.222,-0.952l0.952,0.316l0.635,0.636l0.956,2.855l-2.861,-0l-1.586,0.318l0,1.27l0.634,1.266l0.636,0.636l1.902,0.318l1.591,-0l0.318,1.586l0.312,1.268l-0,0.952Zm-6.663,35.534l-4.124,-6.663l-0.953,-1.902l-0.634,-0.636l-2.216,-2.854l-3.176,-3.491l6.663,0l0.316,0.318l2.54,2.221l0.95,1.27l0.634,1.904l-0,9.833Zm-15.546,-80.586l-1.586,-1.268l-1.586,-0.637l-7.297,0l-0.636,-0.316l0,-2.854l0.952,0l9.201,1.586l0.952,0.312l2.855,0.322l2.856,-0.322l1.27,2.543l0.954,0.952l1.266,0.952l0.634,2.538l0.318,0.95l0.953,2.541l0.316,0.95l-0,0.636l-0.316,0.316l-1.271,-0.634l-2.216,-1.587l-1.908,-0.952l-1.268,-1.586l-4.125,-4.442l-0.318,-0Zm-3.806,37.438l-2.856,0.629l-2.539,0.959l-1.268,0.316l-1.27,0.636l-2.536,1.268l-1.588,-2.538l-1.268,-0.641l-0.318,-1.586l0.318,-0.63l2.22,-0.318l3.806,-0.316l4.127,0l2.224,0.316l0.948,0.636l0.634,1.269l-0.634,-0Zm-16.5,-31.41l-0.95,0.318l-0.634,0l-1.27,-0.318l-5.077,-4.758l1.905,-0.636l5.076,-3.173l0.95,-0.638l0.636,-0.63l1.273,-0.634l3.168,-0.318l0.318,0.634l0.636,2.22l0,2.857l-2.538,1.904l-3.493,3.172Zm21.577,-45.686l0.634,-1.268l0.95,-2.541l0.636,-1.902l4.444,0.952l1.9,0l1.271,-0.636l0.316,0l1.588,-0.634l0.952,-0.634l1.268,-1.586l0.316,0.95l0.318,0.636l0.952,0.316l0,3.174l0.952,1.905l1.268,1.268l1.593,0.634l0.634,1.27l0.634,0.952l1.264,1.584l-0,1.904l-1.264,0.318l-0.318,0l-0.95,0.634l-0.322,-0.634l-0.635,-0.318l-0.636,-0.316l-0.316,-0.318l-3.808,-1.902l-3.49,-1.588l-0.635,-0.316l-0.952,-0l-3.172,-0.952l-3.808,-0.318l-2.855,-0l1.271,-0.634Zm30.773,44.416l-0,2.222l-7.297,0l-0.318,0.319l-2.532,-0l-3.495,0.315l-1.27,0.953l-0.95,-0l-0.636,-0.318l-0.316,-0.95l0.952,-1.905l2.22,-1.586l1.905,-0.322l1.59,0.64l1.582,0.316l7.931,0l0.634,0.316Zm1.586,-27.283l-0,0.635l-0.632,1.268l-5.077,0.318l-3.492,-0l-1.902,0.316l-0.63,0.313l-0.952,0.323l-1.591,1.586l-1.904,3.172l-0.634,1.586l0,1.905l0.634,1.27l0.952,1.268l1.27,0.316l1.591,0.318l0.634,0.634l0.312,-0l0.636,0.634l0.316,1.588l-0.316,1.268l-0.318,0.952l-0.63,0.634l-0.318,0l-0.95,-0.318l-1.275,0l-3.808,0.634l-0.316,0.637l0.316,2.538l-0.316,1.586l-0.318,0.952l-1.268,0.95l-1.902,-0.95l-0.32,-0.636l-0.635,-1.902l-0.952,-0.636l0,-0.316l-0.316,-1.268l-0.318,-3.809l0.634,-0.316l0,-8.567l-0.634,-1.27l-0.629,-1.904l0.316,-0.95l0.631,-0.318l0.316,-0.634l0.634,-0.634l0.953,-0.323l1.588,-0.629l8.253,-0.318l0.634,-0.318l-0,-8.247l-0.318,-0.636l0.318,-0.318l1.264,-1.269l0.636,-0.634l0.632,-0.318l0.954,-0.952l0.952,0.318l0.316,0.634l0.316,1.587l0.636,1.904l0.318,0.634l0.95,0.634l1.589,0.954l1.584,0.632l0.636,0.952l0.634,0.636l0.316,0.316l-0.632,0.952l0.632,0.636Zm-16.18,-27.602l0.318,-0.637l0.634,-0.315l0.952,-1.905l1.275,-1.588l1.268,-0.314l0.312,-0.318l5.712,0l3.173,-0.318l7.296,-1.27l0,2.538l-2.22,1.27l-1.582,0.634l-1.59,0.316l-4.443,0.318l-0.634,0.318l-3.492,0.319l-2.532,0.315l-1.909,0.953l-1.586,1.586l-0.952,-0.634l0,-1.268Zm24.113,26.332l7.933,0l0.634,0.316l-0.319,0.636l-3.172,4.759l-0.952,-0l-2.22,-0.952l-5.393,-0l-2.54,-0.952l-0,-3.173l6.029,-0.634Zm9.201,32.996l-0.634,0.952l-1.9,0.318l-1.591,1.902l-1.902,1.588l-2.222,1.904l-1.902,1.584l-1.905,-0.634l-1.586,-0.95l-1.9,-0.318l-0.634,-0.318l0,-1.908l0.634,-0.312l2.218,-0.636l0.634,-0.95l0.316,-0.952l0.318,-0.952l-0.318,-1.905l-3.802,-0.634l0.318,-1.586l0.628,-0.952l2.856,-0.316l4.125,0.632l0.952,0l1.586,0.314l1.909,0.956l3.802,3.173Zm55.521,-17.132l-3.172,-1.902l-2.534,-1.907l-0.316,-1.586l-0.638,-1.268l-1.907,-2.538l-3.17,-2.856l-4.442,-0.634l-3.809,0.318l-3.488,0.952l-3.809,1.586l-2.854,0.95l-2.856,1.904l-7.615,0.318l-2.854,-0.318l-2.856,-2.22l-2.855,-1.586l-3.172,-0.957l-3.174,-0.313l-0.953,-0l1.587,-1.587l0.954,-0.95l1.268,-0.636l2.22,-0.318l1.902,0.318l1.589,0.952l1.59,1.905l2.216,2.22l2.538,0.952l7.299,-0l2.22,-0.952l1.904,-0.952l2.221,-1.268l2.22,-0.636l3.808,-3.489l3.488,-2.22l2.539,-1.277l3.174,-1.261l0,-4.127l-1.27,-0.95l-1.586,-0.954l-0.318,-2.22l-0.316,-1.902l0.952,-2.541l0.316,-1.586l-0.634,-1.586l-2.22,-3.806l-2.852,-2.857l-3.811,-1.904l-4.127,-0.634l-6.66,-0.318l-3.172,0.636l-6.347,0l-1.264,-0.318l-1.59,0l-1.271,-0.95l-1.902,-1.588l-6.98,-1.586l-3.173,-0.316l-2.856,0.316l-0.634,-0l0.316,-1.902l-0.316,-0.953l-0.318,-0.636l-0.316,-0.95l-0.954,-1.27l-2.855,-2.538l-6.346,-3.491l-3.805,-0.634l-0.318,0l-3.174,-1.268l-0.318,0l-2.532,-0.318l-2.543,-0.318l-5.71,0l-2.222,1.27l-1.587,0.952l-3.172,1.587l-3.488,2.538l-3.175,2.856l-0.634,0.316l-4.438,2.22l-5.397,2.539l-0.636,-0l-2.854,0.318l-1.27,0.95l0.954,1.588l1.902,0.95l1.904,0.318l3.807,0.318l0.634,1.27l0.956,0.632l1.9,1.27l2.22,2.223l0.952,1.268l1.271,1.268l-1.271,4.124l-0.316,0.955l0,1.586l-2.538,-3.175l-1.27,-3.49l-2.22,-2.854l-3.491,-1.586l-0.634,-0l-3.806,-0.634l-3.174,0.634l-2.539,1.586l-1.268,0.952l-0.952,1.586l-0.318,1.904l0,4.125l-0.316,1.586l-1.27,1.586l-1.902,1.586l-4.127,2.538l-4.44,2.221l-3.172,1.904l-2.857,2.854l-2.22,2.856l-1.266,3.173l-0.318,3.172l0.632,2.856l2.22,2.857l4.125,2.538l-0.634,4.44l-0.319,2.22l0.319,1.589l1.586,1.268l2.22,0.318l3.494,-0l4.757,4.758l-0,0.634l-0.318,0.318l-0.952,0l-8.567,0.319l-5.393,1.586l-4.442,2.538l-3.173,3.172l-0.952,1.586l-0.634,1.905l0,3.172l0.318,2.854l0.634,1.904l2.855,2.855l2.856,0.636l2.856,1.586l5.075,5.076l2.538,1.898l2.542,0.959l8.245,-0l1.27,0.63l0.316,-0l0.952,0.954l1.909,2.856l0.948,0l-0.948,1.586l-1.591,2.221l-0.318,2.856l1.591,3.172l3.486,3.172l2.538,1.589l1.904,0.952l0.952,0.316l6.663,3.172l1.268,0l1.586,2.538l2.855,4.439l4.446,7.301l2.534,4.124l1.587,2.538l0.636,0.634l1.904,3.809l1.584,4.44l-0.316,16.816l-0.634,18.084l-0.634,16.5l-1.27,15.229l-0.95,19.034l-0.32,9.203l-0,6.46l-0.069,3.373l-1.27,13.003l-1.898,12.38l-1.274,4.758l-1.586,4.127l-2.221,3.49l-2.233,2.463l-1.086,1.17l-0.135,0.143l-0.241,0.363l-2.017,1.571l-3.489,2.221l-4.124,2.222l-3.806,1.9l-3.738,2.163l3.738,0.059l61.127,0l0,-0.316l-4.131,-2.856l-0.95,-0.634l-3.172,-2.222l-5.71,-4.443l-2.539,-2.536l-1.904,-2.856l-1.27,-2.539l-1.268,-2.856l-1.586,-4.442l-0.141,-1.373l-0,-6.556l0.636,-59.964l0.318,-29.825l-0.636,-29.823l-0,-1.903l1.27,-0.954l1.904,-2.536l2.221,-3.49l2.538,-5.711l1.908,-3.808l2.216,-3.491l4.441,-6.344l1.27,-1.905l2.538,-4.124l3.177,-5.077l2.852,-0.634l3.808,-0.316l11.103,-3.492l3.807,-1.586l2.222,-1.268l1.59,-2.22l1.268,-2.227l0.314,-2.85l-0.314,-2.854l-1.906,-1.904l-0.952,-1.905l-0.634,-1.904l-0,-2.22l0.634,-1.275l0.952,-0.629l3.488,-0.318l5.711,-0.316l4.765,-0.634l2.85,-0.953l0.952,-0.636l0.318,-0.634l-0.952,-1.586l-2.216,-0.634l-8.89,-1.27l-5.072,-0.638l-5.397,-0.312l-0.634,-0l-0.636,-0.634l0.636,-1.27l0.634,-1.268l3.807,-0.318l3.49,-0.634l4.443,-2.221l4.124,-1.592l5.393,-0.312l5.394,-1.274l1.27,-0.63l0.316,-0.634l3.495,-5.713l1.264,-2.854l1.586,-2.538l3.49,-3.807l0.318,-2.538l0,-0.634l-0.636,-0.318Z" style="fill:#1e1c1a;fill-rule:nonzero;"/><path d="M172.676,266.377l-3.072,7.844c-2.935,-2.139 -7.555,-3.211 -13.853,-3.211c-5.9,-0 -10.633,2.538 -14.194,7.613c-3.563,5.076 -5.343,11.621 -5.343,19.631c-0,7.645 1.825,13.844 5.48,18.598c3.654,4.755 8.37,7.131 14.149,7.131c6.298,-0 11.146,-2.231 14.54,-6.695l5.045,7.017c-5.32,5.29 -12.171,7.935 -20.548,7.935c-8.776,0 -15.686,-3.166 -20.731,-9.496c-5.044,-6.329 -7.568,-14.676 -7.568,-25.041c0,-10.027 2.69,-18.361 8.072,-24.996c5.382,-6.635 12.339,-9.952 20.87,-9.952c7.307,-0 13.024,1.208 17.153,3.622" style="fill:#1e1c1a;fill-rule:nonzero;"/><rect x="187.582" y="263.901" width="9.173" height="67.193" style="fill:#1e1c1a;"/><path d="M221.292,272.157l-0,18.666l23.619,0l-0,7.796l-23.619,0l-0,32.473l-9.174,-0l0,-67.191l41.507,0l0,8.256l-32.333,-0Z" style="fill:#1e1c1a;fill-rule:nonzero;"/><path d="M267.844,296.923c0,7.705 1.522,14.143 4.566,19.309c3.04,5.169 7.329,7.752 12.862,7.752c6.27,-0 11.046,-2.37 14.336,-7.109c3.285,-4.739 4.927,-11.389 4.927,-19.952c-0,-17.304 -6.42,-25.959 -19.263,-25.959c-5.687,0 -10.012,2.325 -12.979,6.97c-2.965,4.65 -4.449,10.98 -4.449,18.989m-9.632,0c-0,-9.724 2.44,-17.855 7.318,-24.4c4.874,-6.541 11.457,-9.814 19.742,-9.814c9.327,-0 16.475,3.012 21.444,9.034c4.966,6.025 7.451,14.419 7.451,25.18c-0,11.039 -2.491,19.685 -7.476,25.936c-4.983,6.255 -12.121,9.38 -21.419,9.38c-8.468,0 -15.097,-3.302 -19.879,-9.907c-4.788,-6.603 -7.181,-15.072 -7.181,-25.409" style="fill:#1e1c1a;fill-rule:nonzero;"/><path d="M334.348,272.157l-0,21.832c2.201,0.305 4.342,0.457 6.421,0.457c5.504,-0 9.511,-0.886 12.017,-2.66c2.508,-1.772 3.759,-4.936 3.759,-9.493c0,-3.762 -1.342,-6.467 -4.034,-8.119c-2.69,-1.65 -6.941,-2.476 -12.752,-2.476c-0.918,-0 -2.719,0.153 -5.411,0.459m27.656,58.935l-17.932,-28.848c-2.048,0 -5.29,-0.153 -9.724,-0.459l-0,29.307l-9.173,-0l-0,-67.191c0.337,0 2.715,-0.115 7.134,-0.343c4.415,-0.231 7.634,-0.344 9.651,-0.344c16.146,-0 24.217,6.419 24.217,19.262c0,4.221 -1.297,8.021 -3.898,11.398c-2.598,3.379 -5.687,5.48 -9.265,6.306l19.493,30.912l-10.503,-0Z" style="fill:#1e1c1a;fill-rule:nonzero;"/></g></g><g><path d="M652.391,281.375l-8.487,0l-6.828,-20.841l-6.829,20.841l-8.429,0l-11.635,-42.274l10.863,0l5.522,22.327l6.829,-22.327l7.363,0l6.823,22.327l5.522,-22.327l10.865,0l-11.579,42.274Z" style="fill:#bb3126;fill-rule:nonzero;"/><path d="M678.615,258.755c-0.592,-0.596 -1.421,-0.892 -2.611,-0.892c-1.188,0 -2.017,0.296 -2.613,0.892c-1.242,1.247 -1.423,3.503 -1.423,6.647c0,3.148 0.181,5.405 1.423,6.651c0.596,0.592 1.425,0.89 2.613,0.89c1.19,0 2.019,-0.298 2.611,-0.89c1.249,-1.246 1.43,-3.503 1.43,-6.651c-0,-3.144 -0.181,-5.4 -1.43,-6.647m7.663,18.879c-1.902,2.017 -5.104,4.099 -10.274,4.099c-5.16,0 -8.367,-2.082 -10.269,-4.099c-2.674,-2.911 -3.503,-5.938 -3.503,-12.232c-0,-6.231 0.829,-9.321 3.503,-12.232c1.902,-2.014 5.109,-4.094 10.269,-4.094c5.17,-0 8.372,2.08 10.274,4.094c2.672,2.911 3.501,6.001 3.501,12.232c-0,6.294 -0.829,9.321 -3.501,12.232" style="fill:#bb3126;fill-rule:nonzero;"/><path d="M711.266,259.523c-0.949,-0.947 -1.839,-1.658 -3.503,-1.658c-1.306,0 -3.921,0.77 -3.921,4.393l0,19.118l-9.736,-0l-0,-31.944l9.501,-0l0,2.613c1.425,-1.423 4.214,-2.97 7.539,-2.97c3.151,0 5.285,0.775 7.482,2.97l-7.362,7.478Z" style="fill:#bb3126;fill-rule:nonzero;"/><path d="M730.017,281.375c-7.062,0 -9.917,-5.047 -9.917,-9.44l0,-32.834l9.741,0l0,32.12c0,1.249 0.648,1.958 1.958,1.958l3.383,0l0,8.196l-5.165,0Z" style="fill:#bb3126;fill-rule:nonzero;"/><path d="M751.384,257.864c-3.622,0 -4.035,2.907 -4.035,7.539c-0,4.632 0.413,7.541 4.035,7.541c3.623,0 4.041,-2.909 4.041,-7.541c-0,-4.632 -0.418,-7.539 -4.041,-7.539m4.332,23.511l0,-2.615c-1.958,1.96 -4.031,2.972 -7.358,2.972c-3.087,-0 -5.937,-1.071 -7.78,-2.911c-3.146,-3.146 -2.966,-8.729 -2.966,-13.418c0,-4.688 -0.18,-10.271 2.966,-13.42c1.843,-1.838 4.632,-2.909 7.719,-2.909c3.148,0 5.341,0.895 7.128,2.674l-0,-12.647l9.736,0l0,42.274l-9.445,0Z" style="fill:#bb3126;fill-rule:nonzero;"/><path d="M540.897,305.308l-3.803,11.281l7.362,-0l-3.559,-11.281Zm8.248,26.241l-1.958,-6.295l-13,0l-2.078,6.295l-10.868,-0l15.376,-42.27l8.02,0l15.378,42.27l-10.87,-0Z" style="fill:#bb3126;fill-rule:nonzero;"/><path d="M574.192,308.038c-3.564,0 -3.799,3.087 -3.799,6.351c-0,3.268 0.235,6.355 3.799,6.355c3.563,0 3.798,-3.087 3.798,-6.355c0,-3.264 -0.235,-6.351 -3.798,-6.351m-0.892,34.198c-4.989,-0 -8.725,-0.892 -11.993,-4.156l6.057,-6.057c1.486,1.486 3.264,2.021 5.461,2.021c4.097,0 5.165,-2.791 5.165,-4.871l0,-2.315c-1.782,1.782 -3.918,2.674 -6.886,2.674c-3.087,-0 -5.641,-1.012 -7.482,-2.85c-2.907,-2.911 -2.968,-6.471 -2.968,-12.293c0,-5.818 0.061,-9.38 2.968,-12.288c1.841,-1.841 4.456,-2.848 7.539,-2.848c3.268,-0 5.165,1.007 7.127,2.97l0,-2.614l9.436,0l0,29.623c0,7.543 -5.698,13.004 -14.424,13.004" style="fill:#bb3126;fill-rule:nonzero;"/><path d="M610.34,309.699c-0.948,-0.949 -1.838,-1.66 -3.503,-1.66c-1.305,-0 -3.916,0.772 -3.916,4.395l0,19.115l-9.741,0l0,-31.941l9.502,-0l-0,2.613c1.425,-1.423 4.214,-2.968 7.539,-2.968c3.15,0 5.284,0.773 7.482,2.968l-7.363,7.478Z" style="fill:#bb3126;fill-rule:nonzero;"/><path d="M632.952,308.927c-0.592,-0.592 -1.425,-0.89 -2.616,-0.89c-1.183,-0 -2.017,0.298 -2.608,0.89c-1.247,1.249 -1.423,3.507 -1.423,6.651c-0,3.146 0.176,5.405 1.423,6.653c0.591,0.59 1.425,0.888 2.608,0.888c1.191,0 2.024,-0.298 2.616,-0.888c1.249,-1.248 1.425,-3.507 1.425,-6.653c-0,-3.144 -0.176,-5.402 -1.425,-6.651m7.658,18.883c-1.902,2.017 -5.104,4.094 -10.274,4.094c-5.16,0 -8.367,-2.077 -10.269,-4.094c-2.669,-2.911 -3.503,-5.938 -3.503,-12.232c0,-6.231 0.834,-9.321 3.503,-12.232c1.902,-2.014 5.109,-4.092 10.269,-4.092c5.17,-0 8.372,2.078 10.274,4.092c2.672,2.911 3.505,6.001 3.505,12.232c0,6.294 -0.833,9.321 -3.505,12.232" style="fill:#bb3126;fill-rule:nonzero;"/><path d="M659.184,308.336l0,23.212l-9.736,0l-0,-23.212l-2.911,-0l-0,-7.48l2.911,-0l-0,-2.792c-0,-4.395 2.85,-9.438 9.912,-9.438l5.17,0l-0,8.189l-3.388,0c-1.305,0 -1.958,0.714 -1.958,1.963l0,2.078l5.346,-0l-0,7.48l-5.346,-0Z" style="fill:#bb3126;fill-rule:nonzero;"/><path d="M682.148,308.927c-0.596,-0.592 -1.425,-0.89 -2.615,-0.89c-1.188,-0 -2.017,0.298 -2.609,0.89c-1.246,1.249 -1.422,3.507 -1.422,6.651c-0,3.146 0.176,5.405 1.422,6.653c0.592,0.59 1.421,0.888 2.609,0.888c1.19,0 2.019,-0.298 2.615,-0.888c1.249,-1.248 1.425,-3.507 1.425,-6.653c0,-3.144 -0.176,-5.402 -1.425,-6.651m7.659,18.883c-1.902,2.017 -5.104,4.094 -10.274,4.094c-5.165,0 -8.368,-2.077 -10.269,-4.094c-2.674,-2.911 -3.503,-5.938 -3.503,-12.232c-0,-6.231 0.829,-9.321 3.503,-12.232c1.901,-2.014 5.104,-4.092 10.269,-4.092c5.17,-0 8.372,2.078 10.274,4.092c2.672,2.911 3.5,6.001 3.5,12.232c0,6.294 -0.828,9.321 -3.5,12.232" style="fill:#bb3126;fill-rule:nonzero;"/><path d="M714.79,309.699c-0.948,-0.949 -1.836,-1.66 -3.503,-1.66c-1.305,-0 -3.916,0.772 -3.916,4.395l0,19.115l-9.736,0l-0,-31.941l9.497,-0l-0,2.613c1.425,-1.423 4.219,-2.968 7.543,-2.968c3.146,0 5.28,0.773 7.482,2.968l-7.367,7.478Z" style="fill:#bb3126;fill-rule:nonzero;"/><path d="M739.245,309.761c-0.596,-1.367 -1.901,-2.494 -4.216,-2.494c-2.318,0 -3.623,1.127 -4.212,2.494c-0.421,0.829 -0.536,1.721 -0.536,2.493l9.497,-0c0,-0.772 -0.122,-1.664 -0.533,-2.493m-8.964,8.964c0,2.615 2.017,4.988 5.637,4.988c3.384,0 4.872,-0.948 6.591,-2.674l5.817,5.818c-3.263,3.268 -6.47,5.048 -12.408,5.048c-7.066,-0 -15.199,-2.554 -15.199,-16.327c-0,-10.449 5.942,-16.324 14.31,-16.324c9.262,0 14.37,6.767 14.37,15.134l0,4.337l-19.118,-0Z" style="fill:#bb3126;fill-rule:nonzero;"/><path d="M764.234,331.904c-4.813,0 -9.501,-0.237 -13.894,-4.63l6.29,-6.292c2.672,2.674 6.118,2.674 7.78,2.674c1.425,0 4.156,-0.42 4.156,-2.08c-0,-0.894 -0.42,-1.843 -2.315,-2.023l-4.928,-0.472c-5.522,-0.533 -9.264,-3.027 -9.264,-9.26c-0,-7.065 6.353,-10.567 12.703,-10.567c5.229,-0 9.441,0.772 12.591,3.916l-6,5.998c-1.602,-1.603 -4.269,-1.899 -6.767,-1.899c-2.376,-0 -3.143,1.125 -3.143,1.838c-0,0.357 -0.12,1.545 2.077,1.782l4.926,0.474c6.71,0.651 9.621,4.633 9.621,9.739c0,7.539 -6.414,10.802 -13.833,10.802" style="fill:#bb3126;fill-rule:nonzero;"/><path d="M791.472,331.549c-7.062,0 -9.912,-5.047 -9.912,-9.44l-0,-13.772l-2.911,-0l-0,-7.48l2.911,-0l-0,-9.147l9.736,-0l0,9.147l5.046,-0l-0,7.48l-5.046,-0l0,13.06c0,1.249 0.653,1.959 1.958,1.959l3.088,-0l-0,8.193l-4.87,0Z" style="fill:#bb3126;fill-rule:nonzero;"/><path d="M817.648,309.699c-0.949,-0.949 -1.839,-1.66 -3.499,-1.66c-1.305,-0 -3.92,0.772 -3.92,4.395l-0,19.115l-9.732,0l-0,-31.941l9.497,-0l-0,2.613c1.425,-1.423 4.214,-2.968 7.539,-2.968c3.146,0 5.284,0.773 7.482,2.968l-7.367,7.478Z" style="fill:#bb3126;fill-rule:nonzero;"/><path d="M840.854,335.349c-0.653,1.839 -1.481,3.207 -2.493,4.217c-1.895,2.017 -4.33,2.669 -7.18,2.669l-3.683,0l-0,-8.787l2.077,-0c1.726,-0 2.611,-0.414 3.268,-2.374l0.888,-2.672l-10.626,-28.793l10.21,0l5.405,16.566l5.165,-16.566l10.211,0l-13.242,35.74Z" style="fill:#bb3126;fill-rule:nonzero;"/><path d="M841.6,206.219c-162.093,-14.287 -103.581,6.539 -272.821,-7.798c51.125,-3.643 37.389,1.186 87.825,-2.721c25.254,-1.963 44.641,2.744 66.857,-0.26c46.864,-3.953 80.167,2.213 118.139,10.779" style="fill:#a87b50;"/><path d="M865.693,220.159c-108.217,-12.006 -42.601,11.82 -211.842,-2.514c51.125,-3.645 32.818,2.656 83.254,-1.251c25.254,-1.963 21.275,-2.141 43.493,-5.145c48.196,-2.462 47.126,0.343 85.095,8.91" style="fill:#a87b50;"/><path d="M773.647,175.152c0.806,1.389 -1.518,1.832 -6.154,1.583c-157.228,-14.088 -108.459,13.782 -231.453,4.17c14.486,-0.278 4.323,0.815 27.226,-0.014c76.7,-2.773 63.422,-26.986 210.381,-5.739" style="fill:#a87b50;"/><path d="M637.363,120.102c-0,-0 -16.291,13.162 -22.867,22.47c-9.163,12.972 -3.944,35.898 -3.944,35.898l-3.803,1.014c0,-0 -3.333,-25.121 -5.068,-33.687c-1.737,-8.562 -15.73,-32.755 -15.73,-32.755l1.319,-3.105c-0,-0 12.717,20.893 13.679,23.081c0.949,2.191 5.642,6.43 7.013,6.8c1.364,0.373 1.791,0.19 2.419,-0.478c2.389,-2.546 23.867,-21.352 23.867,-21.352l3.115,2.114Z" style="fill:#754c28;fill-rule:nonzero;"/><path d="M572.295,97.248c-0,0 14.041,-11.787 30.878,-8.39c16.841,3.392 14.596,3.661 32.293,3.887c17.693,0.221 31.601,13.939 23.423,19.479c-8.173,5.549 -11.213,10.229 -25.792,7.851c-14.578,-2.376 -38.994,-8.878 -58.187,-6.977c-19.188,1.9 -53.444,0.913 -46.215,-5.603c7.227,-6.516 43.6,-10.247 43.6,-10.247" style="fill:#70871b;fill-rule:nonzero;"/><path d="M611.575,129.736c1.084,2.568 0.335,5.276 -1.675,6.053c-2.013,0.77 -4.522,-0.676 -5.608,-3.239c-1.084,-2.568 -0.339,-5.276 1.678,-6.048c2.01,-0.779 4.521,0.671 5.605,3.234" style="fill:#754c28;fill-rule:nonzero;"/><path d="M745.284,57.796c-0,-0 -40.671,35.53 -52.713,49.923c-13.334,15.934 -13.585,29.489 -14.172,48.284c-0.393,12.629 0.68,42.793 0.68,42.793l-6.732,3.968c-0,0 -8.483,-65.053 -12.268,-83.884c-3.783,-18.844 -26.571,-52.222 -26.571,-52.222l2.942,-6.825c0,-0 28.45,38.204 30.578,40.397c6.665,6.877 15.156,3.327 16.57,1.902c14.091,-14.138 48.21,-44.336 48.21,-44.336l13.476,-0Z" style="fill:#754c28;fill-rule:nonzero;"/><path d="M561.135,47.571c-0,-0 15.951,-2.616 19.188,-6.9c3.238,-4.277 8.973,-8.322 18.192,-8.085c9.223,0.239 37.635,-8.795 50.09,-15.69c12.463,-6.899 27.809,-21.331 57.817,-13.792c30.013,7.529 64.306,24.016 78.76,26.39c14.452,2.383 23.926,22.831 26.912,25.925c2.99,3.092 -1.098,5.185 -5.095,7.132c-3.987,1.949 -9.104,5.947 -20.568,3.329c-11.464,-2.615 -32.326,-5.208 -40.874,-5.468c-8.548,-0.266 -40.176,-1.513 -33.299,4c6.877,5.513 10.746,17.296 -5.642,15.685c-16.392,-1.612 -25.611,-6.845 -33.086,-4.702c-7.478,2.137 -26.878,5.725 -29.159,1.425c-2.284,-4.3 -2.254,-12.828 -13.461,-8.955c-11.213,3.874 -28.409,8.479 -38.125,6.577c-9.723,-1.904 -14.527,-12.88 -18.192,-12.844c-3.666,0.041 -30.9,-12.033 -13.458,-14.027" style="fill:#70871b;fill-rule:nonzero;"/><path d="M680.909,84.328c2.152,5.077 0.666,10.446 -3.323,11.986c-3.981,1.533 -8.959,-1.337 -11.111,-6.423c-2.153,-5.082 -0.666,-10.446 3.322,-11.981c3.988,-1.538 8.959,1.337 11.112,6.418" style="fill:#754c28;fill-rule:nonzero;"/><path d="M813.124,108.724c0,-0 -30.826,18.901 -39.279,30.563c-11.566,15.95 -10.663,60.369 -10.746,63.391c-0.267,10.188 0.264,12.194 0.264,12.194l-5.007,3.905c0,-0 -5.739,-50.717 -8.399,-65.568c-2.647,-14.857 -24.224,-45.685 -24.224,-45.685l2.439,-5.316c-0,-0 28.838,36.386 31.185,37.079c2.339,0.696 4.02,1.186 5.056,0c21.655,-24.495 42.954,-32.937 42.954,-32.937l5.757,2.374Z" style="fill:#754c28;fill-rule:nonzero;"/><path d="M851.798,107.747c-23.167,14.68 -54.312,9.435 -56.27,9.569c-4.458,0.307 -20.26,-5.66 -29.12,-6.021c-2.092,-0.091 -22.621,1.736 -23.107,1.937c-0.903,0.425 -23.795,-0.178 -26.632,0.012c-2.807,0.185 -12.616,-4.285 -15.003,-3.731c-2.834,0.652 -6.915,-1.778 -9.869,-3.085c-3.033,-1.335 1.109,-10.658 2.789,-13.506c0.115,-0.181 14.323,-8.682 35.054,-16.663c15.165,-5.843 32.282,-5.409 33.31,-5.341c3.449,0.212 28.24,1.978 29.374,2.57c0.792,0.42 44.394,11.328 46.863,12.841c-0,0 29.19,10.911 12.611,21.418" style="fill:#70871b;fill-rule:nonzero;"/><path d="M767.439,123.426c1.675,3.948 0.519,8.117 -2.577,9.311c-3.097,1.195 -6.965,-1.036 -8.637,-4.989c-1.671,-3.943 -0.515,-8.116 2.582,-9.307c3.101,-1.194 6.965,1.037 8.632,4.985" style="fill:#754c28;fill-rule:nonzero;"/></g></g></svg>