<?xml version="1.0" encoding="UTF-8" standalone="no"?><!DOCTYPE svg PUBLIC "-//W3C//DTD SVG 1.1//EN" "http://www.w3.org/Graphics/SVG/1.1/DTD/svg11.dtd"><svg width="100%" height="100%" viewBox="0 0 866 363" version="1.1" xmlns="http://www.w3.org/2000/svg" xmlns:xlink="http://www.w3.org/1999/xlink" xml:space="preserve" xmlns:serif="http://www.serif.com/" style="fill-rule:evenodd;clip-rule:evenodd;stroke-linejoin:round;stroke-miterlimit:2;"><g><g><g><path d="M350.032,208.485l-0.952,0.954l-2.226,-0l-1.915,0.636l-3.498,1.274l-4.134,1.27l-3.18,1.592l-2.864,-0l-2.864,0.32l-2.864,1.272l-1.694,0.954l-1.806,0.636l-1.906,0.954l0.318,-0.636l0.316,-0.318l1.272,-0.954l1.908,-0.318l0.32,-0.318l0.954,-1.272l2.866,-0l2.226,-0.638l0.636,-0.636l0.634,-0.638l2.548,-0l2.226,-0.952l2.862,-0.318l0.954,-0.956l0.728,-0.182l0.651,-0.241l3.391,-0.531l1.915,-0.954l2.226,-0.636l0.634,-0.638l1.272,-0l0.958,0.638l-1.912,0.636Zm-7.001,24.814l-3.18,0l-1.272,0.954l-1.272,0.636l0,-0.636l0.321,-0.954l1.587,-0.636l0.636,0l1.275,-0.954l1.905,0l0.959,-0.32l0.949,0l0.959,1.274l-2.867,0.636Zm-17.496,-7.954l-2.226,0l0.634,-0.634l0.32,-0.638l0.954,0l0,0.954l0.318,0.318Zm-3.34,0.478l-0.798,0.796l-0,-1.274l1.592,0l-0.794,0.478Zm-4.932,-19.564l0.636,-1.908l1.272,-0l2.226,-0.636l0.638,-0l1.699,-0.32l1.483,-0l0.636,-0.636l1.908,-0.956l3.184,-0l0,0.956l-2.546,0.636l-2.228,-0l-1.908,0.636l-0.32,0.32l-1.908,-0l-1.272,0.316l-0.634,0.318l-0.638,0.956l-2.228,0.318Zm-3.18,-18.771l-1.59,0.634l-0.638,0l-2.228,0.318l-2.542,0.32l-0.636,0.318l-0.318,0.636l-0.32,0.954l-1.27,0l-0.322,-0.318l1.592,-1.91l2.226,-0.318l1.91,-0.634l1.27,-0.318l1.276,-0.636l2.544,-0.954l4.454,-0.32l2.544,-1.59l1.274,-0.954l0.634,0l1.274,-0.318l0.954,0l0,0.318l-0.954,1.272l-1.114,0.478l-0.794,0.794l-1.114,0.158l-2.066,0.162l-2.866,0.318l-3.18,1.59Zm-2.228,-7.952l0.48,-0.638l0.792,-0.318l2.55,-1.908l-0.64,1.908l-2.653,1.272l-2.757,0l2.228,-0.316Zm-13.044,51.853l-3.183,0.32l-0.633,0.636l-0.636,0.318l-1.906,0l-0.959,0.636l-1.585,0.954l-1.281,0l-1.588,0.636l-1.908,0.318l-2.228,0.956l-0.636,0.318l-0.954,0l-1.91,1.59l-2.544,0.638l-3.18,0l-0.636,1.27l-0.956,0.32l-1.27,0.318l-0.638,-0.638l0.638,-0.636l1.27,-0.634l1.272,0l1.59,-0.956l0.642,-0.318l0.636,-0.954l5.882,-0.636l1.112,-0.956l1.592,-0.636l2.226,-0.638l2.549,-0.316l1.905,-0.636l1.588,-0.954l1.277,0l0.956,-0.32l0.634,-0.634l0.322,-0.636l2.54,0l0.32,0.636l-0.32,0.634Zm-25.767,1.592l0.952,-0.318l2.864,-1.274l1.274,-1.27l1.27,0l2.785,-0.461l0.715,0.141l0,0.32l-0.636,0.318l-0.954,0.318l-1.592,0.634l-0.634,0.32l-1.592,0l-0.636,0.954l-3.18,0.636l-0.636,0.954l-1.91,0.318l-0.316,-0.318l2.226,-1.272Zm6.36,-47.721l1.276,0l0.952,-0.318l0.636,-0.636l1.272,-0.954l1.274,-0.636l0.318,0l-0.318,0.316l-0.954,2.228l-1.592,0.32l-2.864,0l0,-0.32Zm-47.083,15.271l-1.274,0.956l-1.272,0.316l-2.702,0.636l-1.432,-0l-1.592,0.956l-4.772,1.59l-4.454,1.274l-6.998,2.544l-2.866,0.954l-3.178,1.91l-3.5,0.636l-2.547,1.272l-2.544,0.318l-0.318,-0l0,-0.318l3.187,-1.908l3.176,-1.592l3.18,-0.636l3.184,-1.272l6.042,-2.226l9.226,-3.182l6.362,-1.59l3.818,-1.274l0.638,-1.275l0.636,-0.318l0.638,-0.315l0.316,1.272l-0.954,1.272Zm-122.8,46.131l-5.724,2.228l-5.73,3.18l-2.387,0.794l-1.432,0.473l-1.59,0.961l-1.903,0.636l-5.095,1.272l-2.546,0.954l-2.226,1.272l0,-0.638l3.18,-1.906l3.5,-0.954l2.869,-1.597l2.221,-0.631l2.386,-0.636l6.523,-3.5l6.362,-2.544l1.592,0.318l-0,0.318Zm250.055,-31.497l0.32,-0.634l2.226,-0.638l0.636,-0.318l0.318,-0.956l1.59,-0.634l0.954,-0.318l0.638,-1.592l-1.592,-1.272l-1.59,-1.592l-1.274,-0.636l-1.906,-0.316l1.59,-0.318l0.636,-0.956l0.954,-0.634l0.636,-0.956l0.636,-0.636l-0,-0.636l0.638,-0.32l0.634,-0l-0,-1.59l-3.18,-0l-0.638,-0.318l0.956,-1.908l0.318,-0.636l-1.274,-0l-0,0.318l-3.498,-0l-1.588,0.318l-0.638,0.633l-0.312,1.275l-1.914,-2.226l2.542,-0.954l2.546,-2.229l4.136,-0.638l-6.998,0.32l-0.634,0.636l-0.956,0.318l-1.912,1.272l-0.632,0.321l-2.548,0.636l-3.182,0.636l-0.952,0.315l-0.636,0.639l-1.595,0.954l-1.59,0.318l-4.134,-0l0,-1.911l0.321,-0.315l3.813,-0l6.363,-0.636l1.276,-0.957l-0,-1.908l0.634,-0.318l2.968,-0.424l3.396,-1.168l5.724,-1.272l-0.316,-2.544l-1.91,-0.638l-4.448,0l-0.962,0.318l-0.314,0.32l-1.276,-0.954l-0.316,-0.318l-0.954,-0.318l-0.32,0.952l-0.318,0.638l-0,1.59l-0.954,0.318l-1.272,-1.272l-1.274,-0.318l-1.27,0.318l-0.959,1.272l-3.498,0.956l-0.636,-0.32l0,-0.636l0.427,-2.439l0.15,-0.854l0.7,0.113l2.857,0l5.093,-1.908l2.332,-0.529l1.168,-0.745l2.234,0.636l2.538,-0.636l0.636,-1.59l-2.862,0l0.952,-0.318l1.91,0l2.862,-0.636l-0,-0.32l-5.724,-1.59l-0,-1.272l-0.634,-0.32l-2.762,-0.105l-2.332,1.061l-3.182,0.636l-1.27,-0.316l-0.32,-0.638l0.32,-0.954l1.27,-0.956l1.912,-1.272l-0,-1.272l0.634,-1.59l1.272,-0.318l0.32,-0.956l-0.32,0.318l-1.906,0.638l-0,-0.638l0.952,-1.908l0.318,-1.272l-0,-0.318l-0.636,0.636l-2.86,0.954l-3.502,0.318l-1.911,1.272l-1.272,0.636l-2.862,0.638l-1.272,0.318l-0.956,0.318l-0.318,-0.636l-0.956,-0.638l-0.632,-0.636l0.316,-0.954l1.272,-0.318l6.365,-1.272l6.678,-2.544l3.182,-0.638l0.32,-1.908l-0,-0.636l-1.274,-0l-7.63,0.636l-0.961,0.316l-6.68,1.592l-3.182,0.32l-2.224,0.634l-5.412,2.228l-1.908,0.634l-8.27,1.592l-1.276,0.318l-2.862,0.636l-3.816,0.638l-7,2.862l-6.358,2.228l-4.136,1.272l-3.503,2.226l-2.546,0.956l-3.498,0.954l-5.726,1.908l-4.454,0.32l-4.454,0.954l-8.274,2.226l-2.544,1.59l-2.546,0.636l-4.768,0.956l-1.913,0.318l-1.59,0.954l-1.908,0.634l-1.91,0.638l-5.09,1.59l-4.77,1.593l-1.594,0.951l-0.954,0.321l-2.54,1.272l-5.73,1.59l-0.956,0.636l-1.908,0.638l-1.908,0.318l2.862,-3.182l-0.954,-0l-1.908,1.59l-1.272,0.636l-0.32,0.638l-0.316,0.318l-0.32,-0l-4.134,1.59l-4.772,2.226l-4.452,1.912l-3.503,0.952l-2.225,0.954l-2.226,1.59l-3.183,0.956l-2.541,0.636l-0,-0.636l1.267,-0.956l10.498,-4.77l-1.908,-0l-8.908,3.818l-3.182,0.952l-1.592,0.32l-0.952,0.636l-2.226,0.636l-2.864,0.32l0,1.272l1.59,-0.638l1.274,-0.634l1.908,1.272l-4.136,1.59l-2.544,0.636l-2.864,0.318l-5.408,1.592l-4.136,1.59l-2.222,0.954l-2.232,1.59l-4.139,2.546l-3.177,0.954l-3.814,0.954l-0.638,0.636l-0.956,0.318l-1.911,0.318l-2.862,0.32l-2.546,0l-0.636,0.636l-1.274,0.634l-1.272,0.32l-3.182,0.954l-3.18,1.59l-5.09,3.818l-3.496,0.954l-4.458,1.592l-3.18,0l-2.228,0.952l-2.226,0.638l0.954,0l2.226,-0.318l0.956,-0.32l0.318,-0.316l0.318,0.316l-0,0.32l-1.592,0.954l-2.226,1.275l-3.5,1.59l-3.498,1.272l-4.03,1.91l-2.653,0.954l-3.182,1.908l-3.816,1.585l-4.454,1.597l-6.364,2.539l-7.318,3.187l-1.906,0.636l-2.546,0.314l-2.544,1.596l-2.228,0.952l-3.5,2.546l-3.496,1.272l-2.548,0.636l-2.547,1.27l-2.226,0.64l-3.498,2.226l-3.5,1.268l4.134,-0l0,0.322l-1.59,1.274l-2.224,1.272l-5.73,2.862l-2.544,1.274l-3.496,1.59l-2.868,1.908l-1.59,0.956l-1.59,0.636l-0.956,0.636l-2.226,0.638l-4.768,2.865l-5.094,3.18l-0.636,1.267l-1.272,0.323l-0.638,0.318l-0.634,0.956l-0.32,0.634l-0.954,0.636l-0.636,0.32l-0.318,0.636l1.908,0.311l0.636,-0.311l0.638,0.311l-0,0.32l-1.274,0.323l-0.318,1.272l-0.318,0.631l-0,0.641l0.956,0.32l0.634,1.908l0.638,-0l-0.956,0.318l-0.316,-0l-0,1.908l0.316,0.636l0.956,0.636l1.272,0.318l-0,0.32l0.318,3.182l-0.318,2.226l0.318,0.318l1.908,2.546l0.956,0.952l0.636,1.908l0.636,2.864l0.64,2.228l0.954,1.908l-0,1.592l0.632,1.272l0.956,0.636l1.59,1.91l-0.636,1.908l-0,1.272l0.954,1.274l0.954,4.132l1.91,1.592l0.952,1.595l0.956,1.908l1.59,1.908l-0,3.498l0.636,3.813l1.914,1.597l0.954,1.592l0.318,2.544l2.222,2.226l0.638,-0.318l0.954,-0l1.59,-0.318l0.636,-1.274l2.228,-0.316l5.408,-3.5l2.544,-0.956l2.546,-1.277l0.318,-0.631l0.636,-1.59l2.229,-0.318l1.908,-0.318l4.136,-2.226l1.908,-0.956l2.228,-0.318l2.864,-1.913l3.184,-0.949l2.54,-1.592l1.272,-0.316l1.592,-1.274l1.908,-0.952l1.91,-0.961l2.228,-0.952l0,-0.951l1.272,-0.321l4.772,-2.862l5.09,-2.864l3.816,-0.956l4.666,-1.908l4.563,-2.544l3.816,-0.956l4.774,-2.862l5.088,-2.546l6.044,-2.228l6.044,-2.226l0.956,-0.636l0.636,-0.318l0.634,-0l0.64,-0.638l1.27,-0.952l2.235,-0.32l2.219,-0.954l2.226,-1.59l2.548,-0.636l1.908,-0.316l1.908,-0.638l2.233,-0.954l3.178,-0.638l2.544,-1.272l2.226,-1.592l-2.226,0.638l-2.544,1.908l-0,-2.546l3.813,-1.588l2.547,-0.954l2.87,-0.32l0.954,-0l0,0.32l1.904,-0l0.318,-0.32l2.862,-0.952l2.864,-1.592l-0.638,-0.643l1.274,-1.588l1.592,-0.949l3.18,-0.318l-3.18,2.544l1.59,-0l0.642,-1.277l1.266,-0.949l1.59,-0.956l0.954,-0.954l3.502,-1.59l3.498,-0.957l7.318,-2.226l3.498,-0.954l3.5,-1.59l7.001,-3.182l3.818,-0.956l3.82,-0.638l3.178,-1.588l3.18,-0.956l7.64,-2.544l3.494,-1.272l31.499,-11.772l10.18,-4.136l10.496,-3.816l2.864,-0.636l7.003,-2.233l10.176,-3.177l4.138,-1.908l3.5,-1.59l5.088,-0.636l1.91,-0.639l1.594,-0.636l2.542,-1.59l2.866,-0.636l0.95,0l1.908,-0.318l3.818,-0.954l3.818,-1.274l3.5,-1.27l6.362,-1.912l1.911,-0.634l3.502,0.318l4.132,-0.318l1.59,-0.894l0.638,-0.38l2.23,0l0.634,-1.908l1.272,-0.954l1.59,-0.638l-0,-1.27l-1.59,-0.32l-0.956,-0.952l-0.316,-1.592l0.952,0l1.274,-0.636l-0.634,-0.956l0.316,-1.272l1.59,-2.544l2.864,-0.956l3.18,-1.272l0.638,-0.954l-0.638,-0.318l-0.318,-0.954l-2.226,-0l-0.636,0.954l-2.864,0.318l-0.636,-0.318l0.956,-0.954l-0,-0.954l-0.638,0.318l-0.318,-0.318l-0,-0.636l0.636,-0.638Z" style="fill:#65b345;fill-rule:nonzero;"/><path d="M352.576,175.398l-1.272,0.318l-1.592,0l0,-0.634l1.274,-1.274l1.59,-0.636l0.321,-0.318l0.633,-0.318l1.915,0.318l-1.915,2.228l-0.954,0.316Z" style="fill:#65b345;"/><path d="M352.576,236.482l-1.272,0.315l-1.592,1.275l-0.316,0.318l0.316,0.318l0.32,0.318l0.634,-0.318l1.277,-0.636l0.633,-0.318l1.277,-1.272l-0,-0.318l-0.638,-0l-0.639,0.318Z" style="fill:#65b345;"/><path d="M331.493,241.588l-3.093,0.619l0,0.954l0.956,0.956l1.268,-0.32l0.64,-0.636l0.474,-0.636l2.388,-0.634l0.634,-0.638l0,-0.636l-0.318,-0l-0.636,0.636l-2.313,0.335Z" style="fill:#65b345;"/><path d="M227.229,197.03l4.456,-1.27l3.818,-1.912l-4.772,1.592l-3.502,1.59Z" style="fill:#65b345;"/><path d="M227.229,197.03l-1.588,0.32l-5.41,0.318l-0.954,2.226l3.504,-1.59l4.448,-1.274Z" style="fill:#65b345;"/><path d="M324.263,224.073l-0.318,0.638l-0.634,0.636l2.226,0l-0.32,-0.32l-0,-0.954l-0.954,0Z" style="fill:#65b345;fill-rule:nonzero;"/><path d="M331.58,212.62l2.546,-0l2.226,-0.952l2.862,-0.32l0.954,-0.954l0.728,-0.184l0.653,-0.239l3.391,-0.531l1.913,-0.954l2.226,-0.638l0.634,-0.636l1.274,-0l0.956,0.636l-1.91,0.638l-0.954,0.954l-2.226,-0l-1.913,0.636l-3.5,1.272l-4.131,1.272l-3.183,1.592l-2.862,-0l-2.864,0.318l-2.864,1.272l-1.696,0.954l-1.806,0.636l-1.904,0.956l0.316,-0.638l0.318,-0.318l1.27,-0.952l1.91,-0.32l0.318,-0.318l0.956,-1.272l2.864,-0l2.226,-0.638l0.636,-0.634l0.636,-0.638Z" style="fill:#65b345;fill-rule:nonzero;"/><path d="M321.397,203.714l0.638,-0l1.699,-0.32l1.483,-0l0.636,-0.634l1.908,-0.958l3.184,-0l0,0.958l-2.546,0.634l-2.228,-0l-1.908,0.636l-0.32,0.32l-1.908,-0l-1.272,0.318l-0.634,0.316l-0.638,0.956l-2.228,0.318l0.636,-1.908l1.272,-0l2.226,-0.636Z" style="fill:#65b345;fill-rule:nonzero;"/><path d="M282.268,184.306l1.272,-0.954l1.274,-0.636l0.318,0l-0.318,0.316l-0.954,2.228l-1.592,0.32" style="fill:#65b345;fill-rule:nonzero;"/><path d="M281.633,184.943l-0.952,0.316l-1.276,-0l-0,0.32l2.864,-0l-0,-1.272l-0.636,0.636Z" style="fill:#65b345;fill-rule:nonzero;"/><path d="M95.681,252.864l-1.432,0.474l-1.59,0.958l-1.906,0.636l-5.092,1.275l-2.546,0.954l-2.226,1.269l-0,-0.636l3.18,-1.905l3.5,-0.957l2.866,-1.594l2.224,-0.632l2.386,-0.638l6.522,-3.498l6.362,-2.544l1.59,0.316l0,0.32l-5.722,2.229l-5.73,3.177l-2.386,0.796l-0.478,0.16" style="fill:#65b345;fill-rule:nonzero;"/><path d="M120.023,102.335l-1.585,2.537l-11.103,0l-5.075,1.904l-2.219,1.268l-1.586,2.219l-0.318,1.904l-0,0.316l0.634,1.27l1.27,1.27l2.219,1.267l0,1.268l-1.267,0.952l-0.952,0.318l-1.904,-0.318l-1.27,-0.316l-3.169,-1.27l-2.852,-0.634l-1.267,0.318l-1.274,0.95l-1.27,0l0.318,-2.535l0.952,-2.222l1.59,-1.586l1.583,-1.27l1.586,-0.315l1.901,-0.318l2.22,-1.586l0.952,-0.634l0.318,-0.316l0.316,-1.27l0.318,-1.908l4.761,-5.387l2.534,-1.903l2.537,-1.268l1.588,1.586l1.586,1.267l1.583,1.27l2.542,1.902l3.803,0.636l0.316,-0l-0.316,0.634Zm-21.886,40.913l-1.902,2.857l-7.612,10.469l-2.856,4.439l-2.22,2.855l-1.269,1.268l-1.586,-0.316l-0.318,-1.27l1.27,-6.342l0.949,-1.904l0.954,-0.95l0.318,-0.318l3.17,-3.489l1.588,-2.854l2.223,-2.54l4.119,-4.439l1.27,1.586l1.268,-0.952l0.634,0l0.952,-0.634l-0.952,2.534Zm-18.081,3.171l-0,-0.314l1.272,-0.952l0.316,-1.585l0.634,-2.854l1.269,-0.318l2.854,-0.952l1.586,-1.272l0.636,-1.587l-0.636,-1.586l-1.268,-1.264l-1.904,-2.226l0.316,-6.02l5.082,-0l2.215,0.952l0.952,0.952l0.634,1.267l-0,0.952l-0.316,0.314l-0.634,0.32l-0.318,0.952l-0.952,0.311l-0.636,0.641l-0.312,2.537l0.312,3.174l0.636,0.95l1.27,0.633l-4.759,4.442l-4.758,4.757l-0.318,-0l-0.951,0.634l-0.316,0.318l-0.318,-0.634l-0.952,-0.634l-0.318,-0.634l-0.318,-1.274Zm-0.632,-27.591l-0.318,-1.27l-0.634,-0.95l-0.947,-0.636l-0.318,-0.315l-0,-0.952l0.318,-0l1.263,-0.318l0.318,-0.956l0.634,-0.63l0.316,-0l1.588,-1.586l0.634,0.318l0.315,0.312l0.636,0.638l0,0.948l-0.636,1.274l0,2.537l-0.315,0l0.315,2.22l-0.315,0.629l-0.634,0.323l-1.588,-0l-0.632,-1.586Zm-1.588,9.832l-0.311,0.634l-0.318,0.318l-0.316,0l-3.176,-0.634l-2.222,-0.952l-1.267,-1.274l-0,-2.533l-1.27,-1.584l-1.584,-0.958l-1.906,0l-0.633,-0.311l-3.49,0.311l-1.586,0l-2.219,-0.629l0.634,-1.268l0.952,-0.952l11.102,-0l1.901,-0.634l2.222,-0.952l0.952,0.316l0.634,0.636l0.956,2.854l-2.86,-0l-1.586,0.318l0,1.269l0.634,1.266l0.636,0.636l1.902,0.318l1.59,-0l0.318,1.586l0.311,1.267l0,0.952Zm-6.661,35.524l-4.123,-6.661l-0.952,-1.901l-0.634,-0.636l-2.215,-2.854l-3.176,-3.489l6.661,-0l0.316,0.318l2.54,2.22l0.95,1.269l0.633,1.904l0,9.83Zm-15.541,-80.564l-1.586,-1.268l-1.585,-0.636l-7.295,0l-0.636,-0.316l-0,-2.853l0.952,-0l9.198,1.586l0.952,0.311l2.854,0.322l2.855,-0.322l1.27,2.542l0.954,0.952l1.266,0.952l0.633,2.537l0.318,0.95l0.952,2.54l0.316,0.949l0,0.636l-0.316,0.316l-1.27,-0.634l-2.215,-1.585l-1.908,-0.952l-1.268,-1.586l-4.123,-4.441l-0.318,-0Zm-3.805,37.428l-2.856,0.629l-2.537,0.958l-1.268,0.316l-1.27,0.636l-2.535,1.268l-1.588,-2.538l-1.268,-0.64l-0.318,-1.586l0.318,-0.629l2.22,-0.318l3.805,-0.316l4.125,-0l2.224,0.316l0.948,0.636l0.634,1.268l-0.634,-0Zm-16.496,-31.401l-0.949,0.318l-0.634,-0l-1.27,-0.318l-5.075,-4.757l1.904,-0.636l5.075,-3.172l0.949,-0.638l0.636,-0.629l1.272,-0.634l3.168,-0.318l0.318,0.634l0.636,2.219l-0,2.856l-2.538,1.903l-3.492,3.172Zm21.571,-45.674l0.634,-1.268l0.95,-2.54l0.636,-1.901l4.443,0.951l1.899,0l1.27,-0.636l0.316,0l1.588,-0.633l0.952,-0.634l1.268,-1.586l0.315,0.95l0.318,0.636l0.952,0.316l0,3.173l0.952,1.904l1.268,1.268l1.592,0.633l0.634,1.27l0.634,0.952l1.263,1.584l0,1.903l-1.263,0.318l-0.318,0l-0.95,0.634l-0.322,-0.634l-0.634,-0.318l-0.636,-0.315l-0.316,-0.318l-3.807,-1.902l-3.49,-1.588l-0.634,-0.316l-0.952,0l-3.171,-0.952l-3.807,-0.318l-2.854,0l1.27,-0.633Zm30.765,44.404l-0,2.222l-7.295,-0l-0.318,0.318l-2.531,-0l-3.494,0.316l-1.27,0.951l-0.95,0l-0.636,-0.318l-0.315,-0.949l0.951,-1.904l2.22,-1.586l1.904,-0.322l1.59,0.64l1.581,0.316l7.929,0l0.634,0.316Zm1.585,-27.275l0,0.634l-0.631,1.267l-5.076,0.318l-3.491,0l-1.902,0.316l-0.629,0.314l-0.952,0.322l-1.59,1.586l-1.904,3.171l-0.634,1.586l0,1.904l0.634,1.27l0.952,1.267l1.27,0.316l1.59,0.318l0.634,0.634l0.311,0l0.636,0.634l0.316,1.588l-0.316,1.268l-0.318,0.951l-0.629,0.634l-0.318,0l-0.95,-0.318l-1.274,0l-3.808,0.634l-0.315,0.636l0.315,2.538l-0.315,1.585l-0.318,0.952l-1.268,0.95l-1.902,-0.95l-0.32,-0.636l-0.634,-1.901l-0.952,-0.636l0,-0.316l-0.315,-1.268l-0.318,-3.807l0.633,-0.316l0,-8.565l-0.633,-1.27l-0.63,-1.903l0.316,-0.95l0.632,-0.318l0.315,-0.634l0.634,-0.634l0.952,-0.322l1.588,-0.63l8.251,-0.318l0.634,-0.318l-0,-8.244l-0.318,-0.636l0.318,-0.318l1.263,-1.268l0.636,-0.634l0.632,-0.318l0.954,-0.952l0.952,0.318l0.316,0.634l0.315,1.586l0.636,1.904l0.318,0.634l0.95,0.634l1.588,0.953l1.584,0.632l0.636,0.952l0.633,0.636l0.316,0.316l-0.631,0.952l0.631,0.636Zm-16.175,-27.596l0.318,-0.636l0.634,-0.315l0.952,-1.904l1.274,-1.588l1.268,-0.314l0.311,-0.318l5.711,0l3.172,-0.318l7.295,-1.27l-0,2.538l-2.22,1.27l-1.581,0.634l-1.59,0.316l-4.442,0.318l-0.634,0.318l-3.491,0.318l-2.531,0.315l-1.908,0.952l-1.586,1.586l-0.952,-0.634l0,-1.268Zm24.106,26.326l7.931,-0l0.634,0.316l-0.318,0.636l-3.172,4.757l-0.952,-0l-2.219,-0.952l-5.391,0l-2.54,-0.952l0,-3.171l6.027,-0.634Zm9.199,32.986l-0.634,0.952l-1.9,0.318l-1.59,1.902l-1.901,1.588l-2.222,1.903l-1.902,1.584l-1.903,-0.634l-1.586,-0.95l-1.9,-0.318l-0.633,-0.318l-0,-1.908l0.633,-0.311l2.218,-0.636l0.634,-0.95l0.316,-0.952l0.318,-0.952l-0.318,-1.903l-3.801,-0.634l0.318,-1.586l0.627,-0.952l2.856,-0.316l4.123,0.632l0.952,0l1.586,0.314l1.908,0.956l3.801,3.171Zm55.506,-17.127l-3.171,-1.901l-2.534,-1.906l-0.315,-1.586l-0.639,-1.268l-1.905,-2.537l-3.17,-2.856l-4.441,-0.634l-3.807,0.318l-3.488,0.952l-3.807,1.586l-2.854,0.95l-2.855,1.903l-7.613,0.318l-2.853,-0.318l-2.856,-2.219l-2.853,-1.586l-3.172,-0.956l-3.173,-0.314l-0.952,0l1.585,-1.585l0.954,-0.95l1.268,-0.636l2.22,-0.318l1.901,0.318l1.588,0.952l1.59,1.903l2.215,2.22l2.538,0.952l7.297,-0l2.219,-0.952l1.904,-0.952l2.22,-1.268l2.219,-0.636l3.808,-3.487l3.487,-2.22l2.538,-1.276l3.173,-1.261l0,-4.126l-1.27,-0.949l-1.585,-0.954l-0.318,-2.22l-0.316,-1.901l0.952,-2.54l0.316,-1.586l-0.634,-1.586l-2.22,-3.805l-2.851,-2.855l-3.81,-1.904l-4.125,-0.634l-6.659,-0.318l-3.171,0.636l-6.345,-0l-1.264,-0.318l-1.59,-0l-1.27,-0.95l-1.901,-1.588l-6.979,-1.585l-3.172,-0.316l-2.855,0.316l-0.634,-0l0.316,-1.902l-0.316,-0.952l-0.318,-0.636l-0.316,-0.949l-0.954,-1.27l-2.853,-2.538l-6.345,-3.489l-3.804,-0.634l-0.318,-0l-3.173,-1.268l-0.318,0l-2.531,-0.318l-2.542,-0.318l-5.709,0l-2.222,1.27l-1.586,0.952l-3.171,1.586l-3.487,2.537l-3.174,2.856l-0.634,0.316l-4.437,2.219l-5.395,2.538l-0.636,-0l-2.854,0.318l-1.269,0.949l0.954,1.588l1.901,0.95l1.904,0.318l3.805,0.318l0.634,1.27l0.956,0.632l1.9,1.269l2.219,2.222l0.952,1.268l1.27,1.268l-1.27,4.123l-0.316,0.954l0,1.586l-2.537,-3.174l-1.27,-3.489l-2.22,-2.854l-3.489,-1.586l-0.634,0l-3.805,-0.633l-3.174,0.633l-2.538,1.586l-1.267,0.952l-0.952,1.586l-0.318,1.903l-0,4.124l-0.316,1.585l-1.27,1.586l-1.901,1.586l-4.126,2.537l-4.439,2.22l-3.171,1.904l-2.856,2.853l-2.22,2.856l-1.265,3.171l-0.318,3.172l0.632,2.855l2.219,2.856l4.123,2.537l-0.633,4.44l-0.318,2.219l0.318,1.588l1.585,1.268l2.22,0.318l3.494,-0l4.755,4.757l-0,0.634l-0.318,0.318l-0.952,-0l-8.565,0.318l-5.391,1.585l-4.441,2.538l-3.172,3.171l-0.951,1.586l-0.634,1.904l-0,3.171l0.318,2.854l0.634,1.904l2.853,2.853l2.856,0.636l2.855,1.586l5.073,5.075l2.538,1.897l2.542,0.958l8.242,0l1.27,0.63l0.316,0l0.951,0.954l1.908,2.856l0.948,-0l-0.948,1.585l-1.59,2.22l-0.318,2.855l1.59,3.172l3.486,3.171l2.537,1.588l1.904,0.952l0.952,0.316l6.661,3.171l1.267,0l1.586,2.538l2.854,4.437l4.445,7.299l2.533,4.123l1.586,2.538l0.636,0.634l1.904,3.807l1.583,4.439l-0.315,16.811l-0.634,18.079l-0.634,16.496l-1.27,15.225l-0.95,19.029l-0.32,9.2l0,6.459l-0.068,3.372l-1.27,12.999l-1.897,12.376l-1.274,4.758l-1.586,4.125l-2.22,3.489l-2.232,2.463l-1.086,1.17l-0.135,0.143l-0.241,0.363l-2.017,1.57l-3.487,2.22l-4.124,2.222l-3.805,1.899l-3.737,2.162l3.737,0.06l61.111,-0l0,-0.316l-4.129,-2.856l-0.95,-0.633l-3.172,-2.222l-5.709,-4.441l-2.537,-2.536l-1.904,-2.855l-1.27,-2.538l-1.268,-2.856l-1.585,-4.441l-0.141,-1.372l-0,-6.554l0.636,-59.948l0.318,-29.817l-0.636,-29.815l-0,-1.902l1.27,-0.954l1.903,-2.535l2.22,-3.49l2.538,-5.709l1.908,-3.807l2.215,-3.49l4.439,-6.342l1.27,-1.904l2.538,-4.124l3.175,-5.075l2.852,-0.634l3.807,-0.315l11.1,-3.492l3.805,-1.586l2.222,-1.267l1.59,-2.22l1.268,-2.226l0.313,-2.849l-0.313,-2.854l-1.906,-1.903l-0.952,-1.904l-0.634,-1.904l0,-2.219l0.634,-1.274l0.952,-0.63l3.487,-0.318l5.709,-0.316l4.764,-0.634l2.849,-0.952l0.952,-0.636l0.318,-0.633l-0.952,-1.586l-2.215,-0.634l-8.887,-1.27l-5.071,-0.638l-5.395,-0.312l-0.634,0l-0.636,-0.634l0.636,-1.269l0.634,-1.268l3.805,-0.318l3.489,-0.634l4.442,-2.22l4.123,-1.592l5.391,-0.311l5.393,-1.274l1.27,-0.63l0.316,-0.634l3.494,-5.711l1.263,-2.853l1.586,-2.538l3.489,-3.805l0.318,-2.538l0,-0.634l-0.636,-0.318Z" style="fill:#fff;fill-rule:nonzero;"/><path d="M172.987,266.004l-3.071,7.841c-2.935,-2.138 -7.553,-3.21 -13.849,-3.21c-5.899,0 -10.631,2.538 -14.191,7.611c-3.562,5.075 -5.342,11.619 -5.342,19.626c0,7.643 1.825,13.841 5.479,18.593c3.654,4.753 8.368,7.129 14.145,7.129c6.296,-0 11.143,-2.231 14.537,-6.693l5.043,7.015c-5.319,5.289 -12.167,7.933 -20.542,7.933c-8.774,-0 -15.682,-3.165 -20.725,-9.493c-5.044,-6.328 -7.566,-14.673 -7.566,-25.034c-0,-10.025 2.689,-18.357 8.069,-24.99c5.381,-6.633 12.336,-9.95 20.864,-9.95c7.306,0 13.021,1.208 17.149,3.622" style="fill:#fff;fill-rule:nonzero;"/><rect x="187.889" y="263.529" width="9.171" height="67.174" style="fill:#fff;"/><path d="M221.589,271.782l0,18.661l23.613,0l0,7.794l-23.613,0l0,32.464l-9.171,-0l0,-67.172l41.496,-0l-0,8.253l-32.325,-0Z" style="fill:#fff;fill-rule:nonzero;"/><path d="M268.129,296.542c0,7.702 1.522,14.139 4.565,19.304c3.039,5.167 7.327,7.749 12.859,7.749c6.268,-0 11.042,-2.369 14.331,-7.107c3.285,-4.738 4.926,-11.386 4.926,-19.946c-0,-17.3 -6.418,-25.952 -19.257,-25.952c-5.686,-0 -10.01,2.324 -12.976,6.968c-2.965,4.648 -4.448,10.976 -4.448,18.984m-9.629,-0c-0,-9.722 2.439,-17.851 7.316,-24.394c4.872,-6.54 11.454,-9.811 19.737,-9.811c9.324,-0 16.47,3.011 21.438,9.032c4.964,6.022 7.448,14.414 7.448,25.173c0,11.036 -2.49,19.679 -7.474,25.928c-4.981,6.254 -12.118,9.378 -21.412,9.378c-8.467,-0 -15.093,-3.302 -19.874,-9.905c-4.787,-6.601 -7.179,-15.067 -7.179,-25.401" style="fill:#fff;fill-rule:nonzero;"/><path d="M334.615,271.782l-0,21.826c2.2,0.305 4.341,0.457 6.419,0.457c5.502,-0 9.508,-0.886 12.014,-2.659c2.508,-1.772 3.758,-4.935 3.758,-9.491c0,-3.761 -1.342,-6.465 -4.033,-8.117c-2.689,-1.649 -6.939,-2.475 -12.748,-2.475c-0.918,-0 -2.719,0.153 -5.41,0.459m27.648,58.919l-17.927,-28.84c-2.047,0 -5.289,-0.153 -9.721,-0.459l-0,29.299l-9.171,-0l0,-67.172c0.337,-0 2.715,-0.116 7.133,-0.344c4.413,-0.23 7.632,-0.344 9.648,-0.344c16.141,0 24.211,6.418 24.211,19.257c-0,4.22 -1.298,8.019 -3.897,11.395c-2.598,3.378 -5.686,5.479 -9.263,6.304l19.488,30.904l-10.501,-0Z" style="fill:#fff;fill-rule:nonzero;"/></g></g><g><path d="M652.34,281.161l-8.498,-0l-6.836,-20.868l-6.838,20.868l-8.439,-0l-11.65,-42.327l10.876,-0l5.529,22.355l6.838,-22.355l7.372,-0l6.832,22.355l5.528,-22.355l10.88,-0l-11.594,42.327Z" style="fill:#fff;fill-rule:nonzero;"/><path d="M678.596,258.512c-0.592,-0.597 -1.422,-0.893 -2.614,-0.893c-1.189,0 -2.019,0.296 -2.616,0.893c-1.244,1.249 -1.425,3.508 -1.425,6.655c0,3.153 0.181,5.412 1.425,6.66c0.597,0.592 1.427,0.891 2.616,0.891c1.192,-0 2.022,-0.299 2.614,-0.891c1.251,-1.248 1.432,-3.507 1.432,-6.66c-0,-3.147 -0.181,-5.406 -1.432,-6.655m7.673,18.902c-1.904,2.02 -5.111,4.105 -10.287,4.105c-5.167,-0 -8.378,-2.085 -10.282,-4.105c-2.677,-2.914 -3.507,-5.944 -3.507,-12.247c-0,-6.239 0.83,-9.332 3.507,-12.247c1.904,-2.017 5.115,-4.1 10.282,-4.1c5.176,0 8.383,2.083 10.287,4.1c2.675,2.915 3.505,6.008 3.505,12.247c-0,6.303 -0.83,9.333 -3.505,12.247" style="fill:#fff;fill-rule:nonzero;"/><path d="M711.288,259.281c-0.95,-0.948 -1.841,-1.66 -3.507,-1.66c-1.307,-0 -3.926,0.771 -3.926,4.398l0,19.142l-9.748,-0l-0,-31.984l9.513,0l-0,2.617c1.427,-1.425 4.219,-2.974 7.548,-2.974c3.155,0 5.291,0.776 7.492,2.974l-7.372,7.487Z" style="fill:#fff;fill-rule:nonzero;"/><path d="M730.063,281.161c-7.071,-0 -9.929,-5.054 -9.929,-9.453l-0,-32.874l9.753,-0l-0,32.16c-0,1.25 0.649,1.96 1.96,1.96l3.387,0l0,8.207l-5.171,-0Z" style="fill:#fff;fill-rule:nonzero;"/><path d="M751.457,257.62c-3.627,0 -4.041,2.911 -4.041,7.548c-0,4.638 0.414,7.551 4.041,7.551c3.627,-0 4.045,-2.913 4.045,-7.551c0,-4.637 -0.418,-7.548 -4.045,-7.548m4.337,23.54l-0,-2.618c-1.961,1.963 -4.036,2.976 -7.367,2.976c-3.092,-0 -5.945,-1.072 -7.791,-2.915c-3.149,-3.15 -2.969,-8.74 -2.969,-13.435c0,-4.694 -0.18,-10.284 2.969,-13.436c1.846,-1.841 4.638,-2.913 7.73,-2.913c3.152,0 5.348,0.896 7.136,2.678l0,-12.664l9.749,0l-0,42.327l-9.457,0Z" style="fill:#fff;fill-rule:nonzero;"/><path d="M540.706,305.123l-3.808,11.295l7.372,-0l-3.564,-11.295Zm8.259,26.274l-1.961,-6.303l-13.016,0l-2.08,6.303l-10.882,-0l15.395,-42.323l8.03,0l15.397,42.323l-10.883,-0Z" style="fill:#fff;fill-rule:nonzero;"/><path d="M574.043,307.857c-3.569,-0 -3.804,3.091 -3.804,6.358c0,3.272 0.235,6.364 3.804,6.364c3.568,-0 3.803,-3.092 3.803,-6.364c0,-3.267 -0.235,-6.358 -3.803,-6.358m-0.894,34.24c-4.995,0 -8.735,-0.893 -12.007,-4.161l6.065,-6.064c1.488,1.487 3.267,2.023 5.468,2.023c4.102,0 5.171,-2.795 5.171,-4.877l0,-2.318c-1.784,1.784 -3.923,2.677 -6.895,2.677c-3.091,0 -5.648,-1.013 -7.491,-2.853c-2.91,-2.915 -2.971,-6.479 -2.971,-12.309c-0,-5.825 0.061,-9.391 2.971,-12.303c1.843,-1.843 4.461,-2.852 7.548,-2.852c3.272,0 5.172,1.009 7.137,2.974l-0,-2.616l9.447,-0l0,29.659c0,7.552 -5.705,13.02 -14.443,13.02" style="fill:#fff;fill-rule:nonzero;"/><path d="M610.236,309.519c-0.949,-0.949 -1.84,-1.662 -3.507,-1.662c-1.307,0 -3.921,0.774 -3.921,4.401l0,19.139l-9.753,0l0,-31.981l9.513,-0l0,2.616c1.427,-1.424 4.22,-2.971 7.549,-2.971c3.154,-0 5.291,0.773 7.491,2.971l-7.372,7.487Z" style="fill:#fff;fill-rule:nonzero;"/><path d="M632.876,308.746c-0.592,-0.592 -1.427,-0.89 -2.619,-0.89c-1.184,-0 -2.019,0.298 -2.611,0.89c-1.249,1.251 -1.425,3.512 -1.425,6.66c0,3.15 0.176,5.411 1.425,6.662c0.592,0.59 1.427,0.888 2.611,0.888c1.192,0 2.027,-0.298 2.619,-0.888c1.251,-1.251 1.427,-3.512 1.427,-6.662c-0,-3.148 -0.176,-5.409 -1.427,-6.66m7.668,18.907c-1.904,2.019 -5.11,4.1 -10.287,4.1c-5.167,-0 -8.378,-2.081 -10.282,-4.1c-2.672,-2.915 -3.507,-5.945 -3.507,-12.247c0,-6.239 0.835,-9.332 3.507,-12.247c1.904,-2.017 5.115,-4.098 10.282,-4.098c5.177,0 8.383,2.081 10.287,4.098c2.675,2.915 3.51,6.008 3.51,12.247c-0,6.302 -0.835,9.332 -3.51,12.247" style="fill:#fff;fill-rule:nonzero;"/><path d="M659.141,308.155l0,23.241l-9.748,0l-0,-23.241l-2.915,-0l0,-7.49l2.915,0l-0,-2.795c-0,-4.4 2.854,-9.45 9.925,-9.45l5.176,0l-0,8.2l-3.392,-0c-1.307,-0 -1.961,0.714 -1.961,1.965l0,2.08l5.353,0l-0,7.49l-5.353,-0Z" style="fill:#fff;fill-rule:nonzero;"/><path d="M682.134,308.746c-0.597,-0.592 -1.427,-0.89 -2.618,-0.89c-1.19,-0 -2.02,0.298 -2.612,0.89c-1.248,1.251 -1.425,3.512 -1.425,6.66c0,3.15 0.177,5.411 1.425,6.662c0.592,0.59 1.422,0.888 2.612,0.888c1.191,0 2.021,-0.298 2.618,-0.888c1.251,-1.251 1.427,-3.512 1.427,-6.662c0,-3.148 -0.176,-5.409 -1.427,-6.66m7.668,18.907c-1.904,2.019 -5.11,4.1 -10.286,4.1c-5.172,-0 -8.378,-2.081 -10.282,-4.1c-2.678,-2.915 -3.508,-5.945 -3.508,-12.247c0,-6.239 0.83,-9.332 3.508,-12.247c1.904,-2.017 5.11,-4.098 10.282,-4.098c5.176,0 8.382,2.081 10.286,4.098c2.675,2.915 3.505,6.008 3.505,12.247c0,6.302 -0.83,9.332 -3.505,12.247" style="fill:#fff;fill-rule:nonzero;"/><path d="M714.817,309.519c-0.95,-0.949 -1.839,-1.662 -3.507,-1.662c-1.307,0 -3.921,0.774 -3.921,4.401l-0,19.139l-9.749,0l0,-31.981l9.509,-0l-0,2.616c1.427,-1.424 4.224,-2.971 7.553,-2.971c3.149,-0 5.286,0.773 7.491,2.971l-7.376,7.487Z" style="fill:#fff;fill-rule:nonzero;"/><path d="M739.302,309.581c-0.597,-1.368 -1.904,-2.496 -4.222,-2.496c-2.32,-0 -3.627,1.128 -4.217,2.496c-0.42,0.83 -0.536,1.723 -0.536,2.497l9.509,-0c-0,-0.774 -0.122,-1.667 -0.534,-2.497m-8.975,8.975c0,2.619 2.02,4.996 5.644,4.996c3.388,-0 4.878,-0.95 6.599,-2.678l5.825,5.825c-3.268,3.272 -6.479,5.054 -12.424,5.054c-7.075,0 -15.218,-2.557 -15.218,-16.347c-0,-10.463 5.949,-16.344 14.327,-16.344c9.274,-0 14.389,6.775 14.389,15.153l0,4.341l-19.142,0Z" style="fill:#fff;fill-rule:nonzero;"/><path d="M764.322,331.753c-4.818,-0 -9.513,-0.238 -13.911,-4.636l6.298,-6.3c2.675,2.677 6.125,2.677 7.79,2.677c1.427,0 4.161,-0.42 4.161,-2.082c-0,-0.896 -0.421,-1.845 -2.318,-2.026l-4.934,-0.473c-5.529,-0.534 -9.276,-3.03 -9.276,-9.271c-0,-7.074 6.361,-10.581 12.72,-10.581c5.234,0 9.452,0.773 12.606,3.921l-6.008,6.006c-1.603,-1.605 -4.274,-1.902 -6.775,-1.902c-2.379,0 -3.148,1.127 -3.148,1.841c0,0.357 -0.119,1.547 2.081,1.784l4.932,0.475c6.718,0.651 9.633,4.638 9.633,9.751c-0,7.548 -6.422,10.816 -13.851,10.816" style="fill:#fff;fill-rule:nonzero;"/><path d="M791.595,331.397c-7.071,0 -9.925,-5.054 -9.925,-9.452l-0,-13.789l-2.915,-0l0,-7.49l2.915,0l-0,-9.158l9.748,-0l0,9.158l5.052,0l0,7.49l-5.052,-0l0,13.077c0,1.25 0.654,1.96 1.961,1.96l3.091,0l0,8.204l-4.875,0Z" style="fill:#fff;fill-rule:nonzero;"/><path d="M817.803,309.519c-0.95,-0.949 -1.841,-1.662 -3.503,-1.662c-1.307,0 -3.926,0.774 -3.926,4.401l0,19.139l-9.743,0l-0,-31.981l9.508,-0l0,2.616c1.427,-1.424 4.22,-2.971 7.548,-2.971c3.15,-0 5.292,0.773 7.492,2.971l-7.376,7.487Z" style="fill:#fff;fill-rule:nonzero;"/><path d="M841.038,335.202c-0.653,1.841 -1.483,3.211 -2.496,4.222c-1.897,2.019 -4.335,2.673 -7.189,2.673l-3.688,-0l-0,-8.799l2.08,-0c1.728,-0 2.614,-0.414 3.272,-2.377l0.889,-2.675l-10.639,-28.829l10.223,0l5.411,16.587l5.172,-16.587l10.223,0l-13.258,35.785Z" style="fill:#fff;fill-rule:nonzero;"/><path d="M841.785,205.911c-162.295,-14.305 -103.71,6.546 -273.162,-7.808c51.189,-3.648 37.436,1.187 87.935,-2.725c25.286,-1.965 44.697,2.747 66.941,-0.26c46.922,-3.958 80.267,2.216 118.286,10.793" style="fill:#fff;"/><path d="M865.908,219.867c-108.352,-12.021 -42.655,11.836 -212.107,-2.516c51.189,-3.65 32.859,2.659 83.358,-1.253c25.286,-1.965 21.302,-2.144 43.548,-5.151c48.256,-2.465 47.184,0.343 85.201,8.92" style="fill:#fff;"/><path d="M773.747,174.805c0.807,1.39 -1.519,1.834 -6.162,1.585c-157.424,-14.106 -108.594,13.798 -231.741,4.174c14.504,-0.278 4.328,0.817 27.259,-0.013c76.796,-2.777 63.502,-27.02 210.644,-5.746" style="fill:#fff;"/><path d="M637.293,119.686c-0,-0 -16.311,13.179 -22.896,22.497c-9.174,12.989 -3.948,35.944 -3.948,35.944l-3.808,1.015c-0,-0 -3.338,-25.152 -5.075,-33.729c-1.739,-8.573 -15.749,-32.796 -15.749,-32.796l1.32,-3.109c0,-0 12.733,20.919 13.697,23.11c0.95,2.194 5.648,6.438 7.021,6.809c1.366,0.373 1.793,0.19 2.422,-0.479c2.392,-2.549 23.897,-21.379 23.897,-21.379l3.119,2.117Z" style="fill:#fff;fill-rule:nonzero;"/><path d="M572.143,96.804c0,-0 14.059,-11.802 30.917,-8.401c16.862,3.396 14.615,3.665 32.334,3.892c17.715,0.221 31.64,13.956 23.452,19.503c-8.184,5.556 -11.227,10.242 -25.824,7.86c-14.597,-2.378 -39.044,-8.889 -58.26,-6.985c-19.212,1.902 -53.511,0.914 -46.273,-5.61c7.236,-6.524 43.654,-10.259 43.654,-10.259" style="fill:#fff;fill-rule:nonzero;"/><path d="M611.473,129.332c1.086,2.571 0.335,5.282 -1.678,6.06c-2.015,0.771 -4.527,-0.676 -5.615,-3.243c-1.085,-2.571 -0.339,-5.282 1.681,-6.055c2.012,-0.78 4.527,0.671 5.612,3.238" style="fill:#fff;fill-rule:nonzero;"/><path d="M745.349,57.302c-0,-0 -40.722,35.574 -52.779,49.985c-13.351,15.954 -13.602,29.526 -14.19,48.345c-0.393,12.645 0.681,42.846 0.681,42.846l-6.741,3.974c0,-0 -8.493,-65.135 -12.283,-83.989c-3.788,-18.869 -26.604,-52.288 -26.604,-52.288l2.946,-6.834c0,0 28.486,38.252 30.616,40.448c6.673,6.886 15.175,3.331 16.591,1.904c14.108,-14.156 48.269,-44.391 48.269,-44.391l13.494,-0Z" style="fill:#fff;fill-rule:nonzero;"/><path d="M560.969,47.064c0,0 15.972,-2.619 19.212,-6.908c3.243,-4.283 8.985,-8.333 18.215,-8.096c9.235,0.24 37.682,-8.805 50.153,-15.709c12.478,-6.908 27.844,-21.358 57.889,-13.81c30.051,7.54 64.386,24.047 78.858,26.424c14.47,2.385 23.956,22.859 26.946,25.957c2.994,3.096 -1.099,5.192 -5.102,7.141c-3.991,1.952 -9.115,5.954 -20.593,3.333c-11.479,-2.618 -32.366,-5.214 -40.925,-5.474c-8.559,-0.267 -40.226,-1.515 -33.341,4.004c6.886,5.52 10.76,17.317 -5.648,15.705c-16.413,-1.614 -25.643,-6.854 -33.128,-4.708c-7.487,2.139 -26.912,5.733 -29.196,1.427c-2.286,-4.305 -2.256,-12.844 -13.477,-8.966c-11.227,3.878 -28.445,8.489 -38.173,6.585c-9.735,-1.906 -14.544,-12.896 -18.214,-12.86c-3.671,0.041 -30.939,-12.048 -13.476,-14.045" style="fill:#fff;fill-rule:nonzero;"/><path d="M680.893,83.867c2.155,5.084 0.667,10.459 -3.326,12.001c-3.987,1.536 -8.971,-1.339 -11.126,-6.431c-2.155,-5.088 -0.667,-10.458 3.326,-11.996c3.994,-1.54 8.971,1.339 11.126,6.426" style="fill:#fff;fill-rule:nonzero;"/><path d="M813.273,108.293c0,0 -30.864,18.925 -39.328,30.602c-11.58,15.97 -10.675,60.445 -10.759,63.47c-0.267,10.201 0.264,12.209 0.264,12.209l-5.013,3.91c0,-0 -5.746,-50.78 -8.41,-65.65c-2.65,-14.875 -24.254,-45.742 -24.254,-45.742l2.442,-5.323c-0,0 28.874,36.432 31.224,37.126c2.343,0.697 4.025,1.187 5.063,0c21.681,-24.526 43.007,-32.978 43.007,-32.978l5.764,2.376Z" style="fill:#fff;fill-rule:nonzero;"/><path d="M851.996,107.315c-23.197,14.698 -54.38,9.448 -56.34,9.581c-4.464,0.308 -20.286,-5.667 -29.157,-6.029c-2.094,-0.09 -22.649,1.739 -23.136,1.941c-0.904,0.425 -23.825,-0.179 -26.665,0.011c-2.811,0.185 -12.631,-4.29 -15.022,-3.736c-2.837,0.654 -6.924,-1.779 -9.881,-3.089c-3.037,-1.336 1.11,-10.671 2.792,-13.522c0.116,-0.181 14.341,-8.693 35.098,-16.684c15.184,-5.85 32.323,-5.416 33.352,-5.348c3.453,0.213 28.275,1.981 29.41,2.573c0.794,0.421 44.45,11.343 46.922,12.858c-0,0 29.227,10.924 12.627,21.444" style="fill:#fff;fill-rule:nonzero;"/><path d="M767.531,123.014c1.678,3.953 0.52,8.127 -2.58,9.323c-3.1,1.196 -6.974,-1.038 -8.647,-4.995c-1.674,-3.948 -0.516,-8.127 2.584,-9.319c3.105,-1.196 6.974,1.038 8.643,4.991" style="fill:#fff;fill-rule:nonzero;"/></g></g></svg>