<?xml version="1.0" encoding="UTF-8" standalone="no"?><!DOCTYPE svg PUBLIC "-//W3C//DTD SVG 1.1//EN" "http://www.w3.org/Graphics/SVG/1.1/DTD/svg11.dtd"><svg width="100%" height="100%" viewBox="0 0 355 336" version="1.1" xmlns="http://www.w3.org/2000/svg" xmlns:xlink="http://www.w3.org/1999/xlink" xml:space="preserve" xmlns:serif="http://www.serif.com/" style="fill-rule:evenodd;clip-rule:evenodd;stroke-linejoin:round;stroke-miterlimit:2;"><g><g><path d="M333.342,188.46l-0.906,0.908l-2.12,0l-1.824,0.606l-3.331,1.213l-3.937,1.21l-3.029,1.516l-2.427,0l-0.3,0l-2.728,0.305l-2.728,1.211l-1.614,0.909l-1.719,0.606l-1.815,0.908l0.302,-0.605l0.301,-0.303l1.212,-0.909l1.817,-0.303l0.305,-0.303l0.908,-1.211l2.73,0l2.12,-0.608l0.606,-0.605l0.603,-0.608l2.427,0l2.12,-0.907l2.726,-0.303l0.909,-0.91l0.693,-0.173l0.62,-0.23l3.229,-0.506l1.824,-0.908l2.12,-0.606l0.603,-0.608l1.212,0l0.912,0.608l-1.821,0.606Zm-6.667,23.633l-1.514,0l-1.514,0l-1.212,0.908l-1.211,0.606l0,-0.606l0.305,-0.908l1.512,-0.606l0.606,0l1.213,-0.909l1.815,0l0.913,-0.305l0.904,0l0.913,1.214l-2.73,0.606Zm-18.027,-7.576l-0.756,0l0.604,-0.604l0.305,-0.607l0.908,0l0,0.908l0.303,0.303l-1.364,0Zm-1.817,0.455l-0.76,0.759l0,-1.214l1.516,0l-0.756,0.455Zm-4.697,-18.632l0.606,-1.817l1.211,0l2.12,-0.606l0.608,0l1.618,-0.305l1.412,0l0.606,-0.606l1.817,-0.91l3.033,0l0,0.91l-2.425,0.606l-2.122,0l-1.817,0.606l-0.305,0.305l-1.817,0l-1.212,0.3l-0.603,0.303l-0.608,0.911l-2.122,0.303Zm-3.029,-17.877l-1.514,0.604l-0.608,0l-2.122,0.303l-2.421,0.305l-0.605,0.302l-0.303,0.606l-0.305,0.909l-1.209,0l-0.307,-0.303l1.516,-1.819l2.12,-0.303l1.819,-0.604l1.21,-0.303l1.215,-0.605l2.423,-0.909l4.242,-0.305l2.423,-1.514l1.213,-0.909l0.604,0l1.213,-0.303l0.909,0l0,0.303l-0.909,1.212l-1.061,0.455l-0.756,0.756l-1.061,0.151l-1.967,0.154l-2.73,0.303l-3.029,1.514Zm-2.122,-7.573l0.458,-0.608l0.754,-0.303l2.429,-1.817l-0.61,1.817l-2.527,1.212l-1.412,0l-1.214,0l2.122,-0.301Zm-12.423,49.383l-3.03,0.305l-0.604,0.606l-0.606,0.303l-1.815,0l-0.913,0.606l-1.51,0.908l-1.219,0l-1.513,0.606l-1.817,0.303l-2.122,0.91l-0.605,0.303l-0.909,0l-1.819,1.514l-2.423,0.608l-3.029,0l-0.605,1.209l-0.911,0.305l-1.209,0.303l-0.608,-0.608l0.608,-0.605l1.209,-0.604l1.212,0l1.514,-0.91l0.612,-0.303l0.605,-0.909l5.602,-0.606l1.059,-0.91l1.516,-0.606l2.12,-0.608l2.427,-0.3l1.815,-0.606l1.513,-0.909l1.215,0l0.911,-0.305l0.603,-0.603l0.307,-0.606l2.419,0l0.305,0.606l-0.305,0.603Zm-24.539,1.517l0.906,-0.303l2.728,-1.214l0.606,-0.603l0.607,-0.606l1.21,0l2.652,-0.439l0.681,0.134l0,0.305l-0.605,0.303l-0.909,0.303l-1.516,0.603l-0.604,0.305l-1.516,0l-0.606,0.909l-3.029,0.606l-0.605,0.908l-1.819,0.303l-0.301,-0.303l2.12,-1.211Zm6.057,-45.449l1.215,0l0.907,-0.303l0.606,-0.605l1.211,-0.909l1.213,-0.606l0.303,0l-0.303,0.301l-0.908,2.122l-1.516,0.305l-0.303,0l-2.425,0l0,-0.305Zm-44.841,14.543l-1.213,0.911l-1.212,0.301l-2.573,0.605l-1.364,0l-1.516,0.911l-4.545,1.514l-4.242,1.214l-6.665,2.423l-2.73,0.908l-3.026,1.819l-3.334,0.606l-2.425,1.211l-2.422,0.303l-0.303,0l0,-0.303l3.034,-1.817l3.025,-1.516l3.028,-0.606l3.033,-1.211l5.754,-2.12l8.787,-3.031l6.059,-1.514l3.637,-1.213l0.607,-1.214l0.606,-0.303l0.608,-0.301l0.301,1.212l-0.909,1.211Zm-116.953,43.935l-5.451,2.122l-5.458,3.028l-2.272,0.756l-1.364,0.451l-1.514,0.915l-1.813,0.606l-4.852,1.211l-2.425,0.909l-2.12,1.211l0,-0.608l3.029,-1.815l3.333,-0.908l2.732,-1.521l2.116,-0.601l2.272,-0.606l6.212,-3.333l6.059,-2.423l1.516,0.303l0,0.303Zm238.148,-29.997l0.305,-0.604l2.12,-0.608l0.605,-0.303l0.303,-0.91l1.515,-0.604l0.908,-0.303l0.608,-1.516l-1.516,-1.211l-1.515,-1.517l-1.213,-0.605l-1.815,-0.301l1.514,-0.303l0.606,-0.911l0.908,-0.603l0.606,-0.911l0.606,-0.606l0,-0.605l0.607,-0.305l0.604,0l0,-1.515l-2.423,0l-0.605,0l-0.608,-0.302l0.91,-1.818l0.303,-0.605l-1.213,0l0,0.303l-3.332,0l-1.512,0.302l-0.608,0.604l-0.296,1.214l-1.824,-2.12l2.421,-0.909l2.425,-2.122l3.939,-0.608l-6.665,0.305l-0.603,0.606l-0.911,0.303l-1.821,1.211l-0.602,0.305l-2.427,0.606l-3.03,0.605l-0.907,0.301l-0.605,0.608l-1.519,0.909l-1.514,0.302l-1.211,0l-2.726,0l0,-1.211l0,-0.608l0.305,-0.301l3.632,0l6.059,-0.605l1.216,-0.911l0,-1.211l0,-0.606l0.603,-0.303l2.828,-0.404l3.233,-1.112l5.452,-1.212l-0.301,-2.422l-1.819,-0.608l-1.212,0l-3.024,0l-0.917,0.303l-0.299,0.305l-1.215,-0.909l-0.301,-0.303l-0.908,-0.303l-0.305,0.907l-0.303,0.608l0,1.514l-0.909,0.303l-1.211,-1.212l-1.214,-0.303l-1.209,0.303l-0.913,1.212l-3.331,0.91l-0.606,-0.305l0,-0.605l0.407,-2.324l0.142,-0.813l0.667,0.108l2.721,0l4.85,-1.817l2.222,-0.504l1.112,-0.709l2.128,0.605l2.416,-0.605l0.606,-1.515l-2.726,0l0.907,-0.303l1.819,0l2.726,-0.605l0,-0.305l-5.452,-1.514l0,-1.212l-0.603,-0.305l-2.63,-0.099l-2.222,1.01l-3.031,0.606l-1.209,-0.301l-0.305,-0.608l0.305,-0.909l1.209,-0.91l1.822,-1.212l0,-1.211l0.603,-1.514l1.212,-0.303l0.305,-0.911l-0.305,0.303l-1.815,0.608l0,-0.608l0.906,-1.817l0.303,-1.211l0,-0.303l-0.606,0.605l-2.723,0.909l-3.336,0.303l-1.819,1.211l-1.211,0.606l-2.726,0.608l-1.212,0.303l-0.91,0.302l-0.303,-0.605l-0.911,-0.608l-0.601,-0.606l0.301,-0.908l1.211,-0.303l6.061,-1.212l6.36,-2.422l3.031,-0.608l0.305,-1.817l0,-0.606l-1.214,0l-7.266,0.606l-0.915,0.301l-6.362,1.516l-3.031,0.305l-2.118,0.603l-5.154,2.122l-1.817,0.604l-7.877,1.516l-1.215,0.303l-2.726,0.606l-3.634,0.608l-6.667,2.725l-6.055,2.122l-3.939,1.212l-3.336,2.12l-2.424,0.91l-3.332,0.909l-5.453,1.817l-4.242,0.305l-4.242,0.909l-7.881,2.12l-2.422,1.514l-2.425,0.606l-4.541,0.91l-1.821,0.303l-1.515,0.909l-1.817,0.603l-1.819,0.608l-4.848,1.514l-4.542,1.517l-1.519,0.906l-0.908,0.305l-2.419,1.211l-5.458,1.515l-0.91,0.605l-1.817,0.608l-1.817,0.303l2.725,-3.031l-0.908,0l-1.817,1.515l-1.212,0.605l-0.305,0.608l-0.301,0.303l-0.304,0l-3.938,1.514l-4.544,2.12l-4.24,1.821l-3.336,0.907l-2.12,0.909l-2.12,1.514l-3.03,0.91l-2.421,0.606l0,-0.606l1.207,-0.91l9.998,-4.543l-1.817,0l-8.484,3.636l-3.03,0.907l-1.517,0.305l-0.906,0.605l-2.12,0.606l-2.728,0.305l0,1.211l1.514,-0.607l1.214,-0.604l1.817,1.211l-3.939,1.515l-2.423,0.605l-2.728,0.303l-5.15,1.517l-3.939,1.514l-2.116,0.908l-2.126,1.515l-3.942,2.425l-3.026,0.908l-3.632,0.909l-0.608,0.605l-0.911,0.303l-1.819,0.303l-2.725,0.305l-2.425,0l-0.606,0.606l-1.214,0.603l-1.211,0.305l-3.031,0.909l-3.028,1.514l-4.848,3.636l-3.329,0.909l-4.246,1.516l-3.029,0l-2.122,0.907l-2.12,0.608l0.909,0l2.12,-0.303l0.91,-0.305l0.303,-0.301l0.303,0.301l0,0.305l-1.516,0.908l-2.12,1.214l-3.334,1.514l-3.331,1.211l-3.838,1.82l-2.526,0.908l-3.031,1.817l-3.634,1.51l-4.242,1.521l-6.061,2.419l-6.97,3.034l-1.815,0.606l-2.425,0.299l-2.423,1.52l-2.122,0.907l-3.333,2.425l-3.329,1.211l-2.427,0.606l-2.425,1.209l-2.12,0.61l-3.332,2.12l-3.333,1.207l3.937,0l0,0.307l-1.514,1.214l-2.118,1.211l-5.458,2.726l-2.422,1.213l-3.33,1.514l-2.732,1.817l-1.514,0.911l-1.514,0.606l-0.911,0.605l-2.12,0.608l-4.541,2.728l-4.851,3.029l-0.606,1.207l-1.211,0.307l-0.608,0.303l-0.604,0.91l-0.305,0.604l-0.908,0.606l-0.606,0.305l-0.303,0.605l1.817,0.297l0.606,-0.297l0.608,0.297l0,0.305l-1.214,0.307l-0.303,1.211l-0.302,0.602l0,0.61l0.91,0.305l0.604,1.817l0.608,0l-0.911,0.303l-0.301,0l0,1.817l0.301,0.605l0.911,0.606l1.211,0.303l0,0.305l0.303,3.03l-0.303,2.12l0.303,0.303l1.817,2.425l0.911,0.907l0.605,1.817l0.606,2.727l0.61,2.122l0.908,1.818l0,1.516l0.602,1.211l0.911,0.606l1.514,1.819l-0.606,1.817l0,1.212l0.909,1.213l0.908,3.935l1.819,1.517l0.907,1.518l0.911,1.817l1.514,1.817l0,3.332l0.606,3.632l1.823,1.52l0.908,1.517l0.303,2.422l2.116,2.12l0.608,-0.303l0.908,0l1.515,-0.302l0.605,-1.214l2.122,-0.301l5.151,-3.333l2.423,-0.911l2.425,-1.215l0.303,-0.602l0.605,-1.514l2.122,-0.303l1.817,-0.303l3.94,-2.12l1.817,-0.91l2.122,-0.303l2.727,-1.821l3.033,-0.905l2.419,-1.516l1.211,-0.301l1.517,-1.214l1.817,-0.906l1.819,-0.915l2.122,-0.906l0,-0.907l1.211,-0.305l4.545,-2.725l4.848,-2.728l3.634,-0.911l4.443,-1.817l4.346,-2.423l3.634,-0.91l4.547,-2.726l4.846,-2.425l5.756,-2.122l5.756,-2.12l0.911,-0.606l0.606,-0.302l0.603,0l0.61,-0.608l1.209,-0.907l2.129,-0.305l2.113,-0.908l2.12,-1.514l2.427,-0.606l1.818,-0.301l1.817,-0.608l2.126,-0.908l3.026,-0.608l1.212,-0.606l1.211,-0.605l2.12,-1.517l-2.12,0.608l-2.423,1.817l0,-2.425l3.632,-1.512l2.425,-0.908l2.734,-0.305l0.909,0l0,0.305l1.813,0l0.303,-0.305l2.725,-0.907l2.728,-1.516l-0.608,-0.612l1.214,-1.512l1.516,-0.905l3.029,-0.303l-3.029,2.423l1.514,0l0.612,-1.215l1.205,-0.905l1.515,-0.91l0.908,-0.909l3.336,-1.514l3.331,-0.911l6.97,-2.12l3.331,-0.908l3.334,-1.515l6.667,-3.03l3.636,-0.911l3.638,-0.608l3.027,-1.512l3.028,-0.91l7.277,-2.423l3.327,-1.212l29.999,-11.211l9.696,-3.94l9.996,-3.634l2.728,-0.605l6.669,-2.127l9.691,-3.026l3.941,-1.817l3.333,-1.514l4.846,-0.606l1.819,-0.608l1.519,-0.606l2.42,-1.514l2.73,-0.606l0.905,0l1.817,-0.302l3.636,-0.909l3.636,-1.214l3.334,-1.209l6.059,-1.821l1.819,-0.604l3.336,0.303l3.935,-0.303l1.514,-0.851l0.608,-0.362l2.124,0l0.603,-1.817l1.212,-0.909l1.514,-0.608l0,-1.209l-1.514,-0.305l-0.911,-0.906l-0.301,-1.517l0.907,0l1.213,-0.605l-0.603,-0.911l0.301,-1.211l1.514,-2.423l2.728,-0.911l3.028,-1.211l0.608,-0.909l-0.608,-0.303l-0.303,-0.908l-2.12,0l-0.605,0.908l-2.728,0.303l-0.606,-0.303l0.911,-0.908l0,-0.909l-0.608,0.303l-0.303,-0.303l0,-0.606l0.606,-0.607Z" style="fill:#65b345;fill-rule:nonzero;"/><path d="M335.766,156.949l-1.212,0.302l-1.516,0l0,-0.603l1.214,-1.214l1.514,-0.605l0.305,-0.303l0.603,-0.303l1.824,0.303l-1.824,2.122l-0.908,0.301Z" style="fill:#65b345;"/><path d="M335.766,215.123l-1.212,0.301l-1.516,1.214l-0.301,0.302l0.301,0.303l0.305,0.303l0.604,-0.303l1.215,-0.605l0.604,-0.303l1.215,-1.212l0,-0.303l-0.607,0l-0.608,0.303Z" style="fill:#65b345;"/><path d="M315.686,219.986l-2.945,0.59l0,0.908l0.911,0.911l1.207,-0.305l0.61,-0.606l0.451,-0.605l2.274,-0.604l0.604,-0.608l0,-0.605l-0.303,0l-0.606,0.605l-2.203,0.319Z" style="fill:#65b345;"/><path d="M216.387,177.55l4.244,-1.209l3.636,-1.821l-4.544,1.516l-3.336,1.514Z" style="fill:#65b345;"/><path d="M216.387,177.55l-1.512,0.305l-5.153,0.303l-0.908,2.12l3.337,-1.514l4.236,-1.214Z" style="fill:#65b345;"/><path d="M308.8,203.306l-0.303,0.607l-0.603,0.606l2.12,0l-0.305,-0.305l0,-0.908l-0.909,0Z" style="fill:#65b345;fill-rule:nonzero;"/><path d="M315.769,192.398l2.425,0l2.12,-0.907l2.726,-0.305l0.909,-0.908l0.693,-0.175l0.622,-0.228l3.229,-0.506l1.822,-0.908l2.12,-0.608l0.603,-0.606l1.214,0l0.91,0.606l-1.819,0.608l-0.908,0.908l-2.12,0l-1.822,0.606l-3.333,1.211l-3.935,1.212l-3.031,1.516l-2.425,0l-0.3,0l-2.728,0.303l-2.728,1.211l-1.616,0.909l-1.719,0.606l-1.813,0.91l0.3,-0.607l0.303,-0.303l1.21,-0.907l1.819,-0.305l0.303,-0.303l0.91,-1.211l2.728,0l2.12,-0.608l0.606,-0.603l0.605,-0.608Z" style="fill:#65b345;fill-rule:nonzero;"/><path d="M306.071,183.916l0.608,0l1.618,-0.305l1.412,0l0.606,-0.604l1.817,-0.912l3.033,0l0,0.912l-2.425,0.604l-2.122,0l-1.817,0.606l-0.305,0.305l-1.817,0l-1.212,0.303l-0.603,0.3l-0.608,0.911l-2.122,0.303l0.606,-1.817l1.211,0l2.12,-0.606Z" style="fill:#65b345;fill-rule:nonzero;"/><path d="M268.806,165.432l1.211,-0.908l1.213,-0.606l0.303,0l-0.303,0.301l-0.908,2.122l-1.516,0.305" style="fill:#65b345;fill-rule:nonzero;"/><path d="M268.2,166.039l-0.906,0.3l-1.216,0l0,0.305l2.728,0l0,-1.211l-0.606,0.606Z" style="fill:#65b345;fill-rule:nonzero;"/><path d="M91.103,230.726l-1.364,0.451l-1.514,0.913l-1.815,0.606l-4.85,1.213l-2.425,0.909l-2.119,1.209l0,-0.606l3.028,-1.815l3.333,-0.91l2.73,-1.519l2.118,-0.601l2.273,-0.608l6.211,-3.332l6.059,-2.422l1.515,0.3l0,0.305l-5.45,2.122l-5.457,3.027l-2.273,0.758l-0.455,0.152" style="fill:#65b345;fill-rule:nonzero;"/><path d="M114.287,87.364l-1.511,2.417l-10.573,0l-4.834,1.813l-2.114,1.208l-1.51,2.114l-0.303,1.813l0,0.3l0.604,1.21l1.209,1.209l2.114,1.208l0,1.207l-1.207,0.906l-0.907,0.303l-1.813,-0.303l-1.209,-0.3l-3.018,-1.21l-2.716,-0.603l-1.207,0.302l-1.214,0.905l-1.209,0l0.303,-2.415l0.906,-2.116l1.515,-1.51l1.508,-1.209l1.51,-0.301l1.811,-0.303l2.114,-1.51l0.906,-0.604l0.303,-0.301l0.301,-1.209l0.303,-1.817l4.535,-5.13l2.412,-1.814l2.417,-1.207l1.512,1.51l1.511,1.208l1.508,1.209l2.421,1.811l3.622,0.606l0.3,0l-0.3,0.603Zm-20.845,38.965l-1.811,2.722l-7.25,9.97l-2.719,4.227l-2.114,2.72l-1.21,1.207l-1.51,-0.301l-0.303,-1.209l1.21,-6.041l0.904,-1.813l0.909,-0.904l0.303,-0.303l3.018,-3.323l1.512,-2.718l2.118,-2.419l3.923,-4.228l1.209,1.511l1.208,-0.907l0.603,0l0.907,-0.604l-0.907,2.413Zm-17.22,3.02l0,-0.298l1.212,-0.907l0.301,-1.51l0.603,-2.718l1.21,-0.302l2.717,-0.907l1.51,-1.211l0.606,-1.513l-0.606,-1.51l-1.207,-1.203l-1.813,-2.12l0.301,-5.734l4.839,0l2.11,0.906l0.907,0.907l0.603,1.207l0,0.907l-0.3,0.299l-0.604,0.305l-0.303,0.906l-0.906,0.297l-0.606,0.61l-0.297,2.416l0.297,3.023l0.606,0.904l1.209,0.604l-4.533,4.23l-4.53,4.53l-0.303,0l-0.907,0.604l-0.301,0.303l-0.302,-0.604l-0.907,-0.603l-0.303,-0.604l-0.303,-1.214Zm-0.601,-26.277l-0.303,-1.209l-0.604,-0.905l-0.902,-0.605l-0.303,-0.301l0,-0.907l0.303,0l1.203,-0.303l0.303,-0.91l0.604,-0.6l0.3,0l1.513,-1.51l0.603,0.303l0.301,0.297l0.606,0.607l0,0.903l-0.606,1.213l0,2.417l-0.301,0l0.301,2.114l-0.301,0.6l-0.603,0.306l-1.513,0l-0.601,-1.51Zm-1.512,9.364l-0.297,0.604l-0.303,0.303l-0.301,0l-3.024,-0.604l-2.116,-0.906l-1.208,-1.214l0,-2.412l-1.209,-1.509l-1.508,-0.912l-0.305,0l-1.51,0l-0.604,-0.297l-3.323,0.297l-1.511,0l-2.113,-0.6l0.603,-1.207l0.907,-0.907l10.573,0l1.811,-0.603l2.116,-0.907l0.907,0.301l0.603,0.606l0.911,2.717l-2.724,0l-1.51,0.303l0,1.209l0.604,1.206l0.606,0.605l1.811,0.303l1.514,0l0.303,1.51l0.297,1.208l0,0.906Zm-6.344,33.833l-3.927,-6.344l-0.907,-1.811l-0.603,-0.606l-2.11,-2.717l-3.025,-3.324l6.344,0l0.301,0.303l2.419,2.114l0.904,1.21l0.604,1.813l0,9.362Zm-14.801,-76.728l-1.511,-1.208l-1.51,-0.605l-6.947,0l-0.606,-0.301l0,-2.718l0.907,0l8.76,1.51l0.907,0.297l2.717,0.307l2.72,-0.307l1.209,2.421l0.909,0.907l1.205,0.906l0.604,2.417l0.303,0.904l0.906,2.419l0.301,0.905l0,0.605l-0.301,0.301l-1.209,-0.604l-2.11,-1.51l-1.817,-0.906l-1.208,-1.51l-3.927,-4.23l-0.302,0Zm-3.625,35.645l-2.719,0.6l-2.417,0.912l-1.207,0.301l-1.21,0.606l-2.414,1.207l-1.513,-2.416l-1.207,-0.61l-0.303,-1.51l0.303,-0.6l2.114,-0.303l3.624,-0.301l3.929,0l2.118,0.301l0.902,0.606l0.604,1.207l-0.604,0Zm-15.709,-29.905l-0.905,0.303l-0.604,0l-1.209,-0.303l-4.833,-4.531l1.813,-0.606l4.833,-3.02l0.905,-0.608l0.605,-0.599l1.212,-0.604l3.016,-0.303l0.303,0.604l0.606,2.114l0,2.719l-2.417,1.813l-3.325,3.021Zm20.543,-43.5l0.604,-1.207l0.904,-2.419l0.606,-1.811l4.232,0.907l1.809,0l1.209,-0.606l0.301,0l1.512,-0.604l0.907,-0.603l1.207,-1.51l0.301,0.904l0.303,0.606l0.906,0.301l0,3.022l0.907,1.813l1.207,1.207l1.516,0.604l0.604,1.209l0.604,0.907l1.203,1.508l0,1.813l-1.203,0.303l-0.303,0l-0.905,0.604l-0.307,-0.604l-0.603,-0.303l-0.606,-0.301l-0.301,-0.302l-3.626,-1.811l-3.323,-1.513l-0.604,-0.301l-0.906,0l-3.021,-0.906l-3.626,-0.303l-2.717,0l1.209,-0.604Zm29.3,42.29l0,2.116l-3.925,0l-3.023,0l-0.303,0.303l-2.41,0l-3.328,0.301l-1.209,0.906l-0.904,0l-0.606,-0.302l-0.301,-0.905l0.907,-1.813l2.113,-1.51l1.813,-0.307l1.515,0.61l1.506,0.301l7.551,0l0.604,0.3Zm1.51,-25.976l0,0.604l-0.602,1.207l-4.833,0.303l-3.326,0l-1.811,0.301l-0.599,0.298l-0.907,0.307l-1.514,1.511l-1.813,3.02l-0.604,1.51l0,1.813l0.604,1.21l0.906,1.207l1.21,0.301l1.514,0.303l0.604,0.603l0.297,0l0.605,0.604l0.301,1.512l-0.301,1.208l-0.303,0.906l-0.599,0.604l-0.303,0l-0.905,-0.303l-1.213,0l-3.626,0.604l-0.301,0.605l0.301,2.417l-0.301,1.51l-0.303,0.907l-1.207,0.904l-1.811,-0.904l-0.305,-0.606l-0.604,-1.811l-0.906,-0.606l0,-0.3l-0.301,-1.208l-0.303,-3.626l0.604,-0.301l0,-8.156l-0.604,-1.21l-0.6,-1.813l0.301,-0.904l0.602,-0.303l0.301,-0.604l0.603,-0.604l0.907,-0.307l1.512,-0.599l7.858,-0.303l0.604,-0.303l0,-7.852l-0.303,-0.605l0.303,-0.303l1.203,-1.208l0.606,-0.603l0.601,-0.303l0.909,-0.907l0.906,0.303l0.301,0.604l0.301,1.51l0.606,1.813l0.303,0.604l0.904,0.603l1.512,0.909l1.509,0.602l0.605,0.906l0.604,0.606l0.301,0.301l-0.602,0.906l0.602,0.606Zm-15.405,-26.281l0.303,-0.606l0.603,-0.301l0.907,-1.813l1.213,-1.512l1.208,-0.299l0.297,-0.303l5.439,0l3.02,-0.303l6.947,-1.209l0,2.417l-2.113,1.209l-1.507,0.604l-1.514,0.301l-4.23,0.302l-0.603,0.303l-3.326,0.303l-2.41,0.301l-1.817,0.906l-1.511,1.511l-0.906,-0.604l0,-1.207Zm22.958,25.072l7.553,0l0.604,0.3l-0.303,0.606l-3.021,4.531l-0.906,0l-2.114,-0.907l-0.907,0l-1.51,0l-2.717,0l-2.419,-0.906l0,-0.301l0,-0.303l0,-2.417l5.74,-0.603Zm8.76,31.415l-0.603,0.907l-1.809,0.303l-1.515,1.811l-1.811,1.512l-2.116,1.813l-1.811,1.508l-1.813,-0.604l-1.51,-0.904l-1.809,-0.303l-0.604,-0.303l0,-0.906l0,-0.911l0.604,-0.297l2.112,-0.605l0.604,-0.905l0.3,-0.906l0.303,-0.907l-0.303,-1.813l-3.62,-0.604l0.303,-1.51l0.598,-0.906l2.719,-0.301l3.927,0.601l0.907,0l1.51,0.299l1.817,0.911l3.62,3.02Zm52.864,-16.311l-3.021,-1.811l-2.412,-1.815l-0.301,-1.511l-0.608,-1.207l-1.815,-2.417l-3.018,-2.719l-4.23,-0.604l-3.626,0.303l-3.322,0.906l-3.626,1.511l-2.717,0.904l-2.72,1.813l-7.25,0.303l-2.718,-0.303l-2.719,-2.114l-2.718,-1.51l-3.02,-0.911l-3.023,-0.298l-0.906,0l1.51,-1.511l0.909,-0.904l1.207,-0.606l2.114,-0.303l1.811,0.303l1.512,0.907l1.514,1.813l2.11,2.114l2.417,0.906l6.949,0l2.114,-0.906l1.813,-0.907l2.114,-1.207l2.114,-0.606l3.626,-3.321l3.321,-2.114l2.417,-1.215l3.023,-1.202l0,-3.022l0,-0.907l-1.21,-0.904l-1.51,-0.909l-0.303,-2.114l-0.301,-1.811l0.907,-2.418l0.301,-1.511l-0.604,-1.51l-2.114,-3.624l-2.715,-2.72l-3.629,-1.813l-3.929,-0.603l-6.341,-0.303l-3.021,0.606l-6.042,0l-1.204,-0.303l-0.303,0l-1.211,0l-1.209,-0.905l-1.811,-1.512l-6.647,-1.51l-3.02,-0.301l-2.72,0.301l-0.604,0l0.301,-1.811l-0.301,-0.907l-0.303,-0.606l-0.3,-0.904l-0.909,-1.209l-2.718,-2.417l-6.042,-3.323l-3.622,-0.604l-0.303,0l-3.023,-1.208l-0.303,0l-2.41,-0.302l-2.421,-0.303l-5.437,0l-2.116,1.209l-1.51,0.907l-3.021,1.51l-3.321,2.417l-3.022,2.719l-0.604,0.301l-4.226,2.114l-5.138,2.417l-0.606,0l-2.718,0.303l-1.209,0.904l0.909,1.512l1.811,0.905l1.813,0.303l3.624,0.303l0.604,1.209l0.91,0.602l1.809,1.209l2.114,2.116l0.907,1.207l1.209,1.208l-1.209,3.927l-0.301,0.908l0,1.51l-2.417,-3.022l-1.209,-3.323l-2.114,-2.718l-3.324,-1.51l-0.603,0l-3.624,-0.604l-3.023,0.604l-2.417,1.51l-1.207,0.907l-0.906,1.51l-0.303,1.813l0,3.927l-0.301,1.51l-1.209,1.51l-1.812,1.51l-3.929,2.417l-4.227,2.114l-3.021,1.813l-2.719,2.718l-2.114,2.719l-1.206,3.021l-0.302,3.02l0.601,2.72l2.114,2.719l3.927,2.417l-0.604,4.228l-0.302,2.114l0.302,1.512l1.511,1.207l2.114,0.303l3.327,0l4.528,4.531l0,0.603l-0.302,0.303l-0.907,0l-8.157,0.303l-5.134,1.51l-4.23,2.417l-3.02,3.021l-0.907,1.51l-0.603,1.813l0,3.02l0.302,2.718l0.604,1.813l2.718,2.717l2.719,0.606l2.72,1.51l4.831,4.834l2.417,1.807l2.421,0.912l7.85,0l1.209,0.6l0.301,0l0.906,0.909l1.818,2.719l0.902,0l-0.902,1.51l-1.515,2.114l-0.303,2.72l1.515,3.02l3.319,3.021l2.417,1.512l1.813,0.906l0.906,0.301l6.344,3.021l1.207,0l1.511,2.416l2.717,4.226l4.234,6.952l2.413,3.927l1.51,2.416l0.606,0.604l1.813,3.626l1.508,4.228l-0.301,16.011l-0.604,17.218l-0.603,15.709l-1.21,14.501l-0.904,18.122l-0.305,8.763l0,6.15l-0.065,3.212l-1.21,12.38l-1.807,11.787l-1.213,4.531l-1.51,3.929l-2.114,3.323l-2.126,2.346l-1.035,1.114l-0.128,0.136l-0.229,0.345l-1.921,1.496l-3.322,2.114l-3.926,2.116l-3.625,1.809l-3.559,2.059l3.559,0.057l58.201,0l0,-0.301l-3.933,-2.719l-0.904,-0.604l-3.021,-2.116l-5.437,-4.23l-2.416,-2.414l-1.814,-2.72l-1.209,-2.417l-1.207,-2.719l-1.51,-4.23l-0.135,-1.307l0,-2.012l0,-0.305l0,-0.012l0,-3.913l0.606,-57.093l0.303,-28.398l-0.606,-28.395l0,-1.811l1.21,-0.908l1.813,-2.415l2.114,-3.323l2.416,-5.438l1.817,-3.626l2.11,-3.323l4.228,-6.041l1.209,-1.813l2.417,-3.927l3.025,-4.833l2.715,-0.604l3.626,-0.301l10.572,-3.325l3.624,-1.51l2.116,-1.208l1.514,-2.114l1.207,-2.12l0.299,-2.713l-0.299,-2.718l-1.815,-1.813l-0.906,-1.813l-0.604,-1.813l0,-2.114l0.604,-1.213l0.906,-0.6l3.322,-0.303l5.437,-0.3l4.536,-0.604l2.714,-0.907l0.906,-0.605l0.303,-0.604l-0.906,-1.51l-2.11,-0.604l-8.464,-1.209l-4.829,-0.608l-5.138,-0.297l-0.604,0l-0.606,-0.603l0.606,-1.21l0.604,-1.207l3.624,-0.303l3.323,-0.604l4.23,-2.114l3.927,-1.516l5.134,-0.297l5.136,-1.213l1.21,-0.6l0.301,-0.603l3.327,-5.44l1.203,-2.717l1.51,-2.417l3.324,-3.624l0.302,-2.417l0,-0.603l-0.605,-0.303Z" style="fill:#1e1c1a;fill-rule:nonzero;"/><path d="M164.728,243.24l-2.925,7.468c-2.795,-2.037 -7.193,-3.057 -13.189,-3.057c-5.618,0 -10.125,2.416 -13.515,7.248c-3.392,4.833 -5.088,11.065 -5.088,18.692c0,7.278 1.738,13.181 5.218,17.707c3.48,4.527 7.97,6.789 13.472,6.789c5.996,0 10.612,-2.124 13.844,-6.374l4.803,6.681c-5.065,5.037 -11.588,7.555 -19.564,7.555c-8.356,0 -14.935,-3.014 -19.738,-9.041c-4.803,-6.026 -7.206,-13.974 -7.206,-23.842c0,-9.547 2.561,-17.482 7.686,-23.799c5.124,-6.318 11.748,-9.476 19.87,-9.476c6.958,0 12.401,1.15 16.332,3.449" style="fill:#1e1c1a;fill-rule:nonzero;"/><rect x="178.92" y="240.883" width="8.734" height="63.976" style="fill:#1e1c1a;"/><path d="M211.016,248.742l0,17.773l22.489,0l0,7.423l-22.489,0l0,30.918l-8.734,0l0,-63.974l39.52,0l0,7.86l-30.786,0Z" style="fill:#1e1c1a;fill-rule:nonzero;"/><path d="M255.34,272.323c0,7.336 1.449,13.466 4.347,18.385c2.895,4.921 6.978,7.38 12.247,7.38c5.969,0 10.516,-2.256 13.649,-6.768c3.128,-4.512 4.691,-10.844 4.691,-18.997c0,-16.476 -6.112,-24.716 -18.34,-24.716c-5.415,0 -9.533,2.214 -12.358,6.637c-2.824,4.427 -4.236,10.453 -4.236,18.079m-9.171,0c0,-9.258 2.323,-17 6.967,-23.232c4.641,-6.228 10.909,-9.344 18.798,-9.344c8.88,0 15.685,2.868 20.417,8.602c4.728,5.736 7.094,13.728 7.094,23.974c0,10.511 -2.372,18.743 -7.118,24.694c-4.744,5.956 -11.541,8.931 -20.393,8.931c-8.064,0 -14.375,-3.144 -18.928,-9.433c-4.559,-6.287 -6.837,-14.35 -6.837,-24.192" style="fill:#1e1c1a;fill-rule:nonzero;"/><path d="M318.659,248.742l0,20.788c2.096,0.29 4.135,0.435 6.114,0.435c5.24,0 9.056,-0.844 11.442,-2.533c2.388,-1.687 3.579,-4.699 3.579,-9.039c0,-3.581 -1.278,-6.157 -3.841,-7.73c-2.561,-1.571 -6.608,-2.358 -12.141,-2.358c-0.874,0 -2.59,0.147 -5.153,0.437m26.333,56.114l-17.074,-27.466c-1.949,0 -5.037,-0.147 -9.259,-0.437l0,27.903l-8.734,0l0,-63.974c0.322,0 2.586,-0.109 6.793,-0.327c4.204,-0.219 7.269,-0.327 9.19,-0.327c15.372,0 23.057,6.112 23.057,18.34c0,4.018 -1.236,7.636 -3.711,10.852c-2.474,3.217 -5.415,5.218 -8.822,6.004l18.56,29.432l-10,0Z" style="fill:#1e1c1a;fill-rule:nonzero;"/></g></g></svg>