<?xml version="1.0" encoding="utf-8"?>
<!-- Generator: Adobe Illustrator 24.0.1, SVG Export Plug-In . SVG Version: 6.00 Build 0)  -->
<svg version="1.1" id="Layer_1" xmlns="http://www.w3.org/2000/svg" xmlns:xlink="http://www.w3.org/1999/xlink" x="0px" y="0px"
	 viewBox="0 0 64 54" style="enable-background:new 0 0 64 54;" xml:space="preserve">
<style type="text/css">
	.st0{fill:#62BA46;}
	.st1{fill-rule:evenodd;clip-rule:evenodd;fill:#62BA46;}
	.st2{fill:#231F20;}
</style>
<title>Center for International Forestry Research (CIFOR) - logo</title>
<desc>Center for International Forestry Research (CIFOR) - logo</desc>
<g id="Artboard">
	<g id="Group-4">
		<g id="cifor-logo">
			<g id="XMLID_33_" transform="translate(0.000000, 24.000000)">
				<g id="XMLID_45_">
					<path id="XMLID_46_" class="st0" d="M53.4,7.9L53.4,7.9l0.4-0.1l0.1-0.1L54,7.6l0.2-0.1l0.1-0.1l0.1-0.2L54.2,7L54,6.8
						l-0.2-0.1l-0.3-0.1l0.2-0.1l0.1-0.1l0.1-0.1L54,6.2L54,6.2V6.1L54.1,6h0.1V5.8h-0.4h-0.1l-0.1-0.1l0.1-0.3l0.1-0.1h-0.2v0.1
						h-0.5L53,5.5l-0.1,0.1l-0.1,0.2l-0.3-0.4l0.4-0.1L53.2,5l0.6-0.1l-1,0.1h-0.1L52.6,5l-0.3,0.2l-0.1,0.1l-0.4,0.1l-0.4,0.1
						l-0.1,0.1l-0.1,0.1L51,5.7l-0.2,0.1h-0.2h-0.4V5.6V5.5l0.1-0.1h0.6l0.9-0.1l0.2-0.1V5V5L52,4.9l0.4-0.1L53,4.7l0.9-0.2
						l-0.1-0.4L53.5,4h-0.2h-0.4l-0.1,0.1h-0.1L52.3,4l-0.1-0.1l-0.1-0.1L52,4L51.9,4v0.1v0.1l-0.1,0.1l-0.2-0.2L51.3,4l-0.2,0.1
						L51,4.3l-0.5,0.1l-0.1-0.1V4.3L50.5,4V3.8h0.1H51l0.7-0.3l0.4-0.1l0.1-0.1l0.4,0.1L53,3.3L53,3.1h-0.4l0.1-0.1h0.5L53.7,3V2.9
						l-0.8-0.1V2.6l-0.1-0.1h-0.4L52,2.7l-0.5,0.1l-0.2-0.1l-0.1-0.1l0.1-0.1l0.2-0.1l0.3-0.2V2l0.1-0.2l0.2-0.1l0.1-0.1l-0.1,0.1
						l-0.3,0.1V1.7l0.1-0.3L52,1.2V1.1l-0.1,0.1l-0.4,0.2H51l-0.3,0.2l-0.2,0.1L50,1.8l-0.2,0.1l-0.1,0.1l-0.1-0.1l-0.1-0.1
						l-0.1-0.1l0.1-0.1l0.2-0.1l0.9-0.2l1-0.4l0.4-0.1l0.1-0.3V0.5h-0.2l-1.2,0.1l-0.1,0.1l-1,0.2l-0.4,0.1h-0.3l-0.8,0.4l-0.3,0.1
						l-1.2,0.2l-0.2,0.1l-0.4,0.1l-0.6,0.1l-1,0.4l-0.9,0.4l-0.6,0.2l-0.5,0.4l-0.4,0.1l-0.5,0.1l-0.9,0.3l-0.7,0.1l-0.7,0.1
						l-1.3,0.2l-0.4,0.2l-0.4,0.1l-0.7,0.1l-0.3,0.1L36,4.8l-0.3,0.1L35.4,5l-0.7,0.2l-0.7,0.2l-0.2,0.1l-0.1,0.1l-0.4,0.2L32.3,6
						l-0.1,0.1l-0.3,0.1l-0.3,0.1L32,5.8h-0.1L31.6,6l-0.2,0.1v0.1v0.1h-0.1l-0.6,0.2L30,6.8l-0.7,0.3l-0.5,0.1l-0.4,0.1l-0.4,0.2
						l-0.4,0.1l-0.4,0.1V7.7l0.2-0.1L29,6.9h-0.3l-1.3,0.6L27,7.6l-0.2,0.1l-0.1,0.1l-0.4,0.1l-0.4,0.1v0.1V8L26,7.9l0.2-0.1
						l0.3,0.2L26,8.3l-0.4,0.1l-0.4,0.1l-0.8,0.2l-0.6,0.2L23.3,9L23,9.2l-0.6,0.4L22,9.7l-0.6,0.1l-0.1,0.1L21.2,10l-0.3,0.1h-0.4
						h-0.4L20,10.1l-0.2,0.1l-0.2,0.1l-0.4,0.1l-0.4,0.2l-0.7,0.6l-0.6,0.1l-0.7,0.2h-0.4l-0.4,0.1l-0.4,0.1h0.1l0.4-0.1l0.1-0.1
						l0.1-0.1l0.1,0.1v0.1L16,11.9l-0.4,0.2l-0.5,0.2l-0.5,0.2l-0.6,0.3L13.7,13l-0.4,0.3l-0.7,0.2L12,13.7L11,14.1l-1.1,0.4
						l-0.3,0.1l-0.4,0.1l-0.4,0.3L8.5,15L8,15.4l-0.5,0.2l-0.4,0.1l-0.4,0.2L6.4,16l-0.5,0.4l-0.5,0.2h0.4h0.2v0.1l-0.2,0.2L5.5,17
						l-0.9,0.4l-0.4,0.2H3.6L3.2,18L3,18.1l-0.2,0.1l-0.1,0.1l-0.4,0.1l-0.7,0.4l-0.7,0.4l-0.1,0.3l-0.2,0.1l-0.1,0.1l-0.1,0.1
						l-0.1,0.1l-0.1,0.1H0.1L0,20l0.3,0.1L0.4,20l0.1,0.1v0.1l-0.2,0.1l-0.1,0.2l-0.1,0.1v0.1l0.1,0.1l0.1,0.3h0.1L0.2,21h0.1v0.1
						v0.2l0.1,0.1l0.1-0.1l0.1,0.1v0.1l0.1,0.4l-0.1,0.4l0.1,0.1l0.3,0.4l0.1,0.1l0.1,0.3l0.1,0.4l0.1,0.4l0.1,0.3v0.2l0.1,0.2
						l0.1,0.1l0.3,0.3L2,25.1v0.2l0.1,0.1L2.3,26l0.2,0.2l0.1,0.2l0.1,0.3L3.1,27v0.5l0.1,0.6l0.4,0.3l0.1,0.2V29L4,29.3l0.1-0.1
						h0.1l0.2-0.1L4.5,29l0.4-0.1l0.8-0.5l0.4-0.1L6.4,28L6.5,28l0.1-0.2l0.4-0.1l0.3-0.1l0.6-0.4l0.3-0.1L8.5,27l0.4-0.3l0.4-0.1
						l0.4-0.2l0.2-0.1l0.2-0.2l0.3-0.1l0.3-0.1l0.4-0.1v-0.1l0.2-0.1L12,25l0.7-0.4l0.6-0.1l0.7-0.3l0.7-0.4l0.6-0.1l0.7-0.4
						l0.7-0.4l0.9-0.4l0.9-0.4l0.1-0.1l0.1-0.1h0.1l0.1-0.1l0.2-0.1l0.4-0.1l0.4-0.1l0.4-0.2l0.4-0.1l0.3-0.1l0.3-0.1l0.4-0.1L22,21
						l0.2-0.1l0.2-0.1l0.4-0.2l-0.4,0.1l-0.6,0.6v-0.4l0.6-0.2l0.4-0.1l0.4-0.1h0.1v0.1h0.3l0.1-0.1l0.4-0.1l0.4-0.2l-0.1-0.1
						l0.2-0.2l0.2-0.1l0.4-0.1L24.9,20H25h0.2l0.1-0.2l0.2-0.1l0.2-0.1l0.1-0.1l0.4-0.2l0.5-0.1l1.1-0.4l0.5-0.1l0.5-0.2l1-0.4
						l0.6-0.1l0.6-0.1l0.4-0.2l0.4-0.1l1.2-0.4l0.5-0.2l4.7-1.7l1.5-0.6l1.5-0.6l0.4-0.1l1-0.4l1.5-0.4l0.6-0.3l0.5-0.2l0.7-0.1
						l0.3-0.1l0.2-0.1l0.4-0.2l0.4-0.1h0.1l0.3-0.1l0.6-0.1l0.6-0.2l0.5-0.2l0.9-0.3l0.3-0.1l0.5,0.1l0.6-0.1l0.2-0.1l0.1-0.1h0.4
						l0.1-0.3l0.2-0.1l0.2-0.1v-0.2l-0.2-0.1V9.9l-0.1-0.2H53l0.2-0.1l-0.1-0.1l0.1-0.2l0.2-0.4l0.4-0.1l0.4-0.2l0.1-0.1l-0.1-0.1
						l-0.1-0.1h-0.4l-0.1,0.1l-0.4,0.1l-0.1-0.1l0.1-0.1V8.1l-0.1,0.1l-0.1-0.1V8L53.4,7.9z M16.2,12.5l-0.9,0.4l-0.9,0.4l-0.4,0.1
						l-0.1,0.1l-0.2,0.1l-0.3,0.1l-0.7,0.2l-0.4,0.1L12,14.2v-0.1l0.4-0.3l0.5-0.1l0.4-0.2l0.4-0.1l0.4-0.1l0.9-0.5l0.9-0.4H16.2
						L16.2,12.5z M34.4,5.8L34.3,6L34.1,6l-0.4,0.1h-0.2l-0.2,0.1l-0.7,0.2l-0.7,0.2l-1,0.4l-0.4,0.1l-0.4,0.3l-0.5,0.1L29,7.7
						l-0.4,0.1h-0.1V7.7L29,7.5l0.4-0.2l0.4-0.1L30.3,7l0.9-0.4l1.4-0.4L33.5,6l0.6-0.2l0.1-0.2l0.1-0.1l0.1-0.1l0.1,0.2V5.8z
						 M41.4,3.6h0.2l0.1-0.1l0.1-0.1l0.2-0.1l0.2-0.1l0,0l-0.1,0.1l-0.1,0.4l-0.2,0.1h-0.1L41.4,3.6L41.4,3.6z M40.5,10.5l0.1-0.1
						l0.4-0.2l0.1-0.1l0.1-0.1h0.2l0.4-0.1h0.1v0.1l-0.1,0.1l-0.1,0.1l-0.2,0.1l-0.1,0.1h-0.2l-0.1,0.1l-0.4,0.1l-0.1,0.1l-0.3,0.1
						l-0.1-0.1L40.5,10.5z M44.3,10.3l-0.4,0.1l-0.1,0.1l-0.1,0.1h-0.3l-0.1,0.1L43,10.7h-0.2l-0.2,0.1l-0.3,0.1L41.9,11l-0.1,0.1
						h-0.1l-0.3,0.2l-0.4,0.1h-0.4l-0.1,0.2l-0.1,0.1l-0.2,0.1l-0.1-0.2l0.1-0.1l0.2-0.1h0.2l0.2-0.1l0.1-0.1L41,11l0.9-0.1l0.1-0.1
						l0.2-0.1l0.4-0.1l0.4-0.1l0.3-0.1l0.2-0.1h0.2l0.1-0.1l0.1-0.1l0.1-0.1h0.1h0.2V10.3L44.3,10.3z M46.3,2.8L46.3,2.8l0.2-0.1
						l0.4-0.3l-0.1,0.3L46.3,2.8l-0.1,0.1h-0.2L46.3,2.8z M46.6,3.9L46.4,4h-0.1L45.9,4l-0.4,0.1l-0.1,0.1l-0.1,0.1l-0.1,0.1h-0.1
						l-0.1-0.1L45.4,4L45.7,4L46,3.9l0.2-0.1l0.2-0.1l0.4-0.1l0.7-0.1l0.4-0.2l0.2-0.1h0.1l0.2-0.1h0.1v0.1l-0.1,0.2l-0.1,0.1
						l-0.1,0.1h-0.1h-0.3l-0.4,0.1L46.6,3.9z M47.1,6.7l0.1-0.3h0.2l0.4-0.1h0.1l0.2-0.1h0.2l0.1-0.1L48.6,6h0.2h0.2v0.1l-0.4,0.1
						h-0.4l-0.2,0.1l-0.1,0.1h-0.3h-0.1l-0.1,0.1l-0.1,0.1L47.1,6.7z M47.8,9.5l-0.1,0.1V9.4L47.8,9.5L47.8,9.5L48,9.4L47.8,9.5z
						 M48.1,9.4h-0.1H48.1l0.1-0.2h0.1v0.1l0.1,0.1H48.1L48.1,9.4z M50.9,10.6h-0.2h-0.2l-0.2,0.1L50,10.8v-0.1l0.1-0.1l0.2-0.1h0.1
						l0.2-0.1h0.3l0.1-0.1h0.1l0.1,0.2L50.9,10.6z M51.9,7l-0.1,0.1h-0.4l-0.3,0.1l-0.5,0.2L50,7.6l-0.4,0.2h-0.4h-0.1l-0.4,0.1
						l-0.4,0.2l-0.2,0.1l-0.3,0.1l-0.3,0.1l0.1-0.1l0.1-0.1l0.2-0.1l0.3-0.1L48.2,8l0.1-0.2h0.4l0.4-0.1l0.1-0.1l0.1-0.1h0.3L50,7.5
						l0.4-0.1l0.1-0.1h0.1h0.1l0.5-0.1L51.5,7L51.9,7L51.9,7l0.2-0.1L52.3,7H51.9z"/>
				</g>
				<polygon id="XMLID_44_" class="st1" points="52.3,2.2 52.1,2.2 51.9,2.2 51.9,2.1 52.1,2 52.3,1.8 52.4,1.8 52.4,1.8 52.7,1.8
					52.4,2.1 				"/>
				<polygon id="XMLID_43_" class="st1" points="52.3,11 52.1,11.1 51.9,11.2 51.9,11.3 51.9,11.4 51.9,11.4 52.1,11.4 52.2,11.2
					52.3,11.2 52.5,11 52.5,11 52.4,11 				"/>
				<polygon id="XMLID_42_" class="st1" points="49.2,11.8 48.7,11.9 48.7,12 48.9,12.1 49.1,12.1 49.2,12 49.2,11.9 49.6,11.8
					49.7,11.7 49.7,11.6 49.7,11.6 49.5,11.7 				"/>
				<polygon id="XMLID_41_" class="st1" points="33.7,5.3 33.7,5.3 34.4,5.1 34.9,4.8 34.2,5.1 				"/>
				<polygon id="XMLID_40_" class="st1" points="33.7,5.3 33.7,5.3 33.5,5.4 32.7,5.4 32.5,5.7 33,5.5 33.7,5.3 				"/>
				<polyline id="XMLID_39_" class="st0" points="48.1,9.3 48,9.4 48.1,9.4 48.3,9.4 48.3,9.4 48.3,9.2 48.1,9.2 48.1,9.3 				"/>
				<polyline id="XMLID_38_" class="st0" points="49.2,7.6 49.6,7.6 49.9,7.5 50.3,7.4 50.5,7.2 50.6,7.2 50.7,7.2 50.7,7.2
					51.2,7.1 51.5,7 51.8,6.9 51.9,6.8 52.1,6.8 52.2,6.9 51.9,7 51.8,7.1 51.5,7.1 51.2,7.2 50.7,7.4 50.7,7.4 50,7.6 49.6,7.8
					49.2,7.8 49.2,7.8 48.7,7.9 48.3,8 48.1,8.2 48.1,8.2 47.8,8.2 47.8,8.2 47.5,8.4 47.6,8.3 47.6,8.2 47.8,8.1 48.1,8.1 48.1,8
					48.3,7.9 48.7,7.9 49,7.7 49.1,7.7 49.2,7.6 				"/>
				<polyline id="XMLID_37_" class="st0" points="47.7,6.2 47.8,6.2 48.1,6.2 48.1,6.2 48.3,6.2 48.4,6.2 48.6,6 48.9,6 49.1,6
					49.1,6.2 48.7,6.2 48.4,6.2 48.1,6.3 48.1,6.4 47.8,6.4 47.8,6.4 47.6,6.4 47.5,6.5 47.4,6.6 47.1,6.7 47.2,6.4 47.3,6.4
					47.7,6.2 				"/>
				<polyline id="XMLID_36_" class="st0" points="41.9,3.5 42.1,3.3 42.2,3.3 42.3,3.3 42.2,3.3 42.1,3.6 41.9,3.7 				"/>
				<polyline id="XMLID_35_" class="st0" points="41.9,3.7 41.9,3.7 41.4,3.7 41.4,3.6 41.6,3.6 41.8,3.5 41.9,3.5 				"/>
				<polyline id="XMLID_34_" class="st0" points="14.1,13.4 13.9,13.5 13.7,13.6 13.4,13.7 12.7,13.8 12.3,14 12,14.2 12,14.1
					12.4,13.8 12.9,13.7 13.3,13.5 13.7,13.3 14.1,13.3 15,12.8 16,12.4 16.2,12.4 16.2,12.5 15.4,12.8 14.5,13.3 14.1,13.4
					14.1,13.4 				"/>
			</g>
			<g id="XMLID_15_" transform="translate(1.000000, 0.000000)">
				<path id="XMLID_16_" d="M24.1,10.4l-0.5-0.3l-0.5-0.3l-0.1-0.2L23,9.4L22.7,9l-0.5-0.5l-0.7-0.1L21,8.5l-0.5,0.2l-0.6,0.2
					l-0.5,0.2l-0.5,0.3l-1.2,0.1l-0.4-0.2l-0.5-0.4l-0.5-0.2L16,8.5l-0.5-0.1h-0.2l0.2-0.2l0.2-0.2L16,8l0.4-0.1L16.7,8l0.2,0.2
					l0.2,0.3l0.4,0.4L17.9,9H19l0.4-0.2l0.3-0.2l0.4-0.2l0.4-0.1l0.6-0.5l0.5-0.4L22,7.2L22.4,7V6.6V6.4l-0.2-0.2L22,6.1l-0.1-0.4
					l-0.1-0.3l0.1-0.3V4.9l-0.1-0.2l-0.4-0.6L21,3.6l-0.6-0.3l-0.6-0.1l-1.1-0.1l-0.5,0.1h-0.9l-0.2-0.1h-0.1h-0.2L16.6,3l-0.3-0.2
					l-1.1-0.2l-0.5-0.1l-0.5,0.1l0,0V2.3V2.2l-0.1-0.1L14.2,2L14,1.7l-0.5-0.4l-1-0.5l-0.5-0.1H12l-0.5-0.2h-0.1l-0.4-0.1l-0.4-0.1
					H9.8L9.4,0.6L9.2,0.8L8.8,1L8.2,1.4L7.8,1.8L7.7,1.9L6.9,2.3L6.1,2.6H6L5.6,2.7L5.4,2.9l0.2,0.2l0.3,0.2l0.3,0.1l0.6,0.1
					l0.1,0.1l0.2,0.1l0.3,0.2l0.3,0.4l0.2,0.2l0.2,0.2L7.7,5.1v0.2v0.2L7.3,5.1L7.1,4.5L6.7,4.1L6.2,3.8H6.1L5.5,3.8L5.1,3.8
					L4.7,4.1L4.5,4.2L4.3,4.5L4.2,4.8v0.3v0.4L4.1,5.7L3.9,5.9L3.6,6.1L3,6.5L2.3,6.9L1.9,7.2L1.5,7.6L1.1,8.1L0.9,8.5L0.8,9
					l0.1,0.5l0.4,0.5l0.6,0.4l-0.1,0.7v0.4l0.1,0.2l0.2,0.2l0.4,0.1H3l0.8,0.8v0.1l-0.1,0.1H3.5l-1.3,0.1l-0.8,0.2l-0.7,0.4
					l-0.5,0.5l-0.2,0.2L0,14.4v0.5v0.5l0.1,0.3l0.5,0.5L1,16.1l0.5,0.2l0.8,0.8l0.4,0.3L3,17.6h1.3l0.2,0.1l0,0l0.2,0.2L5,18.3h0.2
					L5,18.5l-0.3,0.4l-0.1,0.5l0.2,0.5l0.5,0.5l0.4,0.2L6,20.6l0.2,0.1l1.1,0.5h0.2l0.2,0.4l0.5,0.7l0.7,1.1l0.4,0.6l0.2,0.4
					l0.1,0.1L9.8,25l0.2,0.7L10,28.2L9.9,31l-0.1,2.6l-0.2,2.3l-0.2,2.9l-0.1,1.4v1v0.5l-0.2,2l-0.3,1.9l-0.2,0.8L8.4,47L8,47.5
					l-0.4,0.4l-0.2,0.2l0,0v0.1l-0.3,0.2l-0.4,0.5l-0.6,0.4l-0.6,0.3L5,49.9h0.6h0.6h1.6h0.1h1.5h0.2h0.1h1.6h0.4h0.1h0.5h2.3h0.8
					v-0.1l-0.8-0.4l-0.2-0.1L13.7,49l-0.9-0.7l-0.4-0.4l-0.3-0.5l-0.2-0.4l-0.2-0.5l-0.2-0.7v-0.2v-0.3v-0.1l0,0v-0.6l0.1-9.3
					l0.1-4.6l-0.1-4.6V26l0.2-0.2l0.3-0.4l0.4-0.5l0.4-0.9l0.3-0.6l0.4-0.5l0.7-1l0.2-0.3l0.4-0.6l0.5-0.8l0.5-0.1l0.6-0.1l1.7-0.5
					l0.6-0.2l0.4-0.2l0.2-0.4l0.2-0.4l0.1-0.5l-0.1-0.5l-0.3-0.3L19,16.8l-0.1-0.3v-0.4l0.1-0.2l0.2-0.1l0.5-0.1l0.9-0.1l0.8-0.1
					l0.5-0.2l0.2-0.1l0.1-0.1l-0.2-0.2L21.5,15l-1.4-0.2l-0.8-0.1l-0.8-0.1h-0.1l-0.1-0.1l0.1-0.2l0.1-0.2l0.3,0.2l0.5-0.1l0.7-0.4
					l0.6-0.2l0.8-0.1l0.8-0.2l0.2-0.1l0.1-0.1l0.5-0.9l0.2-0.5l0.2-0.4l0.5-0.6v-0.3L24.1,10.4L24.1,10.4z M15.5,13l-0.1,0.2
					l-0.3,0.1l-0.2,0.3l-0.3,0.2L14.3,14L14,14.3l-0.3-0.1L13.4,14L13.1,14l-0.1-0.1v-0.2v-0.2l0.1-0.1l0.4-0.1l0.1-0.2l0.1-0.2
					l0.1-0.2l-0.1-0.3l-0.6-0.1l0.1-0.2l0.1-0.2l0.5-0.1l0.6,0.1h0.2l0.2,0.1l0.3,0.2L15.5,13z M14.1,7.9h0.2h0.9h0.2L15.5,8
					l-0.1,0.1l-0.5,0.8h-0.2l-0.4-0.2h-0.2H14h-0.5l-0.4-0.2V8.5V8.4V8L14.1,7.9z M10.4,3.9l0.1-0.2h0.1l0.2-0.3l0.2-0.2l0.2-0.1
					l0.1-0.1h0.4h0.5L12.6,3l1.1-0.2v0.4l-0.4,0.2l-0.2,0.1l-0.3,0.2l-0.7,0.1l-0.1,0.1h-0.6h-0.4l-0.3,0.2l-0.2,0.2l-0.2-0.1V3.9z
					 M12.9,8.1L12.9,8.1l-0.1,0.3l-0.8,0.1h-0.5l-0.3,0.1l-0.1,0.1L11,8.8L10.8,9l-0.3,0.5l-0.1,0.2V10l0.1,0.2l0.2,0.2l0.2,0.1
					l0.2,0.1l0.1,0.1h0.1l0.1,0.1l0.1,0.2l-0.1,0.2l-0.1,0.2l-0.1,0.1h-0.1l-0.2-0.1h-0.2h-0.6L10,11.4l0.1,0.4L10,12.1L10,12.2
					l-0.2,0.1l-0.3-0.2v-0.1l-0.1-0.3l-0.2-0.1v-0.1l-0.1-0.2l-0.1-0.6l0.1-0.1V9.4L9.1,9.2L9.1,9l0.1-0.2l0.1-0.1l0.1-0.1l0.1-0.1
					l0.2-0.1l0.2-0.1L11,8.4l0.1-0.1V7L11,6.9l0.1-0.1l0.2-0.1l0.1-0.1l0.1-0.1l0.2-0.2l0.2,0.1l0.1,0.1l0.1,0.2L12,7.2l0.1,0.1
					l0.2,0.1l0.2,0.2l0.2,0.1l0.1,0.2l0.1,0.1l0.1,0.1V8.1L12.9,8.1z M12.7,12.3L12.7,12.3v0.3h-0.6h-0.5l-0.1,0.1h-0.4l-0.6,0.1
					l-0.2,0.2h-0.2l-0.1-0.1L10,12.7l0.2-0.3l0.4-0.2l0.3-0.1l0.2,0.1l0.2,0.1h0.2H12h0.5L12.7,12.3z M7.9,5.5L8,5.3l0.2-0.4
					l0.1-0.3l0.7,0.2h0.2h0.1l0.2-0.1h0.1l0.2-0.1l0.2-0.1l0.2-0.2l0.1,0.2l0.1,0.1h0.1v0.1V5l0.2,0.3l0.2,0.2l0.2,0.1L11,5.8
					L11.1,6l0.2,0.2v0.2v0.2l-0.2,0.1H11l-0.2,0.1l-0.1-0.1l-0.1-0.1l-0.1-0.1l-0.1-0.1L10,6L9.4,5.8L9.4,5.7H9.2L8.8,5.6L8.1,5.5
					H7.7H7.9z M4.6,12.5l-0.2,0.1H4.4l-0.2-0.1l-0.8-0.8l0.3-0.1l0.8-0.5l0.2-0.1l0.1-0.1L4.9,11l0.5-0.1L5.4,11l0.1,0.4v0.5
					l-0.4,0.2L4.6,12.5z M7.2,17.4l-0.5,0.1l-0.4,0.2l-0.2,0.1l-0.2,0.1L5.5,18l-0.2-0.4l-0.2-0.1L5,17.3l0.1-0.1l0.4-0.1L6,17.1
					h0.1h0.5L7,17.1l0.2,0.1V17.4L7.2,17.4L7.2,17.4z M7.7,11.6l-0.2-0.2l-0.2-0.1H6.1L6,11.2v-0.5h0.1h0.1L7.6,11l0.2,0.1l0.5,0.1
					l0.5-0.1l0.2,0.4l0.2,0.2l0.2,0.2l0.1,0.4l0.1,0.2l0.2,0.4l0.1,0.2v0.1L9.6,13l-0.2-0.1L9,12.7l-0.3-0.2l-0.2-0.2L7.7,11.6
					L7.7,11.6z M10.1,24l-0.6-1.1l-0.2-0.3l-0.1-0.1l-0.4-0.5l-0.5-0.5h0.2h0.6h0.2l0.1,0.1L10,22l0.2,0.2l0.1,0.3L10.1,24L10.1,24z
					 M11.2,18.6L11.2,18.6L11,18.7h-0.1l-0.5-0.1l-0.4-0.2l-0.2-0.2v-0.4l-0.1-0.3l-0.2-0.2H9.5H9.3l-0.1-0.1l-0.5,0.1H8.5L8,17.4
					l0.1-0.2L8.2,17h1h0.2h0.5l0.3-0.1l0.4-0.2l0.2,0.1l0.1,0.1l0.2,0.5h-0.4l-0.2,0.1v0.2l0.1,0.2l0.1,0.1l0.3,0.1H11l0.1,0.2
					L11.2,18.6L11.2,18.6L11.2,18.6z M11.4,17l-0.1-0.2l-0.1-0.2l-0.2-0.1L11,16.5v-0.2h0.1l0.2-0.1l0.1-0.2l0.1-0.1h0.1l0.2-0.2
					l0.1,0.1l0.1,0.1l0.1,0.1v0.2l-0.1,0.2v0.2v0.2h-0.1l0.1,0.4l-0.1,0.1l-0.1,0.1h-0.2L11.4,17z M11.5,21.3L11.5,21.3l0.2-0.2
					l0.1-0.2l0.1-0.5l0.2-0.1l0.5-0.2l0.2-0.2l0.1-0.2l-0.1-0.2l-0.2-0.2l-0.3-0.4l0.1-0.9h0.8l0.4,0.2l0.2,0.2l0.1,0.2v0.2
					l-0.1,0.1l-0.1,0.1l-0.1,0.2L13.3,19l-0.1,0.1l-0.1,0.4l0.1,0.5l0.1,0.2l0.2,0.1l-0.8,0.7L12,21.6h-0.1l-0.2,0.1l-0.1,0.1
					l-0.1-0.1l-0.2-0.1l-0.1-0.1L11.5,21.3z M14.3,20.7L14,21.2l-1.1,1.6l-0.5,0.7L12,23.9l-0.2,0.2l-0.2-0.1l-0.1-0.2l0.2-1
					l0.2-0.3l0.2-0.2l0.1-0.1l0.5-0.5l0.2-0.5l0.4-0.4l0.6-0.7l0.2,0.2l0.2-0.2h0.1l0.2-0.1L14.3,20.7z M17.7,14.5l-0.3,0.4h-1.7
					l-0.8,0.3l-0.4,0.2l-0.2,0.3L14.3,16v0.1l0.1,0.2l0.2,0.2l0.4,0.2V17l-0.2,0.2l-0.2,0.1l-0.3-0.1L14,17.1l-0.5-0.3l-0.5-0.2
					l-0.2,0.1l-0.2,0.2h-0.2l0.1-0.4l0.2-0.4l0.2-0.2l0.2-0.2l0.2-0.1l0.3-0.1l0.4-0.2l0.2-0.1l0.1-0.1l0.1-0.2l0.1-0.3l0.8-0.8
					l0.4-0.3l0.4-0.2l0.2,0.2l0.2,0.2l0.2,0.2l0.4,0.3l0.6,0.1h0.1V14.5z"/>
			</g>
			<g id="XMLID_2_" transform="translate(17.000000, 38.000000)">
				<path id="XMLID_13_" class="st2" d="M7.7,1.1L7.3,2.3C6.8,2,6.1,1.8,5.2,1.8C4.2,1.8,3.5,2.2,3,3C2.4,3.8,2.1,4.8,2.1,6
					S2.4,8.1,3,8.9S4.2,10,5.2,10c1,0,1.7-0.4,2.3-1.1L8.2,10c-0.8,0.8-1.9,1.2-3.2,1.2c-1.4,0-2.4-0.5-3.2-1.4S0.7,7.5,0.7,5.9
					c0-1.5,0.4-2.8,1.2-3.8s1.9-1.5,3.3-1.5C6.1,0.6,7.1,0.8,7.7,1.1z"/>
				<polygon id="XMLID_11_" class="st2" points="10,11 10,0.8 11.5,0.8 11.5,11 				"/>
				<polygon id="XMLID_9_" class="st2" points="15.2,2 15.2,4.9 18.9,4.9 18.9,6.1 15.2,6.1 15.2,11 13.8,11 13.8,0.8 20.3,0.8
					20.3,2 				"/>
				<path id="XMLID_6_" class="st2" d="M20.9,5.9c0-1.5,0.4-2.7,1.1-3.8c0.8-1,1.7-1.5,3-1.5c1.4,0,2.6,0.5,3.3,1.4s1.1,2.2,1.1,3.8
					s-0.4,3-1.1,4s-1.9,1.4-3.3,1.4c-1.3,0-2.4-0.5-3.1-1.5C21.3,8.7,20.9,7.4,20.9,5.9z M22.4,5.9c0,1.2,0.2,2.2,0.7,2.9
					c0.5,0.8,1.1,1.2,2,1.2c1,0,1.7-0.4,2.2-1.1C27.8,8.2,28,7.2,28,5.9c0-2.6-1-4-3-4c-0.9,0-1.5,0.4-2,1.1
					C22.6,3.6,22.4,4.6,22.4,5.9z"/>
				<path id="XMLID_3_" class="st2" d="M36.9,11l-2.8-4.4c-0.3,0-0.8,0-1.5-0.1V11h-1.4V0.8c0.1,0,0.5,0,1.1-0.1
					c0.7,0,1.2-0.1,1.5-0.1c2.5,0,3.7,1,3.7,2.9c0,0.7-0.2,1.2-0.6,1.7s-0.9,0.8-1.4,1l3,4.7L36.9,11L36.9,11z M32.7,2v3.3
					c0.3,0.1,0.7,0.1,1,0.1c0.8,0,1.4-0.2,1.8-0.4c0.4-0.3,0.6-0.8,0.6-1.4c0-0.6-0.2-1-0.6-1.3c-0.4-0.2-1.1-0.4-2-0.4
					C33.4,2,33.1,2,32.7,2z"/>
			</g>
		</g>
	</g>
</g>
</svg>
