<?xml version="1.0" encoding="UTF-8" standalone="no"?><!DOCTYPE svg PUBLIC "-//W3C//DTD SVG 1.1//EN" "http://www.w3.org/Graphics/SVG/1.1/DTD/svg11.dtd"><svg width="100%" height="100%" viewBox="0 0 975 378" version="1.1" xmlns="http://www.w3.org/2000/svg" xmlns:xlink="http://www.w3.org/1999/xlink" xml:space="preserve" xmlns:serif="http://www.serif.com/" style="fill-rule:evenodd;clip-rule:evenodd;stroke-linejoin:round;stroke-miterlimit:2;"><g><g><path d="M547.543,123.731l0,-28.063l-13.096,0l0,18.916c-4.053,1.144 -5.82,1.455 -8.938,1.455c-15.279,0 -27.023,-10.705 -27.023,-24.736c0,-13.615 10.705,-23.073 26.087,-23.073c4.366,0 9.251,0.831 14.135,2.494c1.248,0.416 3.119,1.039 5.613,1.975l3.118,-10.913c-4.781,-2.079 -6.86,-2.807 -10.186,-3.638c-4.365,-1.039 -9.354,-1.559 -14.343,-1.559c-11.848,0 -19.747,2.702 -26.815,9.146c-7.379,6.756 -11.328,15.798 -11.328,26.192c0,21.202 15.798,35.753 38.559,35.753c5.717,0 9.978,-0.624 17.253,-2.287c1.559,-0.415 3.846,-0.935 6.964,-1.662Z" style="fill:#fff;fill-rule:nonzero;"/><rect x="560.327" y="50.561" width="12.368" height="75.768" style="fill:#fff;fill-rule:nonzero;"/><path d="M629.027,102.112c0,-14.447 -10.497,-25.464 -24.32,-25.464c-13.823,0 -24.321,11.017 -24.321,25.464c0,14.551 10.498,25.568 24.321,25.568c13.823,0 24.32,-11.017 24.32,-25.568Zm-12.887,0c0,8.627 -5.197,15.694 -11.433,15.694c-6.236,0 -11.433,-7.067 -11.433,-15.694c0,-8.522 5.197,-15.59 11.433,-15.59c6.236,0 11.433,7.068 11.433,15.59Z" style="fill:#fff;fill-rule:nonzero;"/><path d="M681.93,99.93c0,-14.239 -8.003,-23.282 -20.475,-23.282c-4.469,0 -8.523,0.832 -12.056,2.599l0,-28.686l-12.369,0l0,74.417c3.118,1.039 4.366,1.351 6.86,1.767c3.326,0.623 6.756,1.039 9.77,1.039c17.461,0 28.27,-10.705 28.27,-27.854Zm-12.992,0.623c0,10.186 -6.028,17.981 -13.823,17.981c-1.767,0 -3.014,-0.312 -5.716,-1.351l0,-28.79c3.014,-1.559 4.988,-2.183 7.587,-2.183c7.275,0 11.952,5.613 11.952,14.343Z" style="fill:#fff;fill-rule:nonzero;"/><path d="M729.428,117.598c-3.326,-0.311 -3.846,-1.039 -3.846,-5.404l0,-20.163c0,-10.602 -5.196,-15.383 -16.733,-15.383c-13.096,0 -20.579,4.885 -20.579,13.408c0,1.351 0.104,1.871 0.624,3.326l11.848,-2.599c-0.208,-0.623 -0.312,-0.831 -0.312,-1.247c0,-2.39 3.014,-4.365 6.756,-4.365c4.054,0 5.924,2.39 5.924,7.587l0,4.054l-13.719,3.949c-7.068,2.079 -9.978,4.365 -11.641,8.834c-0.519,1.559 -0.831,3.222 -0.831,4.885c0,7.692 5.82,13.096 14.031,13.096c4.885,0 8.938,-1.767 13.512,-5.924c2.182,4.261 4.157,5.3 10.393,5.3l2.598,0l1.975,-9.354Zm-16.318,-3.326c-1.767,1.352 -2.39,1.767 -3.222,2.183c-1.663,0.936 -3.533,1.455 -5.092,1.455c-3.118,0 -4.989,-1.871 -4.989,-4.989c0,-1.247 0.208,-2.182 0.935,-4.053l12.368,-4.054l0,9.458Z" style="fill:#fff;fill-rule:nonzero;"/><rect x="737.951" y="50.561" width="12.368" height="75.768" style="fill:#fff;fill-rule:nonzero;"/><path d="M532.057,217.999l0,-11.121l-28.063,0l0,-57.476l-13.095,0l0,68.597l41.158,0Z" style="fill:#fff;fill-rule:nonzero;"/><path d="M578.1,209.269c-3.326,-0.312 -3.846,-1.04 -3.846,-5.405l0,-20.163c0,-10.602 -5.197,-15.383 -16.733,-15.383c-13.096,0 -20.579,4.885 -20.579,13.408c0,1.351 0.104,1.871 0.623,3.326l11.849,-2.599c-0.208,-0.623 -0.312,-0.831 -0.312,-1.247c0,-2.39 3.014,-4.365 6.756,-4.365c4.053,0 5.924,2.39 5.924,7.587l0,4.054l-13.719,3.949c-7.068,2.079 -9.978,4.365 -11.641,8.835c-0.52,1.559 -0.832,3.222 -0.832,4.884c0,7.692 5.821,13.096 14.032,13.096c4.885,0 8.938,-1.767 13.511,-5.924c2.183,4.261 4.157,5.301 10.394,5.301l2.598,0l1.975,-9.354Zm-16.318,-3.326c-1.767,1.351 -2.391,1.766 -3.222,2.182c-1.663,0.936 -3.534,1.455 -5.093,1.455c-3.118,0 -4.989,-1.871 -4.989,-4.989c0,-1.247 0.208,-2.182 0.936,-4.053l12.368,-4.053l0,9.458Z" style="fill:#fff;fill-rule:nonzero;"/><path d="M630.067,217.999l0,-35.546c0,-9.146 -4.365,-13.719 -13.096,-13.719c-6.132,0 -10.913,2.598 -16.733,8.938l0,-8.002l-12.472,0l0,48.329l12.472,0l0,-29.102l1.663,-1.767c5.404,-5.82 9.042,-8.418 11.64,-8.418c3.014,0 4.054,2.182 4.054,8.211l0,31.076l12.472,0Z" style="fill:#fff;fill-rule:nonzero;"/><path d="M684.632,217.999l0,-75.768l-12.368,0l0,29.413c-2.702,-1.871 -3.845,-2.286 -6.444,-2.91c-1.455,-0.312 -2.91,-0.52 -4.261,-0.52c-12.784,0 -23.074,12.057 -23.074,27.023c0,13.928 8.419,24.113 19.852,24.113c3.222,0 6.236,-0.935 9.042,-2.702c2.287,-1.455 3.118,-2.391 4.885,-5.197l0,6.548l12.368,0Zm-12.368,-16.11c-3.014,4.677 -6.86,7.276 -10.705,7.276c-5.924,0 -9.978,-6.133 -9.978,-14.863c0,-9.146 5.093,-15.902 11.953,-15.902c3.845,0 7.275,1.871 8.107,4.469c0.311,1.04 0.623,3.534 0.623,6.236l0,12.784Z" style="fill:#fff;fill-rule:nonzero;"/><path d="M732.858,172.995c-4.365,-2.494 -6.028,-3.118 -10.601,-4.053c-3.015,-0.624 -5.717,-0.935 -8.003,-0.935c-11.745,0 -19.644,6.132 -19.644,15.174c0,6.444 3.95,10.913 12.472,14.239l8.315,3.222c3.326,1.247 4.885,2.91 4.885,5.093c0,2.598 -2.806,4.157 -7.587,4.157c-1.767,0 -3.534,-0.312 -5.405,-0.935c-3.534,-1.144 -5.508,-2.079 -10.393,-5.093l-3.95,10.082c5.301,2.702 7.483,3.533 11.953,4.469c2.91,0.623 5.508,0.935 7.899,0.935c11.64,0 19.331,-5.82 19.331,-14.655c0,-4.261 -1.974,-8.522 -4.988,-10.705c-2.183,-1.559 -9.147,-4.781 -14.551,-6.652c-4.366,-1.559 -6.028,-2.91 -6.028,-5.092c0,-2.703 3.118,-4.574 7.899,-4.574c3.533,0 7.691,1.248 11.12,3.326c0.936,0.52 2.079,1.248 3.326,2.079l3.95,-10.082Z" style="fill:#fff;fill-rule:nonzero;"/><path d="M780.876,214.673l-4.574,-10.082c-5.3,3.118 -8.314,4.158 -12.472,4.158c-7.483,0 -12.68,-5.924 -12.68,-14.551c0,-9.042 5.821,-15.486 14.031,-15.486c3.742,0 6.133,0.935 9.77,3.741l5.925,-9.458c-4.054,-2.39 -5.717,-3.118 -9.251,-3.949c-2.598,-0.52 -5.196,-0.832 -7.899,-0.832c-15.382,0 -25.671,10.498 -25.671,26.088c0,15.174 9.666,25.048 24.632,25.048c4.781,0 9.666,-0.935 14.135,-2.806c0.936,-0.416 2.287,-1.039 4.054,-1.871Z" style="fill:#fff;fill-rule:nonzero;"/><path d="M826.815,209.269c-3.326,-0.312 -3.846,-1.04 -3.846,-5.405l0,-20.163c0,-10.602 -5.197,-15.383 -16.733,-15.383c-13.096,0 -20.579,4.885 -20.579,13.408c0,1.351 0.103,1.871 0.623,3.326l11.849,-2.599c-0.208,-0.623 -0.312,-0.831 -0.312,-1.247c0,-2.39 3.014,-4.365 6.756,-4.365c4.053,0 5.924,2.39 5.924,7.587l0,4.054l-13.719,3.949c-7.068,2.079 -9.978,4.365 -11.641,8.835c-0.52,1.559 -0.832,3.222 -0.832,4.884c0,7.692 5.821,13.096 14.032,13.096c4.884,0 8.938,-1.767 13.511,-5.924c2.183,4.261 4.157,5.301 10.393,5.301l2.599,0l1.975,-9.354Zm-16.318,-3.326c-1.767,1.351 -2.391,1.766 -3.222,2.182c-1.663,0.936 -3.534,1.455 -5.093,1.455c-3.118,0 -4.989,-1.871 -4.989,-4.989c0,-1.247 0.208,-2.182 0.936,-4.053l12.368,-4.053l0,9.458Z" style="fill:#fff;fill-rule:nonzero;"/><path d="M881.588,192.431c0,-13.927 -8.419,-24.113 -20.059,-24.113c-3.118,0 -5.925,0.832 -8.315,2.391c-1.663,1.143 -2.91,2.39 -5.301,5.508l0,-6.547l-12.472,0l0,72.546l12.472,0l0,-26.192c2.391,2.079 3.43,2.599 6.34,3.118c1.247,0.208 2.599,0.312 3.846,0.312c13.199,0 23.489,-11.745 23.489,-27.023Zm-12.992,0.832c0,9.042 -5.197,16.109 -11.848,16.109c-2.079,0 -4.47,-0.623 -6.132,-1.455c-2.079,-1.143 -2.703,-2.39 -2.703,-5.82l0,-16.11c3.014,-5.093 6.548,-7.587 10.705,-7.587c5.821,0 9.978,6.132 9.978,14.863Z" style="fill:#fff;fill-rule:nonzero;"/><path d="M930.853,213.322l-4.573,-9.458c-4.469,2.806 -6.34,3.742 -9.25,4.573c-1.975,0.624 -3.846,0.832 -5.717,0.832c-4.573,0 -8.73,-2.287 -10.809,-5.821c-1.143,-1.975 -1.455,-3.638 -1.663,-7.691l32.012,0l0,-5.301c0,-13.095 -8.315,-22.138 -20.267,-22.138c-13.824,0 -24.217,11.537 -24.217,26.815c0,14.759 9.042,24.217 23.385,24.217c5.613,0 10.809,-1.143 15.902,-3.43c1.143,-0.519 2.91,-1.351 5.197,-2.598Zm-12.472,-25.36l-18.916,0c1.039,-6.548 4.781,-10.29 10.289,-10.29c5.821,0 8.315,2.911 8.627,10.29Z" style="fill:#fff;fill-rule:nonzero;"/><path d="M974.297,172.995c-4.365,-2.494 -6.028,-3.118 -10.601,-4.053c-3.014,-0.624 -5.716,-0.935 -8.003,-0.935c-11.744,0 -19.643,6.132 -19.643,15.174c0,6.444 3.949,10.913 12.472,14.239l8.314,3.222c3.326,1.247 4.885,2.91 4.885,5.093c0,2.598 -2.806,4.157 -7.587,4.157c-1.767,0 -3.534,-0.312 -5.404,-0.935c-3.534,-1.144 -5.509,-2.079 -10.394,-5.093l-3.949,10.082c5.3,2.702 7.483,3.533 11.952,4.469c2.91,0.623 5.509,0.935 7.899,0.935c11.641,0 19.332,-5.82 19.332,-14.655c0,-4.261 -1.975,-8.522 -4.989,-10.705c-2.183,-1.559 -9.146,-4.781 -14.551,-6.652c-4.365,-1.559 -6.028,-2.91 -6.028,-5.092c0,-2.703 3.118,-4.574 7.899,-4.574c3.534,0 7.691,1.248 11.121,3.326c0.935,0.52 2.079,1.248 3.326,2.079l3.949,-10.082Z" style="fill:#fff;fill-rule:nonzero;"/><path d="M533.408,252.193l0,-11.121l-42.509,0l0,68.597l13.095,0l0,-28.79l24.113,0l0,-11.017l-24.113,0l0,-17.669l29.414,0Z" style="fill:#fff;fill-rule:nonzero;"/><path d="M581.737,285.452c0,-14.446 -10.497,-25.464 -24.32,-25.464c-13.824,0 -24.321,11.018 -24.321,25.464c0,14.551 10.497,25.568 24.321,25.568c13.823,0 24.32,-11.017 24.32,-25.568Zm-12.888,0c0,8.627 -5.196,15.694 -11.432,15.694c-6.236,0 -11.433,-7.067 -11.433,-15.694c0,-8.522 5.197,-15.59 11.433,-15.59c6.236,0 11.432,7.068 11.432,15.59Z" style="fill:#fff;fill-rule:nonzero;"/><path d="M618.946,264.042c-1.975,-2.287 -4.158,-3.43 -6.756,-3.43c-3.742,0 -6.756,3.118 -11.433,11.329l-0.519,-10.601l-10.706,0l0,48.329l12.369,0l0,-22.138c0,-3.638 1.039,-6.444 3.325,-9.25c1.871,-2.287 4.054,-3.638 6.029,-3.638c1.351,0 2.39,0.416 3.741,1.455l3.95,-12.056Z" style="fill:#fff;fill-rule:nonzero;"/><path d="M666.444,309.669l0,-48.329l-12.472,0l0,29.101l-1.663,1.767c-5.405,5.717 -9.043,8.419 -11.745,8.419c-2.91,0 -3.949,-2.287 -3.949,-8.211l0,-31.076l-12.472,0l0,35.545c0,9.146 4.365,13.616 13.095,13.616c6.132,0 10.913,-2.495 16.734,-8.939l0,8.107l12.472,0Z" style="fill:#fff;fill-rule:nonzero;"/><path d="M752.294,309.669l0,-35.545c0,-9.147 -4.366,-13.72 -13.096,-13.72c-6.34,0 -11.849,3.118 -17.149,9.458c-1.144,-6.132 -5.509,-9.458 -12.68,-9.458c-6.132,0 -10.913,2.599 -16.734,8.939l0,-8.003l-12.472,0l0,48.329l12.472,0l0,-29.102l1.663,-1.766c5.405,-5.821 9.043,-8.419 11.641,-8.419c3.014,0 4.053,2.183 4.053,8.211l0,31.076l12.472,0l0,-28.998c3.118,-3.533 4.885,-5.3 6.652,-6.755c2.703,-2.287 5.197,-3.534 6.756,-3.534c2.91,0 3.95,2.183 3.95,8.211l0,31.076l12.472,0Z" style="fill:#fff;fill-rule:nonzero;"/></g><path d="M394.103,183.415c-0.066,-1.807 0.248,-7.589 -7.394,-10.915c-1.947,-0.85 -2.275,-0.542 -7.662,-3.734c-13.718,-8.124 -46.749,-45.604 -99.086,-50.677c-52.329,-5.079 -108.487,25.824 -131.601,36.457c-29.939,13.759 -75.142,35.192 -113.111,38.552c-9.208,0.816 -17.981,0.435 -25.021,0.528c-13.356,0 -13.29,20.297 0,20.297l372.52,0c0,0 9.649,0.582 10.827,-10.052c0.636,-7.608 0.468,-16.113 0.528,-20.456" style="fill:#fff;fill-rule:nonzero;"/><path d="M134.061,356.506c-16.629,-27.149 -53.735,-80.382 -98.276,-108.28c0,0 -7.515,-4.992 -13.671,-2.141c-4.785,2.235 -9.248,8.933 -5.896,17.532c1.205,3.099 26.741,70.237 110.857,102.104c3.867,1.465 12.507,-0.194 6.986,-9.215" style="fill:#fff;fill-rule:nonzero;"/><path d="M356.514,271.408c0,0 12.708,8.458 19.259,-2.563c2.918,-4.912 5.401,-11.945 5.401,-11.945c2.295,-6.029 -0.803,-12.922 -8.057,-12.922l-44.501,0c-6.377,0 -9.516,9.221 -0.97,12.527c18.73,7.241 16.1,7.756 28.868,14.903" style="fill:#fff;fill-rule:nonzero;"/><path d="M282.124,74.127c-6.023,4.544 -2.369,11.604 2.977,12.213c15.659,1.947 32.342,1.927 47.352,-4.657c12.159,-5.327 16.662,-9.617 18.295,-12.267c-8.847,-8.592 -43.269,-12.821 -68.624,4.711" style="fill:#fff;fill-rule:nonzero;"/><path d="M53.341,108.4c-5.902,18.824 -16.629,33.941 -20.183,39.335c-4.021,6.685 4.364,13.129 9.978,8.09c16.709,-12.467 47.05,-38.592 65.841,-92.046c17.706,-50.342 24.813,-53.929 23.742,-53.601c-15.946,6.444 -56.572,25.476 -79.378,98.222" style="fill:#fff;fill-rule:nonzero;"/><path d="M219.966,0.237c-0.013,0 -64.636,9.02 -82.844,55.06c-14.943,37.768 -14.943,37.768 -36.236,66.516c-1.941,2.637 -2.343,5.688 -0.174,8.733c1.8,2.523 5.433,3.741 8.712,2.182c4.43,-2.102 21.869,-9.878 36.658,-21.863c39.247,-31.799 73.724,-110.053 73.884,-110.628" style="fill:#fff;fill-rule:nonzero;"/><path d="M13.945,156.458c7.261,-10.673 32.261,-57.315 21.668,-77.237c-4.657,6.13 -25.449,35.092 -32.75,73.423c-1.164,5.333 6.779,10.158 11.082,3.814" style="fill:#fff;fill-rule:nonzero;"/><path d="M355.521,109.341c4.511,2.282 7.201,3.935 10.446,6.478c3.841,3.198 11.831,-0.074 9.65,-7.087c-0.69,-2.201 -2.222,-5.072 -4.149,-8.184c-12.909,-20.939 -43.028,-4.912 -15.947,8.793" style="fill:#fff;fill-rule:nonzero;"/><path d="M92.528,244.451c-9.188,0.121 -14.501,11.457 -7.602,18.764c4.015,4.243 40.586,30.869 77.465,94.047c11.911,20.416 26.867,20.075 32.622,19.921c5.454,-0.147 40.064,0.208 63.967,-10.995c46.809,-21.929 -114.711,-122.379 -166.452,-121.737" style="fill:#fff;fill-rule:nonzero;"/><path d="M193.366,243.981c-13.585,0 -12.708,14.093 -6.271,17.465c15.8,8.305 55.71,24.405 110.06,71.676c0,0 12.895,11.162 25.563,1.974c5.722,-4.129 32.228,-24.793 20.899,-38.959c-42.099,-52.638 -150.251,-52.156 -150.251,-52.156" style="fill:#fff;fill-rule:nonzero;"/><path d="M297.272,26.308c-31.365,-3.473 -43.196,0.957 -63.077,14.401c-11.831,8.003 -33.058,34.168 -38.712,40.833c-2.108,2.489 -2.59,5.922 -0.89,8.813c1.472,2.523 4.724,4.812 8.572,3.62c0.201,-0.06 89.717,-25.837 94.107,-67.667" style="fill:#fff;fill-rule:nonzero;"/></g></svg>