<svg xmlns="http://www.w3.org/2000/svg" width="118.358" height="118.525" viewBox="0 0 118.358 118.525">
  <g>
    <ellipse cx="59.179" cy="59.263" rx="59.179" ry="59.263" fill="#ec6508"/>
    <g>
      <path d="M54.679,8.421a47.212,47.212,0,0,1,7.464-.2,32.441,32.441,0,0,1,5.19.748,39.966,39.966,0,0,1,4.168.979A57.66,57.66,0,0,1,76.939,12.1a42.529,42.529,0,0,1,5.822,3.363A43.344,43.344,0,0,1,89.819,21.6a38.724,38.724,0,0,1,3.136,3.8,46.077,46.077,0,0,1,4.81,8.732,42.615,42.615,0,0,1,2.455,8.832,45.793,45.793,0,0,1,.11,12.94,31.6,31.6,0,0,1-3.844.529c-2.889.115-5.784.122-8.673,0-1.18-.022-2.31-.4-3.486-.472-1.5-.123-2.825-.991-4.335-1.077-1.3-.089-2.5-.682-3.8-.7-2.2-.081-4.5-.312-6.587.556a5.794,5.794,0,0,0-3.073,4.1,4.011,4.011,0,0,1-3.028-2.429c-.842-1.734-.616-3.7-.635-5.56.017-1.914-.047-3.83.029-5.744a13.862,13.862,0,0,0,2.484,1.8,10.055,10.055,0,0,0,7.222.721c3.6-1.005,6.658-4.389,6.6-8.232a8.489,8.489,0,0,0-3.736-6.919A11.359,11.359,0,0,0,70.8,30.74a6.978,6.978,0,0,0,3.577-3.515,6.9,6.9,0,0,0-.182-5.081,7.058,7.058,0,0,0-4.684-3.677,10.57,10.57,0,0,0-3.97.09,6.826,6.826,0,0,0-.715-5.8,6.218,6.218,0,0,0-3.533-2.344,7.27,7.27,0,0,0-5.74.715,6.11,6.11,0,0,0-2.924,3.866,10.373,10.373,0,0,0,.133,3.555,9.486,9.486,0,0,0-3.706-.1A7.3,7.3,0,0,0,44.8,21.2a6.248,6.248,0,0,0-.763,5.742,7.985,7.985,0,0,0,3.351,3.793,21.028,21.028,0,0,0-3.579,1.279,8.368,8.368,0,0,0-4.194,5.194A8.138,8.138,0,0,0,41.078,44.5a9.4,9.4,0,0,0,6.122,3.38,10.428,10.428,0,0,0,5.485-.755,13.086,13.086,0,0,0,2.872-1.9c.1,2.566.011,5.138.046,7.706a7.161,7.161,0,0,1-1.262,4.533,3.812,3.812,0,0,1-2.18,1.315,6.719,6.719,0,0,0-1.867-3.217A6.866,6.866,0,0,0,46,54.129a20.427,20.427,0,0,0-5.037.3A45.855,45.855,0,0,0,34.446,55.9c-1.42.165-2.816.522-4.25.553-3.007.1-6.021.112-9.025-.081a21.914,21.914,0,0,1-3.054-.467c.047-1.409-.326-2.788-.325-4.194a41.58,41.58,0,0,1,17.848-36.2A42.44,42.44,0,0,1,50.614,9.025C51.969,8.818,53.315,8.56,54.679,8.421Z" fill="#ec6508"/>
      <g>
        <path d="M56.123,3.711a51.473,51.473,0,0,1,10.049.327A55.279,55.279,0,0,1,90.652,13.3a56.265,56.265,0,0,1,14.712,14.786,55.467,55.467,0,0,1,8.115,18.583,55.649,55.649,0,0,1-22.831,58.545,55.368,55.368,0,0,1-26.61,9.5c-1.21.141-2.433.061-3.643.217a57.29,57.29,0,0,1-15.933-2A55.857,55.857,0,0,1,12.529,89.513,55.635,55.635,0,0,1,27.876,13.29,54.984,54.984,0,0,1,56.123,3.711Zm-2.32.578c-.824.113-1.657.148-2.476.288a9.508,9.508,0,0,1,1.815,2.971,47.584,47.584,0,0,0-5.261,1.119,4.96,4.96,0,0,1-1.24.191,26.274,26.274,0,0,1-2.684-2.313c-.285-.406-.788-.179-1.161-.054-.906.337-1.85.573-2.73.977A18.26,18.26,0,0,0,42.8,10.431c-1.286.524-2.527,1.15-3.769,1.77a38.6,38.6,0,0,1-.065-4.316,28.221,28.221,0,0,0-3.081,1.3c0,1.349.194,2.688.192,4.035-.876-.887-1.53-1.968-2.424-2.837l-.137-.009a32.157,32.157,0,0,0-2.957,1.662q1.274,2.025,2.648,3.983c-1.258,1-2.483,2.044-3.639,3.163a13.971,13.971,0,0,1-5.45-2.535,24.481,24.481,0,0,0-2.589,2.291,24.391,24.391,0,0,0,4.366,2.9,1.036,1.036,0,0,0,1.032.085,60.571,60.571,0,0,0-4.02,5.618,16.4,16.4,0,0,1-3.934-6.026A28.839,28.839,0,0,0,16.4,24.382c-.42.375-.095.918.092,1.324A28.514,28.514,0,0,0,20.728,31.6c-.548,1.182-1.055,2.386-1.492,3.615a22.206,22.206,0,0,1-5.471-7.384A28.821,28.821,0,0,0,11.7,31.24a6.279,6.279,0,0,0,.663,1.336,25.53,25.53,0,0,0,4.51,5.581,3.387,3.387,0,0,1,1.071,1.4c-.111.423-.222.848-.314,1.277-1-.6-1.911-1.341-2.938-1.9A28.682,28.682,0,0,0,8.85,36.665a20.356,20.356,0,0,0-1.186,2.809,15.386,15.386,0,0,1,6.576,2.344c1,.639,1.857,1.479,2.839,2.149a50.607,50.607,0,0,0-.368,5.264c-1.686-.926-2.346-2.84-3.613-4.185a19.8,19.8,0,0,0-5.9-4.267,16.978,16.978,0,0,0-.8,2.426A14.466,14.466,0,0,1,9.63,45.4c1.7,1.66,2.531,3.984,4.255,5.62a7,7,0,0,1,.971,1.147c-3.592-.617-6.632-2.807-9.525-4.893a16.989,16.989,0,0,0-.623,3.731,38.235,38.235,0,0,0,6.1,4.669A33.636,33.636,0,0,0,21.867,58.5a42.447,42.447,0,0,0,15.008-1.114c1.5-.432,3.039-.687,4.568-.972a15.288,15.288,0,0,1,6.365.059,3.381,3.381,0,0,1,2.2,2.605c.04.307.081.613.116.921.014.275.033.552.057.828a2.321,2.321,0,0,1-.947,1.938,7.141,7.141,0,0,1-5.673,1.448,45.182,45.182,0,0,1-7.477-1.486,25.464,25.464,0,0,0-6.485-.194c-5.395.359-10.341,2.91-15.7,3.448a17.608,17.608,0,0,1-9.71-2.308,46.118,46.118,0,0,0,.659,5.234c.108.675.238,1.346.411,2.007,1.614.533,3.2,1.153,4.809,1.687-1.366.368-2.752.647-4.135.929a17.206,17.206,0,0,0,.659,2.488,39.475,39.475,0,0,1,9.537.156,5.37,5.37,0,0,1-1.341,1.246,38.813,38.813,0,0,1-6.549,3.07c.409,1,.88,1.98,1.376,2.943.941-.245,1.862-.554,2.809-.772a35.417,35.417,0,0,1,5.635-.826c1.1-.042,2.2-.028,3.3-.144,2.462.1,4.928.22,7.376.532a65.271,65.271,0,0,0,8.932.314,20.969,20.969,0,0,0,6.283-1.108c.986-.313,1.913-.776,2.888-1.115a20.588,20.588,0,0,1-11.668,7.424,29.016,29.016,0,0,1-12.031.507,73.393,73.393,0,0,1-13.131-4.061,30.229,30.229,0,0,0,2.077,3.863c.254.364.429.881.908,1,1.332.347,2.7.562,4.043.841a16.065,16.065,0,0,1-3.366.463,17.571,17.571,0,0,0,2.215,3.1,22.366,22.366,0,0,1,3.282-.215c-.554.71-1.19,1.35-1.772,2.036a29.123,29.123,0,0,0,2.114,2.382A11.166,11.166,0,0,1,26.385,95.7a42.642,42.642,0,0,1,5.031.134c1.8.137,3.573-.392,5.371-.346.683-.039,1.024.754.923,1.335a8.453,8.453,0,0,1-2.117,4.007,24.484,24.484,0,0,1-6.31,4.742,20.815,20.815,0,0,0,3.053,1.961c.364.181.789.564,1.2.267a54.826,54.826,0,0,0,4.562-3.43,2.4,2.4,0,0,1,1.815-.679,2.079,2.079,0,0,1,.736,1.47c.226,1.983-.373,3.922-.736,5.85a22.538,22.538,0,0,0,3.285,1.07,17.481,17.481,0,0,1,2.306-6.472,18.082,18.082,0,0,1,3.974,6.3,11.2,11.2,0,0,0,.772,1.839,33.071,33.071,0,0,0,3.919.507,11.927,11.927,0,0,0-2.319-5.408c-1.261-1.473-2.367-3.067-3.557-4.6a6.41,6.41,0,0,1-1.6-3.783,4.315,4.315,0,0,1,1.3-3.03,11.042,11.042,0,0,1,5.721-2.822c-.022.738-.069,1.474-.069,2.213a13.921,13.921,0,0,0,.824,4.71,15.2,15.2,0,0,0,4.866,6.744,31.638,31.638,0,0,1-.3-5.913,7.782,7.782,0,0,1,2.934-5.991,50.338,50.338,0,0,0,11.069,9.673A14.924,14.924,0,0,1,76,109c.62.745,1.168,1.547,1.76,2.312.947-.274,1.851-.673,2.773-1.022-.4-1.708-1.182-3.3-1.595-5,1.527,1.111,2.758,2.567,4.177,3.8.864-.407,1.72-.834,2.546-1.317a29.9,29.9,0,0,0-3.7-3.344c-3.557-3.017-7.548-5.474-11.072-8.53-2.071-1.793-4.288-3.549-5.636-5.985a12.622,12.622,0,0,1-1-9.742,12.266,12.266,0,0,1,3.874,2.69,34.807,34.807,0,0,1,5.644,7.548,25.657,25.657,0,0,0,5.643,6.844c1.527,1.194,3,2.45,4.593,3.565.925.687,1.775,1.466,2.653,2.21.943.807,1.75,1.758,2.678,2.581a11.713,11.713,0,0,0,1.982-1.424,5.239,5.239,0,0,1-1.493-3.083c1.472.243,2.905.713,4.387.89a6.208,6.208,0,0,0,1.146-.909A25.146,25.146,0,0,0,97.671,98.9a26.377,26.377,0,0,1-6.884-.877,13.951,13.951,0,0,1-6.325-3.392,17.862,17.862,0,0,1-3.51-4.292,53.456,53.456,0,0,1,19.391,5.25c.188.111.439.184.576-.045a51.639,51.639,0,0,0,4.084-5.3c-.585-1.133-1.26-2.221-1.753-3.4a27.79,27.79,0,0,0,3.674-.387c.211-.054.47-.08.583-.3a20.762,20.762,0,0,0,1.332-2.612,16.893,16.893,0,0,1-7.786-1.688c-3.972-1.943-7.823-4.13-11.793-6.075-1.931-.935-4.158-1.638-5.494-3.424.024-.059.075-.175.1-.232,1.433-.084,2.872-.058,4.305-.014a25.122,25.122,0,0,1,9.069,2.967,39.641,39.641,0,0,0,8.232,2.7,41.918,41.918,0,0,0,5.55.8,15.42,15.42,0,0,0,.852-2.612,32.6,32.6,0,0,1-6.228-1.3c-1.878-.661-3.875-1.6-4.878-3.42a20.026,20.026,0,0,1,3.182.127c1.375.015,2.738.206,4.113.251a16.253,16.253,0,0,0,4.666-.1c.163-.054.43-.079.458-.294a34.645,34.645,0,0,0,.646-3.427,38.252,38.252,0,0,0,.506-4.654,20.083,20.083,0,0,1-8.811,1.182c-3.634-.254-7-1.763-10.547-2.468a13.218,13.218,0,0,0-8.163.646A21.611,21.611,0,0,1,82.463,63.9a19.363,19.363,0,0,1-8.874.343,14.729,14.729,0,0,1-4.635-2.162,3.07,3.07,0,0,1-.977-1.315c-.005-.323-.005-.644,0-.965.029-.176.088-.526.118-.7a4.315,4.315,0,0,1,1.142-1.669,6.165,6.165,0,0,1,4.346-1.3,29.237,29.237,0,0,1,6.088.77c.859.165,1.688.445,2.539.642a43.562,43.562,0,0,0,14.614.949,35.149,35.149,0,0,0,9.732-2.262,14.536,14.536,0,0,0,3.8-2.286c1.19-.958,2.365-1.936,3.51-2.95a42.022,42.022,0,0,0-1.074-5.367c-3.151,2.754-6.847,5.128-11.036,5.839a50.88,50.88,0,0,0-.087-5.107,18.726,18.726,0,0,0,2.6-1.615,49.265,49.265,0,0,0,6.3-5.329c.22-.188.041-.484-.016-.7q-.651-1.636-1.418-3.226c-1.008,1.1-2.016,2.2-3.1,3.223a40.053,40.053,0,0,1-4.836,3.83,42.618,42.618,0,0,0-2.017-7.525c2.905-1.266,6.154-.881,9.234-.9a18.838,18.838,0,0,0-1.864-3.275,32.369,32.369,0,0,0-6.222.321,10.873,10.873,0,0,1-2.619.375c-.272-.647-.592-1.27-.913-1.893a23.12,23.12,0,0,0,2.263-2.417,10.706,10.706,0,0,1,3.332-2.379,25.529,25.529,0,0,0-2.029-2.508c-.21-.21-.488-.616-.812-.364a19.782,19.782,0,0,0-4.871,4.149c-.869-1.293-1.8-2.541-2.792-3.743,2.2-.386,4.515-.8,6.357-2.157a21.484,21.484,0,0,0-2.8-2.669c-1.859.817-3.919.843-5.9,1.111a2.084,2.084,0,0,0-.823.3c-.777-.71-1.57-1.4-2.365-2.092A15.149,15.149,0,0,0,90.6,13.8a27.932,27.932,0,0,0-3.294-2.11,12.466,12.466,0,0,1-4.718,2.4A43.471,43.471,0,0,0,73.729,9.65a37.994,37.994,0,0,1,3.915-2.485,43.108,43.108,0,0,0-5.813-1.708A14.942,14.942,0,0,0,68.622,8.13c-1.426-.264-2.856-.519-4.293-.724A10.963,10.963,0,0,1,66.5,4.484a38.182,38.182,0,0,0-4.9-.4c-.363-.035-.536.325-.744.552a5.5,5.5,0,0,0-1.217,2.4,3.856,3.856,0,0,0-.388,0A6.921,6.921,0,0,0,56.921,4.1,20.355,20.355,0,0,0,53.8,4.289Z" fill="#fefefe"/>
        <path d="M29.6,70.02a9.789,9.789,0,0,1,5.4.512c2.077.743,4.127,1.56,6.2,2.313a13.145,13.145,0,0,1,2.562,1.139,26.613,26.613,0,0,1-9.565,2.066,18.357,18.357,0,0,1-3.684-.5,11.329,11.329,0,0,1-4.76-1.961A5.814,5.814,0,0,1,29.6,70.02Z" fill="#fefefe"/>
        <path d="M41.469,76.739c1.107-1.058,2.653-2.051,4.249-1.662.955.331,1.222,1.425,1.357,2.313a14.8,14.8,0,0,0-3.337-.406A5.037,5.037,0,0,1,41.469,76.739Z" fill="#fefefe"/>
        <path d="M22.92,76.554a2.84,2.84,0,0,1,2.714.2,4.2,4.2,0,0,1,1.815,1.413,17.834,17.834,0,0,1-3.318.2,12.335,12.335,0,0,0-2.271.4A3.048,3.048,0,0,1,22.92,76.554Z" fill="#fefefe"/>
        <path d="M68.877,77.121a16.816,16.816,0,0,1,12.5,5.5,14.778,14.778,0,0,1,2.791,3.9A17.231,17.231,0,0,1,72,81.063,17.723,17.723,0,0,1,68.877,77.121Z" fill="#fefefe"/>
        <path d="M49.737,85.48a15.8,15.8,0,0,1,5.243-3.906,13.556,13.556,0,0,1-2.728,9.547,9.745,9.745,0,0,1-5.826,3.24A13.753,13.753,0,0,1,49.737,85.48Z" fill="#fefefe"/>
        <path d="M85.521,82.107a15.278,15.278,0,0,1,8.808,4.046,18.785,18.785,0,0,1,4.636,6.974,15.308,15.308,0,0,1-7.53-3.377A23,23,0,0,1,85.521,82.107Z" fill="#fefefe"/>
      </g>
      <path d="M63.213,65.529a4.168,4.168,0,0,1,.583-4.036,41.618,41.618,0,0,0,6.685,4.958,6.864,6.864,0,0,0,3.437,1,19.081,19.081,0,0,0,5.843-.73c1.543-.419,3.106-.757,4.632-1.236a17.727,17.727,0,0,1,8.936-.722c3.186.833,6.141,2.358,9.331,3.182a24.105,24.105,0,0,0,7.193.669,22.832,22.832,0,0,0,3.979-.8,34.645,34.645,0,0,1-.646,3.427c-.028.215-.3.24-.458.294a16.253,16.253,0,0,1-4.666.1c-1.375-.045-2.738-.236-4.113-.251a20.026,20.026,0,0,0-3.182-.127c1,1.82,3,2.759,4.878,3.42a32.6,32.6,0,0,0,6.228,1.3,15.42,15.42,0,0,1-.852,2.612,41.918,41.918,0,0,1-5.55-.8,39.641,39.641,0,0,1-8.232-2.7,25.122,25.122,0,0,0-9.069-2.967c-1.433-.044-2.872-.07-4.305.014-.024.057-.075.173-.1.232,1.336,1.786,3.563,2.489,5.494,3.424,3.97,1.945,7.821,4.132,11.793,6.075a16.893,16.893,0,0,0,7.786,1.688,20.762,20.762,0,0,1-1.332,2.612c-.113.217-.372.243-.583.3a27.79,27.79,0,0,1-3.674.387c.493,1.178,1.168,2.266,1.753,3.4a51.639,51.639,0,0,1-4.084,5.3c-.137.229-.388.156-.576.045a53.456,53.456,0,0,0-19.391-5.25,17.862,17.862,0,0,0,3.51,4.292,13.951,13.951,0,0,0,6.325,3.392,26.377,26.377,0,0,0,6.884.877,25.146,25.146,0,0,1-2.316,2.181,6.208,6.208,0,0,1-1.146.909c-1.482-.177-2.915-.647-4.387-.89a5.239,5.239,0,0,0,1.493,3.083,11.713,11.713,0,0,1-1.982,1.424c-.928-.823-1.735-1.774-2.678-2.581-.878-.744-1.728-1.523-2.653-2.21-1.588-1.115-3.066-2.371-4.593-3.565a25.657,25.657,0,0,1-5.643-6.844,34.807,34.807,0,0,0-5.644-7.548,12.266,12.266,0,0,0-3.874-2.69,12.622,12.622,0,0,0,1,9.742c1.348,2.436,3.565,4.192,5.636,5.985,3.524,3.056,7.515,5.513,11.072,8.53a29.9,29.9,0,0,1,3.7,3.344c-.826.483-1.682.91-2.546,1.317-1.419-1.235-2.65-2.691-4.177-3.8.413,1.7,1.194,3.292,1.595,5-.922.349-1.826.748-2.773,1.022-.592-.765-1.14-1.567-1.76-2.312a14.924,14.924,0,0,0-2.964-2.939,50.338,50.338,0,0,1-11.069-9.673,7.782,7.782,0,0,0-2.934,5.991,31.638,31.638,0,0,0,.3,5.913,15.2,15.2,0,0,1-4.866-6.744,13.921,13.921,0,0,1-.824-4.71c0-.739.047-1.475.069-2.213a11.042,11.042,0,0,0-5.721,2.822,4.315,4.315,0,0,0-1.3,3.03,6.41,6.41,0,0,0,1.6,3.783c1.19,1.529,2.3,3.123,3.557,4.6a11.927,11.927,0,0,1,2.319,5.408,33.071,33.071,0,0,1-3.919-.507,11.2,11.2,0,0,1-.772-1.839,18.082,18.082,0,0,0-3.974-6.3,17.481,17.481,0,0,0-2.306,6.472,22.538,22.538,0,0,1-3.285-1.07c.363-1.928.962-3.867.736-5.85a2.079,2.079,0,0,0-.736-1.47,2.4,2.4,0,0,0-1.815.679,54.826,54.826,0,0,1-4.562,3.43c-.408.3-.833-.086-1.2-.267a20.815,20.815,0,0,1-3.053-1.961,24.484,24.484,0,0,0,6.31-4.742,8.453,8.453,0,0,0,2.117-4.007c.1-.581-.24-1.374-.923-1.335-1.8-.046-3.57.483-5.371.346a42.642,42.642,0,0,0-5.031-.134,11.166,11.166,0,0,0-6.878,1.954,29.123,29.123,0,0,1-2.114-2.382c.582-.686,1.218-1.326,1.772-2.036a22.366,22.366,0,0,0-3.282.215,17.571,17.571,0,0,1-2.215-3.1,16.065,16.065,0,0,0,3.366-.463c-1.348-.279-2.711-.494-4.043-.841-.479-.119-.654-.636-.908-1a30.229,30.229,0,0,1-2.077-3.863,73.393,73.393,0,0,0,13.131,4.061,29.016,29.016,0,0,0,12.031-.507,20.588,20.588,0,0,0,11.668-7.424c-.975.339-1.9.8-2.888,1.115a20.969,20.969,0,0,1-6.283,1.108,65.271,65.271,0,0,1-8.932-.314c-2.448-.312-4.914-.432-7.376-.532-1.1.116-2.2.1-3.3.144a35.417,35.417,0,0,0-5.635.826c-.947.218-1.868.527-2.809.772-.5-.963-.967-1.94-1.376-2.943a38.813,38.813,0,0,0,6.549-3.07,5.37,5.37,0,0,0,1.341-1.246,39.475,39.475,0,0,0-9.537-.156,17.206,17.206,0,0,1-.659-2.488c1.383-.282,2.769-.561,4.135-.929-1.612-.534-3.195-1.154-4.809-1.687-.173-.661-.3-1.332-.411-2.007,1.229.276,2.443.623,3.689.822A27.7,27.7,0,0,0,23.75,67.985a42.79,42.79,0,0,1,6.2-2.121,20.855,20.855,0,0,1,10.146-.408,25.96,25.96,0,0,0,5.729,1.087,7.4,7.4,0,0,0,4.378-.906,50.567,50.567,0,0,0,4.64-3.429c.22.035.442.069.663.108a4.343,4.343,0,0,1,.376,2.887,5.091,5.091,0,0,1-1.651,2.209c-1.215,1.119-2.723,2.23-4.464,2.091a33.637,33.637,0,0,1-5.711-1.286c-1.789-.447-3.408-1.421-5.224-1.778a27.652,27.652,0,0,0-8.1.071c-2.034.545-4.194,1.043-5.825,2.46-.9.9-1.755,1.831-2.628,2.749-.718.76-1.827.849-2.721,1.309a5.259,5.259,0,0,0,3.612-1.279,12.8,12.8,0,0,1,2.394-2.491,11.443,11.443,0,0,1,3.972-1.653,38.574,38.574,0,0,1,5.7-.183c1.409.067,2.9-.1,4.21.544,1.716.637,3.4,1.362,5.12,1.99,3.166.895,6.5,2.009,9.81,1.242a3.9,3.9,0,0,1-.816,2.682,31.337,31.337,0,0,1-1.591,3.087c-.614.826-1.232,1.651-1.81,2.506a32.973,32.973,0,0,1-2.363,2.68,28.181,28.181,0,0,1-3.15,2.752,14.34,14.34,0,0,1-3.172,2.039,28.008,28.008,0,0,1-4.924,2.281c-1.307.282-2.557.791-3.884.977-1.126.176-2.188.637-3.328.74a34.77,34.77,0,0,1-3.964.464c-2.011.344-4.065.1-6.08.394a28.04,28.04,0,0,0,4.489.239,30.607,30.607,0,0,0,5.565-.279,41.493,41.493,0,0,0,5.648-.963c1.255-.429,2.517-.84,3.74-1.349a21.482,21.482,0,0,0,2.9-1.153c1.286-.714,2.5-1.543,3.774-2.282.771-.445,1.451-1.031,2.253-1.423A15.11,15.11,0,0,1,46.4,87.342a48.921,48.921,0,0,1-2.86,5.145c-.767,1.031-1.531,2.062-2.277,3.106a58.522,58.522,0,0,1-4.362,5.168c-.731.713-1.366,1.522-2.143,2.19a11.023,11.023,0,0,0-1.463,1.475c2.506-1.38,4.427-3.54,6.353-5.6,1.307-1.376,2.323-2.988,3.578-4.409a17.056,17.056,0,0,0,1.446-2.228,40.12,40.12,0,0,0,4.919-9.318,10.28,10.28,0,0,1,2-2.662c.76-.871,1.326-1.888,2.072-2.771a47.833,47.833,0,0,0,2.964-4.59c.891.86.68,2.191.924,3.3a40.391,40.391,0,0,1,.842,6.665c.253,2.055.179,4.13.319,6.193L58.964,89a22.4,22.4,0,0,1,.17-3.019c.2-1.279.1-2.584.333-3.859.494-3.011.727-6.067,1.4-9.046a24.1,24.1,0,0,1,2.9,2.863c.876,1.14,2,2.058,2.948,3.129.937,1.031,1.8,2.131,2.744,3.152,1.273,1.413,2.358,2.977,3.5,4.493C73.8,88.041,74.9,89.2,75.627,90.6c.644,1.236,1.866,1.967,2.867,2.876,1.054.942,2.279,1.656,3.412,2.492a5.045,5.045,0,0,0,1.074.545A11.462,11.462,0,0,0,80.5,94.087a32.4,32.4,0,0,1-2.57-2.3c-.934-1.131-1.57-2.467-2.412-3.663a14.627,14.627,0,0,1-2.087-3.115c1.62.738,3.154,1.666,4.834,2.277A41.5,41.5,0,0,0,82.7,88.518a14.328,14.328,0,0,0,3.456.439,26.1,26.1,0,0,0-2.781-.694A39.8,39.8,0,0,1,78.628,86.6,36.68,36.68,0,0,1,73.7,84.222a5.921,5.921,0,0,1-2.29-1.895c-.818-1.229-1.86-2.28-2.725-3.474-.638-.864-1.407-1.623-2.021-2.508a21.6,21.6,0,0,0-2.527-2.854,4.969,4.969,0,0,1-.861-1.022,2.368,2.368,0,0,1,.179-.7c1.333.366,2.688.65,4.048.884a27.251,27.251,0,0,1,3.485.618,63.463,63.463,0,0,1,8.1,1.961,33.5,33.5,0,0,1,5.517,2.1,30.2,30.2,0,0,1,4.239,2.344,17.877,17.877,0,0,0,7.538,3.695,9.192,9.192,0,0,0,1.241.13,17.755,17.755,0,0,0-3.285-1.491,20.065,20.065,0,0,1-4.954-2.87A32.593,32.593,0,0,0,83.1,75.677c-2.847-1.157-5.839-1.877-8.77-2.782-1.688-.515-3.45-.706-5.161-1.129a4.7,4.7,0,0,1,2.68-.564,37.668,37.668,0,0,0,6.573-1.447,17.6,17.6,0,0,1,2.637-.927c1.831-.3,3.693-.147,5.538-.291a10.742,10.742,0,0,1,4.779.655,10.148,10.148,0,0,1,3.15,2.359,12.791,12.791,0,0,0,2.5,1.827c1.146.753,2.417,1.279,3.629,1.918a11.214,11.214,0,0,0,4.39,1.271,4.086,4.086,0,0,0,1.175-.255c-.417-.064-.831-.128-1.248-.185a16.59,16.59,0,0,1-6.986-2.992c-.736-.491-1.529-.888-2.266-1.373A7.209,7.209,0,0,1,94.4,70.3a10.746,10.746,0,0,0-6.75-2.836c-2.021-.047-4.048-.055-6.066.085a18.2,18.2,0,0,0-3.025.684c-1.513.354-3.052.576-4.576.875a33.914,33.914,0,0,1-4.029.4,7.841,7.841,0,0,1-3.967-.864A7.4,7.4,0,0,1,63.213,65.529ZM29.6,70.02a5.814,5.814,0,0,0-3.85,3.564,11.329,11.329,0,0,0,4.76,1.961,18.357,18.357,0,0,0,3.684.5,26.613,26.613,0,0,0,9.565-2.066,13.145,13.145,0,0,0-2.562-1.139c-2.073-.753-4.123-1.57-6.2-2.313A9.789,9.789,0,0,0,29.6,70.02Zm11.872,6.719a5.037,5.037,0,0,0,2.269.245,14.8,14.8,0,0,1,3.337.406c-.135-.888-.4-1.982-1.357-2.313C44.122,74.688,42.576,75.681,41.469,76.739ZM22.92,76.554a3.048,3.048,0,0,0-1.06,2.21,12.335,12.335,0,0,1,2.271-.4,17.834,17.834,0,0,0,3.318-.2,4.2,4.2,0,0,0-1.815-1.413A2.84,2.84,0,0,0,22.92,76.554Zm45.957.567A17.723,17.723,0,0,0,72,81.063a17.231,17.231,0,0,0,12.168,5.451,14.778,14.778,0,0,0-2.791-3.9A16.816,16.816,0,0,0,68.877,77.121ZM49.737,85.48a13.753,13.753,0,0,0-3.311,8.881,9.745,9.745,0,0,0,5.826-3.24,13.556,13.556,0,0,0,2.728-9.547A15.8,15.8,0,0,0,49.737,85.48Zm35.784-3.373a23,23,0,0,0,5.914,7.643,15.308,15.308,0,0,0,7.53,3.377,18.785,18.785,0,0,0-4.636-6.974A15.278,15.278,0,0,0,85.521,82.107Z" fill="#928350"/>
      <g>
        <path d="M59.64,7.043c1.561.149,3.136.125,4.689.363,1.437.205,2.867.46,4.293.724,1.723.432,3.435.919,5.107,1.52a43.471,43.471,0,0,1,8.859,4.439c1.288.883,2.535,1.823,3.769,2.779.8.688,1.588,1.382,2.365,2.092,1.095,1.1,2.159,2.233,3.167,3.413.987,1.2,1.923,2.45,2.792,3.743A33.446,33.446,0,0,1,96.8,29.635c.321.623.641,1.246.913,1.893a36.909,36.909,0,0,1,1.471,3.479,42.618,42.618,0,0,1,2.017,7.525c.2,1.268.359,2.544.465,3.822a50.88,50.88,0,0,1,.087,5.107,30.881,30.881,0,0,1-.436,4.2c-.33.08-.656.161-.985.234a45.793,45.793,0,0,0-.11-12.94,42.615,42.615,0,0,0-2.455-8.832,46.077,46.077,0,0,0-4.81-8.732,38.724,38.724,0,0,0-3.136-3.8,43.344,43.344,0,0,0-7.058-6.134A42.529,42.529,0,0,0,76.939,12.1,57.66,57.66,0,0,0,71.5,9.952a39.966,39.966,0,0,0-4.168-.979,32.441,32.441,0,0,0-5.19-.748,47.212,47.212,0,0,0-7.464.2c-1.364.139-2.71.4-4.065.6A42.44,42.44,0,0,0,35.64,15.511a41.58,41.58,0,0,0-17.848,36.2c0,1.406.372,2.785.325,4.194-.333-.085-.661-.18-.989-.276a40.7,40.7,0,0,1-.417-6.393,50.607,50.607,0,0,1,.368-5.264c.168-1.048.333-2.1.552-3.136.092-.429.2-.854.314-1.277a31.85,31.85,0,0,1,1.291-4.34c.437-1.229.944-2.433,1.492-3.615a43.809,43.809,0,0,1,2.177-4.059,60.571,60.571,0,0,1,4.02-5.618c.918-.877,1.727-1.859,2.641-2.739,1.156-1.119,2.381-2.16,3.639-3.163A44.7,44.7,0,0,1,39.029,12.2c1.242-.62,2.483-1.246,3.769-1.77,1.251-.6,2.634-.885,3.843-1.573a4.96,4.96,0,0,0,1.24-.191,47.584,47.584,0,0,1,5.261-1.119,56.5,56.5,0,0,1,6.11-.5A3.856,3.856,0,0,1,59.64,7.043Z" fill="#352726"/>
        <path d="M55.549,11.125a7.27,7.27,0,0,1,5.74-.715,6.218,6.218,0,0,1,3.533,2.344,6.826,6.826,0,0,1,.715,5.8,10.57,10.57,0,0,1,3.97-.09,7.058,7.058,0,0,1,4.684,3.677,6.9,6.9,0,0,1,.182,5.081A6.978,6.978,0,0,1,70.8,30.74a11.359,11.359,0,0,1,4.67,1.734A8.489,8.489,0,0,1,79.2,39.393c.061,3.843-3,7.227-6.6,8.232a10.055,10.055,0,0,1-7.222-.721,13.862,13.862,0,0,1-2.484-1.8c-.076,1.914-.012,3.83-.029,5.744.019,1.862-.207,3.826.635,5.56a4.011,4.011,0,0,0,3.028,2.429c.517.1,1.041.172,1.562.257-.03.175-.089.525-.118.7a4.515,4.515,0,0,1-4.2-1.227,7.315,7.315,0,0,1-1.934-5.282c.022-3.032-.061-6.065.031-9.1.571-.072,1.275-.393,1.723.138a8.882,8.882,0,0,0,10.192,1.7A7.912,7.912,0,0,0,77.92,41.3a7.147,7.147,0,0,0-.38-4.819,8.1,8.1,0,0,0-5.876-4.512,16.166,16.166,0,0,0-2.389-.112,15.551,15.551,0,0,1-.155-1.682,6.006,6.006,0,0,0,3.608-2.219,5.415,5.415,0,0,0,.922-4.228,5.25,5.25,0,0,0-2.466-3.432,5.74,5.74,0,0,0-2.969-.991,13.051,13.051,0,0,0-2.616.342c-.486.106-.829-.342-1.2-.576a9.715,9.715,0,0,0,.377-3.448,4.837,4.837,0,0,0-1.5-3.054,6.569,6.569,0,0,0-5.4-1.312A6.193,6.193,0,0,0,54.3,13.691a4.639,4.639,0,0,0-.562,3.939c.076.538.373,1.213-.094,1.657-.335.446-.932.254-1.393.2a6.2,6.2,0,0,0-7.08,3.127,5.108,5.108,0,0,0-.176,3.9,6.346,6.346,0,0,0,1.814,2.525,8.118,8.118,0,0,0,2.533,1.19c-.019.493-.048.984-.086,1.477a18.554,18.554,0,0,0-3.6.6,7.638,7.638,0,0,0-4.885,4.656,7.062,7.062,0,0,0,1.282,7.069,8.241,8.241,0,0,0,4.47,2.666,9.344,9.344,0,0,0,6.322-.791,13.518,13.518,0,0,0,2.537-2.027c.409.177.819.355,1.227.539.047,3.011,0,6.025.014,9.038-.023,2.138-.767,4.52-2.673,5.7A6.821,6.821,0,0,1,50.126,60c-.035-.308-.076-.614-.116-.921a14.828,14.828,0,0,0,2.151-.3,3.812,3.812,0,0,0,2.18-1.315A7.161,7.161,0,0,0,55.6,52.931c-.035-2.568.057-5.14-.046-7.706a13.086,13.086,0,0,1-2.872,1.9,10.428,10.428,0,0,1-5.485.755,9.4,9.4,0,0,1-6.122-3.38,8.138,8.138,0,0,1-1.463-7.292,8.368,8.368,0,0,1,4.194-5.194,21.028,21.028,0,0,1,3.579-1.279,7.985,7.985,0,0,1-3.351-3.793A6.248,6.248,0,0,1,44.8,21.2a7.3,7.3,0,0,1,4.252-2.75,9.486,9.486,0,0,1,3.706.1,10.373,10.373,0,0,1-.133-3.555A6.11,6.11,0,0,1,55.549,11.125Z" fill="#352726"/>
        <path d="M58.4,15.888c.349-.231.63-.717,1.093-.666.639.421,1.1,1.145,1.886,1.31a27.037,27.037,0,0,0,2.728.208,4.1,4.1,0,0,1-1.31,1.3,5.829,5.829,0,0,1-2.606.633,4.529,4.529,0,0,0,.985,3.46,5.375,5.375,0,0,0,4.432,1.64c1.541.065,2.94-.636,4.391-1.029a4.735,4.735,0,0,1-4.12,3.7,17.444,17.444,0,0,1-4.479-.026,16.468,16.468,0,0,0,.519,5.209,9.513,9.513,0,0,0,3.2,5.128,17.785,17.785,0,0,0,6.357,2.9c.023.245.047.489.069.736-3.345.035-6.7-.071-10.042.045-.128,3.76-.144,7.524-.123,11.286a14.07,14.07,0,0,0,.284,3.794,7.8,7.8,0,0,0,3.247,4.355,6.151,6.151,0,0,0,3.072.9,3.07,3.07,0,0,0,.977,1.315,14.729,14.729,0,0,0,4.635,2.162,19.363,19.363,0,0,0,8.874-.343,21.611,21.611,0,0,0,4.354-1.376,13.218,13.218,0,0,1,8.163-.646c3.543.705,6.913,2.214,10.547,2.468a20.083,20.083,0,0,0,8.811-1.182,38.252,38.252,0,0,1-.506,4.654,22.832,22.832,0,0,1-3.979.8,24.105,24.105,0,0,1-7.193-.669c-3.19-.824-6.145-2.349-9.331-3.182a17.727,17.727,0,0,0-8.936.722c-1.526.479-3.089.817-4.632,1.236a19.081,19.081,0,0,1-5.843.73,6.864,6.864,0,0,1-3.437-1A41.618,41.618,0,0,1,63.8,61.493c-.321-.215-.723-.711-1.12-.385a3.912,3.912,0,0,0-.95,2.308,4.164,4.164,0,0,0,.057,2.553,7.135,7.135,0,0,0,1.68,2.11c1.609,1.178,3.639,1.573,5.283,2.684a16.793,16.793,0,0,1-6.041-2.235,3.417,3.417,0,0,0-1.883-.269,25.186,25.186,0,0,0-1.187,5.355c-.293,2.129-.347,4.283-.557,6.419.073-1.751-.163-3.493-.133-5.242a23.6,23.6,0,0,0-.561-4.379,3.47,3.47,0,0,0-.92-2.073c-.544-.286-1.15.045-1.648.281a12.567,12.567,0,0,1-4.845,1.445C52.34,69.321,53.9,68.956,55.162,68a4.444,4.444,0,0,0,1.879-2.792,5.132,5.132,0,0,0-.963-3.8,13.285,13.285,0,0,0-1.239.8,50.567,50.567,0,0,1-4.64,3.429,7.4,7.4,0,0,1-4.378.906,25.96,25.96,0,0,1-5.729-1.087,20.855,20.855,0,0,0-10.146.408,42.79,42.79,0,0,0-6.2,2.121A27.7,27.7,0,0,1,8.536,69.732c-1.246-.2-2.46-.546-3.689-.822a46.118,46.118,0,0,1-.659-5.234,17.608,17.608,0,0,0,9.71,2.308c5.362-.538,10.308-3.089,15.7-3.448a25.464,25.464,0,0,1,6.485.194,45.182,45.182,0,0,0,7.477,1.486,7.141,7.141,0,0,0,5.673-1.448,2.321,2.321,0,0,0,.947-1.938,8.8,8.8,0,0,0,3.7-1.055,7.1,7.1,0,0,0,3.082-4.041,12.334,12.334,0,0,0,.3-3.844c-.026-3.814.042-7.63-.045-11.442-3.335-.112-6.676.027-10.011-.049q-.041-.332-.076-.661a24.808,24.808,0,0,0,3.668-1.279,10.952,10.952,0,0,0,5.059-4.647,14.111,14.111,0,0,0,1.438-7.479,16.319,16.319,0,0,1-3.92.187,6.258,6.258,0,0,1-3.76-1.673,4.819,4.819,0,0,1-1.038-2.226,11.685,11.685,0,0,0,3.656,1.109c1.479.064,3.129.165,4.368-.8a4.533,4.533,0,0,0,1.9-4.269,6.208,6.208,0,0,1-2.5-.545,4.984,4.984,0,0,1-1.529-1.4C55.8,16.681,57.333,16.856,58.4,15.888Z" fill="#352726"/>
      </g>
      <g>
        <path d="M52.509,2.469a17.635,17.635,0,0,1,3.9-.279c1.446,0,2.889-.054,4.335-.023a39.946,39.946,0,0,1,5.369.264,52.6,52.6,0,0,1,6.63,1.256c1.923.429,3.8,1.036,5.689,1.6a67.2,67.2,0,0,1,7.925,3.609,53.914,53.914,0,0,1,10.1,6.932,41.059,41.059,0,0,1,4.508,4.349,58.964,58.964,0,0,1,4.82,5.789,14.146,14.146,0,0,1,1.387,2.046,57.819,57.819,0,0,1,5.624,11.052,55.669,55.669,0,0,1,1.824,5.822,38.739,38.739,0,0,1,1.1,5.233c.344,1.158.231,2.378.484,3.551.141,1.2.143,2.4.179,3.6.023,2.647.042,5.3-.2,7.939-.2.924-.195,1.871-.363,2.8-.255,1.095-.4,2.213-.6,3.32a64.459,64.459,0,0,1-3.47,10.754,76.725,76.725,0,0,1-4.284,8.029,65.847,65.847,0,0,1-4.051,5.532c-.551.592-.956,1.308-1.542,1.87-1.706,1.6-3.2,3.42-5.021,4.9-1.395,1.152-2.84,2.238-4.267,3.353a24.3,24.3,0,0,1-2.934,1.957c-1.133.595-2.152,1.385-3.278,1.988-.826.346-1.59.816-2.4,1.187-1.246.5-2.425,1.151-3.683,1.618-2.315.8-4.617,1.648-7,2.226-1.766.331-3.565.509-5.3.98a17.565,17.565,0,0,1-2.177.386,32.843,32.843,0,0,0-5.247.281,35.535,35.535,0,0,1-4.486-.04,26.5,26.5,0,0,0-4.213-.3,34.525,34.525,0,0,0-3.963-.689,33.567,33.567,0,0,1-3.74-.973A28.286,28.286,0,0,1,39.69,113a47.317,47.317,0,0,1-5.2-2.2,53.6,53.6,0,0,1-11.414-7.2c-1.215-1.159-2.6-2.126-3.729-3.377-1.139-1.234-2.456-2.3-3.487-3.632-1.025-1.352-2.2-2.6-3.116-4.026A53.739,53.739,0,0,1,6.633,81.714a49.131,49.131,0,0,1-2.306-6.568,49.14,49.14,0,0,1-2.05-10.76,42.438,42.438,0,0,1-.2-5.9A35.27,35.27,0,0,1,2.3,54.146c.137-.864.118-1.746.284-2.606.2-.951.2-1.935.443-2.878.257-1.589.7-3.139,1.076-4.7.389-1.435.923-2.825,1.386-4.236a53.825,53.825,0,0,1,3.1-7.047c.668-1.079,1.166-2.256,1.895-3.3.543-.852,1.02-1.746,1.624-2.556.731-.947,1.321-2,2.128-2.887.947-1.028,1.72-2.2,2.71-3.19a37.542,37.542,0,0,1,4.394-4.269,46.006,46.006,0,0,1,6.6-5.063A32.362,32.362,0,0,1,31.2,9.37c1.642-.876,3.315-1.7,5-2.486.834-.3,1.629-.684,2.445-1.028,1.929-.642,3.838-1.365,5.815-1.862,1.758-.406,3.5-.876,5.291-1.136A18.261,18.261,0,0,1,52.509,2.469Zm3.614,1.242A54.984,54.984,0,0,0,27.876,13.29a55.672,55.672,0,0,0,16.586,99.644,57.29,57.29,0,0,0,15.933,2c1.21-.156,2.433-.076,3.643-.217a55.69,55.69,0,0,0,49.027-41.206,56.045,56.045,0,0,0,.414-26.836,55.467,55.467,0,0,0-8.115-18.583A56.265,56.265,0,0,0,90.652,13.3a55.279,55.279,0,0,0-24.48-9.263A51.473,51.473,0,0,0,56.123,3.711Z" fill="#0072b7"/>
        <path d="M62.676,61.108c.4-.326.8.17,1.12.385a4.168,4.168,0,0,0-.583,4.036,7.4,7.4,0,0,0,2.77,3.119,7.841,7.841,0,0,0,3.967.864,33.914,33.914,0,0,0,4.029-.4c1.524-.3,3.063-.521,4.576-.875a18.2,18.2,0,0,1,3.025-.684c2.018-.14,4.045-.132,6.066-.085A10.746,10.746,0,0,1,94.4,70.3a7.209,7.209,0,0,0,1.325,1.462c.737.485,1.53.882,2.266,1.373a16.59,16.59,0,0,0,6.986,2.992c.417.057.831.121,1.248.185a4.086,4.086,0,0,1-1.175.255,11.214,11.214,0,0,1-4.39-1.271c-1.212-.639-2.483-1.165-3.629-1.918a12.791,12.791,0,0,1-2.5-1.827,10.148,10.148,0,0,0-3.15-2.359,10.742,10.742,0,0,0-4.779-.655c-1.845.144-3.707-.007-5.538.291a17.6,17.6,0,0,0-2.637.927A37.668,37.668,0,0,1,71.852,71.2a4.7,4.7,0,0,0-2.68.564c1.711.423,3.473.614,5.161,1.129,2.931.905,5.923,1.625,8.77,2.782a32.593,32.593,0,0,1,6.275,3.464,20.065,20.065,0,0,0,4.954,2.87A17.755,17.755,0,0,1,97.617,83.5a9.192,9.192,0,0,1-1.241-.13,17.877,17.877,0,0,1-7.538-3.695A30.2,30.2,0,0,0,84.6,77.333a33.5,33.5,0,0,0-5.517-2.1,63.463,63.463,0,0,0-8.1-1.961,27.251,27.251,0,0,0-3.485-.618c-1.36-.234-2.715-.518-4.048-.884a2.368,2.368,0,0,0-.179.7,4.969,4.969,0,0,0,.861,1.022,21.6,21.6,0,0,1,2.527,2.854c.614.885,1.383,1.644,2.021,2.508.865,1.194,1.907,2.245,2.725,3.474a5.921,5.921,0,0,0,2.29,1.895A36.68,36.68,0,0,0,78.628,86.6a39.8,39.8,0,0,0,4.748,1.662,26.1,26.1,0,0,1,2.781.694,14.328,14.328,0,0,1-3.456-.439,41.5,41.5,0,0,1-4.434-1.228c-1.68-.611-3.214-1.539-4.834-2.277a14.627,14.627,0,0,0,2.087,3.115c.842,1.2,1.478,2.532,2.412,3.663a32.4,32.4,0,0,0,2.57,2.3,11.462,11.462,0,0,1,2.478,2.428,5.045,5.045,0,0,1-1.074-.545c-1.133-.836-2.358-1.55-3.412-2.492-1-.909-2.223-1.64-2.867-2.876-.732-1.4-1.828-2.561-2.673-3.892-1.144-1.516-2.229-3.08-3.5-4.493C68.5,81.2,67.645,80.1,66.708,79.065c-.952-1.071-2.072-1.989-2.948-3.129a24.1,24.1,0,0,0-2.9-2.863c-.67,2.979-.9,6.035-1.4,9.046-.236,1.275-.132,2.58-.333,3.859A22.4,22.4,0,0,0,58.964,89l-.254.009c-.14-2.063-.066-4.138-.319-6.193a40.391,40.391,0,0,0-.842-6.665c-.244-1.113-.033-2.444-.924-3.3a47.833,47.833,0,0,1-2.964,4.59c-.746.883-1.312,1.9-2.072,2.771a10.28,10.28,0,0,0-2,2.662,40.12,40.12,0,0,1-4.919,9.318,17.056,17.056,0,0,1-1.446,2.228c-1.255,1.421-2.271,3.033-3.578,4.409-1.926,2.064-3.847,4.224-6.353,5.6a11.023,11.023,0,0,1,1.463-1.475c.777-.668,1.412-1.477,2.143-2.19a58.522,58.522,0,0,0,4.362-5.168c.746-1.044,1.51-2.075,2.277-3.106a48.921,48.921,0,0,0,2.86-5.145,15.11,15.11,0,0,0,1.258-2.752c-.8.392-1.482.978-2.253,1.423-1.27.739-2.488,1.568-3.774,2.282a21.482,21.482,0,0,1-2.9,1.153c-1.223.509-2.485.92-3.74,1.349a41.493,41.493,0,0,1-5.648.963,30.607,30.607,0,0,1-5.565.279A28.04,28.04,0,0,1,19.29,91.8c2.015-.29,4.069-.05,6.08-.394a34.77,34.77,0,0,0,3.964-.464c1.14-.1,2.2-.564,3.328-.74,1.327-.186,2.577-.695,3.884-.977a28.008,28.008,0,0,0,4.924-2.281,14.34,14.34,0,0,0,3.172-2.039,28.181,28.181,0,0,0,3.15-2.752,32.973,32.973,0,0,0,2.363-2.68c.578-.855,1.2-1.68,1.81-2.506a31.337,31.337,0,0,0,1.591-3.087,3.9,3.9,0,0,0,.816-2.682c-3.314.767-6.644-.347-9.81-1.242-1.719-.628-3.4-1.353-5.12-1.99-1.307-.648-2.8-.477-4.21-.544a38.574,38.574,0,0,0-5.7.183,11.443,11.443,0,0,0-3.972,1.653,12.8,12.8,0,0,0-2.394,2.491,5.259,5.259,0,0,1-3.612,1.279c.894-.46,2-.549,2.721-1.309.873-.918,1.73-1.853,2.628-2.749,1.631-1.417,3.791-1.915,5.825-2.46a27.652,27.652,0,0,1,8.1-.071c1.816.357,3.435,1.331,5.224,1.778A33.637,33.637,0,0,0,49.763,69.5c1.741.139,3.249-.972,4.464-2.091A5.091,5.091,0,0,0,55.878,65.2a4.343,4.343,0,0,0-.376-2.887c-.221-.039-.443-.073-.663-.108a13.285,13.285,0,0,1,1.239-.8,5.132,5.132,0,0,1,.963,3.8A4.444,4.444,0,0,1,55.162,68c-1.258.952-2.822,1.317-4.191,2.061a12.567,12.567,0,0,0,4.845-1.445c.5-.236,1.1-.567,1.648-.281a3.47,3.47,0,0,1,.92,2.073,23.6,23.6,0,0,1,.561,4.379c-.03,1.749.206,3.491.133,5.242.21-2.136.264-4.29.557-6.419a25.186,25.186,0,0,1,1.187-5.355,3.417,3.417,0,0,1,1.883.269,16.793,16.793,0,0,0,6.041,2.235c-1.644-1.111-3.674-1.506-5.283-2.684a7.135,7.135,0,0,1-1.68-2.11,4.164,4.164,0,0,1-.057-2.553A3.912,3.912,0,0,1,62.676,61.108Z" fill="#0072b7"/>
      </g>
      <g>
        <path d="M53.8,4.289A20.355,20.355,0,0,1,56.921,4.1a6.921,6.921,0,0,1,2.331,2.946,56.5,56.5,0,0,0-6.11.5,9.508,9.508,0,0,0-1.815-2.971C52.146,4.437,52.979,4.4,53.8,4.289Z" fill="#009a61"/>
        <path d="M60.857,4.64c.208-.227.381-.587.744-.552a38.182,38.182,0,0,1,4.9.4,10.963,10.963,0,0,0-2.173,2.922c-1.553-.238-3.128-.214-4.689-.363A5.5,5.5,0,0,1,60.857,4.64Z" fill="#009a61"/>
        <path d="M68.622,8.13a14.942,14.942,0,0,1,3.209-2.673,43.108,43.108,0,0,1,5.813,1.708A37.994,37.994,0,0,0,73.729,9.65C72.057,9.049,70.345,8.562,68.622,8.13Z" fill="#009a61"/>
        <path d="M42.8,6.491c.373-.125.876-.352,1.161.054a26.274,26.274,0,0,0,2.684,2.313c-1.209.688-2.592.97-3.843,1.573a18.26,18.26,0,0,1-2.732-2.963C40.946,7.064,41.89,6.828,42.8,6.491Z" fill="#009a61"/>
        <path d="M35.883,9.186a28.221,28.221,0,0,1,3.081-1.3,38.6,38.6,0,0,0,.065,4.316,44.7,44.7,0,0,0-5.824,3.819q-1.371-1.957-2.648-3.983a32.157,32.157,0,0,1,2.957-1.662l.137.009c.894.869,1.548,1.95,2.424,2.837C36.077,11.874,35.884,10.535,35.883,9.186Z" fill="#009a61"/>
        <path d="M57.879,11.253a6.569,6.569,0,0,1,5.4,1.312,4.837,4.837,0,0,1,1.5,3.054,9.715,9.715,0,0,1-.377,3.448c.37.234.713.682,1.2.576a13.051,13.051,0,0,1,2.616-.342,5.74,5.74,0,0,1,2.969.991,5.25,5.25,0,0,1,2.466,3.432,5.415,5.415,0,0,1-.922,4.228,6.006,6.006,0,0,1-3.608,2.219,15.551,15.551,0,0,0,.155,1.682,16.166,16.166,0,0,1,2.389.112,8.1,8.1,0,0,1,5.876,4.512,7.147,7.147,0,0,1,.38,4.819,7.912,7.912,0,0,1-4.126,4.734,8.882,8.882,0,0,1-10.192-1.7c-.448-.531-1.152-.21-1.723-.138-.092,3.032-.009,6.065-.031,9.1a7.315,7.315,0,0,0,1.934,5.282,4.515,4.515,0,0,0,4.2,1.227c-.005.321-.005.642,0,.965a6.151,6.151,0,0,1-3.072-.9,7.8,7.8,0,0,1-3.247-4.355,14.07,14.07,0,0,1-.284-3.794c-.021-3.762-.005-7.526.123-11.286,3.346-.116,6.7-.01,10.042-.045-.022-.247-.046-.491-.069-.736a17.785,17.785,0,0,1-6.357-2.9,9.513,9.513,0,0,1-3.2-5.128,16.468,16.468,0,0,1-.519-5.209,17.444,17.444,0,0,0,4.479.026,4.735,4.735,0,0,0,4.12-3.7c-1.451.393-2.85,1.094-4.391,1.029a5.375,5.375,0,0,1-4.432-1.64,4.529,4.529,0,0,1-.985-3.46,5.829,5.829,0,0,0,2.606-.633,4.1,4.1,0,0,0,1.31-1.3,27.037,27.037,0,0,1-2.728-.208c-.789-.165-1.247-.889-1.886-1.31-.463-.051-.744.435-1.093.666-1.065.968-2.6.793-3.931.83A4.984,4.984,0,0,0,56,18.114a6.208,6.208,0,0,0,2.5.545,4.533,4.533,0,0,1-1.9,4.269c-1.239.967-2.889.866-4.368.8a11.685,11.685,0,0,1-3.656-1.109,4.819,4.819,0,0,0,1.038,2.226,6.258,6.258,0,0,0,3.76,1.673,16.319,16.319,0,0,0,3.92-.187,14.111,14.111,0,0,1-1.438,7.479,10.952,10.952,0,0,1-5.059,4.647,24.808,24.808,0,0,1-3.668,1.279q.036.33.076.661c3.335.076,6.676-.063,10.011.049.087,3.812.019,7.628.045,11.442a12.334,12.334,0,0,1-.3,3.844,7.1,7.1,0,0,1-3.082,4.041,8.8,8.8,0,0,1-3.695,1.055c-.024-.276-.043-.553-.057-.828a6.821,6.821,0,0,0,3.826-.845c1.906-1.185,2.65-3.567,2.673-5.7-.018-3.013.033-6.027-.014-9.038-.408-.184-.818-.362-1.227-.539A13.518,13.518,0,0,1,52.847,45.9a9.344,9.344,0,0,1-6.322.791,8.241,8.241,0,0,1-4.47-2.666,7.062,7.062,0,0,1-1.282-7.069A7.638,7.638,0,0,1,45.658,32.3a18.554,18.554,0,0,1,3.6-.6c.038-.493.067-.984.086-1.477a8.118,8.118,0,0,1-2.533-1.19A6.346,6.346,0,0,1,45,26.513a5.108,5.108,0,0,1,.176-3.9,6.2,6.2,0,0,1,7.08-3.127c.461.054,1.058.246,1.393-.2.467-.444.17-1.119.094-1.657a4.639,4.639,0,0,1,.562-3.939A6.193,6.193,0,0,1,57.879,11.253Z" fill="#009a61"/>
        <path d="M82.588,14.089a12.466,12.466,0,0,0,4.718-2.4A27.932,27.932,0,0,1,90.6,13.8a15.149,15.149,0,0,1-4.243,3.071C85.123,15.912,83.876,14.972,82.588,14.089Z" fill="#009a61"/>
        <path d="M21.527,18.939a24.481,24.481,0,0,1,2.589-2.291,13.971,13.971,0,0,0,5.45,2.535c-.914.88-1.723,1.862-2.641,2.739a1.036,1.036,0,0,1-1.032-.085A24.391,24.391,0,0,1,21.527,18.939Z" fill="#009a61"/>
        <path d="M89.545,18.658c1.981-.268,4.041-.294,5.9-1.111a21.484,21.484,0,0,1,2.8,2.669c-1.842,1.36-4.153,1.771-6.357,2.157-1.008-1.18-2.072-2.313-3.167-3.413A2.084,2.084,0,0,1,89.545,18.658Z" fill="#009a61"/>
        <path d="M16.4,24.382a28.839,28.839,0,0,1,2.574-2.868,16.4,16.4,0,0,0,3.934,6.026A43.809,43.809,0,0,0,20.728,31.6a28.514,28.514,0,0,1-4.239-5.893C16.3,25.3,15.977,24.757,16.4,24.382Z" fill="#009a61"/>
        <path d="M99.552,21.967c.324-.252.6.154.812.364a25.529,25.529,0,0,1,2.029,2.508,10.706,10.706,0,0,0-3.332,2.379A23.12,23.12,0,0,1,96.8,29.635a33.446,33.446,0,0,0-2.117-3.519A19.782,19.782,0,0,1,99.552,21.967Z" fill="#009a61"/>
        <path d="M11.7,31.24a28.821,28.821,0,0,1,2.064-3.41,22.206,22.206,0,0,0,5.471,7.384,31.85,31.85,0,0,0-1.291,4.34,3.387,3.387,0,0,0-1.071-1.4,25.53,25.53,0,0,1-4.51-5.581A6.279,6.279,0,0,1,11.7,31.24Z" fill="#009a61"/>
        <path d="M100.33,31.153a32.369,32.369,0,0,1,6.222-.321,18.838,18.838,0,0,1,1.864,3.275c-3.08.019-6.329-.366-9.234.9a36.909,36.909,0,0,0-1.471-3.479A10.873,10.873,0,0,0,100.33,31.153Z" fill="#009a61"/>
        <path d="M106.035,38.7c1.081-1.027,2.089-2.126,3.1-3.223q.766,1.588,1.418,3.226c.057.221.236.517.016.7a49.265,49.265,0,0,1-6.3,5.329,18.726,18.726,0,0,1-2.6,1.615c-.106-1.278-.264-2.554-.465-3.822A40.053,40.053,0,0,0,106.035,38.7Z" fill="#009a61"/>
        <path d="M8.85,36.665a28.682,28.682,0,0,1,5.843,2.268c1.027.557,1.938,1.3,2.938,1.9-.219,1.038-.384,2.088-.552,3.136-.982-.67-1.836-1.51-2.839-2.149a15.386,15.386,0,0,0-6.576-2.344A20.356,20.356,0,0,1,8.85,36.665Z" fill="#009a61"/>
        <path d="M7.2,40.779a19.8,19.8,0,0,1,5.9,4.267c1.267,1.345,1.927,3.259,3.613,4.185a40.7,40.7,0,0,0,.417,6.393c.328.1.656.191.989.276a21.914,21.914,0,0,0,3.054.467c3,.193,6.018.177,9.025.081,1.434-.031,2.83-.388,4.25-.553a45.855,45.855,0,0,1,6.516-1.463,20.427,20.427,0,0,1,5.037-.3,6.866,6.866,0,0,1,4.295,1.433,6.719,6.719,0,0,1,1.867,3.217,14.828,14.828,0,0,1-2.151.3,3.381,3.381,0,0,0-2.2-2.605,15.288,15.288,0,0,0-6.365-.059c-1.529.285-3.07.54-4.568.972A42.447,42.447,0,0,1,21.867,58.5a33.636,33.636,0,0,1-11.061-2.827,38.235,38.235,0,0,1-6.1-4.669,16.989,16.989,0,0,1,.623-3.731c2.893,2.086,5.933,4.276,9.525,4.893a7,7,0,0,0-.971-1.147c-1.724-1.636-2.555-3.96-4.255-5.62a14.466,14.466,0,0,0-3.235-2.2A16.978,16.978,0,0,1,7.2,40.779Z" fill="#009a61"/>
        <path d="M101.751,51.461c4.189-.711,7.885-3.085,11.036-5.839a42.022,42.022,0,0,1,1.074,5.367c-1.145,1.014-2.32,1.992-3.51,2.95a14.536,14.536,0,0,1-3.8,2.286,35.149,35.149,0,0,1-9.732,2.262,43.562,43.562,0,0,1-14.614-.949c-.851-.2-1.68-.477-2.539-.642a29.237,29.237,0,0,0-6.088-.77,6.165,6.165,0,0,0-4.346,1.3A4.315,4.315,0,0,0,68.1,59.1c-.521-.085-1.045-.156-1.562-.257a5.794,5.794,0,0,1,3.073-4.1c2.086-.868,4.387-.637,6.587-.556,1.3.018,2.5.611,3.8.7,1.51.086,2.832.954,4.335,1.077,1.176.068,2.306.45,3.486.472,2.889.12,5.784.113,8.673,0a31.6,31.6,0,0,0,3.844-.529c.329-.073.655-.154.985-.234A30.881,30.881,0,0,0,101.751,51.461Z" fill="#009a61"/>
      </g>
    </g>
  </g>
</svg>
