<svg xmlns="http://www.w3.org/2000/svg" width="236.024" height="196.56" viewBox="0 0 236.024 196.56">
  <g>
    <path d="M233.505,153.521v10.438a16.844,16.844,0,0,1-2.981.186V153.561c-.789-.309-1.474-.052-2.165-.245-.3-.66-.036-1.361-.151-2.035.751-.4,1.51,0,2.31-.377,0-.7,0-1.45,0-2.2.017-2.641.972-3.672,3.634-3.962a7.366,7.366,0,0,1,1.871,0v2.131c-.128.07-.206.146-.288.151-2.11.106-2.248.242-2.237,2.369a3.651,3.651,0,0,0,.151,1.632l2.367.132v2.119c-.762.286-1.6-.029-2.512.246" fill="#585757" fill-rule="evenodd"/>
    <path d="M122.627,0c.829.558,1.812.36,2.713.5,20.449,3.048,35.7,13.631,45.886,31.575.242.427.669.825.49,1.411-.508.06-.558-.4-.743-.683a58.545,58.545,0,0,0-12.761-14.013A52.1,52.1,0,0,0,127.1,7.492a53.593,53.593,0,0,0-8.554.5,48.858,48.858,0,0,0-15.27,4.4C92.993,17.328,85.1,24.7,80.378,35.221a32.564,32.564,0,0,0-2.7,16.021,7.6,7.6,0,0,0,.458,2.637A23.227,23.227,0,0,0,82.45,64.2c4.6,5.93,10.695,8.9,18.158,8.507a20.685,20.685,0,0,0,16.656-9.5,24.151,24.151,0,0,1,8.721-8.1,21.648,21.648,0,0,1,29.257,9.785,23.164,23.164,0,0,1,1.094,18.9c-3.975,10.845-10.639,19.669-20.56,25.83a48.728,48.728,0,0,1-19.557,6.828,55.049,55.049,0,0,1-13.859.195A48.381,48.381,0,0,1,77.233,106.12c-10.273-8.3-16.5-19.1-19.391-31.9a59.055,59.055,0,0,1-1.115-19.5A61.182,61.182,0,0,1,105.09,1.243c1.955-.421,3.957-.626,5.935-.934.26-.04.6.077.707-.309Z" fill="#143a63" fill-rule="evenodd"/>
    <path d="M78.135,53.88a7.6,7.6,0,0,1-.458-2.637,32.57,32.57,0,0,1,2.7-16.022C85.1,24.7,92.992,17.329,103.277,12.4a48.883,48.883,0,0,1,15.27-4.4,53.355,53.355,0,0,1,8.553-.5,52.1,52.1,0,0,1,31.112,11.293A58.534,58.534,0,0,1,170.972,32.8c.185.283.235.744.744.684l-.038.036a.656.656,0,0,0,.57.884l-.013-.016c-.118.8.45,1.3.815,1.9a22.347,22.347,0,0,1,2.545,5.995,59.4,59.4,0,0,1,2.89,21.438,61.145,61.145,0,0,1-35.543,52.815q-.517.24-1.051.443c-.073.029-.175-.015-.385-.039.176-.581.718-.689,1.1-.93a55.459,55.459,0,0,0,15.85-14.727A54.715,54.715,0,0,0,168.279,77.6c1.863-11.6.291-22.665-5.442-32.951-7.671-13.761-19.344-22.313-34.8-25.332A45.571,45.571,0,0,0,93.02,26.17,32.981,32.981,0,0,0,80.365,41.154,28.181,28.181,0,0,0,78.177,52.02c0,.619-.027,1.24-.042,1.86" fill="#e21d32" fill-rule="evenodd"/>
    <path d="M2.789,149.584v14.344A15.767,15.767,0,0,1,0,164.055V146.029c1.361-.244,2.777-.006,4.282-.133q3.387,7.308,6.749,14.562l.3-.079V146h2.827v17.966H9.75c-2.218-4.765-4.472-9.61-6.727-14.455l-.234.074" fill="#585757" fill-rule="evenodd"/>
    <path d="M114.4,190.631a6.009,6.009,0,0,0,2.777,2.873,4.265,4.265,0,0,0,4.234-.17c1.679-1.053,1.687-2.811.05-3.935a22.483,22.483,0,0,0-4.3-1.911,9.85,9.85,0,0,1-2.527-1.309,4.307,4.307,0,0,1-.779-6.009c2.26-3.06,7.921-3.287,10.429-.415a1.637,1.637,0,0,1,.47.952q-.815.777-1.736,1.659a4.866,4.866,0,0,0-3.557-2.092,4.057,4.057,0,0,0-1.556.144,2.392,2.392,0,0,0-1.808,1.838c-.2,1.008.435,1.6,1.144,2.126a8.916,8.916,0,0,0,2.443,1.16,15.5,15.5,0,0,1,3.879,1.789,4.589,4.589,0,0,1,.4,7.555c-2.923,2.627-9.643,2.2-11.421-2.3a11.163,11.163,0,0,1,1.852-1.957" fill="#585757" fill-rule="evenodd"/>
    <path d="M26.532,157.989a16.847,16.847,0,0,0-5.022.248,1.868,1.868,0,0,0-1.61,2.027,1.925,1.925,0,0,0,1.9,1.771,4.947,4.947,0,0,0,4.7-1.718,10.283,10.283,0,0,0,.029-2.328m.038-2.273a2.38,2.38,0,0,0-1.946-2.394,8.9,8.9,0,0,0-5.649.518,4.4,4.4,0,0,1-.743-2.069,2.959,2.959,0,0,1,1.865-.735,11.993,11.993,0,0,1,6.353.323,4.131,4.131,0,0,1,2.951,3.985c.074,2.862.019,5.726.019,8.633a12.674,12.674,0,0,1-2.472.139c-.456-.341-.151-.8-.341-1.086-.168-.141-.278-.069-.393.014a6.663,6.663,0,0,1-6.376.956,4.05,4.05,0,0,1-2.908-3.7,3.941,3.941,0,0,1,2.493-3.833,8.265,8.265,0,0,1,3.614-.752c1.139-.012,2.279,0,3.533,0" fill="#585757" fill-rule="evenodd"/>
    <path d="M88.11,158a16.062,16.062,0,0,0-4.918.23c-1.177.325-1.694.98-1.65,2a1.9,1.9,0,0,0,1.862,1.8,4.95,4.95,0,0,0,4.81-1.8c0-.608,0-1.178,0-1.746a3.154,3.154,0,0,0-.1-.487m2.94,6.009a15.913,15.913,0,0,1-2.506.1c-.394-.381-.089-.838-.379-1.175a1.6,1.6,0,0,0-.344.145,6.663,6.663,0,0,1-6.386.905,3.978,3.978,0,0,1-.457-7.475,8.662,8.662,0,0,1,3.749-.8,22.651,22.651,0,0,0,3.454-.1,2.224,2.224,0,0,0-1.823-2.269,8.3,8.3,0,0,0-4.794.158c-.313.088-.616.222-.98.354a4.527,4.527,0,0,1-.686-2.146,3.462,3.462,0,0,1,1.888-.69,12.1,12.1,0,0,1,6.353.352,4.028,4.028,0,0,1,2.881,3.733c.112,2.953.03,5.912.03,8.9" fill="#585757" fill-rule="evenodd"/>
    <path d="M78.453,188.624a3.55,3.55,0,0,0-7.095,0Zm-7.117,2.328c1.056,3.487,4.305,4.108,8.48,1.775a5.411,5.411,0,0,1,.71,1.972,8,8,0,0,1-10.566-.387c-2.955-3.085-2.193-9.693,2.81-11.129a6.533,6.533,0,0,1,6.679,1.409,6.886,6.886,0,0,1,1.966,6.36H71.336Z" fill="#585757" fill-rule="evenodd"/>
    <path d="M158.794,188.618a3.565,3.565,0,0,0-3.65-3.4c-1.969.01-3.256,1.225-3.54,3.4Zm2.795,2.368h-9.926c.819,3.407,4.494,4.132,8.348,1.739a2.458,2.458,0,0,1,.525.981,2,2,0,0,1,.254.973,2.057,2.057,0,0,1-1.076.877,8.017,8.017,0,0,1-8.546-.478c-2.272-1.561-2.944-3.9-2.547-6.559a6.156,6.156,0,0,1,4.5-5.377,6.59,6.59,0,0,1,8.467,7.844" fill="#585757" fill-rule="evenodd"/>
    <path d="M202.915,188.619a3.5,3.5,0,0,0-3.684-3.4,3.335,3.335,0,0,0-3.411,3.4Zm1.3,4.066a7.68,7.68,0,0,1,.758,1.885c-.187.523-.609.689-.964.906a8.34,8.34,0,0,1-8.8-.455,6.455,6.455,0,0,1-2.416-6.62,6.134,6.134,0,0,1,4.453-5.252,6.592,6.592,0,0,1,8.513,7.771h-9.95c.753,3.454,4.516,4.213,8.4,1.765" fill="#585757" fill-rule="evenodd"/>
    <path d="M194.294,156.507h7.192a3.511,3.511,0,0,0-3.406-3.4c-2.045-.077-3.365,1.068-3.786,3.4m10.1,2.332h-9.953c.479,3.371,4.484,4.206,8.311,1.739a4.774,4.774,0,0,1,.772,2.012,8.019,8.019,0,0,1-10.476-.293c-3.081-3.07-2.318-9.789,2.725-11.228a6.518,6.518,0,0,1,6.676,1.419,6.792,6.792,0,0,1,1.945,6.351" fill="#585757" fill-rule="evenodd"/>
    <path d="M41.394,180.589H33.067v5.221h8.011a9.547,9.547,0,0,1,.1,2.486H33.038v7.838H30.119V178.122H41.394v2.467Z" fill="#585757" fill-rule="evenodd"/>
    <path d="M224.494,157.675c-.023-.333-.026-.668-.076-1a4.241,4.241,0,0,0-3.316-3.511,3.811,3.811,0,0,0-4.009,2.132,4.835,4.835,0,0,0-.037,4.539,3.776,3.776,0,0,0,5.8,1.343,4.334,4.334,0,0,0,1.633-3.5m-3.886-6.871a6.637,6.637,0,0,1,6.774,6.776,6.894,6.894,0,1,1-6.774-6.776" fill="#585757" fill-rule="evenodd"/>
    <path d="M46.831,189.7a8.429,8.429,0,0,0,.075,1,3.985,3.985,0,0,0,2.832,3.279,3.574,3.574,0,0,0,3.969-1.251,4.884,4.884,0,0,0,0-6.066,3.687,3.687,0,0,0-5.925.116,4.289,4.289,0,0,0-.947,2.925m4.041-6.781a6.639,6.639,0,0,1,6.781,6.771,6.895,6.895,0,1,1-6.781-6.771" fill="#585757" fill-rule="evenodd"/>
    <path d="M50.851,157.666a7.578,7.578,0,0,0,.061.855,3.976,3.976,0,0,0,2.916,3.367,3.6,3.6,0,0,0,3.947-1.339,4.908,4.908,0,0,0-.018-5.958,3.7,3.7,0,0,0-6.016.132,4.326,4.326,0,0,0-.89,2.943m10.815-.087a6.894,6.894,0,0,1-13.785.076,6.978,6.978,0,0,1,6.867-6.919c3.136-.008,7.012,2.556,6.918,6.843" fill="#585757" fill-rule="evenodd"/>
    <path d="M167.1,196.134a12.923,12.923,0,0,1-2.609.059V183.277a11.761,11.761,0,0,1,2.407-.051c.31.462.053.922.248,1.307.35.047.5-.238.685-.435a4.726,4.726,0,0,1,7.57,1.765,5.767,5.767,0,0,1,.491,2.076c.026,2.714.01,5.426.01,8.188a12.522,12.522,0,0,1-2.7.049c-.37-.409-.213-.859-.216-1.271-.018-1.859-.015-3.719,0-5.58a7.579,7.579,0,0,0-.242-2.124,2.458,2.458,0,0,0-2.058-1.938,2.641,2.641,0,0,0-2.7,1.251,4.607,4.607,0,0,0-.725,2.718q.006,2.933,0,5.867a1.6,1.6,0,0,1-.159,1.035" fill="#585757" fill-rule="evenodd"/>
    <path d="M67.2,164.037a14.353,14.353,0,0,1-2.8.01v-12.9h2.461c.294.383.032.849.213,1.247a.27.27,0,0,0,.347-.059,4.391,4.391,0,0,1,3.394-1.54,4.7,4.7,0,0,1,4.742,3.576,6.614,6.614,0,0,1,.284,1.686c.03,2.621.013,5.243.013,7.926a9.829,9.829,0,0,1-2.936.063c0-2.21-.007-4.345,0-6.48a9.9,9.9,0,0,0-.157-2.134,2.61,2.61,0,0,0-2.221-2.3,2.888,2.888,0,0,0-2.88,1.712,5.706,5.706,0,0,0-.465,2.5c.012,2.192,0,4.384,0,6.693" fill="#585757" fill-rule="evenodd"/>
    <path d="M115.751,151.148h2.431c.287.431.027.89.229,1.276.349.043.5-.241.684-.439a4.728,4.728,0,0,1,7.569,1.77,5.893,5.893,0,0,1,.49,2.077c.034,2.289.022,4.579.028,6.868,0,.424,0,.847,0,1.316a12.879,12.879,0,0,1-2.721.049c-.367-.413-.21-.863-.213-1.273-.018-1.862-.015-3.722-.005-5.581a7.579,7.579,0,0,0-.242-2.124,2.458,2.458,0,0,0-2.061-1.936,2.645,2.645,0,0,0-2.694,1.255,4.61,4.61,0,0,0-.722,2.719c0,1.955,0,3.912,0,5.867a1.565,1.565,0,0,1-.164,1.034,13.053,13.053,0,0,1-2.6.054V151.148Z" fill="#585757" fill-rule="evenodd"/>
    <path d="M179.317,151.151v12.888H176.71c-.313-.38-.012-.908-.305-1.405a4.418,4.418,0,0,1-2.613,1.649,4.841,4.841,0,0,1-5.854-4.069,13.607,13.607,0,0,1-.12-2.281c0-2.237,0-4.471,0-6.756a18.207,18.207,0,0,1,2.885-.073v6.514a8.829,8.829,0,0,0,.156,2.134,2.554,2.554,0,0,0,2.253,2.253,2.906,2.906,0,0,0,2.93-1.852,5.821,5.821,0,0,0,.375-2.38c0-1.767,0-3.532.007-5.3a2.658,2.658,0,0,1,.136-1.326Z" fill="#585757" fill-rule="evenodd"/>
    <path d="M93.385,185.19a8.511,8.511,0,0,1-1.684,1.617,5.264,5.264,0,0,0-2.078-1.475,2.764,2.764,0,0,0-2.216.178,1.058,1.058,0,0,0-.116,1.944,7.573,7.573,0,0,0,2.376.947,8.577,8.577,0,0,1,3.18,1.57,3.281,3.281,0,0,1,.794,4.135,4.693,4.693,0,0,1-1.765,1.641c-2.3,1.283-6.835,1.129-8.656-1.9a11.723,11.723,0,0,1,1.7-1.8c.49.454.917.906,1.4,1.282a3.6,3.6,0,0,0,3.638.579c.558-.2,1.057-.511,1.1-1.18s-.375-1.022-.912-1.326a17.092,17.092,0,0,0-2.661-1.029,10.139,10.139,0,0,1-2.337-1.052,3.08,3.08,0,0,1-.52-4.823c2.054-2.336,7.431-2.126,8.751.692" fill="#585757" fill-rule="evenodd"/>
    <path d="M129.656,161.711c.635-.584,1.222-1.123,1.825-1.675.388.358.812.816,1.3,1.189a3.6,3.6,0,0,0,3.771.515,1.3,1.3,0,0,0,.96-1.133,1.322,1.322,0,0,0-.8-1.25,10.7,10.7,0,0,0-1.976-.823,14.764,14.764,0,0,1-2.78-1.109,3.13,3.13,0,0,1-.564-5.347c2.112-1.964,7.167-1.733,8.409.945a6.362,6.362,0,0,1-1.658,1.692,4.769,4.769,0,0,0-2.223-1.538,2.715,2.715,0,0,0-2.078.225,1.059,1.059,0,0,0-.1,1.946,7.743,7.743,0,0,0,2.377.946,8.5,8.5,0,0,1,3.18,1.572,3.334,3.334,0,0,1,.983,3.758,4.233,4.233,0,0,1-1.847,1.945c-2.366,1.4-6.975,1.188-8.782-1.858" fill="#585757" fill-rule="evenodd"/>
    <path d="M139.868,184.481c-.325.758-.6,1.406-.936,2.173a11.606,11.606,0,0,0-2.676-1.262,4.61,4.61,0,0,0-4.936,1.724,4.773,4.773,0,0,0-.043,5.127,4.713,4.713,0,0,0,5.084,1.724,12.262,12.262,0,0,0,2.619-1.241l.925,2.174a7.9,7.9,0,0,1-7.636,1.138,6.545,6.545,0,0,1-4.6-5.352,6.673,6.673,0,0,1,4.065-7.154,8.088,8.088,0,0,1,8.133.949" fill="#585757" fill-rule="evenodd"/>
    <path d="M190.887,184.523l-.949,2.182a7.742,7.742,0,0,0-2.964-1.4,4.533,4.533,0,0,0-4.991,2.466,4.478,4.478,0,0,0,1.139,5.33,4.708,4.708,0,0,0,4.985.619c.645-.261,1.247-.628,1.925-.975.3.708.573,1.355.834,1.972-.16.519-.6.65-.964.854a8.117,8.117,0,0,1-9.078-.987A6.254,6.254,0,0,1,179,187.554a6.723,6.723,0,0,1,5.723-4.579,7.654,7.654,0,0,1,6.166,1.548" fill="#585757" fill-rule="evenodd"/>
    <path d="M39.336,164.021a9.205,9.205,0,0,1-3.17-.072,2.886,2.886,0,0,1-2.492-2.417,8.288,8.288,0,0,1-.123-1.705c0-2.09,0-4.178,0-6.216-.759-.44-1.524-.009-2.231-.373v-1.982c.635-.383,1.394.015,2.162-.31v-3.961a11.034,11.034,0,0,1,3.042-.126v4.082c.987.3,1.858.02,2.747.227a6.824,6.824,0,0,1,.1,2.155l-2.824.138c0,2.4-.013,4.721.007,7.044.007.736.5,1.08,1.174,1.225a6.5,6.5,0,0,1,1.612.208,8.907,8.907,0,0,1-.005,2.083" fill="#585757" fill-rule="evenodd"/>
    <path d="M143.646,153.545a16.2,16.2,0,0,0-2.152-.222c-.314-.664-.038-1.365-.161-2.039.75-.4,1.508-.007,2.271-.358v-4.018a15.845,15.845,0,0,1,2.986-.037v4.02c.952.4,1.881.051,2.806.283a7.511,7.511,0,0,1,.042,2.19H146.97c-.476.4-.34.812-.342,1.173q-.022,2.574,0,5.149c.008,1.719.27,2,1.953,2.1.234.015.471,0,.651,0,.39.366.23.77.256,1.136.023.33,0,.664,0,1.056a7.836,7.836,0,0,1-3.542-.108,2.776,2.776,0,0,1-2.155-2.241,8.49,8.49,0,0,1-.147-1.846c0-2.084,0-4.169,0-6.243" fill="#585757" fill-rule="evenodd"/>
    <path d="M165.207,151.183v2.1c-.881.27-1.805-.042-2.795.238,0,2.324-.012,4.644,0,6.964a1.207,1.207,0,0,0,1.161,1.231c.507.081,1.025.095,1.612.145a8.941,8.941,0,0,1,.017,2.156,8.736,8.736,0,0,1-3.3-.092,2.851,2.851,0,0,1-2.367-2.376,8.357,8.357,0,0,1-.126-1.7q0-3.138,0-6.269c-.753-.351-1.5-.042-2.226-.289v-2.047c.618-.347,1.368-.008,2.19-.275v-4.078h2.91c.27,1.337-.055,2.721.188,4.092.883.251,1.752-.008,2.73.2" fill="#585757" fill-rule="evenodd"/>
    <path d="M189.577,161.861v2.158a8.776,8.776,0,0,1-3.293-.092,2.85,2.85,0,0,1-2.371-2.371,8.42,8.42,0,0,1-.128-1.7q-.006-3-.017-6.008a1.236,1.236,0,0,0-.095-.305c-.63-.356-1.39.043-2.121-.292a7,7,0,0,1,.007-2.023c.7-.289,1.391.01,2.134-.259.229-1.3-.009-2.674.136-4.074h2.822c.3,1.327-.064,2.715.2,4.095.871.243,1.741-.012,2.626.175.336.654.032,1.358.188,2.1-.969.275-1.885.027-2.886.218,0,2.366-.012,4.687,0,7.006a1.207,1.207,0,0,0,1.155,1.235c.509.082,1.028.095,1.636.145" fill="#585757" fill-rule="evenodd"/>
    <path d="M97.088,185.523H95.042a6.864,6.864,0,0,1-.11-2.155c.7-.336,1.394-.033,2.124-.265.356-1.286-.008-2.67.206-4.083h2.906v4.014c.956.356,1.885,0,2.806.283v2.054c-.822.313-1.743,0-2.8.236v2.648c0,1.192-.008,2.384,0,3.575.013,1.7.269,1.96,1.986,2.072.234.016.467.026.758.042a6.917,6.917,0,0,1,.092,2.172,8.421,8.421,0,0,1-3.268-.072,2.841,2.841,0,0,1-2.406-2.332,7.931,7.931,0,0,1-.14-1.7q0-3-.01-6.009a3.418,3.418,0,0,0-.1-.477" fill="#585757" fill-rule="evenodd"/>
    <polygon points="97.225 144.827 94.488 144.827 94.488 164.031 97.225 164.031 97.225 144.827 97.225 144.827" fill="#585757" fill-rule="evenodd"/>
    <path d="M63.189,196.167h-2.8v-12.91h2.441c.324.419.032.941.313,1.49,1.208-.977,2.465-1.915,4.209-1.754a10.1,10.1,0,0,1,.143,2.3,2.551,2.551,0,0,1-1.179.339,3.508,3.508,0,0,0-3.1,3.7c-.073,1.954-.024,3.912-.029,5.868v.969" fill="#585757" fill-rule="evenodd"/>
    <path d="M108.932,145.968h2.748v17.919c-.333.255-.678.143-1,.152-.56.021-1.121.006-1.748.006V145.968Z" fill="#585757" fill-rule="evenodd"/>
    <path d="M154.911,164h-2.67V151.21a10.372,10.372,0,0,1,2.67-.1V164Z" fill="#585757" fill-rule="evenodd"/>
    <polygon points="44.826 151.14 42.134 151.14 42.134 163.953 44.826 163.953 44.826 151.14 44.826 151.14" fill="#585757" fill-rule="evenodd"/>
    <path d="M145.5,183.219v12.867a14.508,14.508,0,0,1-2.723.032V183.3a12.612,12.612,0,0,1,2.723-.083" fill="#585757" fill-rule="evenodd"/>
    <path d="M43.45,148.765a1.839,1.839,0,1,1-.041-3.677,1.911,1.911,0,0,1,1.908,1.878,1.992,1.992,0,0,1-1.867,1.8" fill="#585757" fill-rule="evenodd"/>
    <path d="M153.561,148.765a1.84,1.84,0,1,1-.074-3.678,1.915,1.915,0,0,1,1.928,1.865,1.991,1.991,0,0,1-1.854,1.813" fill="#585757" fill-rule="evenodd"/>
    <path d="M144.045,177.2a1.911,1.911,0,0,1,1.905,1.883,1.989,1.989,0,0,1-1.869,1.8,1.953,1.953,0,0,1-1.9-1.756,1.923,1.923,0,0,1,1.868-1.922" fill="#585757" fill-rule="evenodd"/>
    <path d="M173.05,36.283c-.365-.592-.933-1.1-.815-1.9a2.122,2.122,0,0,1,.815,1.9" fill="#143a63" fill-rule="evenodd"/>
    <path d="M140.317,117.5c.3-.357.516-.578.888-.488-.035.493-.375.486-.888.488" fill="#e21d32" fill-rule="evenodd"/>
    <path d="M172.248,34.4a.655.655,0,0,1-.569-.884c.545.067.576.463.569.884" fill="#143a63" fill-rule="evenodd"/>
    <path d="M140.067,117.675c-.078.134-.185.125-.312.064.07-.2.178-.182.312-.064" fill="#e21d32" fill-rule="evenodd"/>
  </g>
</svg>
