<svg xmlns="http://www.w3.org/2000/svg" width="177.325" height="79.7" viewBox="0 0 177.325 79.7">
  <g>
    <path d="M69.54,79.079A9.471,9.471,0,0,1,62.823,76.3l-30-30A9.5,9.5,0,0,1,46.26,32.864l30,30a9.5,9.5,0,0,1-6.72,16.215" fill="#fff" stroke="#fff" stroke-miterlimit="10"/>
    <path d="M10,79.2A9.5,9.5,0,0,1,.5,69.7V10.722a9.5,9.5,0,0,1,9.5-9.5H69.7a9.5,9.5,0,0,1,0,19H19.5V69.7A9.5,9.5,0,0,1,10,79.2" fill="#fff" stroke="#fff" stroke-miterlimit="10"/>
    <path d="M176.7,10.165a9.472,9.472,0,0,1-2.782,6.717l-30,30a9.5,9.5,0,1,1-13.436-13.436l30-30A9.5,9.5,0,0,1,176.7,10.165" fill="#fff" stroke="#fff" stroke-miterlimit="10"/>
    <path d="M176.825,69.7a9.5,9.5,0,0,1-9.5,9.5H108.343a9.5,9.5,0,0,1-9.5-9.5V10a9.5,9.5,0,0,1,19,0V60.2h49.482a9.5,9.5,0,0,1,9.5,9.5" fill="#fff" stroke="#fff" stroke-miterlimit="10"/>
  </g>
</svg>
