<svg xmlns="http://www.w3.org/2000/svg" width="472.82" height="86.816" viewBox="0 0 472.82 86.816">
  <g>
    <path d="M69.54,79.079A9.473,9.473,0,0,1,62.823,76.3l-30-30A9.5,9.5,0,0,1,46.26,32.864l30,30A9.5,9.5,0,0,1,69.54,79.079" fill="#fff" stroke="#fff" stroke-miterlimit="10"/>
    <path d="M10,79.2A9.5,9.5,0,0,1,.5,69.7V10.722a9.5,9.5,0,0,1,9.5-9.5H69.7a9.5,9.5,0,0,1,0,19H19.5V69.7A9.5,9.5,0,0,1,10,79.2" fill="#fff" stroke="#fff" stroke-miterlimit="10"/>
    <path d="M176.7,10.165a9.475,9.475,0,0,1-2.782,6.717l-30,30a9.5,9.5,0,1,1-13.436-13.436l30-30A9.5,9.5,0,0,1,176.7,10.165" fill="#fff" stroke="#fff" stroke-miterlimit="10"/>
    <path d="M176.825,69.7a9.5,9.5,0,0,1-9.5,9.5H108.343a9.5,9.5,0,0,1-9.5-9.5V10a9.5,9.5,0,1,1,19,0V60.2h49.482a9.5,9.5,0,0,1,9.5,9.5" fill="#fff" stroke="#fff" stroke-miterlimit="10"/>
    <path d="M250.173,16.846a7.36,7.36,0,0,0,4.9-1.437,5.252,5.252,0,0,0,1.688-4.231,5.25,5.25,0,0,0-1.688-4.23,7.355,7.355,0,0,0-4.9-1.438h-9.128V16.846Zm-1.5,3.168h-7.628V32.1h-3.751V2.342h13.379q4.75,0,7.335,2.334a8.318,8.318,0,0,1,2.585,6.5,8.6,8.6,0,0,1-2,5.9,9,9,0,0,1-5.668,2.813l8,12.213h-4.418l-7.835-12.088Z" fill="#fff" stroke="#fff" stroke-miterlimit="10"/>
    <path d="M270.033,14.471a8.049,8.049,0,0,0-1.938,4.752h12.879a7.981,7.981,0,0,0-1.959-4.752,5.746,5.746,0,0,0-4.5-1.918,5.68,5.68,0,0,0-4.48,1.918M281.1,30.662a10.061,10.061,0,0,1-6.544,1.94,9.776,9.776,0,0,1-5.251-1.418,9.471,9.471,0,0,1-3.563-4.022,13.549,13.549,0,0,1-1.272-6.023,13.76,13.76,0,0,1,1.251-6.022,9.4,9.4,0,0,1,3.521-4.023,9.769,9.769,0,0,1,5.272-1.416,10.046,10.046,0,0,1,5.21,1.354,9.269,9.269,0,0,1,3.585,3.918,13.326,13.326,0,0,1,1.292,6.064,8.229,8.229,0,0,1-.042.959H268.012a8.79,8.79,0,0,0,1.875,5.605,5.791,5.791,0,0,0,4.668,2.147,6.273,6.273,0,0,0,4.189-1.291,6.772,6.772,0,0,0,2.1-3.043l3.542.459a10.019,10.019,0,0,1-3.292,4.812" fill="#fff" stroke="#fff" stroke-miterlimit="10"/>
    <path d="M302.105,13.533a6,6,0,0,0-3.584-1.1,5.675,5.675,0,0,0-3.46.959,3.051,3.051,0,0,0-1.292,2.584,2.27,2.27,0,0,0,1.167,2.126,10.491,10.491,0,0,0,3.335,1.041l2.334.375a13.3,13.3,0,0,1,5.313,1.9q1.9,1.313,1.9,4.4a5.78,5.78,0,0,1-2.522,5.024,11.015,11.015,0,0,1-6.481,1.771,10.746,10.746,0,0,1-6.522-1.877,7.247,7.247,0,0,1-3.022-4.959l3.209-.709a5.491,5.491,0,0,0,2.167,3.565,7.017,7.017,0,0,0,4.21,1.228,6.551,6.551,0,0,0,3.876-1.062,3.328,3.328,0,0,0,1.5-2.856A2.446,2.446,0,0,0,303,23.64a12.22,12.22,0,0,0-3.73-1.168l-2.293-.416a12.167,12.167,0,0,1-4.959-1.834,4.784,4.784,0,0,1-1.834-4.209,5.449,5.449,0,0,1,1.063-3.292,6.78,6.78,0,0,1,2.98-2.252,11.254,11.254,0,0,1,4.334-.791,10.171,10.171,0,0,1,4.147.834,8.293,8.293,0,0,1,3.084,2.25,6.5,6.5,0,0,1,1.48,3.084l-3.21.708a4.85,4.85,0,0,0-1.958-3.021" fill="#fff" stroke="#fff" stroke-miterlimit="10"/>
    <path d="M317.276,32.1h-3.5V10.178h3.5V32.1Zm.041-26.176h-3.584v-4h3.584v4Z" fill="#fff" stroke="#fff" stroke-miterlimit="10"/>
    <polygon points="324.652 1.926 328.154 1.926 328.154 32.102 324.652 32.102 324.652 1.926 324.652 1.926" fill="#fff" stroke="#fff" stroke-miterlimit="10" fill-rule="evenodd"/>
    <path d="M338.99,32.1h-3.5V10.178h3.5V32.1Zm.041-26.176h-3.584v-4h3.584v4Z" fill="#fff" stroke="#fff" stroke-miterlimit="10"/>
    <path d="M350.514,14.471a8.042,8.042,0,0,0-1.937,4.752h12.878a7.987,7.987,0,0,0-1.959-4.752,5.746,5.746,0,0,0-4.5-1.918,5.68,5.68,0,0,0-4.48,1.918M361.58,30.662a10.062,10.062,0,0,1-6.545,1.94,9.775,9.775,0,0,1-5.25-1.418,9.48,9.48,0,0,1-3.564-4.022,13.563,13.563,0,0,1-1.271-6.023,13.788,13.788,0,0,1,1.25-6.022,9.407,9.407,0,0,1,3.523-4.023,9.763,9.763,0,0,1,5.271-1.416,10.049,10.049,0,0,1,5.211,1.354,9.267,9.267,0,0,1,3.584,3.918,13.313,13.313,0,0,1,1.291,6.064,8.273,8.273,0,0,1-.041.959H348.493a8.79,8.79,0,0,0,1.875,5.605,5.79,5.79,0,0,0,4.667,2.147,6.27,6.27,0,0,0,4.19-1.291,6.772,6.772,0,0,0,2.1-3.043l3.543.459a10.021,10.021,0,0,1-3.293,4.812" fill="#fff" stroke="#fff" stroke-miterlimit="10"/>
    <path d="M374.625,13.3a6.9,6.9,0,0,1,2.834-2.666,8.683,8.683,0,0,1,4.084-.959,8,8,0,0,1,5.586,2,7.418,7.418,0,0,1,2.209,5.793V32.1h-3.5V18.68a6.871,6.871,0,0,0-1.27-4.606,5,5,0,0,0-3.939-1.437,5.557,5.557,0,0,0-5.127,3.23,8.924,8.924,0,0,0-.834,4.063V32.1h-3.5V10.178H374.5V13.3Z" fill="#fff" stroke="#fff" stroke-miterlimit="10"/>
    <path d="M404.676,29.455a5.62,5.62,0,0,0,1.084-.312V32.1a4.274,4.274,0,0,1-1.271.354,10.935,10.935,0,0,1-1.772.146,5.884,5.884,0,0,1-4.043-1.146q-1.251-1.146-1.25-3.9V12.887h-3.668V10.178h3.668V3.885h3.5v6.293h5.043v2.709h-5.043v14.3a2.677,2.677,0,0,0,.522,1.875,2.527,2.527,0,0,0,1.855.541,6.771,6.771,0,0,0,1.375-.145" fill="#fff" stroke="#fff" stroke-miterlimit="10"/>
    <polygon points="237.294 48.889 241.045 48.889 241.045 75.397 257.467 75.397 257.467 78.648 237.294 78.648 237.294 48.889 237.294 48.889" fill="#fff" stroke="#fff" stroke-miterlimit="10"/>
    <path d="M288.935,59.851a6.9,6.9,0,0,1,2.834-2.668,8.68,8.68,0,0,1,4.084-.958,8,8,0,0,1,5.585,2,7.418,7.418,0,0,1,2.209,5.794V78.648h-3.5V65.227a6.86,6.86,0,0,0-1.271-4.605,5,5,0,0,0-3.939-1.438,5.561,5.561,0,0,0-5.126,3.23,8.922,8.922,0,0,0-.834,4.064v12.17h-3.5V56.725h3.334v3.126Z" fill="#fff" stroke="#fff" stroke-miterlimit="10"/>
    <path d="M324.111,73.959a9.679,9.679,0,0,0,1.875-6.273,9.679,9.679,0,0,0-1.875-6.273,6.026,6.026,0,0,0-4.917-2.313,6.113,6.113,0,0,0-5,2.313,9.679,9.679,0,0,0-1.875,6.273,9.679,9.679,0,0,0,1.875,6.273,6.113,6.113,0,0,0,5,2.313,6.026,6.026,0,0,0,4.917-2.313M322.84,57.225a6.365,6.365,0,0,1,2.771,2.667h.125V48.472h3.5V78.647H325.9V75.313h-.125a6.176,6.176,0,0,1-2.793,2.792,9.168,9.168,0,0,1-4.376,1.042,9.235,9.235,0,0,1-8.627-5.438,15.136,15.136,0,0,1,0-12.046,9.235,9.235,0,0,1,8.627-5.438,8.916,8.916,0,0,1,4.23,1" fill="#fff" stroke="#fff" stroke-miterlimit="10"/>
    <path d="M347.2,60.079a6.006,6.006,0,0,0-3.584-1.1,5.687,5.687,0,0,0-3.461.958,3.053,3.053,0,0,0-1.291,2.584,2.269,2.269,0,0,0,1.166,2.126,10.5,10.5,0,0,0,3.336,1.042l2.334.375a13.31,13.31,0,0,1,5.313,1.9q1.9,1.313,1.9,4.4a5.776,5.776,0,0,1-2.521,5.023,11.019,11.019,0,0,1-6.481,1.771,10.762,10.762,0,0,1-6.523-1.875,7.259,7.259,0,0,1-3.022-4.96l3.209-.709a5.5,5.5,0,0,0,2.168,3.564,7.016,7.016,0,0,0,4.209,1.229,6.554,6.554,0,0,0,3.877-1.062,3.328,3.328,0,0,0,1.5-2.856,2.446,2.446,0,0,0-1.229-2.292,12.261,12.261,0,0,0-3.73-1.167l-2.293-.417a12.144,12.144,0,0,1-4.959-1.834,4.783,4.783,0,0,1-1.834-4.209,5.449,5.449,0,0,1,1.063-3.292,6.784,6.784,0,0,1,2.98-2.251,11.258,11.258,0,0,1,4.334-.791,10.187,10.187,0,0,1,4.147.833,8.323,8.323,0,0,1,3.084,2.25,6.5,6.5,0,0,1,1.48,3.084l-3.209.709a4.862,4.862,0,0,0-1.959-3.022" fill="#fff" stroke="#fff" stroke-miterlimit="10"/>
    <path d="M371.332,74.772a8.877,8.877,0,0,0,2.043-3.5l3.584.542a11.393,11.393,0,0,1-3.25,5.126,9.17,9.17,0,0,1-6.5,2.209,9.966,9.966,0,0,1-5.314-1.417,9.443,9.443,0,0,1-3.584-4,14.943,14.943,0,0,1,0-12.066,9.419,9.419,0,0,1,3.584-4.022,9.966,9.966,0,0,1,5.314-1.417,9.032,9.032,0,0,1,6.189,1.938,11.172,11.172,0,0,1,3.063,4.105l-3.293,1.084q-1.709-4.251-5.959-4.252a5.752,5.752,0,0,0-4.793,2.314,9.986,9.986,0,0,0-1.793,6.272,9.991,9.991,0,0,0,1.793,6.274,5.752,5.752,0,0,0,4.793,2.312,5.406,5.406,0,0,0,4.125-1.5" fill="#fff" stroke="#fff" stroke-miterlimit="10"/>
    <path d="M410.012,61.413a9.667,9.667,0,0,0-1.877,6.272,9.669,9.669,0,0,0,1.877,6.274,6.024,6.024,0,0,0,4.918,2.312,6.108,6.108,0,0,0,5-2.312,9.669,9.669,0,0,0,1.877-6.274,9.667,9.667,0,0,0-1.877-6.272,6.109,6.109,0,0,0-5-2.313,6.025,6.025,0,0,0-4.918,2.313m1.25,16.755a6.207,6.207,0,0,1-2.752-2.689h-.125V86.316h-3.5V56.725h3.334v3.334h.125a6.534,6.534,0,0,1,2.834-2.814,9.069,9.069,0,0,1,4.334-1.02,9.241,9.241,0,0,1,8.629,5.438,15.136,15.136,0,0,1,0,12.046,9.241,9.241,0,0,1-8.629,5.438,9.057,9.057,0,0,1-4.25-.979" fill="#fff" stroke="#fff" stroke-miterlimit="10"/>
    <path d="M435.08,61.018a8.047,8.047,0,0,0-1.937,4.751h12.878a7.992,7.992,0,0,0-1.959-4.751,5.742,5.742,0,0,0-4.5-1.918,5.677,5.677,0,0,0-4.48,1.918M446.146,77.21a10.068,10.068,0,0,1-6.545,1.938,9.784,9.784,0,0,1-5.25-1.417,9.486,9.486,0,0,1-3.564-4.022,13.563,13.563,0,0,1-1.271-6.023,13.788,13.788,0,0,1,1.25-6.022,9.393,9.393,0,0,1,3.523-4.022,9.755,9.755,0,0,1,5.271-1.417,10.04,10.04,0,0,1,5.211,1.355,9.264,9.264,0,0,1,3.584,3.917,13.313,13.313,0,0,1,1.291,6.064,8.273,8.273,0,0,1-.041.959H433.059a8.792,8.792,0,0,0,1.875,5.605,5.79,5.79,0,0,0,4.667,2.147,6.27,6.27,0,0,0,4.19-1.292,6.758,6.758,0,0,0,2.105-3.042l3.543.458a10.026,10.026,0,0,1-3.293,4.814" fill="#fff" stroke="#fff" stroke-miterlimit="10"/>
    <path d="M466.611,60.079a6.006,6.006,0,0,0-3.584-1.1,5.687,5.687,0,0,0-3.461.958,3.053,3.053,0,0,0-1.291,2.584,2.269,2.269,0,0,0,1.166,2.126,10.5,10.5,0,0,0,3.336,1.042l2.334.375a13.31,13.31,0,0,1,5.313,1.9q1.9,1.313,1.9,4.4a5.776,5.776,0,0,1-2.521,5.023,11.019,11.019,0,0,1-6.481,1.771,10.762,10.762,0,0,1-6.523-1.875,7.259,7.259,0,0,1-3.022-4.96l3.209-.709a5.5,5.5,0,0,0,2.168,3.564,7.016,7.016,0,0,0,4.209,1.229,6.554,6.554,0,0,0,3.877-1.062,3.328,3.328,0,0,0,1.5-2.856,2.446,2.446,0,0,0-1.229-2.292,12.261,12.261,0,0,0-3.73-1.167l-2.293-.417a12.144,12.144,0,0,1-4.959-1.834,4.783,4.783,0,0,1-1.834-4.209,5.449,5.449,0,0,1,1.063-3.292,6.784,6.784,0,0,1,2.98-2.251,11.258,11.258,0,0,1,4.334-.791,10.187,10.187,0,0,1,4.147.833,8.323,8.323,0,0,1,3.084,2.25,6.5,6.5,0,0,1,1.48,3.084l-3.209.709a4.862,4.862,0,0,0-1.959-3.022" fill="#fff" stroke="#fff" stroke-miterlimit="10"/>
    <path d="M273.7,67.77q-1.312.291-3.855.625a8.016,8.016,0,0,0-3.543,1.312,3.37,3.37,0,0,0-1.459,2.939,3.506,3.506,0,0,0,1.042,2.688,3.966,3.966,0,0,0,2.835.98,8.258,8.258,0,0,0,3.126-.625,5.889,5.889,0,0,0,2.583-2.064,6.2,6.2,0,0,0,1.042-3.73V66.936a3.23,3.23,0,0,1-1.771.834m1.73,8.169a6.458,6.458,0,0,1-3.168,2.438,11.827,11.827,0,0,1-4.209.771,7.378,7.378,0,0,1-3.418-.792,6.127,6.127,0,0,1-2.459-2.272,6.3,6.3,0,0,1-.917-3.4,5.5,5.5,0,0,1,2.272-4.939,15.5,15.5,0,0,1,6.647-2.063,26.252,26.252,0,0,0,3.293-.6,3.445,3.445,0,0,0,1.563-.772,1.737,1.737,0,0,0,.437-1.25,3.658,3.658,0,0,0-1.167-2.876,5.332,5.332,0,0,0-3.625-1.042,6.036,6.036,0,0,0-3.356.959,5.123,5.123,0,0,0-2.063,3.126l-3.209-.792a7.562,7.562,0,0,1,3.1-4.605,9.782,9.782,0,0,1,5.648-1.6q4.209,0,6.189,1.833a6.385,6.385,0,0,1,1.979,4.919v11.5c0,.528-3.542,1.459-3.542,1.459" fill="#fff" stroke="#fff" stroke-miterlimit="10"/>
    <polygon points="278.973 70.472 275.438 70.472 275.438 78.648 278.973 78.648 278.973 70.472 278.973 70.472" fill="#fff" stroke="#fff" stroke-miterlimit="10" fill-rule="evenodd"/>
    <path d="M392.922,67.77q-1.312.291-3.854.625a8,8,0,0,0-3.542,1.312,3.366,3.366,0,0,0-1.459,2.939,3.5,3.5,0,0,0,1.041,2.688,3.965,3.965,0,0,0,2.834.98,8.255,8.255,0,0,0,3.126-.625,5.891,5.891,0,0,0,2.584-2.064,6.209,6.209,0,0,0,1.041-3.73V66.936a3.216,3.216,0,0,1-1.771.834m1.73,8.169a6.451,6.451,0,0,1-3.167,2.438,11.831,11.831,0,0,1-4.209.771,7.381,7.381,0,0,1-3.418-.792,6.127,6.127,0,0,1-2.459-2.272,6.3,6.3,0,0,1-.916-3.4,5.5,5.5,0,0,1,2.271-4.939,15.491,15.491,0,0,1,6.647-2.063,26.229,26.229,0,0,0,3.292-.6,3.439,3.439,0,0,0,1.563-.772,1.728,1.728,0,0,0,.437-1.25,3.657,3.657,0,0,0-1.166-2.876,5.335,5.335,0,0,0-3.626-1.042,6.039,6.039,0,0,0-3.356.959,5.118,5.118,0,0,0-2.062,3.126l-3.209-.792a7.562,7.562,0,0,1,3.105-4.605,9.777,9.777,0,0,1,5.647-1.6q4.209,0,6.189,1.833a6.383,6.383,0,0,1,1.98,4.919v11.5c0,.528-3.543,1.459-3.543,1.459" fill="#fff" stroke="#fff" stroke-miterlimit="10"/>
    <polygon points="398.195 70.472 394.66 70.472 394.66 78.648 398.195 78.648 398.195 70.472 398.195 70.472" fill="#fff" stroke="#fff" stroke-miterlimit="10" fill-rule="evenodd"/>
  </g>
</svg>
