<?xml version="1.0" encoding="UTF-8" standalone="no"?><!DOCTYPE svg PUBLIC "-//W3C//DTD SVG 1.1//EN" "http://www.w3.org/Graphics/SVG/1.1/DTD/svg11.dtd"><svg width="100%" height="100%" viewBox="0 0 1967 358" version="1.1" xmlns="http://www.w3.org/2000/svg" xmlns:xlink="http://www.w3.org/1999/xlink" xml:space="preserve" xmlns:serif="http://www.serif.com/" style="fill-rule:evenodd;clip-rule:evenodd;stroke-linejoin:round;stroke-miterlimit:2;"><g><path d="M288.165,327.763c-10.129,0 -20.258,-3.866 -27.988,-11.591l-124.991,-124.992c-15.459,-15.458 -15.459,-40.521 0,-55.979c15.458,-15.458 40.521,-15.458 55.979,0l124.987,124.987c15.463,15.463 15.463,40.521 0,55.984c-7.729,7.725 -17.858,11.591 -27.987,11.591" style="fill:#1d5c39;fill-rule:nonzero;"/><path d="M40.085,328.284c-21.862,0 -39.583,-17.721 -39.583,-39.583l0,-245.758c0,-21.863 17.721,-39.584 39.583,-39.584l248.763,0c21.862,0 39.583,17.721 39.583,39.584c0,21.862 -17.721,39.583 -39.583,39.583l-209.179,0l0,206.175c0,21.862 -17.721,39.583 -39.584,39.583" style="fill:#1d5c39;fill-rule:nonzero;"/><path d="M734.665,40.621c0,10.129 -3.866,20.254 -11.591,27.988l-124.988,124.991c-15.462,15.459 -40.521,15.459 -55.983,0c-15.454,-15.462 -15.454,-40.52 0,-55.983l124.992,-124.987c15.458,-15.463 40.52,-15.463 55.979,0c7.725,7.729 11.591,17.858 11.591,27.991" style="fill:#1d5c39;fill-rule:nonzero;"/><path d="M735.186,288.701c0,21.858 -17.721,39.583 -39.583,39.583l-245.758,0c-21.863,0 -39.584,-17.725 -39.584,-39.583l0,-248.763c0,-21.862 17.721,-39.587 39.584,-39.587c21.862,0 39.583,17.725 39.583,39.587l0,209.18l206.175,0c21.862,0 39.583,17.72 39.583,39.583" style="fill:#1d5c39;fill-rule:nonzero;"/><path d="M1040.81,68.458c8.912,0 15.716,-1.996 20.404,-5.988c4.687,-3.996 7.033,-9.875 7.033,-17.629c0,-7.754 -2.346,-13.629 -7.033,-17.625c-4.688,-3.996 -11.492,-5.992 -20.404,-5.992l-38.034,0l0,47.234l38.034,0Zm-6.25,13.2l-31.784,0l0,50.366l-15.629,0l0,-124l55.746,0c13.196,0 23.383,3.246 30.563,9.725c7.179,6.488 10.77,15.521 10.77,27.092c0,10.075 -2.779,18.262 -8.337,24.575c-5.558,6.308 -13.433,10.217 -23.617,11.721l33.342,50.887l-18.408,0l-32.646,-50.366Z" style="fill:#1d5c39;fill-rule:nonzero;"/><path d="M1123.56,58.562c-4.688,5.321 -7.379,11.921 -8.075,19.8l53.662,0c-0.695,-7.879 -3.416,-14.479 -8.162,-19.8c-4.75,-5.321 -11,-7.992 -18.758,-7.992c-7.755,0 -13.98,2.671 -18.667,7.992m46.108,67.462c-6.6,5.388 -15.687,8.084 -27.266,8.084c-8.221,0 -15.513,-1.971 -21.88,-5.909c-6.37,-3.929 -11.316,-9.521 -14.845,-16.758c-3.538,-7.233 -5.3,-15.6 -5.3,-25.096c0,-9.487 1.737,-17.854 5.212,-25.092c3.471,-7.233 8.358,-12.825 14.671,-16.762c6.312,-3.929 13.633,-5.9 21.967,-5.9c8.104,0 15.341,1.879 21.708,5.642c6.367,3.766 11.35,9.204 14.937,16.325c3.588,7.12 5.384,15.541 5.384,25.266c0,1.742 -0.059,3.067 -0.175,3.996l-68.942,0c0.229,9.613 2.833,17.4 7.813,23.354c4.979,5.967 11.462,8.946 19.45,8.946c7.408,0 13.225,-1.792 17.454,-5.379c4.225,-3.588 7.146,-7.821 8.771,-12.679l14.758,1.912c-2.546,7.984 -7.117,14.671 -13.717,20.05" style="fill:#1d5c39;fill-rule:nonzero;"/><path d="M1257.19,54.655c-4.283,-3.066 -9.266,-4.604 -14.933,-4.604c-6.025,0 -10.829,1.334 -14.417,3.996c-3.591,2.667 -5.383,6.25 -5.383,10.767c0,4.05 1.621,7.004 4.863,8.858c3.237,1.85 7.87,3.296 13.895,4.338l9.725,1.562c9.488,1.621 16.871,4.258 22.138,7.904c5.271,3.646 7.904,9.759 7.904,18.317c0,9.033 -3.504,16.008 -10.508,20.933c-7.004,4.925 -16.004,7.379 -27.004,7.379c-11,0 -20.059,-2.604 -27.175,-7.82c-7.121,-5.209 -11.321,-12.092 -12.592,-20.663l13.371,-2.954c1.271,6.487 4.279,11.437 9.029,14.854c4.746,3.417 10.596,5.117 17.542,5.117c6.6,0 11.983,-1.471 16.15,-4.425c4.166,-2.954 6.25,-6.917 6.25,-11.9c0,-4.392 -1.709,-7.575 -5.121,-9.546c-3.417,-1.967 -8.596,-3.588 -15.542,-4.867l-9.554,-1.733c-8.683,-1.504 -15.571,-4.05 -20.663,-7.642c-5.1,-3.587 -7.641,-9.437 -7.641,-17.537c0,-5.092 1.475,-9.667 4.429,-13.717c2.95,-4.054 7.087,-7.179 12.417,-9.383c5.32,-2.2 11.341,-3.296 18.058,-3.296c6.254,0 12.008,1.154 17.279,3.475c5.267,2.308 9.55,5.442 12.85,9.375c3.3,3.937 5.354,8.217 6.167,12.85l-13.375,2.95c-1.154,-5.321 -3.879,-9.521 -8.159,-12.588" style="fill:#1d5c39;fill-rule:nonzero;"/><path d="M1320.4,132.023l-14.592,0l0,-91.35l14.592,0l0,91.35Zm0.17,-109.066l-14.933,0l0,-16.667l14.933,0l0,16.667Z" style="fill:#1d5c39;fill-rule:nonzero;"/><rect x="1351.13" y="6.29" width="14.592" height="125.733" style="fill:#1d5c39;"/><path d="M1410.88,132.023l-14.592,0l0,-91.35l14.592,0l0,91.35Zm0.17,-109.066l-14.933,0l0,-16.667l14.933,0l0,16.667Z" style="fill:#1d5c39;fill-rule:nonzero;"/><path d="M1458.89,58.562c-4.687,5.321 -7.379,11.921 -8.07,19.8l53.658,0c-0.7,-7.879 -3.417,-14.479 -8.163,-19.8c-4.75,-5.321 -11,-7.992 -18.758,-7.992c-7.754,0 -13.979,2.671 -18.667,7.992m46.109,67.462c-6.6,5.388 -15.688,8.084 -27.271,8.084c-8.217,0 -15.508,-1.971 -21.875,-5.909c-6.371,-3.929 -11.317,-9.521 -14.85,-16.758c-3.533,-7.233 -5.296,-15.6 -5.296,-25.096c0,-9.487 1.742,-17.854 5.208,-25.092c3.475,-7.233 8.363,-12.825 14.68,-16.762c6.308,-3.929 13.629,-5.9 21.962,-5.9c8.108,0 15.342,1.879 21.713,5.642c6.366,3.766 11.345,9.204 14.933,16.325c3.592,7.12 5.379,15.541 5.379,25.266c0,1.742 -0.054,3.067 -0.171,3.996l-68.941,0c0.225,9.613 2.837,17.4 7.812,23.354c4.979,5.967 11.463,8.946 19.446,8.946c7.417,0 13.233,-1.792 17.458,-5.379c4.225,-3.588 7.146,-7.821 8.771,-12.679l14.763,1.912c-2.546,7.984 -7.121,14.671 -13.721,20.05" style="fill:#1d5c39;fill-rule:nonzero;"/><path d="M1559.35,53.695c2.775,-4.746 6.713,-8.446 11.808,-11.108c5.096,-2.663 10.767,-3.996 17.017,-3.996c9.383,0 17.138,2.775 23.275,8.333c6.138,5.559 9.204,13.609 9.204,24.138l0,60.962l-14.591,0l0,-55.925c0,-8.796 -1.767,-15.196 -5.292,-19.191c-3.538,-3.992 -9.008,-5.988 -16.413,-5.988c-4.404,0 -8.479,1.1 -12.245,3.296c-3.763,2.204 -6.796,5.592 -9.117,10.162c-2.321,4.575 -3.475,10.225 -3.475,16.93l0,50.716l-14.583,0l0,-91.35l13.891,0l0,13.021l0.521,0Z" style="fill:#1d5c39;fill-rule:nonzero;"/><path d="M1684.57,120.996c1.971,-0.408 3.475,-0.837 4.516,-1.3l0,12.325c-1.041,0.579 -2.816,1.067 -5.295,1.475c-2.492,0.409 -4.95,0.609 -7.384,0.609c-7.754,0 -13.371,-1.592 -16.846,-4.775c-3.475,-3.184 -5.208,-8.592 -5.208,-16.234l0,-61.133l-15.283,0l0,-11.288l15.283,0l0,-26.22l14.583,0l0,26.22l21.013,0l0,11.288l-21.013,0l0,59.571c0,3.7 0.725,6.304 2.175,7.812c1.446,1.504 4.017,2.254 7.73,2.254c1.845,0 3.758,-0.195 5.729,-0.604" style="fill:#1d5c39;fill-rule:nonzero;"/><path d="M987.144,201.97l15.629,0l0,110.45l68.425,0l0,13.545l-84.054,0l0,-123.995Z" style="fill:#1d5c39;fill-rule:nonzero;"/><path d="M1202.31,247.644c2.775,-4.75 6.708,-8.45 11.808,-11.116c5.092,-2.663 10.767,-3.992 17.017,-3.992c9.379,0 17.133,2.775 23.271,8.333c6.137,5.559 9.204,13.609 9.204,24.142l0,60.954l-14.588,0l0,-55.921c0,-8.796 -1.766,-15.196 -5.295,-19.187c-3.534,-3.992 -9.005,-5.992 -16.413,-5.992c-4.4,0 -8.479,1.104 -12.242,3.3c-3.762,2.2 -6.8,5.588 -9.116,10.158c-2.321,4.575 -3.475,10.221 -3.475,16.934l0,50.708l-14.588,0l0,-91.346l13.892,0l0,13.025l0.525,0Z" style="fill:#1d5c39;fill-rule:nonzero;"/><path d="M1348.88,306.429c5.208,-6.429 7.812,-15.137 7.812,-26.137c0,-10.996 -2.604,-19.713 -7.812,-26.138c-5.209,-6.425 -12.042,-9.637 -20.488,-9.637c-8.683,0 -15.633,3.212 -20.841,9.637c-5.209,6.425 -7.813,15.142 -7.813,26.138c0,11 2.604,19.708 7.813,26.137c5.208,6.425 12.158,9.638 20.841,9.638c8.446,0 15.279,-3.213 20.488,-9.638m-5.296,-69.725c5.262,2.779 9.121,6.484 11.546,11.113l0.521,0l0,-47.584l14.591,0l0,125.73l-13.891,0l0,-13.892l-0.521,0c-2.321,4.862 -6.2,8.742 -11.638,11.633c-5.441,2.896 -11.521,4.342 -18.233,4.342c-7.983,0 -15.104,-1.967 -21.363,-5.904c-6.25,-3.934 -11.108,-9.521 -14.583,-16.754c-3.471,-7.234 -5.208,-15.6 -5.208,-25.096c0,-9.492 1.737,-17.859 5.208,-25.096c3.475,-7.233 8.333,-12.821 14.583,-16.754c6.259,-3.938 13.38,-5.904 21.363,-5.904c6.487,0 12.362,1.387 17.625,4.166" style="fill:#1d5c39;fill-rule:nonzero;"/><path d="M1445.09,248.597c-4.287,-3.063 -9.262,-4.6 -14.933,-4.6c-6.021,0 -10.833,1.333 -14.421,3.991c-3.587,2.667 -5.379,6.25 -5.379,10.767c0,4.054 1.621,7.008 4.858,8.858c3.246,1.855 7.879,3.3 13.9,4.342l9.725,1.563c9.488,1.625 16.871,4.258 22.138,7.904c5.271,3.646 7.9,9.754 7.9,18.316c0,9.034 -3.5,16.009 -10.504,20.93c-7.009,4.925 -16.009,7.379 -27.005,7.379c-11.004,0 -20.058,-2.604 -27.179,-7.813c-7.121,-5.212 -11.312,-12.096 -12.591,-20.666l13.37,-2.955c1.28,6.488 4.288,11.438 9.034,14.85c4.746,3.417 10.596,5.121 17.537,5.121c6.6,0 11.988,-1.471 16.154,-4.425c4.167,-2.954 6.25,-6.916 6.25,-11.9c0,-4.396 -1.708,-7.579 -5.12,-9.55c-3.417,-1.962 -8.6,-3.583 -15.542,-4.862l-9.554,-1.738c-8.684,-1.5 -15.567,-4.046 -20.663,-7.641c-5.096,-3.584 -7.641,-9.43 -7.641,-17.538c0,-5.092 1.475,-9.667 4.429,-13.717c2.954,-4.05 7.087,-7.179 12.416,-9.379c5.321,-2.2 11.346,-3.296 18.059,-3.296c6.25,0 12.012,1.155 17.279,3.471c5.262,2.317 9.55,5.442 12.85,9.375c3.3,3.938 5.354,8.221 6.167,12.85l-13.371,2.954c-1.163,-5.325 -3.884,-9.52 -8.163,-12.591" style="fill:#1d5c39;fill-rule:nonzero;"/><path d="M1545.63,309.815c3.937,-4.167 6.779,-9.03 8.512,-14.588l14.934,2.258c-2.434,8.105 -6.942,15.221 -13.542,21.359c-6.6,6.141 -15.633,9.204 -27.092,9.204c-8.341,0 -15.721,-1.971 -22.141,-5.904c-6.43,-3.934 -11.413,-9.492 -14.934,-16.671c-3.533,-7.179 -5.3,-15.571 -5.3,-25.183c0,-9.488 1.767,-17.855 5.3,-25.092c3.521,-7.238 8.504,-12.825 14.934,-16.758c6.42,-3.934 13.8,-5.905 22.141,-5.905c11.109,0 19.709,2.692 25.788,8.075c6.071,5.384 10.329,11.088 12.762,17.105l-13.721,4.516c-4.745,-11.808 -13.02,-17.716 -24.829,-17.716c-8.341,0 -15,3.216 -19.971,9.641c-4.979,6.425 -7.47,15.138 -7.47,26.134c0,11.004 2.491,19.712 7.47,26.141c4.971,6.421 11.63,9.634 19.971,9.634c7.521,0 13.25,-2.084 17.188,-6.25" style="fill:#1d5c39;fill-rule:nonzero;"/><path d="M1706.8,254.155c-5.217,6.425 -7.821,15.141 -7.821,26.133c0,11.004 2.604,19.712 7.821,26.142c5.208,6.425 12.038,9.633 20.492,9.633c8.683,0 15.625,-3.208 20.833,-9.633c5.217,-6.43 7.821,-15.138 7.821,-26.142c0,-10.992 -2.604,-19.708 -7.821,-26.133c-5.208,-6.425 -12.15,-9.638 -20.833,-9.638c-8.454,0 -15.284,3.213 -20.492,9.638m5.208,69.812c-5.208,-2.717 -9.033,-6.454 -11.466,-11.204l-0.521,0l0,45.154l-14.583,0l0,-123.296l13.891,0l0,13.892l0.521,0c2.546,-4.979 6.488,-8.883 11.808,-11.725c5.321,-2.838 11.346,-4.25 18.059,-4.25c7.991,0 15.112,1.967 21.362,5.904c6.25,3.933 11.117,9.521 14.592,16.754c3.475,7.238 5.208,15.604 5.208,25.092c0,9.5 -1.733,17.867 -5.208,25.1c-3.475,7.233 -8.342,12.821 -14.592,16.754c-6.25,3.938 -13.371,5.904 -21.362,5.904c-6.592,0 -12.5,-1.362 -17.709,-4.079" style="fill:#1d5c39;fill-rule:nonzero;"/><path d="M1811.25,252.507c-4.687,5.325 -7.379,11.925 -8.07,19.796l53.658,0c-0.7,-7.871 -3.417,-14.471 -8.163,-19.796c-4.75,-5.325 -11,-7.992 -18.758,-7.992c-7.754,0 -13.979,2.667 -18.667,7.992m46.109,67.466c-6.6,5.384 -15.688,8.075 -27.271,8.075c-8.217,0 -15.508,-1.97 -21.875,-5.904c-6.371,-3.933 -11.317,-9.521 -14.85,-16.758c-3.533,-7.233 -5.296,-15.6 -5.296,-25.096c0,-9.487 1.742,-17.854 5.208,-25.092c3.475,-7.237 8.363,-12.825 14.68,-16.758c6.308,-3.933 13.629,-5.904 21.962,-5.904c8.108,0 15.342,1.879 21.713,5.646c6.366,3.762 11.345,9.204 14.933,16.321c3.592,7.12 5.379,15.541 5.379,25.266c0,1.738 -0.054,3.071 -0.171,3.996l-68.941,0c0.225,9.613 2.837,17.396 7.812,23.354c4.979,5.967 11.463,8.946 19.446,8.946c7.417,0 13.233,-1.796 17.458,-5.383c4.225,-3.584 7.146,-7.813 8.771,-12.675l14.763,1.908c-2.546,7.988 -7.121,14.675 -13.721,20.058" style="fill:#1d5c39;fill-rule:nonzero;"/><path d="M1942.63,248.597c-4.288,-3.063 -9.263,-4.6 -14.934,-4.6c-6.02,0 -10.833,1.333 -14.42,3.991c-3.588,2.667 -5.38,6.25 -5.38,10.767c0,4.054 1.621,7.008 4.859,8.858c3.246,1.855 7.879,3.3 13.9,4.342l9.725,1.563c9.487,1.625 16.871,4.258 22.137,7.904c5.271,3.646 7.9,9.754 7.9,18.316c0,9.034 -3.5,16.009 -10.504,20.93c-7.008,4.925 -16.008,7.379 -27.004,7.379c-11.004,0 -20.058,-2.604 -27.179,-7.813c-7.121,-5.212 -11.313,-12.096 -12.592,-20.666l13.371,-2.955c1.279,6.488 4.287,11.438 9.033,14.85c4.746,3.417 10.596,5.121 17.538,5.121c6.6,0 11.987,-1.471 16.154,-4.425c4.167,-2.954 6.25,-6.916 6.25,-11.9c0,-4.396 -1.708,-7.579 -5.121,-9.55c-3.417,-1.962 -8.6,-3.583 -15.542,-4.862l-9.554,-1.738c-8.683,-1.5 -15.566,-4.046 -20.662,-7.641c-5.096,-3.584 -7.642,-9.43 -7.642,-17.538c0,-5.092 1.475,-9.667 4.429,-13.717c2.954,-4.05 7.088,-7.179 12.417,-9.379c5.321,-2.2 11.346,-3.296 18.058,-3.296c6.25,0 12.013,1.155 17.279,3.471c5.263,2.317 9.55,5.442 12.85,9.375c3.3,3.938 5.355,8.221 6.167,12.85l-13.371,2.954c-1.162,-5.325 -3.883,-9.52 -8.162,-12.591" style="fill:#1d5c39;fill-rule:nonzero;"/><path d="M1138.84,280.64c-3.646,0.808 -9.004,1.679 -16.062,2.604c-5.792,0.809 -10.713,2.634 -14.763,5.467c-4.054,2.842 -6.079,6.925 -6.079,12.246c0,4.75 1.446,8.483 4.342,11.2c2.891,2.725 6.829,4.083 11.812,4.083c4.396,0 8.738,-0.867 13.025,-2.604c4.279,-1.738 7.871,-4.604 10.763,-8.6c2.896,-3.992 4.341,-9.175 4.341,-15.542l0,-12.329c-1.275,1.504 -3.733,2.667 -7.379,3.475m7.209,34.038c-3.13,4.629 -7.53,8.016 -13.2,10.158c-5.675,2.142 -11.521,3.212 -17.538,3.212c-5.212,0 -9.962,-1.104 -14.242,-3.3c-4.283,-2.195 -7.7,-5.35 -10.245,-9.466c-2.55,-4.104 -3.821,-8.825 -3.821,-14.15c0,-9.492 3.15,-16.354 9.466,-20.579c6.309,-4.225 15.542,-7.092 27.696,-8.596c6.021,-0.809 10.596,-1.65 13.721,-2.517c3.125,-0.867 5.296,-1.937 6.513,-3.217c1.212,-1.27 1.82,-3.008 1.82,-5.208c0,-5.096 -1.62,-9.087 -4.862,-11.983c-3.242,-2.892 -8.275,-4.342 -15.104,-4.342c-5.213,0 -9.875,1.333 -13.984,3.996c-4.108,2.667 -6.975,7.008 -8.595,13.025l-13.371,-3.3c2.083,-8.338 6.396,-14.733 12.937,-19.188c6.538,-4.458 14.384,-6.687 23.534,-6.687c11.691,0 20.287,2.546 25.787,7.637c5.496,5.1 8.246,11.925 8.246,20.496l0,47.929c0,2.2 -14.758,6.08 -14.758,6.08" style="fill:#1d5c39;fill-rule:nonzero;"/><rect x="1146.08" y="291.898" width="14.729" height="34.067" style="fill:#1d5c39;"/><path d="M1635.59,280.64c-3.646,0.808 -9,1.679 -16.058,2.604c-5.792,0.809 -10.717,2.634 -14.758,5.467c-4.063,2.842 -6.08,6.925 -6.08,12.246c0,4.75 1.438,8.483 4.338,11.2c2.896,2.725 6.825,4.083 11.808,4.083c4.4,0 8.738,-0.867 13.025,-2.604c4.284,-1.738 7.871,-4.604 10.767,-8.6c2.892,-3.992 4.337,-9.175 4.337,-15.542l0,-12.329c-1.266,1.504 -3.725,2.667 -7.379,3.475m7.209,34.038c-3.125,4.629 -7.525,8.016 -13.196,10.158c-5.675,2.142 -11.525,3.212 -17.538,3.212c-5.208,0 -9.962,-1.104 -14.241,-3.3c-4.284,-2.195 -7.7,-5.35 -10.246,-9.466c-2.55,-4.104 -3.817,-8.825 -3.817,-14.15c0,-9.492 3.146,-16.354 9.463,-20.579c6.308,-4.225 15.537,-7.092 27.695,-8.596c6.021,-0.809 10.592,-1.65 13.717,-2.517c3.125,-0.867 5.3,-1.937 6.513,-3.217c1.22,-1.27 1.82,-3.008 1.82,-5.208c0,-5.096 -1.616,-9.087 -4.858,-11.983c-3.246,-2.892 -8.275,-4.342 -15.108,-4.342c-5.209,0 -9.875,1.333 -13.984,3.996c-4.108,2.667 -6.975,7.008 -8.591,13.025l-13.371,-3.3c2.083,-8.338 6.396,-14.733 12.937,-19.188c6.534,-4.458 14.38,-6.687 23.53,-6.687c11.691,0 20.287,2.546 25.787,7.637c5.5,5.1 8.25,11.925 8.25,20.496l0,47.929c0,2.2 -14.762,6.08 -14.762,6.08" style="fill:#1d5c39;fill-rule:nonzero;"/><rect x="1642.84" y="291.898" width="14.729" height="34.067" style="fill:#1d5c39;"/></g></svg>