<?xml version="1.0" encoding="UTF-8" standalone="no"?><!DOCTYPE svg PUBLIC "-//W3C//DTD SVG 1.1//EN" "http://www.w3.org/Graphics/SVG/1.1/DTD/svg11.dtd"><svg width="100%" height="100%" viewBox="0 0 356 352" version="1.1" xmlns="http://www.w3.org/2000/svg" xmlns:xlink="http://www.w3.org/1999/xlink" xml:space="preserve" xmlns:serif="http://www.serif.com/" style="fill-rule:evenodd;clip-rule:evenodd;stroke-linejoin:round;stroke-miterlimit:2;"><g><path d="M135.903,288.875l-8.73,0l-7.024,-21.438l-7.025,21.438l-8.67,0l-11.97,-43.486l11.175,0l5.68,22.968l7.026,-22.968l7.574,0l7.018,22.968l5.681,-22.968l11.177,0l-11.912,43.486Z" style="fill:#fff;fill-rule:nonzero;"/><path d="M162.879,265.607c-0.608,-0.614 -1.461,-0.918 -2.685,-0.918c-1.222,0 -2.075,0.304 -2.688,0.918c-1.278,1.282 -1.464,3.603 -1.464,6.837c0,3.239 0.186,5.56 1.464,6.842c0.613,0.609 1.466,0.915 2.688,0.915c1.224,0 2.077,-0.306 2.685,-0.915c1.285,-1.282 1.471,-3.603 1.471,-6.842c0,-3.234 -0.186,-5.555 -1.471,-6.837m7.883,19.42c-1.956,2.074 -5.251,4.216 -10.568,4.216c-5.309,0 -8.608,-2.142 -10.564,-4.216c-2.751,-2.995 -3.604,-6.108 -3.604,-12.583c0,-6.41 0.853,-9.588 3.604,-12.583c1.956,-2.072 5.255,-4.212 10.564,-4.212c5.317,0 8.612,2.14 10.568,4.212c2.748,2.995 3.601,6.173 3.601,12.583c0,6.475 -0.853,9.588 -3.601,12.583" style="fill:#fff;fill-rule:nonzero;"/><path d="M196.466,266.396c-0.975,-0.973 -1.891,-1.705 -3.603,-1.705c-1.343,0 -4.033,0.792 -4.033,4.519l0,19.666l-10.016,0l0,-32.86l9.774,0l0,2.688c1.466,-1.464 4.335,-3.055 7.755,-3.055c3.241,0 5.437,0.797 7.697,3.055l-7.574,7.692Z" style="fill:#fff;fill-rule:nonzero;"/><path d="M215.756,288.875c-7.265,0 -10.202,-5.192 -10.202,-9.711l0,-33.775l10.021,0l0,33.041c0,1.285 0.666,2.014 2.014,2.014l3.48,0l0,8.431l-5.313,0Z" style="fill:#fff;fill-rule:nonzero;"/><path d="M237.736,264.69c-3.727,0 -4.152,2.99 -4.152,7.755c0,4.765 0.425,7.758 4.152,7.758c3.726,0 4.156,-2.993 4.156,-7.758c0,-4.765 -0.43,-7.755 -4.156,-7.755m4.456,24.185l0,-2.69c-2.014,2.017 -4.147,3.057 -7.569,3.057c-3.176,0 -6.108,-1.101 -8.004,-2.994c-3.236,-3.237 -3.05,-8.98 -3.05,-13.803c0,-4.823 -0.186,-10.566 3.05,-13.804c1.896,-1.892 4.765,-2.993 7.941,-2.993c3.239,0 5.494,0.92 7.332,2.751l0,-13.01l10.016,0l0,43.486l-9.716,0Z" style="fill:#fff;fill-rule:nonzero;"/><path d="M21.211,313.494l-3.912,11.605l7.574,0l-3.662,-11.605Zm8.485,26.994l-2.014,-6.475l-13.373,0l-2.137,6.475l-11.18,0l15.817,-43.482l8.25,0l15.819,43.482l-11.182,0Z" style="fill:#fff;fill-rule:nonzero;"/><path d="M55.461,316.303c-3.666,0 -3.908,3.176 -3.908,6.533c0,3.362 0.242,6.538 3.908,6.538c3.666,0 3.908,-3.176 3.908,-6.538c0,-3.357 -0.242,-6.533 -3.908,-6.533m-0.918,35.179c-5.132,0 -8.974,-0.918 -12.336,-4.275l6.231,-6.231c1.529,1.529 3.357,2.079 5.617,2.079c4.215,0 5.314,-2.871 5.314,-5.011l0,-2.381c-1.833,1.833 -4.031,2.75 -7.084,2.75c-3.176,0 -5.803,-1.04 -7.697,-2.932c-2.99,-2.994 -3.052,-6.656 -3.052,-12.645c0,-5.985 0.062,-9.648 3.052,-12.641c1.894,-1.893 4.584,-2.929 7.755,-2.929c3.362,0 5.314,1.036 7.332,3.055l0,-2.688l9.707,0l0,30.471c0,7.76 -5.862,13.378 -14.839,13.378" style="fill:#fff;fill-rule:nonzero;"/><path d="M92.646,318.011c-0.975,-0.975 -1.891,-1.707 -3.603,-1.707c-1.343,0 -4.028,0.794 -4.028,4.521l0,19.664l-10.021,0l0,-32.858l9.774,0l0,2.688c1.466,-1.464 4.335,-3.053 7.755,-3.053c3.241,0 5.437,0.795 7.697,3.053l-7.574,7.692Z" style="fill:#fff;fill-rule:nonzero;"/><path d="M115.906,317.217c-0.608,-0.608 -1.466,-0.915 -2.69,-0.915c-1.217,0 -2.075,0.307 -2.683,0.915c-1.283,1.285 -1.464,3.608 -1.464,6.842c0,3.236 0.181,5.56 1.464,6.844c0.608,0.607 1.466,0.913 2.683,0.913c1.224,0 2.082,-0.306 2.69,-0.913c1.285,-1.284 1.466,-3.608 1.466,-6.844c0,-3.234 -0.181,-5.557 -1.466,-6.842m7.878,19.425c-1.956,2.075 -5.25,4.212 -10.568,4.212c-5.309,0 -8.608,-2.137 -10.564,-4.212c-2.746,-2.995 -3.603,-6.108 -3.603,-12.583c0,-6.41 0.857,-9.588 3.603,-12.583c1.956,-2.072 5.255,-4.209 10.564,-4.209c5.318,0 8.612,2.137 10.568,4.209c2.749,2.995 3.606,6.173 3.606,12.583c0,6.475 -0.857,9.588 -3.606,12.583" style="fill:#fff;fill-rule:nonzero;"/><path d="M142.891,316.609l0,23.879l-10.015,0l0,-23.879l-2.995,0l0,-7.694l2.995,0l0,-2.872c0,-4.521 2.932,-9.709 10.196,-9.709l5.318,0l0,8.424l-3.485,0c-1.342,0 -2.014,0.734 -2.014,2.019l0,2.138l5.499,0l0,7.694l-5.499,0Z" style="fill:#fff;fill-rule:nonzero;"/><path d="M166.514,317.217c-0.613,-0.608 -1.466,-0.915 -2.69,-0.915c-1.222,0 -2.075,0.307 -2.684,0.915c-1.282,1.285 -1.463,3.608 -1.463,6.842c0,3.236 0.181,5.56 1.463,6.844c0.609,0.607 1.462,0.913 2.684,0.913c1.224,0 2.077,-0.306 2.69,-0.913c1.285,-1.284 1.466,-3.608 1.466,-6.844c0,-3.234 -0.181,-5.557 -1.466,-6.842m7.878,19.425c-1.956,2.075 -5.25,4.212 -10.568,4.212c-5.314,0 -8.608,-2.137 -10.564,-4.212c-2.751,-2.995 -3.603,-6.108 -3.603,-12.583c0,-6.41 0.852,-9.588 3.603,-12.583c1.956,-2.072 5.25,-4.209 10.564,-4.209c5.318,0 8.612,2.137 10.568,4.209c2.748,2.995 3.601,6.173 3.601,12.583c0,6.475 -0.853,9.588 -3.601,12.583" style="fill:#fff;fill-rule:nonzero;"/><path d="M200.092,318.011c-0.976,-0.975 -1.889,-1.707 -3.603,-1.707c-1.343,0 -4.029,0.794 -4.029,4.521l0,19.664l-10.015,0l0,-32.858l9.769,0l0,2.688c1.466,-1.464 4.34,-3.053 7.76,-3.053c3.236,0 5.431,0.795 7.696,3.053l-7.578,7.692Z" style="fill:#fff;fill-rule:nonzero;"/><path d="M225.248,318.075c-0.613,-1.406 -1.956,-2.565 -4.337,-2.565c-2.384,0 -3.727,1.159 -4.333,2.565c-0.432,0.853 -0.551,1.77 -0.551,2.565l9.77,0c0,-0.795 -0.126,-1.712 -0.549,-2.565m-9.221,9.221c0,2.69 2.075,5.132 5.799,5.132c3.48,0 5.011,-0.976 6.779,-2.751l5.985,5.985c-3.357,3.362 -6.656,5.192 -12.764,5.192c-7.269,0 -15.635,-2.627 -15.635,-16.794c0,-10.75 6.112,-16.793 14.72,-16.793c9.527,0 14.783,6.961 14.783,15.568l0,4.461l-19.667,0Z" style="fill:#fff;fill-rule:nonzero;"/><path d="M250.954,340.854c-4.951,0 -9.774,-0.244 -14.293,-4.763l6.471,-6.473c2.748,2.751 6.293,2.751 8.003,2.751c1.466,0 4.275,-0.432 4.275,-2.14c0,-0.92 -0.432,-1.895 -2.381,-2.081l-5.07,-0.486c-5.68,-0.548 -9.53,-3.113 -9.53,-9.525c0,-7.267 6.536,-10.87 13.069,-10.87c5.378,0 9.711,0.794 12.952,4.028l-6.173,6.171c-1.647,-1.65 -4.391,-1.954 -6.961,-1.954c-2.444,0 -3.234,1.157 -3.234,1.891c0,0.367 -0.123,1.589 2.138,1.833l5.067,0.488c6.902,0.669 9.897,4.765 9.897,10.018c0,7.755 -6.598,11.112 -14.23,11.112" style="fill:#fff;fill-rule:nonzero;"/><path d="M278.973,340.488c-7.264,0 -10.196,-5.192 -10.196,-9.711l0,-14.167l-2.995,0l0,-7.694l2.995,0l0,-9.41l10.015,0l0,9.41l5.19,0l0,7.694l-5.19,0l0,13.435c0,1.285 0.672,2.015 2.014,2.015l3.176,0l0,8.428l-5.009,0Z" style="fill:#fff;fill-rule:nonzero;"/><path d="M305.9,318.011c-0.976,-0.975 -1.892,-1.707 -3.599,-1.707c-1.343,0 -4.033,0.794 -4.033,4.521l0,19.664l-10.011,0l0,-32.858l9.769,0l0,2.688c1.466,-1.464 4.335,-3.053 7.755,-3.053c3.236,0 5.436,0.795 7.697,3.053l-7.578,7.692Z" style="fill:#fff;fill-rule:nonzero;"/><path d="M329.772,344.398c-0.672,1.891 -1.524,3.299 -2.565,4.337c-1.949,2.075 -4.454,2.746 -7.386,2.746l-3.789,0l0,-9.04l2.137,0c1.775,0 2.686,-0.425 3.362,-2.441l0.913,-2.749l-10.931,-29.619l10.504,0l5.559,17.041l5.313,-17.041l10.504,0l-13.621,36.766Z" style="fill:#fff;fill-rule:nonzero;"/><path d="M330.538,211.564c-166.741,-14.697 -106.55,6.726 -280.645,-8.022c52.591,-3.747 38.461,1.22 90.344,-2.799c25.978,-2.019 45.921,2.822 68.775,-0.268c48.207,-4.065 82.466,2.277 121.526,11.089" style="fill:#fff;"/><path d="M355.323,225.903c-111.321,-12.35 -43.824,12.16 -217.918,-2.586c52.591,-3.749 33.759,2.732 85.642,-1.287c25.978,-2.019 21.885,-2.202 44.741,-5.292c49.578,-2.532 48.476,0.353 87.535,9.165" style="fill:#fff;"/><path d="M260.637,179.606c0.829,1.429 -1.561,1.884 -6.331,1.628c-161.737,-14.492 -111.569,14.177 -238.091,4.289c14.902,-0.286 4.447,0.839 28.007,-0.014c78.9,-2.853 65.241,-27.76 216.415,-5.903" style="fill:#fff;"/><path d="M120.444,122.977c0,0 -16.758,13.54 -23.523,23.114c-9.425,13.344 -4.056,36.928 -4.056,36.928l-3.913,1.043c0,0 -3.429,-25.842 -5.213,-34.654c-1.787,-8.807 -16.182,-33.694 -16.182,-33.694l1.357,-3.194c0,0 13.082,21.492 14.072,23.743c0.976,2.254 5.804,6.615 7.214,6.996c1.403,0.383 1.842,0.195 2.488,-0.493c2.458,-2.618 24.552,-21.964 24.552,-21.964l3.204,2.175Z" style="fill:#fff;fill-rule:nonzero;"/><path d="M53.51,99.468c0,0 14.443,-12.125 31.763,-8.631c17.325,3.489 15.015,3.766 33.22,3.998c18.201,0.228 32.507,14.339 24.095,20.038c-8.408,5.708 -11.535,10.522 -26.532,8.076c-14.996,-2.444 -40.113,-9.133 -59.856,-7.177c-19.738,1.954 -54.977,0.939 -47.54,-5.764c7.434,-6.702 44.85,-10.54 44.85,-10.54" style="fill:#fff;fill-rule:nonzero;"/><path d="M93.917,132.887c1.115,2.642 0.344,5.427 -1.724,6.226c-2.07,0.793 -4.651,-0.694 -5.768,-3.331c-1.116,-2.642 -0.349,-5.427 1.726,-6.222c2.067,-0.801 4.651,0.69 5.766,3.327" style="fill:#fff;fill-rule:nonzero;"/><path d="M231.46,58.883c0,0 -41.837,36.55 -54.224,51.356c-13.717,16.39 -13.975,30.334 -14.579,49.668c-0.404,12.992 0.7,44.021 0.7,44.021l-6.926,4.082c0,0 -8.726,-66.919 -12.62,-86.29c-3.891,-19.385 -27.333,-53.72 -27.333,-53.72l3.027,-7.021c0,0 29.266,39.3 31.455,41.556c6.856,7.074 15.591,3.422 17.045,1.956c14.495,-14.544 49.592,-45.608 49.592,-45.608l13.863,0Z" style="fill:#fff;fill-rule:nonzero;"/><path d="M42.03,48.365c0,0 16.409,-2.69 19.738,-7.097c3.331,-4.4 9.23,-8.561 18.714,-8.317c9.488,0.246 38.714,-9.047 51.527,-16.14c12.82,-7.097 28.606,-21.943 59.475,-14.188c30.874,7.746 66.15,24.705 81.018,27.147c14.867,2.451 24.613,23.486 27.684,26.669c3.076,3.18 -1.129,5.334 -5.241,7.336c-4.101,2.005 -9.365,6.118 -21.158,3.425c-11.793,-2.69 -33.252,-5.357 -42.046,-5.625c-8.793,-0.274 -41.328,-1.556 -34.254,4.115c7.074,5.671 11.054,17.791 -5.803,16.135c-16.862,-1.659 -26.346,-7.042 -34.036,-4.837c-7.692,2.198 -27.649,5.889 -29.995,1.466c-2.349,-4.424 -2.319,-13.196 -13.847,-9.212c-11.535,3.984 -29.224,8.722 -39.218,6.765c-10.002,-1.958 -14.943,-13.249 -18.714,-13.212c-3.771,0.042 -31.787,-12.378 -13.844,-14.43" style="fill:#fff;fill-rule:nonzero;"/><path d="M165.239,86.177c2.214,5.223 0.685,10.745 -3.418,12.33c-4.096,1.577 -9.216,-1.376 -11.43,-6.608c-2.214,-5.227 -0.685,-10.745 3.417,-12.325c4.103,-1.582 9.217,1.376 11.431,6.603" style="fill:#fff;fill-rule:nonzero;"/><path d="M301.246,111.272c0,0 -31.71,19.443 -40.406,31.441c-11.897,16.406 -10.968,62.1 -11.054,65.208c-0.274,10.481 0.272,12.544 0.272,12.544l-5.151,4.016c0,0 -5.903,-52.17 -8.64,-67.448c-2.723,-15.282 -24.919,-46.995 -24.919,-46.995l2.509,-5.468c0,0 29.666,37.429 32.08,38.143c2.406,0.715 4.135,1.219 5.201,0c22.276,-25.198 44.186,-33.883 44.186,-33.883l5.922,2.442Z" style="fill:#fff;fill-rule:nonzero;"/><path d="M341.029,110.267c-23.832,15.101 -55.869,9.707 -57.883,9.844c-4.586,0.316 -20.842,-5.822 -29.956,-6.194c-2.152,-0.093 -23.27,1.786 -23.769,1.993c-0.93,0.437 -24.478,-0.183 -27.396,0.012c-2.888,0.19 -12.978,-4.407 -15.433,-3.838c-2.916,0.671 -7.114,-1.829 -10.153,-3.174c-3.12,-1.373 1.141,-10.963 2.869,-13.893c0.119,-0.186 14.734,-8.93 36.059,-17.141c15.601,-6.01 33.209,-5.564 34.266,-5.494c3.547,0.218 29.05,2.035 30.216,2.644c0.815,0.432 45.668,11.653 48.207,13.21c0,0 30.028,11.223 12.973,22.031" style="fill:#fff;fill-rule:nonzero;"/><path d="M254.25,126.396c1.724,4.061 0.535,8.35 -2.65,9.579c-3.186,1.229 -7.165,-1.067 -8.885,-5.132c-1.719,-4.057 -0.529,-8.35 2.656,-9.574c3.19,-1.229 7.165,1.066 8.879,5.127" style="fill:#fff;fill-rule:nonzero;"/></g></svg>